<svg width="25" height="25" viewBox="0 0 25 25" fill="none" xmlns="http://www.w3.org/2000/svg">
<path d="M7.76845 1.75676C7.76845 1.26492 7.36973 0.866211 6.8779 0.866211C6.38606 0.866211 5.98735 1.26492 5.98735 1.75676V3.63198C4.2783 3.76883 3.15633 4.1047 2.33204 4.929C1.50775 5.75329 1.17188 6.87526 1.03503 8.58433H24.5947C24.4579 6.87526 24.122 5.75329 23.2977 4.929C22.4734 4.1047 21.3515 3.76883 19.6424 3.63198V1.75676C19.6424 1.26492 19.2437 0.866211 18.7519 0.866211C18.26 0.866211 17.8613 1.26492 17.8613 1.75676V3.55319C17.0714 3.53787 16.1859 3.53787 15.1897 3.53787H10.4401C9.44382 3.53787 8.55838 3.53787 7.76845 3.55319V1.75676Z" fill="#1E5BFA"/>
<path fill-rule="evenodd" clip-rule="evenodd" d="M0.940918 13.0371C0.940918 12.0408 0.940918 11.1554 0.956238 10.3654H24.6735C24.6888 11.1554 24.6888 12.0408 24.6888 13.0371V15.4119C24.6888 19.8899 24.6888 22.1289 23.2977 23.52C21.9066 24.9111 19.6676 24.9111 15.1897 24.9111H10.4401C5.96214 24.9111 3.72316 24.9111 2.33204 23.52C0.940918 22.1289 0.940918 19.8899 0.940918 15.4119V13.0371ZM18.7519 15.4119C19.4076 15.4119 19.9393 14.8803 19.9393 14.2245C19.9393 13.5687 19.4076 13.0371 18.7519 13.0371C18.0961 13.0371 17.5645 13.5687 17.5645 14.2245C17.5645 14.8803 18.0961 15.4119 18.7519 15.4119ZM18.7519 20.1615C19.4076 20.1615 19.9393 19.6299 19.9393 18.9741C19.9393 18.3183 19.4076 17.7867 18.7519 17.7867C18.0961 17.7867 17.5645 18.3183 17.5645 18.9741C17.5645 19.6299 18.0961 20.1615 18.7519 20.1615ZM14.0023 14.2245C14.0023 14.8803 13.4707 15.4119 12.8149 15.4119C12.1591 15.4119 11.6275 14.8803 11.6275 14.2245C11.6275 13.5687 12.1591 13.0371 12.8149 13.0371C13.4707 13.0371 14.0023 13.5687 14.0023 14.2245ZM14.0023 18.9741C14.0023 19.6299 13.4707 20.1615 12.8149 20.1615C12.1591 20.1615 11.6275 19.6299 11.6275 18.9741C11.6275 18.3183 12.1591 17.7867 12.8149 17.7867C13.4707 17.7867 14.0023 18.3183 14.0023 18.9741ZM6.8779 15.4119C7.53368 15.4119 8.06529 14.8803 8.06529 14.2245C8.06529 13.5687 7.53368 13.0371 6.8779 13.0371C6.22212 13.0371 5.6905 13.5687 5.6905 14.2245C5.6905 14.8803 6.22212 15.4119 6.8779 15.4119ZM6.8779 20.1615C7.53368 20.1615 8.06529 19.6299 8.06529 18.9741C8.06529 18.3183 7.53368 17.7867 6.8779 17.7867C6.22212 17.7867 5.6905 18.3183 5.6905 18.9741C5.6905 19.6299 6.22212 20.1615 6.8779 20.1615Z" fill="#1E5BFA"/>
</svg>
