<svg width="46" height="46" viewBox="0 0 46 46" fill="none" xmlns="http://www.w3.org/2000/svg">
<circle cx="22.5801" cy="22.8193" r="22.0833" stroke="#1E5BFA" stroke-width="0.833333" stroke-dasharray="3.33 3.33"/>
<path fill-rule="evenodd" clip-rule="evenodd" d="M22.7551 12.4043C18.2618 12.4043 14.6191 16.4749 14.6191 21.0488C14.6191 25.5868 17.2159 30.5195 21.2673 32.4132C22.2118 32.8547 23.2985 32.8547 24.2429 32.4132C28.2944 30.5195 30.8911 25.5868 30.8911 21.0488C30.8911 16.4749 27.2485 12.4043 22.7551 12.4043ZM22.7551 22.5743C23.8785 22.5743 24.7891 21.6636 24.7891 20.5403C24.7891 19.4169 23.8785 18.5063 22.7551 18.5063C21.6318 18.5063 20.7211 19.4169 20.7211 20.5403C20.7211 21.6636 21.6318 22.5743 22.7551 22.5743Z" fill="#1E5BFA"/>
</svg>
