<svg width="45" height="46" viewBox="0 0 45 46" fill="none" xmlns="http://www.w3.org/2000/svg">
<path fill-rule="evenodd" clip-rule="evenodd" d="M13.2774 15.63C12.0859 16.8215 12.0859 18.7391 12.0859 22.5745C12.0859 26.4098 12.0859 28.3275 13.2774 29.519C14.4689 30.7105 16.3866 30.7105 20.2219 30.7105H24.2899C28.1253 30.7105 30.043 30.7105 31.2344 29.519C32.4259 28.3275 32.4259 26.4098 32.4259 22.5745C32.4259 18.7391 32.4259 16.8215 31.2344 15.63C30.043 14.4385 28.1253 14.4385 24.2899 14.4385H20.2219C16.3866 14.4385 14.4689 14.4385 13.2774 15.63ZM28.9439 18.0182C29.2136 18.3418 29.1699 18.8228 28.8462 19.0924L26.6124 20.954C25.711 21.7052 24.9804 22.314 24.3355 22.7288C23.6638 23.1608 23.0096 23.4337 22.2559 23.4337C21.5023 23.4337 20.8481 23.1608 20.1764 22.7288C19.5315 22.314 18.8009 21.7052 17.8995 20.954L15.6656 19.0924C15.342 18.8228 15.2983 18.3418 15.568 18.0182C15.8377 17.6946 16.3186 17.6508 16.6422 17.9205L18.8378 19.7502C19.7867 20.5409 20.4454 21.088 21.0016 21.4457C21.5399 21.792 21.905 21.9082 22.2559 21.9082C22.6069 21.9082 22.972 21.792 23.5103 21.4457C24.0665 21.088 24.7252 20.5409 25.674 19.7502L27.8696 17.9205C28.1933 17.6508 28.6742 17.6946 28.9439 18.0182Z" fill="#1E5BFA"/>
<circle cx="22.5" cy="22.8193" r="22.0833" stroke="#1E5BFA" stroke-width="0.833333" stroke-dasharray="3.33 3.33"/>
</svg>
