<svg width="46" height="46" viewBox="0 0 46 46" fill="none" xmlns="http://www.w3.org/2000/svg">
<circle cx="23.0801" cy="22.8193" r="22.0833" stroke="#1E5BFA" stroke-width="0.833333" stroke-dasharray="3.33 3.33"/>
<path d="M20.8394 15.777L21.4995 16.9597C22.0952 18.027 21.856 19.4272 20.9179 20.3653C20.9179 20.3654 20.9179 20.3653 20.9179 20.3654C20.9178 20.3655 19.78 21.5034 21.8432 23.5665C23.9057 25.6291 25.0436 24.4926 25.0443 24.4918C25.0444 24.4918 25.0444 24.4918 25.0444 24.4918C25.9825 23.5537 27.3827 23.3145 28.45 23.9102L29.6327 24.5702C31.2443 25.4697 31.4347 27.7299 30.0181 29.1465C29.1668 29.9978 28.124 30.6601 26.9713 30.7038C25.0307 30.7774 21.7351 30.2863 18.4293 26.9804C15.1234 23.6746 14.6323 20.379 14.7059 18.4384C14.7496 17.2857 15.4119 16.2429 16.2632 15.3916C17.6798 13.975 19.94 14.1653 20.8394 15.777Z" fill="#1E5BFA"/>
</svg>
