<svg width="27" height="27" viewBox="0 0 27 27" fill="none" xmlns="http://www.w3.org/2000/svg">
<path fill-rule="evenodd" clip-rule="evenodd" d="M26.5 13.5C26.5 20.6797 20.6797 26.5 13.5 26.5C6.3203 26.5 0.5 20.6797 0.5 13.5C0.5 6.3203 6.3203 0.5 13.5 0.5C20.6797 0.5 26.5 6.3203 26.5 13.5ZM9.56052 9.56054C9.94128 9.17978 10.5586 9.17978 10.9394 9.56054L13.5 12.1211L16.0605 9.56057C16.4413 9.17981 17.0586 9.17981 17.4394 9.56057C17.8201 9.94133 17.8201 10.5587 17.4394 10.9394L14.8788 13.5L17.4393 16.0605C17.8201 16.4413 17.8201 17.0586 17.4393 17.4394C17.0586 17.8201 16.4412 17.8201 16.0605 17.4394L13.5 14.8788L10.9394 17.4394C10.5586 17.8202 9.94131 17.8202 9.56054 17.4394C9.17978 17.0586 9.17978 16.4413 9.56054 16.0605L12.1211 13.5L9.56052 10.9394C9.17976 10.5586 9.17975 9.94131 9.56052 9.56054Z" fill="#303030"/>
</svg>
