<svg width="27" height="32" viewBox="0 0 27 32" fill="none" xmlns="http://www.w3.org/2000/svg">
<path fill-rule="evenodd" clip-rule="evenodd" d="M2.28805 2.34873C0.618164 4.13789 0.618164 7.0175 0.618164 12.7767V18.8853C0.618164 24.6445 0.618164 27.5241 2.28805 29.3133C3.95793 31.1024 6.64556 31.1024 12.0208 31.1024H14.8715C20.2468 31.1024 22.9344 31.1024 24.6043 29.3133C26.2474 27.5528 26.2737 24.7366 26.2742 19.1603L22.2572 23.4642C21.8726 23.8765 21.5577 24.2142 21.2021 24.5114C20.7854 24.8596 20.3345 25.1582 19.8575 25.4018C19.4503 25.6097 19.0276 25.7604 18.5115 25.9445L15.2166 27.1213C14.1496 27.5023 12.9732 27.2048 12.1779 26.3527C11.3827 25.5006 11.105 24.2403 11.4606 23.0971L11.8504 21.8441L12.5276 19.6673L12.5589 19.5669C12.7307 19.0138 12.8715 18.5609 13.0655 18.1247C13.2929 17.6135 13.5715 17.1305 13.8965 16.684C14.1739 16.303 14.4891 15.9655 14.8739 15.5535L20.5844 9.43515L22.1692 7.73721L22.3505 7.54292C23.3702 6.45039 24.7067 5.90428 26.0432 5.90457C25.8276 4.33078 25.4106 3.21263 24.6043 2.34873C22.9344 0.55957 20.2468 0.55957 14.8715 0.55957H12.0208C6.64556 0.55957 3.95793 0.55957 2.28805 2.34873ZM6.67583 11.2496C6.67583 10.617 7.15444 10.1042 7.74483 10.1042H17.0095C17.5999 10.1042 18.0785 10.617 18.0785 11.2496C18.0785 11.8821 17.5999 12.3949 17.0095 12.3949H7.74483C7.15444 12.3949 6.67583 11.8821 6.67583 11.2496ZM6.67583 17.3581C6.67583 16.7256 7.15444 16.2128 7.74483 16.2128H11.3082C11.8986 16.2128 12.3772 16.7256 12.3772 17.3581C12.3772 17.9907 11.8986 18.5035 11.3082 18.5035H7.74483C7.15444 18.5035 6.67583 17.9907 6.67583 17.3581ZM6.67583 23.4667C6.67583 22.8341 7.15444 22.3214 7.74483 22.3214H9.88283C10.4732 22.3214 10.9518 22.8341 10.9518 23.4667C10.9518 24.0993 10.4732 24.6121 9.88283 24.6121H7.74483C7.15444 24.6121 6.67583 24.0993 6.67583 23.4667Z" fill="#ED2025"/>
</svg>
