<svg width="29" height="30" viewBox="0 0 29 30" fill="none" xmlns="http://www.w3.org/2000/svg">
<path d="M27.5509 1.89331C29.0831 3.42553 29.0831 5.90976 27.5509 7.44198L26.8445 8.1483C26.6389 8.10377 26.3799 8.03598 26.0847 7.93357C25.2946 7.65946 24.2562 7.14142 23.2795 6.16469C22.3027 5.18796 21.7847 4.14959 21.5106 3.35948C21.4082 3.06431 21.3404 2.8053 21.2959 2.59963L22.0022 1.89331C23.5344 0.361085 26.0186 0.361085 27.5509 1.89331Z" fill="#AFB940"/>
<path d="M18.1242 16.8687C17.5483 17.4445 17.2604 17.7325 16.9429 17.9801C16.5684 18.2722 16.1632 18.5226 15.7345 18.7269C15.371 18.9002 14.9847 19.0289 14.2121 19.2865L10.138 20.6445C9.75784 20.7712 9.33867 20.6723 9.05529 20.3889C8.7719 20.1055 8.67295 19.6863 8.79968 19.3061L10.1577 15.232C10.4152 14.4595 10.544 14.0732 10.7172 13.7097C10.9215 13.281 11.172 12.8758 11.4641 12.5013C11.7117 12.1838 11.9996 11.8959 12.5755 11.32L19.5825 4.31296C19.9585 5.30241 20.6174 6.52619 21.7677 7.67648C22.918 8.82677 24.1418 9.48566 25.1312 9.86163L18.1242 16.8687Z" fill="#AFB940"/>
<path d="M26.6127 27.1635C28.7 25.0761 28.7 21.7166 28.7 14.9975C28.7 12.7907 28.7 10.9463 28.6261 9.39035L19.5579 18.4586C19.0572 18.9594 18.6811 19.3358 18.2578 19.6659C17.7609 20.0535 17.2232 20.3858 16.6543 20.657C16.1697 20.8879 15.6648 21.0561 14.993 21.2798L10.8141 22.6728C9.66567 23.0556 8.39949 22.7567 7.54349 21.9007C6.68748 21.0447 6.38858 19.7785 6.7714 18.63L8.16433 14.4512C8.38811 13.7793 8.55625 13.2745 8.7872 12.7899C9.05833 12.221 9.39064 11.6833 9.77824 11.1863C10.1084 10.7631 10.4847 10.3869 10.9856 9.88628L20.0538 0.818092C18.4979 0.744141 16.6535 0.744141 14.4467 0.744141C7.72761 0.744141 4.36806 0.744141 2.28071 2.83149C0.193359 4.91885 0.193359 8.27839 0.193359 14.9975C0.193359 21.7166 0.193359 25.0761 2.28071 27.1635C4.36806 29.2508 7.72761 29.2508 14.4467 29.2508C21.1658 29.2508 24.5253 29.2508 26.6127 27.1635Z" fill="#AFB940"/>
</svg>
