<svg width="44" height="44" viewBox="0 0 44 44" fill="none" xmlns="http://www.w3.org/2000/svg">
<path d="M26.7925 15.4417C26.7925 18.1865 24.5674 20.4117 21.8225 20.4117C19.0777 20.4117 16.8525 18.1865 16.8525 15.4417C16.8525 12.6968 19.0777 10.4717 21.8225 10.4717C24.5674 10.4717 26.7925 12.6968 26.7925 15.4417Z" fill="#1E5BFA"/>
<path d="M30.3427 28.221C30.3427 30.9658 26.5282 33.191 21.8227 33.191C17.1173 33.191 13.3027 30.9658 13.3027 28.221C13.3027 25.4761 17.1173 23.251 21.8227 23.251C26.5282 23.251 30.3427 25.4761 30.3427 28.221Z" fill="#1E5BFA"/>
<path d="M14.8954 11.8916C15.1474 11.8916 15.3934 11.9163 15.6309 11.9634C15.0522 12.9913 14.7221 14.1779 14.7221 15.4416C14.7221 16.6745 15.0363 17.834 15.5891 18.8444C15.3645 18.8863 15.1326 18.9082 14.8954 18.9082C12.8869 18.9082 11.2587 17.3375 11.2587 15.3999C11.2587 13.4623 12.8869 11.8916 14.8954 11.8916Z" fill="#1E5BFA"/>
<path d="M12.5173 31.7517C11.7108 30.7877 11.1721 29.6047 11.1721 28.2216C11.1721 26.8808 11.6784 25.7281 12.4441 24.7806C9.73943 24.9903 7.62207 26.4696 7.62207 28.2633C7.62207 30.0739 9.77664 31.564 12.5173 31.7517Z" fill="#1E5BFA"/>
<path d="M28.9225 15.4416C28.9225 16.6745 28.6083 17.834 28.0555 18.8444C28.2801 18.8863 28.512 18.9082 28.7492 18.9082C30.7577 18.9082 32.3859 17.3375 32.3859 15.3999C32.3859 13.4623 30.7577 11.8916 28.7492 11.8916C28.4972 11.8916 28.2512 11.9163 28.0137 11.9634C28.5924 12.9913 28.9225 14.1779 28.9225 15.4416Z" fill="#1E5BFA"/>
<path d="M31.1273 31.7517C33.868 31.564 36.0225 30.0739 36.0225 28.2633C36.0225 26.4696 33.9052 24.9903 31.2005 24.7806C31.9662 25.7281 32.4725 26.8808 32.4725 28.2216C32.4725 29.6047 31.9338 30.7877 31.1273 31.7517Z" fill="#1E5BFA"/>
</svg>
