<svg width="43" height="43" viewBox="0 0 43 43" fill="none" xmlns="http://www.w3.org/2000/svg">
<path d="M13.8809 29.3877H20.8809V22.3877H13.8809V29.3877ZM13.8809 20.6377H20.8809V13.6377H13.8809V20.6377ZM22.6309 29.3877H29.6309V22.3877H22.6309V29.3877ZM22.6309 20.6377H29.6309V13.6377H22.6309V20.6377ZM7.75586 35.5127C6.79336 35.5127 5.9694 35.17 5.28398 34.4846C4.59857 33.7992 4.25586 32.9752 4.25586 32.0127V11.0127C4.25586 10.0502 4.59857 9.22624 5.28398 8.54082C5.9694 7.8554 6.79336 7.5127 7.75586 7.5127H35.7559C36.7184 7.5127 37.5423 7.8554 38.2277 8.54082C38.9132 9.22624 39.2559 10.0502 39.2559 11.0127V32.0127C39.2559 32.9752 38.9132 33.7992 38.2277 34.4846C37.5423 35.17 36.7184 35.5127 35.7559 35.5127H7.75586Z" fill="#1E5BFA"/>
</svg>
