<svg width="43" height="43" viewBox="0 0 43 43" fill="none" xmlns="http://www.w3.org/2000/svg">
<path d="M20.1051 24.6358L30.0363 14.7483L27.5426 12.2546L20.1051 19.6921L16.3863 15.9733L13.9363 18.4233L20.1051 24.6358ZM2.73633 36.7983V33.2983H41.2363V36.7983H2.73633ZM7.98633 31.5483C7.02383 31.5483 6.19987 31.2056 5.51445 30.5202C4.82904 29.8348 4.48633 29.0108 4.48633 28.0483V8.79834C4.48633 7.83584 4.82904 7.01188 5.51445 6.32646C6.19987 5.64105 7.02383 5.29834 7.98633 5.29834H35.9863C36.9488 5.29834 37.7728 5.64105 38.4582 6.32646C39.1436 7.01188 39.4863 7.83584 39.4863 8.79834V28.0483C39.4863 29.0108 39.1436 29.8348 38.4582 30.5202C37.7728 31.2056 36.9488 31.5483 35.9863 31.5483H7.98633Z" fill="#1E5BFA"/>
</svg>
