<svg width="43" height="43" viewBox="0 0 43 43" fill="none" xmlns="http://www.w3.org/2000/svg">
<path d="M11.2305 40.2983C10.268 40.2983 9.44401 39.9556 8.75859 39.2702C8.07318 38.5848 7.73047 37.7608 7.73047 36.7983V5.29834C7.73047 4.33584 8.07318 3.51188 8.75859 2.82646C9.44401 2.14105 10.268 1.79834 11.2305 1.79834H28.7305C29.693 1.79834 30.5169 2.14105 31.2023 2.82646C31.8878 3.51188 32.2305 4.33584 32.2305 5.29834V12.2983H28.7305V10.5483H11.2305V31.5483H28.7305V29.7983H32.2305V36.7983C32.2305 37.7608 31.8878 38.5848 31.2023 39.2702C30.5169 39.9556 29.693 40.2983 28.7305 40.2983H11.2305ZM26.893 28.0483L19.4555 20.6108L21.9055 18.1608L26.893 23.1483L36.7805 13.2608L39.2305 15.7108L26.893 28.0483Z" fill="#1E5BFA"/>
</svg>
