<svg width="43" height="43" viewBox="0 0 43 43" fill="none" xmlns="http://www.w3.org/2000/svg">
<g clip-path="url(#clip0_3167_5908)">
<path d="M30.9434 21.0483H33.5684V18.0733L36.1496 19.5608L37.4621 17.2858L34.8809 15.7983L37.4621 14.3108L36.1496 12.0358L33.5684 13.5233V10.5483H30.9434V13.5233L28.3621 12.0358L27.0496 14.3108L29.6309 15.7983L27.0496 17.2858L28.3621 19.5608L30.9434 18.0733V21.0483ZM4.25586 36.7983C3.29336 36.7983 2.4694 36.4556 1.78398 35.7702C1.09857 35.0848 0.755859 34.2608 0.755859 33.2983V8.79834C0.755859 7.83584 1.09857 7.01188 1.78398 6.32646C2.4694 5.64105 3.29336 5.29834 4.25586 5.29834H39.2559C40.2184 5.29834 41.0423 5.64105 41.7277 6.32646C42.4132 7.01188 42.7559 7.83584 42.7559 8.79834V33.2983C42.7559 34.2608 42.4132 35.0848 41.7277 35.7702C41.0423 36.4556 40.2184 36.7983 39.2559 36.7983H4.25586ZM16.5059 24.5483C17.9642 24.5483 19.2038 24.0379 20.2246 23.0171C21.2454 21.9963 21.7559 20.7567 21.7559 19.2983C21.7559 17.84 21.2454 16.6004 20.2246 15.5796C19.2038 14.5588 17.9642 14.0483 16.5059 14.0483C15.0475 14.0483 13.8079 14.5588 12.7871 15.5796C11.7663 16.6004 11.2559 17.84 11.2559 19.2983C11.2559 20.7567 11.7663 21.9963 12.7871 23.0171C13.8079 24.0379 15.0475 24.5483 16.5059 24.5483ZM4.43086 33.2983H28.5809C27.3559 31.1108 25.6642 29.3973 23.5059 28.1577C21.3475 26.9181 19.0142 26.2983 16.5059 26.2983C13.9975 26.2983 11.6642 26.9181 9.50586 28.1577C7.34753 29.3973 5.65586 31.1108 4.43086 33.2983Z" fill="#1E5BFA"/>
</g>
<defs>
<clipPath id="clip0_3167_5908">
<rect width="42" height="42" fill="white" transform="translate(0.755859 0.0483398)"/>
</clipPath>
</defs>
</svg>
