<svg width="367" height="398" viewBox="0 0 367 398" fill="none" xmlns="http://www.w3.org/2000/svg">
<path d="M267.392 71.4641L150.042 2.45311C147.839 1.157 145.84 1.10297 144.276 1.9748L132.592 8.61066L146.198 19.3652L149.552 18.5446L147.314 297.923C147.262 304.475 151.184 312.119 156.075 314.997L258.842 391.49L258.804 396.153L270.893 389.225L270.892 389.177C272.646 388.034 273.773 385.618 273.801 382.187L276.153 88.5366C276.206 81.9844 272.283 74.3404 267.392 71.4641Z" fill="#999999"/>
<path d="M249.164 96.2626L249.269 83.0776L237.606 91.6948L187.106 70.0537L149.364 42.1177L149.553 18.5406L146.183 19.354L132.601 8.61153L144.279 1.9768C145.848 1.11806 147.829 1.16483 150.043 2.44441L267.384 71.4779C270.613 73.3663 273.405 77.3226 274.902 81.6602L249.164 96.2626Z" fill="#E6E6E6"/>
<path d="M253.092 395.573L135.743 326.562C130.851 323.685 126.929 316.041 126.981 309.489L129.334 15.8383C129.386 9.28616 133.394 6.30551 138.285 9.18298L255.635 78.1928C260.526 81.0703 264.45 88.7143 264.397 95.2665L262.045 388.917C261.992 395.47 257.984 398.45 253.092 395.573Z" fill="#CCCCCC"/>
<path d="M129.566 311.244L131.922 17.1281C131.961 12.3529 134.883 10.1802 138.447 12.2778L255.424 81.0686C258.989 83.165 261.847 88.7362 261.809 93.5115L259.453 387.628C259.414 392.403 256.495 394.576 252.929 392.479L135.952 323.687C132.388 321.591 129.528 316.021 129.566 311.244Z" fill="#333333"/>
<path d="M258.336 96.6058L256.053 381.502C256.019 385.739 253.015 387.391 249.364 385.244L139.614 320.703C135.939 318.541 132.987 313.354 133.021 309.118L135.303 24.2516C135.337 20.0153 138.344 18.3335 142.019 20.4949L162.07 32.2864C162.906 32.7786 163.637 33.8493 163.861 34.9123L164.76 39.1763C165.429 43.258 168.593 47.818 172.32 50.0107L221.255 78.7877C224.983 80.9792 228.214 80.1813 228.918 76.9059L229.876 73.7346C230.115 72.9448 230.856 72.7394 231.693 73.2305L251.769 85.0375C255.42 87.1833 258.37 92.3683 258.336 96.6058Z" fill="#80C5FF"/>
<path d="M233.046 167.127C234.969 168.257 236.502 170.963 236.477 173.191L236.347 185.25C236.322 187.468 234.751 188.357 232.828 187.226L162.464 145.846C160.542 144.716 159.009 142.002 159.032 139.782L159.164 127.723C159.187 125.495 160.76 124.616 162.682 125.746L233.046 167.127Z" fill="#57B2FF"/>
<path d="M232.709 209.311C234.631 210.441 236.164 213.156 236.139 215.375L236.009 227.442C235.984 229.662 234.413 230.541 232.49 229.411L162.127 188.031C160.204 186.901 158.671 184.194 158.695 181.975L158.826 169.907C158.849 167.688 160.422 166.8 162.345 167.931L232.709 209.311Z" fill="#57B2FF"/>
<path d="M127.723 216.961L127.718 216.959L127.881 196.545L127.886 196.548L127.723 216.961Z" fill="#B3B3B3"/>
<path d="M130.309 218.484L127.722 216.96L127.886 196.548L130.473 198.07L130.309 218.484Z" fill="#8F8F8F"/>
<path d="M133.731 220.498L130.31 218.485L130.473 198.071L133.895 200.086L133.731 220.498Z" fill="#242424"/>
<path d="M133.74 220.504L133.731 220.498L133.894 200.085L133.903 200.09L133.74 220.504Z" fill="#5A8AB3"/>
<path d="M235.75 265.378L235.647 275.006C235.596 277.965 233.489 279.159 230.918 277.659L133.741 220.504L133.904 200.091L231.136 257.244C233.705 258.772 235.774 262.393 235.75 265.378Z" fill="#57B2FF"/>
<path d="M178.828 280.693C180.681 281.782 182.165 284.403 182.143 286.542L181.784 319.594C181.762 321.733 180.238 322.576 178.385 321.487L149.753 304.65C147.902 303.559 146.422 300.95 146.445 298.811L146.804 265.76C146.827 263.622 148.343 262.765 150.196 263.855L178.828 280.693Z" fill="#57B2FF"/>
<path d="M232.011 311.912C233.865 313.001 235.342 315.619 235.319 317.757L234.96 350.809C234.937 352.948 233.422 353.797 231.569 352.706L202.938 335.869C201.085 334.78 199.599 332.166 199.622 330.028L199.98 296.975C200.003 294.836 201.527 293.985 203.38 295.074L232.011 311.912Z" fill="#57B2FF"/>
<path d="M231.634 101.194C234.622 102.951 237.016 107.175 236.978 110.632L236.672 138.923C236.634 142.373 234.18 143.745 231.192 141.988L149.929 94.1991C146.941 92.442 144.547 88.2183 144.586 84.769L144.892 56.4766C144.929 53.0202 147.383 51.6462 150.371 53.4045L231.634 101.194Z" fill="#57B2FF"/>
<path d="M128.15 163.655L128.146 163.652L128.59 108.222L128.594 108.224L128.15 163.655Z" fill="#B3B3B3"/>
<path d="M130.736 165.178L128.149 163.656L128.593 108.225L131.18 109.748L130.736 165.178Z" fill="#8F8F8F"/>
<path d="M134.158 167.193L130.737 165.178L131.181 109.748L134.602 111.762L134.158 167.193Z" fill="#242424"/>
<path d="M134.168 167.197L134.158 167.193L134.602 111.761L134.612 111.766L134.168 167.197Z" fill="#5A8AB3"/>
<path d="M143.564 122.464L143.072 167.027C143.049 169.986 140.942 171.151 138.345 169.652L134.168 167.198L134.612 111.767L138.949 114.33C141.546 115.857 143.587 119.505 143.564 122.464Z" fill="#57B2FF"/>
<path d="M176.851 45.9183C176.833 48.1854 175.224 49.0854 173.258 47.9289C171.292 46.7735 169.713 43.9986 169.731 41.7314C169.749 39.4655 171.358 38.5643 173.324 39.7209C175.29 40.8774 176.869 43.6523 176.851 45.9183Z" fill="#666666"/>
<path d="M175.241 44.9717C175.231 46.2133 174.35 46.7072 173.273 46.0742C172.195 45.44 171.329 43.9195 171.339 42.6779C171.349 41.4352 172.231 40.9413 173.309 41.5755C174.386 42.2097 175.251 43.7302 175.241 44.9717Z" fill="#333333"/>
<path d="M213.988 62.6979L179.17 42.2222C178.596 41.8841 178.135 40.9889 178.142 40.2209L178.153 38.8048C178.159 38.0369 178.63 37.6869 179.204 38.0239L214.021 58.5007C214.594 58.8376 215.055 59.734 215.049 60.502L215.037 61.9169C215.031 62.6848 214.561 63.0348 213.988 62.6979Z" fill="black"/>
<path d="M272.523 133.767C271.833 133.358 270.871 133.407 269.805 134.012C267.686 135.213 265.961 138.146 265.949 140.569L265.768 175.474C265.762 176.67 266.181 177.521 266.865 177.926L268.972 179.173C268.287 178.768 267.869 177.917 267.875 176.721L268.055 141.817C268.068 139.393 269.793 136.46 271.911 135.259C272.978 134.655 273.939 134.606 274.63 135.013L272.523 133.767Z" fill="#E6E6E6"/>
<path d="M271.912 135.259C274.031 134.058 275.737 135.048 275.724 137.473L275.544 172.376C275.531 174.778 273.806 177.733 271.687 178.934C269.567 180.135 267.864 179.123 267.875 176.722L268.056 141.818C268.068 139.394 269.794 136.46 271.912 135.259Z" fill="#BFBFBF"/>
<path d="M272.502 139.188C274.24 138.204 275.638 139.015 275.628 141.003L275.479 169.635C275.468 171.604 274.054 174.029 272.316 175.015C270.577 175.999 269.18 175.169 269.19 173.199L269.339 144.568C269.349 142.579 270.763 140.174 272.502 139.188Z" fill="#CCCCCC"/>
<path d="M125.445 42.1603L96.8138 25.3227C95.8827 24.7751 95.038 24.7185 94.4227 25.0685L88.992 28.1671C89.6049 27.8171 90.4508 27.8738 91.3819 28.4213L120.014 45.2589C121.866 46.348 123.352 48.9691 123.329 51.108L122.971 84.1601C122.959 85.2212 122.577 85.9624 121.972 86.3089L127.404 83.2103C128.011 82.8638 128.39 82.1214 128.401 81.0614L128.76 48.0094C128.783 45.8705 127.299 43.2494 125.445 42.1603Z" fill="#8482FF"/>
<path d="M120.015 45.2591C121.866 46.3482 123.353 48.9693 123.33 51.1082L122.971 84.1602C122.948 86.2991 121.424 87.1428 119.572 86.0536L90.9406 69.2161C89.0869 68.1258 87.6097 65.5166 87.6316 63.3789L87.9913 30.3257C88.0132 28.1879 89.53 27.3312 91.3826 28.4215L120.015 45.2591Z" fill="#4D4BB7"/>
<path d="M103.409 58.939L100.649 66.1722L89.4417 59.5821L96.5097 49.779C97.5024 48.4028 99.9446 49.8385 100.906 52.364L103.409 58.939Z" fill="white"/>
<path d="M107.755 70.3492L100.65 66.172L103.41 58.9387L107.755 70.3492Z" fill="#E6E6E6"/>
<path d="M118.96 76.9412L107.753 70.3498L103.409 58.9394L106.897 49.8068C107.944 47.0719 112.035 49.4776 113.028 53.4124L118.96 76.9412Z" fill="white"/>
<path d="M103.564 46.048C103.551 47.6409 102.42 48.2741 101.039 47.4606C99.6569 46.6482 98.5472 44.6985 98.56 43.1044C98.5727 41.5126 99.7031 40.8795 101.085 41.6918C102.467 42.5042 103.576 44.4551 103.564 46.048Z" fill="#E6E6E6"/>
<path d="M230.259 168.78L159.895 127.4C158.929 126.832 158.051 126.771 157.413 127.134L151.982 130.233C152.619 129.87 153.497 129.931 154.463 130.499L224.827 171.878C226.75 173.008 228.283 175.715 228.259 177.942L228.127 190.001C228.116 191.106 227.72 191.881 227.089 192.241L232.521 189.142C233.152 188.782 233.548 188.008 233.56 186.903L233.69 174.843C233.715 172.617 232.182 169.91 230.259 168.78Z" fill="#8482FF"/>
<path d="M224.827 171.88C226.749 173.01 228.282 175.717 228.259 177.944L228.126 190.003C228.104 192.223 226.531 193.11 224.607 191.98L154.245 150.6C152.322 149.47 150.789 146.755 150.813 144.537L150.944 132.476C150.968 130.249 152.539 129.369 154.463 130.5L224.827 171.88Z" fill="#4D4BB7"/>
<path d="M222.421 179.243L157.889 141.109C157.15 140.675 156.545 141.126 156.537 142.116C156.529 143.106 157.122 144.261 157.86 144.695L222.392 182.829C223.13 183.263 223.736 182.813 223.744 181.824C223.752 180.834 223.159 179.679 222.421 179.243Z" fill="white"/>
<path d="M229.921 210.965L159.557 169.586C158.592 169.017 157.714 168.959 157.077 169.322L151.645 172.422C152.282 172.058 153.16 172.117 154.125 172.684L224.489 214.065C226.412 215.195 227.945 217.909 227.921 220.128L227.789 232.196C227.778 233.298 227.383 234.07 226.755 234.429L232.187 231.33C232.816 230.971 233.21 230.199 233.222 229.097L233.352 217.028C233.377 214.81 231.843 212.096 229.921 210.965Z" fill="#8482FF"/>
<path d="M224.489 214.065C226.411 215.195 227.944 217.909 227.921 220.128L227.788 232.196C227.766 234.414 226.193 235.295 224.27 234.163L153.907 192.784C151.984 191.654 150.451 188.948 150.475 186.728L150.606 174.66C150.63 172.441 152.201 171.554 154.125 172.684L224.489 214.065Z" fill="#4D4BB7"/>
<path d="M222.088 220.752L157.556 182.618C156.817 182.184 156.212 182.634 156.204 183.624C156.196 184.614 156.789 185.769 157.527 186.204L222.059 224.338C222.797 224.772 223.403 224.322 223.411 223.332C223.419 222.342 222.826 221.187 222.088 220.752Z" fill="white"/>
<path d="M123.767 251.663L95.136 234.824C94.205 234.278 93.3603 234.221 92.7449 234.571L87.3142 237.67C87.9272 237.319 88.7731 237.376 89.7041 237.923L118.337 254.761C120.188 255.851 121.674 258.472 121.651 260.611L121.293 293.663C121.281 294.723 120.9 295.465 120.294 295.812L125.726 292.712C126.333 292.366 126.713 291.624 126.724 290.564L127.082 257.511C127.105 255.373 125.621 252.752 123.767 251.663Z" fill="#8482FF"/>
<path d="M118.336 254.76C120.188 255.851 121.674 258.472 121.651 260.611L121.293 293.663C121.27 295.801 119.746 296.645 117.893 295.555L89.2619 278.717C87.4081 277.628 85.931 275.018 85.9529 272.88L86.3126 239.828C86.3345 237.689 87.8513 236.834 89.7039 237.923L118.336 254.76Z" fill="#4D4BB7"/>
<path d="M117.302 265.983L117.302 266.029L103.59 267.07L89.818 249.82C89.8223 249.281 90.2039 249.068 90.6717 249.343L116.465 264.512C116.932 264.785 117.306 265.445 117.302 265.983Z" fill="white"/>
<path d="M103.581 268.157L117.293 267.112L117.159 283.796C117.155 284.334 116.774 284.548 116.307 284.274L90.5136 269.105C90.0458 268.83 89.6712 268.172 89.6755 267.633L89.8096 250.897L103.378 267.901L103.581 268.157Z" fill="white"/>
<path d="M228.351 258.906L100.96 183.99C99.6663 183.229 98.4882 183.15 97.6319 183.638L92.2 186.737C93.0563 186.249 94.2344 186.328 95.5293 187.089L222.919 262.005C225.496 263.521 227.553 267.15 227.521 270.123L227.415 279.755C227.4 281.236 226.87 282.274 226.025 282.756L231.457 279.656C232.302 279.174 232.832 278.137 232.848 276.657L232.951 267.025C232.985 264.05 230.928 260.421 228.351 258.906Z" fill="#8482FF"/>
<path d="M222.919 262.005C225.496 263.521 227.552 267.15 227.52 270.123L227.414 279.757C227.382 282.73 225.274 283.918 222.697 282.402L95.3071 207.486C92.7374 205.975 90.6737 202.334 90.7059 199.36L90.8104 189.727C90.8437 186.753 92.9578 185.577 95.5287 187.088L222.919 262.005Z" fill="#4D4BB7"/>
<path d="M219.486 269.24L96.869 196.699C96.1294 196.265 95.5239 196.715 95.516 197.705C95.5081 198.695 96.1007 199.85 96.8403 200.285L219.457 272.826C220.197 273.26 220.802 272.81 220.81 271.82C220.818 270.83 220.226 269.674 219.486 269.24Z" fill="white"/>
<path d="M176.04 282.346L147.408 265.508C146.478 264.962 145.632 264.905 145.018 265.254L139.586 268.354C140.2 268.004 141.045 268.059 141.977 268.607L170.608 285.444C172.459 286.535 173.946 289.156 173.923 291.295L173.564 324.346C173.552 325.407 173.172 326.149 172.567 326.494L177.997 323.396C178.604 323.049 178.985 322.307 178.996 321.247L179.355 288.195C179.378 286.056 177.892 283.435 176.04 282.346Z" fill="#8482FF"/>
<path d="M170.609 285.445C172.46 286.535 173.946 289.156 173.923 291.295L173.565 324.346C173.542 326.485 172.019 327.33 170.165 326.24L141.534 309.402C139.68 308.313 138.203 305.703 138.226 303.564L138.585 270.512C138.608 268.374 140.124 267.518 141.977 268.607L170.609 285.445Z" fill="#4D4BB7"/>
<path d="M144.283 283.411C143.452 282.922 142.768 283.305 142.761 284.264L142.656 297.357C142.648 298.316 143.319 299.495 144.151 299.984L167.799 313.891C168.631 314.381 169.315 313.998 169.322 313.038L169.427 299.946C169.435 298.986 168.764 297.808 167.932 297.319L144.283 283.411ZM167.79 315.134L144.141 301.226C142.715 300.388 141.565 298.366 141.578 296.722L141.683 283.63C141.696 281.986 142.867 281.329 144.293 282.168L167.942 296.075C169.369 296.914 170.519 298.935 170.506 300.581L170.401 313.673C170.388 315.317 169.217 315.972 167.79 315.134Z" fill="white"/>
<path d="M156.089 292.79C153.216 291.099 150.856 292.419 150.829 295.732C150.802 299.043 153.12 303.113 155.992 304.804C158.866 306.494 161.224 305.174 161.251 301.861C161.277 298.548 158.962 294.479 156.089 292.79ZM155.982 306.046C152.516 304.007 149.719 299.095 149.751 295.098C149.783 291.1 152.632 289.506 156.099 291.547C159.568 293.585 162.363 298.496 162.331 302.494C162.299 306.493 159.451 308.087 155.982 306.046Z" fill="white"/>
<path d="M149.733 285.138L162.509 292.651L162.524 290.757C162.527 290.361 162.252 289.877 161.909 289.676L150.373 282.892C150.032 282.691 149.752 282.848 149.748 283.244L149.733 285.138ZM163.578 294.529L148.645 285.748L148.67 282.608C148.678 281.529 149.446 281.099 150.383 281.65L161.919 288.435C162.856 288.985 163.611 290.311 163.603 291.39L163.578 294.529Z" fill="white"/>
<path d="M229.224 313.565L200.592 296.728C199.66 296.18 198.812 296.124 198.194 296.475L192.763 299.573C193.379 299.222 194.228 299.279 195.16 299.828L223.793 316.665C225.645 317.754 227.124 320.371 227.101 322.511L226.742 355.563C226.73 356.624 226.35 357.369 225.743 357.715L231.175 354.617C231.782 354.27 232.162 353.526 232.174 352.463L232.531 319.412C232.554 317.273 231.077 314.656 229.224 313.565Z" fill="#8482FF"/>
<path d="M223.793 316.665C225.645 317.754 227.123 320.371 227.1 322.511L226.742 355.563C226.719 357.702 225.202 358.549 223.349 357.46L194.718 340.622C192.866 339.532 191.38 336.919 191.402 334.78L191.762 301.728C191.784 299.59 193.308 298.737 195.16 299.828L223.793 316.665Z" fill="#4D4BB7"/>
<path d="M209.479 315.829C202.936 311.981 197.591 313.921 197.541 320.163C197.509 324.205 199.712 329.054 203.041 333.019C202.877 334.072 202.174 336.278 199.181 334.555C199.181 334.555 203.297 339.167 207.249 337.044C207.915 337.549 208.598 338.02 209.298 338.431C215.843 342.281 221.188 340.341 221.238 334.099C221.288 327.857 216.024 319.679 209.479 315.829Z" fill="white"/>
<path d="M228.848 102.849L147.584 55.0585C146.081 54.1752 144.714 54.0835 143.721 54.6501L138.289 57.7487C139.281 57.1821 140.65 57.2738 142.152 58.1571L223.415 105.948C226.404 107.703 228.797 111.927 228.759 115.385L228.452 143.677C228.434 145.391 227.819 146.591 226.837 147.151L232.27 144.052C233.25 143.492 233.865 142.293 233.884 140.579L234.19 112.286C234.229 108.83 231.835 104.605 228.848 102.849Z" fill="#8482FF"/>
<path d="M223.415 105.948C226.404 107.704 228.798 111.927 228.759 115.385L228.452 143.677C228.415 147.127 225.961 148.499 222.973 146.742L141.708 98.9518C138.722 97.1947 136.328 92.9722 136.365 89.5229L136.672 61.2293C136.71 57.7729 139.164 56.4013 142.152 58.1572L223.415 105.948Z" fill="#4D4BB7"/>
<path d="M221.308 112.722L144.688 67.4809C143.949 67.0464 143.343 67.4974 143.335 68.4873C143.327 69.4773 143.92 70.6323 144.66 71.0668L221.279 116.307C222.019 116.741 222.624 116.292 222.632 115.302C222.64 114.312 222.048 113.156 221.308 112.722Z" fill="white"/>
<path d="M221.222 123.409L144.602 78.1674C143.863 77.7329 143.257 78.1827 143.249 79.1727C143.242 80.1638 143.834 81.3188 144.574 81.7533L221.194 126.994C221.933 127.428 222.539 126.978 222.546 125.988C222.554 124.998 221.962 123.842 221.222 123.409Z" fill="white"/>
<path d="M221.137 134.094L144.518 88.8529C143.778 88.4185 143.172 88.8683 143.165 89.8582C143.157 90.8493 143.749 92.0044 144.489 92.4388L221.109 137.679C221.848 138.114 222.454 137.664 222.462 136.674C222.469 135.684 221.877 134.528 221.137 134.094Z" fill="white"/>
<path d="M136.169 115.997L95.0692 91.8279C93.7731 91.0637 92.5927 90.9854 91.7352 91.4747L86.3033 94.5734C87.1596 94.084 88.3401 94.1635 89.6385 94.9265L130.737 119.096C133.314 120.611 135.376 124.251 135.344 127.219L134.861 171.768C134.845 173.241 134.317 174.274 133.472 174.755L138.903 171.656C139.747 171.175 140.278 170.142 140.293 168.669L140.776 124.12C140.809 121.153 138.746 117.512 136.169 115.997Z" fill="#8482FF"/>
<path d="M130.737 119.097C133.314 120.612 135.377 124.252 135.345 127.22L134.862 171.769C134.83 174.735 132.714 175.918 130.136 174.403L89.038 150.234C86.4612 148.719 84.3988 145.078 84.4308 142.111L84.9136 97.5618C84.9468 94.5956 87.061 93.4112 89.639 94.9276L130.737 119.097Z" fill="#4D4BB7"/>
<path d="M105.229 139.874L105.338 126.307L115.476 139.089L105.229 139.874ZM108.601 119.707C101.368 115.454 95.4564 118.761 95.3895 127.101C95.3228 135.433 101.127 145.636 108.36 149.89C115.588 154.14 121.505 150.83 121.572 142.497C121.638 134.158 115.83 123.958 108.601 119.707Z" fill="white"/>
<path d="M332.036 46.7825C325.311 42.8279 319.185 42.4156 314.74 44.9536L307.718 48.9583C312.166 46.4215 318.292 46.8327 325.016 50.7872C338.395 58.6554 349.097 77.5407 348.93 92.9854C348.846 100.642 346.099 106.012 341.714 108.512L348.735 104.508C353.12 102.006 355.867 96.6377 355.949 88.9806C356.118 73.5348 345.415 54.6507 332.036 46.7825Z" fill="#4D4D4D"/>
<path d="M325.015 50.7876C338.395 58.6546 349.097 77.5399 348.93 92.9846C348.763 108.406 337.789 114.543 324.41 106.674C311.052 98.8183 300.329 79.9222 300.496 64.5024C300.664 49.0565 311.657 42.9315 325.015 50.7876Z" fill="black"/>
<path d="M321.651 85.5422L321.778 69.7636L333.568 84.6275L321.651 85.5422ZM325.575 62.0888C317.164 57.1414 310.288 60.9894 310.211 70.6859C310.133 80.3752 316.882 92.2418 325.294 97.1892C333.698 102.131 340.58 98.2803 340.658 88.5909C340.735 78.8932 333.979 67.0314 325.575 62.0888Z" fill="white"/>
<path d="M343.019 128.622L320.274 115.246C316.699 113.143 313.446 112.926 311.086 114.272L304.067 118.277C306.426 116.931 309.678 117.149 313.254 119.25L336 132.628C343.079 136.79 348.76 146.818 348.672 154.989L348.387 181.272C348.344 185.332 346.883 188.177 344.558 189.505L351.577 185.5C353.904 184.174 355.363 181.326 355.407 177.266L355.694 150.984C355.782 142.814 350.099 132.785 343.019 128.622Z" fill="#FFD166"/>
<path d="M336 132.629C343.079 136.792 348.76 146.82 348.672 154.991L348.387 181.273C348.299 189.444 342.472 192.703 335.393 188.541L312.647 175.165C305.547 170.989 299.865 160.961 299.953 152.79L300.239 126.507C300.327 118.336 306.154 115.077 313.254 119.252L336 132.629Z" fill="#FFAD66"/>
<path d="M321.054 160.21L321.18 144.431L332.971 159.295L321.054 160.21ZM324.977 136.756C316.566 131.81 309.691 135.656 309.613 145.353C309.535 155.043 316.285 166.909 324.696 171.857C333.1 176.799 339.982 172.948 340.06 163.26C340.138 153.562 333.381 141.699 324.977 136.756Z" fill="white"/>
<path d="M352.488 215.252L309.893 190.203C309.088 189.729 308.348 189.679 307.809 189.986L300.789 193.991C301.326 193.684 302.067 193.734 302.874 194.208L345.468 219.257C347.084 220.207 348.37 222.477 348.351 224.344L347.818 273.515C347.807 274.428 347.479 275.069 346.954 275.369L353.975 271.364C354.499 271.065 354.829 270.423 354.838 269.51L355.371 220.339C355.392 218.472 354.106 216.203 352.488 215.252Z" fill="#8482FF"/>
<path d="M345.467 219.258C347.084 220.209 348.37 222.478 348.35 224.345L347.817 273.516C347.797 275.359 346.479 276.097 344.862 275.146L302.266 250.096C300.67 249.157 299.364 246.876 299.383 245.033L299.916 195.863C299.937 193.996 301.276 193.27 302.873 194.209L345.467 219.258Z" fill="#4D4BB7"/>
<path d="M320.41 240.505L320.536 224.727L332.327 239.591L320.41 240.505ZM324.334 217.053C315.922 212.106 309.047 215.952 308.969 225.65C308.892 235.338 315.641 247.206 324.052 252.152C332.456 257.095 339.339 253.245 339.417 243.555C339.494 233.858 332.738 221.994 324.334 217.053Z" fill="white"/>
<path fill-rule="evenodd" clip-rule="evenodd" d="M340.121 279.154L340.147 275.91L335.658 273.27L335.632 276.515L340.121 279.154Z" fill="#231F20"/>
<path fill-rule="evenodd" clip-rule="evenodd" d="M348.17 283.889L348.196 280.643L343.707 278.005L343.681 281.248L348.17 283.889Z" fill="#231F20"/>
<path fill-rule="evenodd" clip-rule="evenodd" d="M356.661 288.83L355.324 284.837L351.417 282.537L351.877 286.068C353.478 287.009 355.088 287.964 356.661 288.83Z" fill="#231F20"/>
<path fill-rule="evenodd" clip-rule="evenodd" d="M315.94 264.934L315.966 261.69L311.478 259.05L311.452 262.293L315.94 264.934Z" fill="#231F20"/>
<path fill-rule="evenodd" clip-rule="evenodd" d="M323.989 269.668L324.015 266.425L319.527 263.785L319.501 267.029L323.989 269.668Z" fill="#231F20"/>
<path fill-rule="evenodd" clip-rule="evenodd" d="M332.013 274.386L332.039 271.143L327.552 268.503L327.526 271.747L332.013 274.386Z" fill="#231F20"/>
<path fill-rule="evenodd" clip-rule="evenodd" d="M293.754 245.486L296.456 245.089L296.483 240.577L293.661 239.959C293.655 241.811 293.676 243.651 293.754 245.486Z" fill="#231F20"/>
<path fill-rule="evenodd" clip-rule="evenodd" d="M299.261 254.984L300.975 252.871C299.671 252.094 298.394 250.646 297.553 249.007L295.162 250.229C296.188 252.215 297.71 253.982 299.261 254.984Z" fill="#231F20"/>
<path fill-rule="evenodd" clip-rule="evenodd" d="M307.776 260.132L307.962 256.983L304.054 254.685L302.973 257.302L307.776 260.132Z" fill="#231F20"/>
<path fill-rule="evenodd" clip-rule="evenodd" d="M293.844 216.891L296.658 218.546L296.7 213.371L293.886 211.716L293.844 216.891Z" fill="#231F20"/>
<path fill-rule="evenodd" clip-rule="evenodd" d="M293.77 226.172L296.584 227.826L296.626 222.652L293.811 220.998L293.77 226.172Z" fill="#231F20"/>
<path fill-rule="evenodd" clip-rule="evenodd" d="M293.696 235.493L296.512 236.946L296.552 231.901L293.738 230.247L293.696 235.493Z" fill="#231F20"/>
<path fill-rule="evenodd" clip-rule="evenodd" d="M294.068 189.014L296.882 190.669L296.92 185.976L294.111 183.578L294.068 189.014Z" fill="#231F20"/>
<path fill-rule="evenodd" clip-rule="evenodd" d="M293.994 198.297L296.808 199.951L296.849 194.776L294.035 193.121L293.994 198.297Z" fill="#231F20"/>
<path fill-rule="evenodd" clip-rule="evenodd" d="M293.92 207.545L296.735 209.199L296.776 204.025L293.962 202.371L293.92 207.545Z" fill="#231F20"/>
<path fill-rule="evenodd" clip-rule="evenodd" d="M306.138 177.2L306.699 180.789L310.808 183.206L310.834 179.962L306.138 177.2Z" fill="#231F20"/>
<path fill-rule="evenodd" clip-rule="evenodd" d="M297.727 173.038L299.744 177.167C300.952 177.199 302.311 178.26 303.597 178.964L302.337 174.999C300.772 174.185 299.174 173.041 297.727 173.038Z" fill="#231F20"/>
<path fill-rule="evenodd" clip-rule="evenodd" d="M294.19 179.16L296.95 182.345C296.962 181.597 296.948 180.833 296.982 180.1C297.027 179.374 297.212 178.74 297.519 178.254L295.031 174.366C294.646 174.939 294.402 175.681 294.316 176.525C294.241 177.376 294.226 178.268 294.19 179.16Z" fill="#231F20"/>
<path fill-rule="evenodd" clip-rule="evenodd" d="M330.526 191.542L330.5 194.786L334.989 197.425L335.015 194.181L330.526 191.542Z" fill="#231F20"/>
<path fill-rule="evenodd" clip-rule="evenodd" d="M322.475 186.807L322.449 190.051L326.937 192.69L326.963 189.448L322.475 186.807Z" fill="#231F20"/>
<path fill-rule="evenodd" clip-rule="evenodd" d="M314.451 182.089L314.425 185.333L318.914 187.974L318.94 184.73L314.451 182.089Z" fill="#231F20"/>
<path fill-rule="evenodd" clip-rule="evenodd" d="M355.043 205.963L354.062 208.643C355.364 209.42 356.668 210.148 357.969 210.966L359.758 208.923C358.215 207.876 356.642 206.927 355.043 205.963Z" fill="#231F20"/>
<path fill-rule="evenodd" clip-rule="evenodd" d="M346.655 201.028L346.629 204.272L350.961 206.818L351.23 203.717L346.655 201.028Z" fill="#231F20"/>
<path fill-rule="evenodd" clip-rule="evenodd" d="M338.632 196.309L338.606 199.553L343.094 202.192L343.12 198.95L338.632 196.309Z" fill="#231F20"/>
<path fill-rule="evenodd" clip-rule="evenodd" d="M364.822 232.758L362.008 231.103L361.966 236.276L364.781 237.931L364.822 232.758Z" fill="#231F20"/>
<path fill-rule="evenodd" clip-rule="evenodd" d="M364.894 223.073L362.076 222.559L362.04 227.063L364.855 228.613L364.894 223.073Z" fill="#231F20"/>
<path fill-rule="evenodd" clip-rule="evenodd" d="M363.093 212.802L360.756 214.122C361.689 215.725 362.167 217.538 362.104 219.009L364.831 218.721C364.835 216.93 364.223 214.748 363.093 212.802Z" fill="#231F20"/>
<path fill-rule="evenodd" clip-rule="evenodd" d="M364.598 260.632L361.784 258.978L361.743 264.152L364.557 265.807L364.598 260.632Z" fill="#231F20"/>
<path fill-rule="evenodd" clip-rule="evenodd" d="M364.673 251.353L361.858 249.698L361.817 254.871L364.631 256.526L364.673 251.353Z" fill="#231F20"/>
<path fill-rule="evenodd" clip-rule="evenodd" d="M364.747 242.102L361.932 240.448L361.891 245.622L364.705 247.277L364.747 242.102Z" fill="#231F20"/>
<path fill-rule="evenodd" clip-rule="evenodd" d="M363.765 288.81L361.226 284.984C360.725 286.092 359.682 286.601 358.448 286.369L360.394 290.504C361.868 290.728 363.126 290.11 363.765 288.81Z" fill="#231F20"/>
<path fill-rule="evenodd" clip-rule="evenodd" d="M364.447 279.454L361.638 277.16L361.602 281.666L364.348 284.929C364.42 283.154 364.435 281.302 364.447 279.454Z" fill="#231F20"/>
<path fill-rule="evenodd" clip-rule="evenodd" d="M364.524 269.978L361.71 268.323L361.668 273.499L364.483 275.154L364.524 269.978Z" fill="#231F20"/>
<path d="M17.6202 89.1741L8.94824 94.1211L9.03185 94.0577L17.7038 89.1106L17.6202 89.1741Z" fill="black"/>
<path d="M2.93457 28.3281L13.2596 22.4375L13.3477 22.4014L3.02246 28.292L2.93457 28.3281Z" fill="#4D4BB7"/>
<path d="M42.1988 44.71L31.874 50.6006L31.9457 50.5466L42.2716 44.656L42.1988 44.71Z" fill="#4D4BB7"/>
</svg>
