<svg width="388" height="381" viewBox="0 0 388 381" fill="none" xmlns="http://www.w3.org/2000/svg">
<path d="M273.563 327.846L176.43 271.787C174.351 270.587 174.611 268.49 177.013 267.104L182.526 263.921C184.927 262.534 188.559 262.384 190.638 263.584L287.77 319.644C289.85 320.844 289.588 322.94 287.187 324.326L281.673 327.511C279.273 328.896 275.641 329.046 273.563 327.846Z" fill="#707070"/>
<path d="M283.116 52.4216L193.737 0.817963C192.058 -0.150452 190.543 -0.178101 189.363 0.491211L180.546 5.59296L190.926 13.6631L193.463 13.0195V224.824C193.463 229.791 196.484 235.562 200.209 237.713L278.578 295.078V298.613L287.7 293.288V293.253C289.023 292.374 289.862 290.535 289.862 287.935V65.3111C289.862 60.3427 286.842 54.5726 283.116 52.4216Z" fill="#707070"/>
<path d="M269.45 71.3311V61.3349L260.659 67.9381L222.246 51.8393L193.464 30.8914V13.0166L190.914 13.6544L180.554 5.59307L189.366 0.49234C190.55 -0.168083 192.052 -0.145378 193.737 0.811195L283.11 52.4316C285.57 53.8432 287.712 56.8265 288.872 60.1059L269.45 71.3311Z" fill="#E6E6E6"/>
<path d="M274.244 298.207L184.865 246.605C181.14 244.453 178.119 238.681 178.119 233.715V11.0901C178.119 6.12265 181.14 3.83929 184.865 5.99036L274.244 57.593C277.97 59.7451 280.99 65.5151 280.99 70.4826V293.107C280.99 298.074 277.97 300.358 274.244 298.207Z" fill="#CCCCCC"/>
<path d="M180.091 235.03V12.0522C180.091 8.43222 182.293 6.7688 185.008 8.33646L274.103 59.7752C276.817 61.3428 279.019 65.5482 279.019 69.1682V292.146C279.019 295.766 276.817 297.431 274.103 295.863L185.008 244.424C182.293 242.857 180.091 238.65 180.091 235.03Z" fill="#333333"/>
<path d="M276.405 71.5351V287.521C276.405 290.735 274.137 292.005 271.356 290.4L187.765 242.138C184.967 240.522 182.697 236.609 182.697 233.396V17.4329C182.697 14.2206 184.967 12.9275 187.765 14.5435L203.036 23.3599C203.674 23.7281 204.234 24.5357 204.411 25.3402L205.119 28.5673C205.651 31.6581 208.077 35.0955 210.917 36.7342L248.186 58.2526C251.026 59.8923 253.471 59.2675 253.984 56.7798L254.691 54.3701C254.868 53.7689 255.428 53.6089 256.065 53.9772L271.356 62.8055C274.137 64.4106 276.405 68.3218 276.405 71.5351Z" fill="#80C5FF"/>
<path d="M214.324 33.6056C214.324 35.3233 213.11 36.0153 211.612 35.1515C210.115 34.2868 208.901 32.192 208.901 30.4743C208.901 28.7556 210.115 28.0636 211.612 28.9284C213.11 29.7932 214.324 31.8869 214.324 33.6056Z" fill="#666666"/>
<path d="M213.098 32.8981C213.098 33.8399 212.433 34.2189 211.612 33.7451C210.791 33.2712 210.126 32.1231 210.126 31.1824C210.126 30.2406 210.791 29.8615 211.612 30.3344C212.433 30.8082 213.098 31.9553 213.098 32.8981Z" fill="#333333"/>
<path d="M242.579 46.0996L216.059 30.7885C215.622 30.5368 215.269 29.8606 215.269 29.2781V28.2051C215.269 27.6226 215.622 27.3551 216.059 27.6068L242.579 42.9179C243.015 43.1697 243.369 43.8468 243.369 44.4283V45.5014C243.369 46.0848 243.015 46.3523 242.579 46.0996Z" fill="black"/>
<path d="M287.386 99.6204C286.859 99.3154 286.13 99.3578 285.327 99.8228C283.728 100.746 282.437 102.98 282.443 104.818L282.517 131.279C282.52 132.185 282.843 132.828 283.364 133.131L284.97 134.064C284.448 133.761 284.126 133.118 284.123 132.212L284.048 105.751C284.043 103.913 285.332 101.679 286.931 100.756C287.736 100.291 288.464 100.247 288.99 100.553L287.386 99.6204Z" fill="#E6E6E6"/>
<path d="M286.93 100.756C288.53 99.8325 289.828 100.572 289.833 102.41L289.908 128.87C289.913 130.692 288.623 132.942 287.024 133.865C285.425 134.788 284.127 134.032 284.122 132.212L284.047 105.751C284.042 103.913 285.331 101.68 286.93 100.756Z" fill="#BFBFBF"/>
<path d="M287.401 103.731C288.713 102.974 289.778 103.58 289.782 105.088L289.845 126.794C289.849 128.287 288.79 130.133 287.478 130.89C286.166 131.647 285.101 131.028 285.097 129.534L285.036 107.828C285.032 106.32 286.089 104.488 287.401 103.731Z" fill="#CCCCCC"/>
<path d="M340.608 145.84L267.205 103.461C265.915 102.716 264.744 102.647 263.899 103.14L260.205 105.285C261.052 104.793 262.222 104.862 263.513 105.608L336.915 147.985C339.491 149.473 341.558 153.066 341.549 156.013L341.081 321.153C341.077 322.616 340.563 323.645 339.731 324.128L343.423 321.982C344.255 321.499 344.769 320.47 344.773 319.007L345.242 153.867C345.251 150.92 343.183 147.327 340.608 145.84Z" fill="white"/>
<path d="M341.549 156.014L341.522 166.747L341.085 321.158C341.072 324.103 339 325.291 336.421 323.804L263.021 281.416C260.444 279.943 258.37 276.357 258.384 273.411L258.82 119L258.847 108.266C258.861 105.321 260.948 104.121 263.512 105.608L336.912 147.98C339.49 149.467 341.562 153.068 341.549 156.014Z" fill="#CCCCCC"/>
<path d="M339.477 158.94L339.451 169.138L339.036 315.851C339.022 318.651 337.053 319.778 334.605 318.365L264.863 278.091C262.414 276.692 260.444 273.283 260.457 270.484L260.872 123.771L260.898 113.573C260.91 110.774 262.893 109.634 265.33 111.046L335.07 151.307C337.52 152.72 339.489 156.141 339.477 158.94Z" fill="white"/>
<path d="M285.441 148.984C286.754 149.742 287.815 151.579 287.81 153.084L287.747 175.675C287.742 177.18 286.675 177.789 285.362 177.031L264.424 164.942C263.111 164.184 262.051 162.347 262.054 160.842L262.119 138.251C262.123 136.746 263.191 136.138 264.504 136.896L285.441 148.984Z" fill="#CCCCCC"/>
<path d="M272.591 159.624V152.744L277.785 159.184L272.591 159.624ZM274.221 149.384C270.535 147.256 267.552 148.958 267.552 153.186C267.552 157.412 270.535 162.562 274.221 164.69C277.902 166.814 280.889 165.112 280.889 160.887C280.889 156.658 277.902 151.51 274.221 149.384Z" fill="#4D4BB7"/>
<path d="M279.704 192.808C280.648 193.352 281.413 194.675 281.409 195.76L281.362 212.521C281.359 213.605 280.59 214.039 279.646 213.495L265.059 205.072C264.116 204.528 263.355 203.211 263.358 202.127L263.407 185.365C263.409 184.281 264.175 183.841 265.119 184.386L279.704 192.808Z" fill="#CCCCCC"/>
<path d="M271.341 199.811L269.971 203.49L264.262 200.194L267.806 195.195C268.303 194.493 269.547 195.212 270.045 196.487L271.341 199.811Z" fill="#57B2FF"/>
<path d="M273.589 205.58L269.97 203.49L271.34 199.811L273.589 205.58Z" fill="#4D4BB7"/>
<path d="M279.297 208.876L273.589 205.58L271.34 199.811L273.072 195.166C273.592 193.775 275.676 194.979 276.195 196.969L279.297 208.876Z" fill="#57B2FF"/>
<path d="M271.367 193.274C271.367 194.083 270.797 194.408 270.092 194.002C269.388 193.595 268.817 192.611 268.817 191.803C268.817 190.996 269.388 190.67 270.092 191.077C270.797 191.482 271.367 192.467 271.367 193.274Z" fill="#4D4BB7"/>
<path d="M333.365 175.366C334.344 175.931 335.133 177.297 335.13 178.427L335.112 184.542C335.108 185.668 334.315 186.125 333.335 185.559L297.49 164.862C296.51 164.297 295.722 162.927 295.725 161.802L295.741 155.686C295.744 154.557 296.539 154.105 297.517 154.67L333.365 175.366Z" fill="#CCCCCC"/>
<path d="M332.175 179.111L299.299 160.037C298.922 159.82 298.617 160.05 298.617 160.552C298.617 161.055 298.922 161.637 299.299 161.855L332.175 180.929C332.551 181.147 332.856 180.916 332.856 180.413C332.856 179.912 332.551 179.328 332.175 179.111Z" fill="#4D4BB7"/>
<path d="M333.365 196.757C334.344 197.323 335.133 198.692 335.13 199.817L335.112 205.937C335.108 207.063 334.315 207.515 333.335 206.95L297.49 186.254C296.51 185.689 295.722 184.322 295.725 183.197L295.741 177.077C295.744 175.952 296.539 175.495 297.517 176.061L333.365 196.757Z" fill="#CCCCCC"/>
<path d="M332.175 200.159L299.299 181.084C298.922 180.867 298.617 181.098 298.617 181.601C298.617 182.102 298.922 182.686 299.299 182.903L332.175 201.977C332.551 202.194 332.856 201.963 332.856 201.461C332.856 200.959 332.551 200.377 332.175 200.159Z" fill="#4D4BB7"/>
<path d="M279.704 232.054C280.648 232.599 281.413 233.923 281.409 235.008L281.362 251.768C281.359 252.853 280.59 253.286 279.646 252.741L265.059 244.32C264.116 243.775 263.355 242.458 263.358 241.374L263.407 224.613C263.409 223.529 264.175 223.088 265.119 223.633L279.704 232.054Z" fill="#CCCCCC"/>
<path d="M279.226 237.749V237.773L272.277 238.356L265.225 229.665C265.225 229.393 265.417 229.283 265.655 229.42L278.795 237.007C279.033 237.144 279.226 237.477 279.226 237.749Z" fill="#4D4BB7"/>
<path d="M272.277 238.907L279.226 238.321V246.781C279.226 247.055 279.033 247.164 278.795 247.026L265.655 239.441C265.417 239.303 265.225 238.97 265.225 238.698V230.211L272.172 238.777L272.277 238.907Z" fill="#4D4BB7"/>
<path d="M332.764 299.445C334.075 300.203 335.134 302.034 335.13 303.543L335.115 308.427C335.111 309.936 334.047 310.547 332.734 309.789L267.836 272.319C266.527 271.563 265.465 269.726 265.469 268.217L265.484 263.333C265.488 261.825 266.556 261.22 267.865 261.976L332.764 299.445Z" fill="#CCCCCC"/>
<path d="M331.053 303.127L268.584 266.844C268.207 266.626 267.901 266.856 267.901 267.359C267.901 267.861 268.207 268.445 268.584 268.661L331.053 304.946C331.43 305.163 331.734 304.933 331.734 304.43C331.734 303.929 331.43 303.345 331.053 303.127Z" fill="#4D4BB7"/>
<path d="M306.334 247.4C307.278 247.945 308.042 249.268 308.039 250.353L307.991 267.113C307.988 268.198 307.219 268.632 306.275 268.087L291.689 259.666C290.745 259.121 289.984 257.803 289.988 256.719L290.036 239.959C290.039 238.875 290.804 238.434 291.748 238.979L306.334 247.4Z" fill="#CCCCCC"/>
<path d="M292.978 246.478C292.555 246.233 292.209 246.429 292.209 246.916V253.555C292.209 254.042 292.555 254.636 292.978 254.881L305.026 261.836C305.449 262.081 305.795 261.884 305.795 261.398V254.758C305.795 254.273 305.449 253.678 305.026 253.433L292.978 246.478ZM305.026 262.467L292.978 255.511C292.25 255.091 291.66 254.071 291.66 253.237V246.598C291.66 245.764 292.25 245.427 292.978 245.847L305.026 252.803C305.752 253.222 306.343 254.242 306.343 255.076V261.715C306.343 262.549 305.752 262.887 305.026 262.467Z" fill="#4D4BB7"/>
<path d="M299.002 251.183C297.538 250.338 296.348 251.018 296.348 252.698C296.348 254.377 297.538 256.431 299.002 257.276C300.466 258.122 301.658 257.442 301.658 255.763C301.658 254.084 300.466 252.029 299.002 251.183ZM299.002 257.907C297.235 256.887 295.798 254.408 295.798 252.38C295.798 250.353 297.235 249.533 299.002 250.554C300.768 251.573 302.206 254.053 302.206 256.08C302.206 258.108 300.768 258.927 299.002 257.907Z" fill="#4D4BB7"/>
<path d="M295.747 247.33L302.256 251.088V250.127C302.256 249.927 302.114 249.683 301.941 249.581L296.064 246.189C295.889 246.088 295.747 246.168 295.747 246.369V247.33ZM302.805 252.035L295.198 247.642V246.052C295.198 245.504 295.586 245.283 296.064 245.558L301.941 248.952C302.417 249.227 302.805 249.897 302.805 250.444V252.035Z" fill="#4D4BB7"/>
<path d="M333.428 263.016C334.371 263.56 335.133 264.881 335.13 265.966L335.082 282.726C335.078 283.811 334.313 284.246 333.369 283.702L318.783 275.281C317.839 274.737 317.076 273.417 317.079 272.332L317.127 255.572C317.128 254.487 317.898 254.05 318.842 254.593L333.428 263.016Z" fill="#CCCCCC"/>
<path d="M326.168 262.651C322.835 260.725 320.132 261.731 320.132 264.896C320.132 266.945 321.269 269.395 322.973 271.392C322.894 271.927 322.547 273.048 321.022 272.187C321.022 272.187 323.128 274.508 325.123 273.417C325.464 273.67 325.811 273.906 326.168 274.112C329.502 276.036 332.205 275.031 332.205 271.865C332.205 268.7 329.502 264.575 326.168 262.651Z" fill="#4D4BB7"/>
<path d="M332.382 223.161C333.904 224.038 335.135 226.17 335.13 227.924L335.088 242.27C335.083 244.02 333.845 244.725 332.323 243.847L290.924 219.945C289.402 219.066 288.17 216.934 288.175 215.185L288.216 200.838C288.221 199.085 289.46 198.379 290.982 199.258L332.382 223.161Z" fill="#CCCCCC"/>
<path d="M331.341 226.604L292.306 203.976C291.93 203.758 291.625 203.99 291.625 204.49C291.625 204.993 291.93 205.576 292.306 205.794L331.341 228.422C331.717 228.639 332.022 228.408 332.022 227.906C332.022 227.404 331.717 226.822 331.341 226.604Z" fill="#4D4BB7"/>
<path d="M331.341 232.023L292.306 209.394C291.93 209.178 291.625 209.408 291.625 209.91C291.625 210.413 291.93 210.995 292.306 211.212L331.341 233.841C331.717 234.058 332.022 233.827 332.022 233.325C332.022 232.823 331.717 232.24 331.341 232.023Z" fill="#4D4BB7"/>
<path d="M331.341 237.44L292.306 214.813C291.93 214.594 291.625 214.824 291.625 215.327C291.625 215.829 291.93 216.413 292.306 216.63L331.341 239.258C331.717 239.475 332.022 239.245 332.022 238.743C332.022 238.24 331.717 237.657 331.341 237.44Z" fill="#4D4BB7"/>
<path d="M341.55 156.014L341.522 166.746L258.82 118.999L258.847 108.266C258.861 105.32 260.948 104.121 263.512 105.607L336.912 147.98C339.49 149.467 341.562 153.068 341.55 156.014Z" fill="#CCCCCC"/>
<path d="M188.659 57.8625L115.257 15.4841C113.967 14.7388 112.796 14.6706 111.95 15.1622L108.257 17.3084C109.103 16.8168 110.274 16.8849 111.564 17.6302L184.967 60.0086C187.542 61.4953 189.61 65.0896 189.601 68.0364L189.132 233.176C189.128 234.639 188.614 235.668 187.782 236.151L191.475 234.005C192.307 233.522 192.821 232.493 192.825 231.03L193.293 65.8902C193.302 62.9435 191.235 59.3502 188.659 57.8625Z" fill="#224EBF"/>
<path d="M189.601 68.0362L189.574 78.7698L189.137 233.181C189.123 236.127 187.05 237.313 184.474 235.826L111.072 193.439C108.495 191.966 106.422 188.38 106.436 185.433L106.872 31.0221L106.9 20.2895C106.912 17.3438 108.999 16.1434 111.563 17.6301L184.964 60.0036C187.542 61.4903 189.615 65.0905 189.601 68.0362Z" fill="#1E5BFA"/>
<path d="M187.527 70.9623L187.502 81.1608L187.087 227.874C187.074 230.673 185.105 231.801 182.656 230.387L112.914 190.113C110.465 188.715 108.496 185.306 108.508 182.506L108.922 35.7942L108.949 25.5957C108.962 22.7971 110.944 21.6569 113.381 23.0695L183.122 63.3305C185.572 64.7431 187.541 68.1637 187.527 70.9623Z" fill="white"/>
<path d="M135.277 93.7585C136.59 94.5167 137.651 96.3538 137.646 97.8582L137.583 120.45C137.579 121.954 136.511 122.562 135.198 121.805L114.261 109.716C112.947 108.959 111.886 107.121 111.891 105.616L111.955 83.0259C111.959 81.5215 113.027 80.9124 114.34 81.6705L135.277 93.7585Z" fill="#1E5BFA"/>
<path d="M122.428 104.399V97.518L127.621 103.958L122.428 104.399ZM124.056 94.1586C120.371 92.0313 117.388 93.7322 117.388 97.9612C117.388 102.186 120.371 107.336 124.056 109.464C127.738 111.59 130.725 109.886 130.725 105.662C130.725 101.433 127.738 96.285 124.056 94.1586Z" fill="white"/>
<path d="M136.601 55.5865C137.959 56.3703 139.058 58.2736 139.054 59.8323L138.984 83.9381C138.981 85.4979 137.874 86.1218 136.517 85.338L115.539 73.2273C114.182 72.4435 113.089 70.5491 113.094 68.9894L113.161 44.8845C113.166 43.3248 114.267 42.692 115.624 43.4758L136.601 55.5865Z" fill="#1E5BFA"/>
<path d="M124.574 65.6599L122.604 70.9512L114.393 66.2098L119.489 59.0202C120.205 58.0113 121.995 59.0448 122.711 60.879L124.574 65.6599Z" fill="white"/>
<path d="M127.808 73.9561L122.604 70.9511L124.574 65.6598L127.808 73.9561Z" fill="#E6E6E6"/>
<path d="M136.02 78.6953L127.808 73.9559L124.574 65.6597L127.064 58.9794C127.811 56.9784 130.809 58.7099 131.556 61.5728L136.02 78.6953Z" fill="white"/>
<path d="M124.612 56.2575C124.612 57.4203 123.79 57.8883 122.778 57.3029C121.766 56.7185 120.945 55.3029 120.945 54.141C120.945 52.979 121.766 52.5111 122.778 53.0965C123.79 53.6799 124.612 55.0965 124.612 56.2575Z" fill="#E6E6E6"/>
<path d="M181.416 86.0725C182.396 86.6381 183.184 88.0034 183.18 89.1337L183.163 95.2492C183.16 96.3736 182.367 96.8307 181.388 96.2651L145.54 75.5689C144.561 75.0043 143.772 73.6341 143.776 72.5087L143.793 66.3931C143.796 65.2638 144.59 64.8107 145.569 65.3763L181.416 86.0725Z" fill="#1E5BFA"/>
<path d="M180.226 89.8167L147.35 70.7425C146.974 70.5254 146.669 70.7564 146.669 71.2588C146.669 71.7603 146.974 72.3437 147.35 72.5609L180.226 91.6351C180.603 91.8523 180.907 91.6213 180.907 91.1198C180.907 90.6173 180.603 90.0339 180.226 89.8167Z" fill="white"/>
<path d="M181.416 100.498C182.396 101.063 183.184 102.433 183.18 103.558L183.163 109.678C183.16 110.803 182.367 111.255 181.388 110.69L145.54 89.9947C144.561 89.429 143.772 88.0628 143.776 86.9374L143.793 80.8179C143.796 79.6935 144.59 79.2364 145.569 79.8021L181.416 100.498Z" fill="#1E5BFA"/>
<path d="M180.226 103.899L147.35 84.8245C146.974 84.6074 146.669 84.8374 146.669 85.3398C146.669 85.8423 146.974 86.4247 147.35 86.6429L180.226 105.716C180.603 105.934 180.907 105.703 180.907 105.201C180.907 104.699 180.603 104.116 180.226 103.899Z" fill="white"/>
<path d="M127.756 131.716C128.7 132.261 129.464 133.584 129.461 134.669L129.413 151.429C129.41 152.514 128.641 152.949 127.698 152.404L113.111 143.982C112.167 143.437 111.407 142.12 111.41 141.035L111.458 124.275C111.461 123.191 112.227 122.75 113.17 123.295L127.756 131.716Z" fill="#1E5BFA"/>
<path d="M127.277 137.41V137.435L120.329 138.019L113.275 129.327C113.275 129.054 113.469 128.944 113.707 129.082L126.847 136.668C127.085 136.806 127.277 137.138 127.277 137.41Z" fill="white"/>
<path d="M120.329 138.569L127.277 137.983V146.444C127.277 146.716 127.085 146.826 126.847 146.69L113.707 139.102C113.469 138.965 113.275 138.633 113.275 138.36V129.873L120.225 138.44L120.329 138.569Z" fill="white"/>
<path d="M180.814 211.342C182.128 212.1 183.185 213.932 183.181 215.44L183.167 220.325C183.163 221.833 182.098 222.443 180.786 221.685L115.887 184.216C114.578 183.46 113.518 181.622 113.521 180.114L113.534 175.229C113.539 173.721 114.607 173.117 115.916 173.872L180.814 211.342Z" fill="#1E5BFA"/>
<path d="M179.105 215.023L116.635 178.74C116.259 178.522 115.953 178.753 115.953 179.256C115.953 179.757 116.259 180.341 116.635 180.558L179.105 216.841C179.481 217.06 179.786 216.83 179.786 216.327C179.786 215.825 179.481 215.241 179.105 215.023Z" fill="white"/>
<path d="M180.814 195.03C182.128 195.788 183.185 197.619 183.181 199.128L183.167 204.012C183.163 205.52 182.098 206.132 180.786 205.374L115.887 167.904C114.578 167.148 113.518 165.311 113.521 163.802L113.534 158.917C113.539 157.41 114.607 156.805 115.916 157.561L180.814 195.03Z" fill="#1E5BFA"/>
<path d="M179.105 198.712L116.635 162.429C116.259 162.21 115.953 162.441 115.953 162.944C115.953 163.445 116.259 164.029 116.635 164.246L179.105 200.531C179.481 200.748 179.786 200.517 179.786 200.014C179.786 199.514 179.481 198.93 179.105 198.712Z" fill="white"/>
<path d="M154.386 147.063C155.329 147.608 156.094 148.931 156.091 150.016L156.043 166.776C156.04 167.861 155.271 168.294 154.326 167.75L139.741 159.328C138.797 158.784 138.037 157.467 138.039 156.382L138.087 139.622C138.09 138.537 138.856 138.096 139.8 138.641L154.386 147.063Z" fill="#1E5BFA"/>
<path d="M141.03 146.139C140.605 145.894 140.26 146.091 140.26 146.578V153.216C140.26 153.703 140.605 154.298 141.03 154.543L153.077 161.499C153.502 161.744 153.845 161.547 153.845 161.059V154.422C153.845 153.935 153.502 153.34 153.077 153.095L141.03 146.139ZM153.077 162.129L141.03 155.173C140.302 154.753 139.712 153.734 139.712 152.899V146.261C139.712 145.427 140.302 145.089 141.03 145.508L153.077 152.464C153.804 152.885 154.395 153.904 154.395 154.739V161.377C154.395 162.211 153.804 162.548 153.077 162.129Z" fill="white"/>
<path d="M147.053 150.846C145.59 150.001 144.398 150.68 144.398 152.359C144.398 154.04 145.59 156.094 147.053 156.939C148.518 157.784 149.709 157.105 149.709 155.425C149.709 153.745 148.518 151.691 147.053 150.846ZM147.053 157.569C145.287 156.549 143.85 154.07 143.85 152.043C143.85 150.015 145.287 149.196 147.053 150.216C148.82 151.236 150.257 153.715 150.257 155.743C150.257 157.769 148.82 158.59 147.053 157.569Z" fill="white"/>
<path d="M143.799 146.992L150.307 150.75V149.789C150.307 149.589 150.166 149.344 149.992 149.245L144.115 145.851C143.941 145.75 143.799 145.831 143.799 146.031V146.992ZM150.857 151.697L143.25 147.305V145.713C143.25 145.167 143.637 144.945 144.115 145.221L149.992 148.614C150.468 148.889 150.857 149.559 150.857 150.106V151.697Z" fill="white"/>
<path d="M181.48 162.677C182.423 163.222 183.184 164.542 183.18 165.627L183.133 182.388C183.13 183.473 182.365 183.909 181.421 183.364L166.835 174.942C165.891 174.397 165.127 173.079 165.13 171.994L165.178 155.233C165.181 154.149 165.949 153.71 166.893 154.255L181.48 162.677Z" fill="#1E5BFA"/>
<path d="M174.22 162.312C170.886 160.387 168.184 161.393 168.184 164.558C168.184 166.607 169.321 169.057 171.025 171.053C170.946 171.588 170.599 172.71 169.074 171.849C169.074 171.849 171.18 174.17 173.174 173.078C173.514 173.331 173.863 173.567 174.22 173.773C177.554 175.698 180.256 174.692 180.256 171.527C180.256 168.362 177.554 164.237 174.22 162.312Z" fill="white"/>
<path d="M180.433 126.22C181.956 127.099 183.187 129.23 183.181 130.984L183.14 145.33C183.135 147.08 181.896 147.785 180.374 146.907L144.133 126.039C142.612 125.16 141.381 123.028 141.386 121.28L141.426 106.932C141.432 105.179 142.671 104.473 144.192 105.352L180.433 126.22Z" fill="#1E5BFA"/>
<path d="M179.392 129.664L145.517 110.07C145.14 109.852 144.835 110.083 144.835 110.585C144.835 111.087 145.14 111.671 145.517 111.888L179.392 131.482C179.769 131.699 180.074 131.469 180.074 130.966C180.074 130.465 179.769 129.881 179.392 129.664Z" fill="white"/>
<path d="M179.392 135.082L145.517 115.488C145.14 115.271 144.835 115.501 144.835 116.003C144.835 116.506 145.14 117.088 145.517 117.306L179.392 136.901C179.769 137.118 180.074 136.887 180.074 136.384C180.074 135.883 179.769 135.3 179.392 135.082Z" fill="white"/>
<path d="M179.392 140.501L145.517 120.907C145.14 120.689 144.835 120.92 144.835 121.422C144.835 121.924 145.14 122.507 145.517 122.724L179.392 142.319C179.769 142.537 180.074 142.306 180.074 141.803C180.074 141.302 179.769 140.718 179.392 140.501Z" fill="white"/>
<path d="M189.601 68.0365L189.574 78.77L106.872 31.0223L106.9 20.2897C106.913 17.344 108.999 16.1436 111.563 17.6303L184.965 60.0038C187.542 61.4905 189.615 65.0907 189.601 68.0365Z" fill="#1E5BFA"/>
<path d="M209.908 159.002L136.507 116.624C135.216 115.879 134.045 115.81 133.199 116.302L129.507 118.448C130.352 117.957 131.523 118.025 132.813 118.77L206.215 161.148C208.791 162.636 210.858 166.229 210.85 169.176L210.382 334.316C210.378 335.779 209.863 336.807 209.031 337.291L212.724 335.145C213.556 334.661 214.07 333.633 214.074 332.17L214.543 167.03C214.551 164.083 212.484 160.49 209.908 159.002Z" fill="#7981F2"/>
<path d="M210.849 169.177L210.823 179.911L210.386 334.321C210.372 337.266 208.299 338.454 205.722 336.967L132.321 294.58C129.744 293.107 127.672 289.52 127.685 286.574L128.121 132.163L128.149 121.429C128.162 118.484 130.248 117.284 132.813 118.771L206.213 161.144C208.79 162.631 210.864 166.231 210.849 169.177Z" fill="#4D4BB7"/>
<path d="M208.777 172.103L208.751 182.3L208.336 329.015C208.324 331.813 206.354 332.941 203.905 331.528L134.164 291.254C131.714 289.854 129.745 286.447 129.758 283.648L130.172 136.934L130.198 126.736C130.211 123.938 132.194 122.798 134.63 124.209L204.372 164.47C206.82 165.884 208.79 169.304 208.777 172.103Z" fill="white"/>
<path d="M156.853 194.139C158.166 194.897 159.226 196.734 159.222 198.238L159.159 220.829C159.154 222.334 158.086 222.943 156.773 222.184L135.836 210.096C134.523 209.339 133.463 207.5 133.467 205.997L133.531 183.405C133.535 181.901 134.603 181.293 135.916 182.051L156.853 194.139Z" fill="#4D4BB7"/>
<path d="M144.002 204.778V197.897L149.195 204.337L144.002 204.778ZM145.632 194.538C141.946 192.411 138.963 194.112 138.963 198.341C138.963 202.565 141.946 207.716 145.632 209.843C149.313 211.97 152.301 210.266 152.301 206.042C152.301 201.813 149.313 196.664 145.632 194.538Z" fill="white"/>
<path d="M151.116 156.742C152.06 157.287 152.823 158.61 152.82 159.695L152.773 176.456C152.77 177.54 152.001 177.974 151.057 177.429L136.471 169.008C135.528 168.463 134.767 167.146 134.77 166.061L134.818 149.301C134.821 148.216 135.586 147.776 136.53 148.322L151.116 156.742Z" fill="#4D4BB7"/>
<path d="M142.752 163.746L141.382 167.425L135.673 164.129L139.217 159.129C139.714 158.428 140.958 159.146 141.456 160.422L142.752 163.746Z" fill="white"/>
<path d="M145.001 169.514L141.382 167.425L142.752 163.746L145.001 169.514Z" fill="#E6E6E6"/>
<path d="M150.71 172.811L145.001 169.514L142.752 163.746L144.484 159.102C145.003 157.711 147.088 158.914 147.607 160.904L150.71 172.811Z" fill="white"/>
<path d="M142.777 157.209C142.777 158.017 142.208 158.342 141.503 157.936C140.799 157.53 140.229 156.546 140.229 155.737C140.229 154.93 140.799 154.604 141.503 155.011C142.208 155.417 142.777 156.402 142.777 157.209Z" fill="#E6E6E6"/>
<path d="M202.665 219.368C203.644 219.934 204.432 221.3 204.43 222.429L204.413 228.545C204.41 229.67 203.615 230.127 202.637 229.561L166.789 208.865C165.81 208.3 165.021 206.929 165.024 205.805L165.042 199.688C165.046 198.56 165.84 198.108 166.819 198.672L202.665 219.368Z" fill="#4D4BB7"/>
<path d="M201.475 223.113L168.599 204.038C168.224 203.821 167.918 204.052 167.918 204.554C167.918 205.056 168.224 205.64 168.599 205.857L201.475 224.931C201.851 225.148 202.157 224.917 202.157 224.416C202.157 223.913 201.851 223.33 201.475 223.113Z" fill="white"/>
<path d="M202.665 240.761C203.644 241.325 204.432 242.695 204.43 243.821L204.413 249.941C204.41 251.066 203.615 251.518 202.637 250.953L166.789 230.257C165.81 229.691 165.021 228.325 165.024 227.2L165.042 221.08C165.046 219.956 165.84 219.499 166.819 220.064L202.665 240.761Z" fill="#4D4BB7"/>
<path d="M201.475 244.16L168.599 225.087C168.224 224.87 167.918 225.1 167.918 225.602C167.918 226.105 168.224 226.688 168.599 226.905L201.475 245.978C201.851 246.197 202.157 245.965 202.157 245.463C202.157 244.962 201.851 244.378 201.475 244.16Z" fill="white"/>
<path d="M149.005 261.827C149.95 262.371 150.713 263.695 150.71 264.78L150.663 281.54C150.659 282.625 149.89 283.058 148.947 282.514L134.36 274.092C133.416 273.548 132.656 272.231 132.659 271.146L132.707 254.385C132.71 253.301 133.475 252.862 134.418 253.406L149.005 261.827Z" fill="#4D4BB7"/>
<path d="M148.526 267.521V267.546L141.578 268.128L134.525 259.438C134.525 259.164 134.718 259.055 134.955 259.192L148.096 266.778C148.334 266.916 148.526 267.248 148.526 267.521Z" fill="white"/>
<path d="M141.578 268.68L148.526 268.094V276.554C148.526 276.828 148.334 276.937 148.096 276.801L134.955 269.213C134.718 269.075 134.525 268.744 134.525 268.471V259.984L141.474 268.551L141.578 268.68Z" fill="white"/>
<path d="M202.064 265.076C203.377 265.833 204.435 267.665 204.43 269.173L204.417 274.057C204.412 275.566 203.348 276.176 202.036 275.418L137.136 237.949C135.827 237.193 134.766 235.356 134.771 233.847L134.784 228.964C134.788 227.454 135.856 226.85 137.165 227.606L202.064 265.076Z" fill="#4D4BB7"/>
<path d="M200.353 268.758L137.884 232.474C137.508 232.256 137.203 232.487 137.203 232.99C137.203 233.49 137.508 234.074 137.884 234.292L200.353 270.577C200.73 270.794 201.035 270.563 201.035 270.06C201.035 269.559 200.73 268.975 200.353 268.758Z" fill="white"/>
<path d="M175.635 277.173C176.578 277.718 177.343 279.042 177.34 280.126L177.292 296.887C177.288 297.972 176.52 298.405 175.576 297.861L160.989 289.439C160.046 288.894 159.286 287.578 159.289 286.493L159.336 269.732C159.339 268.648 160.104 268.206 161.048 268.751L175.635 277.173Z" fill="#4D4BB7"/>
<path d="M162.279 276.25C161.854 276.005 161.51 276.202 161.51 276.688V283.327C161.51 283.814 161.854 284.409 162.279 284.654L174.326 291.609C174.75 291.855 175.095 291.657 175.095 291.17V284.533C175.095 284.045 174.75 283.451 174.326 283.206L162.279 276.25ZM174.326 292.24L162.279 285.284C161.552 284.863 160.96 283.844 160.96 283.01V276.372C160.96 275.537 161.552 275.2 162.279 275.619L174.326 282.575C175.054 282.995 175.644 284.014 175.644 284.849V291.487C175.644 292.322 175.054 292.659 174.326 292.24Z" fill="white"/>
<path d="M168.303 280.956C166.839 280.112 165.647 280.791 165.647 282.47C165.647 284.15 166.839 286.204 168.303 287.049C169.766 287.895 170.958 287.215 170.958 285.535C170.958 283.856 169.766 281.802 168.303 280.956ZM168.303 287.68C166.537 286.66 165.099 284.18 165.099 282.152C165.099 280.126 166.537 279.306 168.303 280.326C170.07 281.347 171.507 283.826 171.507 285.852C171.507 287.88 170.07 288.699 168.303 287.68Z" fill="white"/>
<path d="M165.048 277.103L171.557 280.861V279.899C171.557 279.699 171.415 279.455 171.24 279.354L165.364 275.962C165.189 275.861 165.048 275.941 165.048 276.142V277.103ZM172.106 281.808L164.499 277.417V275.824C164.499 275.277 164.887 275.055 165.364 275.331L171.24 278.725C171.718 279 172.106 279.669 172.106 280.216V281.808Z" fill="white"/>
<path d="M202.73 292.787C203.673 293.332 204.432 294.652 204.429 295.737L204.383 312.498C204.38 313.582 203.614 314.019 202.67 313.475L188.084 305.053C187.14 304.508 186.376 303.188 186.379 302.103L186.427 285.343C186.43 284.258 187.198 283.821 188.142 284.366L202.73 292.787Z" fill="#4D4BB7"/>
<path d="M195.469 292.423C192.135 290.498 189.433 291.503 189.433 294.668C189.433 296.717 190.57 299.169 192.274 301.165C192.195 301.7 191.848 302.821 190.322 301.959C190.322 301.959 192.429 304.28 194.424 303.189C194.763 303.442 195.112 303.678 195.469 303.884C198.802 305.808 201.505 304.803 201.505 301.638C201.505 298.474 198.802 294.347 195.469 292.423Z" fill="white"/>
<path d="M201.682 185.943C203.205 186.822 204.435 188.954 204.43 190.707L204.389 205.054C204.384 206.803 203.146 207.509 201.624 206.63L160.224 182.728C158.702 181.849 157.472 179.718 157.477 177.968L157.517 163.622C157.522 161.868 158.761 161.163 160.283 162.041L201.682 185.943Z" fill="#4D4BB7"/>
<path d="M200.641 189.388L161.607 166.759C161.231 166.542 160.925 166.772 160.925 167.275C160.925 167.777 161.231 168.36 161.607 168.578L200.641 191.205C201.018 191.423 201.323 191.193 201.323 190.69C201.323 190.188 201.018 189.605 200.641 189.388Z" fill="white"/>
<path d="M200.641 194.805L161.607 172.177C161.231 171.959 160.925 172.19 160.925 172.693C160.925 173.194 161.231 173.778 161.607 173.995L200.641 196.624C201.018 196.84 201.323 196.61 201.323 196.108C201.323 195.605 201.018 195.024 200.641 194.805Z" fill="white"/>
<path d="M200.641 200.224L161.607 177.596C161.231 177.378 160.925 177.609 160.925 178.111C160.925 178.613 161.231 179.197 161.607 179.414L200.641 202.042C201.018 202.26 201.323 202.028 201.323 201.528C201.323 201.025 201.018 200.442 200.641 200.224Z" fill="white"/>
<path d="M210.849 169.177L210.823 179.91L128.121 132.162L128.149 121.429C128.163 118.483 130.248 117.284 132.813 118.77L206.214 161.144C208.79 162.631 210.864 166.231 210.849 169.177Z" fill="#4D4BB7"/>
<path fill-rule="evenodd" clip-rule="evenodd" d="M81.3728 163.784V162.234L79.2178 160.99V162.54L81.3728 163.784Z" fill="white"/>
<path fill-rule="evenodd" clip-rule="evenodd" d="M85.236 166.014V164.465L83.083 163.221V164.771L85.236 166.014Z" fill="white"/>
<path fill-rule="evenodd" clip-rule="evenodd" d="M89.3123 168.343L88.6588 166.441L86.7832 165.358L87.0162 167.042C87.7842 167.485 88.5572 167.936 89.3123 168.343Z" fill="white"/>
<path fill-rule="evenodd" clip-rule="evenodd" d="M69.7673 157.083V155.533L67.6133 154.289V155.839L69.7673 157.083Z" fill="white"/>
<path fill-rule="evenodd" clip-rule="evenodd" d="M73.6306 159.314V157.764L71.4766 156.52V158.07L73.6306 159.314Z" fill="white"/>
<path fill-rule="evenodd" clip-rule="evenodd" d="M77.4821 161.537V159.987L75.3281 158.743V160.293L77.4821 161.537Z" fill="white"/>
<path fill-rule="evenodd" clip-rule="evenodd" d="M59.0945 147.877L60.3837 147.677L60.3788 145.522L59.0283 145.238C59.0323 146.122 59.05 147.001 59.0945 147.877Z" fill="white"/>
<path fill-rule="evenodd" clip-rule="evenodd" d="M61.7615 152.394L62.5729 151.378C61.9461 151.011 61.3311 150.324 60.9224 149.545L59.7852 150.138C60.2837 151.083 61.0172 151.921 61.7615 152.394Z" fill="white"/>
<path fill-rule="evenodd" clip-rule="evenodd" d="M65.85 154.821L65.926 153.316L64.0494 152.232L63.5439 153.487L65.85 154.821Z" fill="white"/>
<path fill-rule="evenodd" clip-rule="evenodd" d="M59.0283 134.217L60.3788 134.997V132.525L59.0283 131.745V134.217Z" fill="white"/>
<path fill-rule="evenodd" clip-rule="evenodd" d="M59.0283 138.65L60.3788 139.43V136.958L59.0283 136.178V138.65Z" fill="white"/>
<path fill-rule="evenodd" clip-rule="evenodd" d="M59.0283 143.104L60.3788 143.787V141.377L59.0283 140.597V143.104Z" fill="white"/>
<path fill-rule="evenodd" clip-rule="evenodd" d="M59.0283 120.899L60.3788 121.679V119.436L59.0283 118.302V120.899Z" fill="white"/>
<path fill-rule="evenodd" clip-rule="evenodd" d="M59.0283 125.332L60.3788 126.112V123.64L59.0283 122.861V125.332Z" fill="white"/>
<path fill-rule="evenodd" clip-rule="evenodd" d="M59.0283 129.752L60.3788 130.532V128.06L59.0283 127.28V129.752Z" fill="white"/>
<path fill-rule="evenodd" clip-rule="evenodd" d="M64.748 115.209L65.0304 116.921L67.0018 118.06V116.51L64.748 115.209Z" fill="white"/>
<path fill-rule="evenodd" clip-rule="evenodd" d="M60.7148 113.254L61.6941 115.218C62.2716 115.229 62.9251 115.73 63.5421 116.062L62.9261 114.173C62.1749 113.79 61.4069 113.25 60.7148 113.254Z" fill="white"/>
<path fill-rule="evenodd" clip-rule="evenodd" d="M59.0479 116.191L60.3786 117.701C60.3815 117.344 60.3716 116.98 60.3855 116.629C60.4042 116.282 60.4901 115.978 60.6352 115.745L59.4319 113.897C59.2492 114.172 59.1367 114.527 59.0992 114.93C59.0656 115.338 59.0627 115.764 59.0479 116.191Z" fill="white"/>
<path fill-rule="evenodd" clip-rule="evenodd" d="M76.4541 121.966V123.517L78.6081 124.76V123.211L76.4541 121.966Z" fill="white"/>
<path fill-rule="evenodd" clip-rule="evenodd" d="M72.5898 119.736V121.286L74.7439 122.53V120.98L72.5898 119.736Z" fill="white"/>
<path fill-rule="evenodd" clip-rule="evenodd" d="M68.7393 117.513V119.062L70.8933 120.306V118.756L68.7393 117.513Z" fill="white"/>
<path fill-rule="evenodd" clip-rule="evenodd" d="M88.2227 128.763L87.7637 130.045C88.3895 130.413 89.0144 130.756 89.6393 131.141L90.4863 130.158C89.7449 129.663 88.9897 129.217 88.2227 128.763Z" fill="white"/>
<path fill-rule="evenodd" clip-rule="evenodd" d="M84.1953 126.437V127.986L86.2743 129.186L86.3908 127.703L84.1953 126.437Z" fill="white"/>
<path fill-rule="evenodd" clip-rule="evenodd" d="M80.3447 124.213V125.763L82.4997 127.007V125.457L80.3447 124.213Z" fill="white"/>
<path fill-rule="evenodd" clip-rule="evenodd" d="M92.996 141.524L91.6445 140.744V143.217L92.996 143.997V141.524Z" fill="white"/>
<path fill-rule="evenodd" clip-rule="evenodd" d="M92.994 136.898L91.6445 136.663V138.815L92.996 139.545L92.994 136.898Z" fill="white"/>
<path fill-rule="evenodd" clip-rule="evenodd" d="M92.093 131.998L90.9814 132.637C91.4336 133.4 91.6695 134.264 91.6448 134.968L92.9469 134.819C92.942 133.964 92.6409 132.923 92.093 131.998Z" fill="white"/>
<path fill-rule="evenodd" clip-rule="evenodd" d="M92.996 154.842L91.6445 154.062V156.534L92.996 157.314V154.842Z" fill="white"/>
<path fill-rule="evenodd" clip-rule="evenodd" d="M92.996 150.408L91.6445 149.629V152.101L92.996 152.88V150.408Z" fill="white"/>
<path fill-rule="evenodd" clip-rule="evenodd" d="M92.996 145.989L91.6445 145.21V147.682L92.996 148.461V145.989Z" fill="white"/>
<path fill-rule="evenodd" clip-rule="evenodd" d="M92.7061 168.306L91.4781 166.488C91.2431 167.019 90.7466 167.266 90.1562 167.16L91.102 169.127C91.8058 169.229 92.405 168.93 92.7061 168.306Z" fill="white"/>
<path fill-rule="evenodd" clip-rule="evenodd" d="M92.996 163.834L91.6445 162.748V164.901L92.9693 166.45C92.997 165.601 92.997 164.717 92.996 163.834Z" fill="white"/>
<path fill-rule="evenodd" clip-rule="evenodd" d="M92.996 159.307L91.6445 158.527V160.999L92.996 161.779V159.307Z" fill="white"/>
<path d="M87.6029 133.464L67.7162 121.983C67.3401 121.766 66.9966 121.745 66.7478 121.89L63.5 123.776C63.7488 123.632 64.0933 123.652 64.4694 123.87L84.3551 135.35C85.1093 135.786 85.7164 136.836 85.7144 137.704L85.6483 160.554C85.6473 160.978 85.4972 161.277 85.2544 161.418L88.5022 159.531C88.745 159.39 88.8941 159.091 88.8961 158.667L88.9612 135.817C88.9632 134.949 88.3571 133.899 87.6029 133.464Z" fill="#A3A9FF"/>
<path d="M84.3552 135.35C85.1094 135.786 85.7165 136.836 85.7145 137.704L85.6484 160.554C85.6464 161.411 85.0363 161.758 84.2811 161.322L64.3955 149.841C63.6511 149.41 63.0351 148.355 63.0371 147.499L63.1013 124.649C63.1042 123.781 63.7242 123.439 64.4695 123.87L84.3552 135.35Z" fill="#7981F2"/>
<path d="M70.9239 142.793L74.7443 145L72.9072 137.593L70.9239 142.793ZM74.9131 145.631L70.7334 143.217L69.1085 147.51L70.6919 148.425V148.885L67.4619 147.02V146.56L68.454 147.132L73.8371 133.601L75.5676 134.601L80.8875 154.311L81.8579 154.871V155.333L74.9556 151.347V150.886L76.4551 151.752L74.9131 145.631Z" fill="black"/>
<path d="M87.6029 94.5461L67.7162 83.0653C67.3401 82.8481 66.9966 82.8274 66.7478 82.9725L63.5 84.859C63.7488 84.7149 64.0933 84.7346 64.4694 84.9528L84.3551 96.4336C85.1093 96.869 85.7164 97.9183 85.7144 98.7861L85.6483 121.636C85.6473 122.061 85.4972 122.36 85.2544 122.501L88.5022 120.613C88.745 120.473 88.8941 120.173 88.8961 119.75L88.9612 96.8996C88.9632 96.0318 88.3571 94.9815 87.6029 94.5461Z" fill="#A3A9FF"/>
<path d="M84.3552 96.4336C85.1094 96.8689 85.7165 97.9183 85.7145 98.786L85.6484 121.636C85.6464 122.493 85.0363 122.841 84.2811 122.404L64.3955 110.923C63.6511 110.493 63.0351 109.438 63.0371 108.582L63.1013 85.7316C63.1042 84.8639 63.7242 84.5223 64.4695 84.9527L84.3552 96.4336Z" fill="#7981F2"/>
<path d="M76.5121 105.953L73.9958 96.5601L71.4804 103.048L76.5121 105.953ZM76.8526 107.215L71.1399 103.916L68.8407 109.843L67.8506 109.27L73.9958 93.4485L80.132 116.362L79.1528 115.795L76.8526 107.215Z" fill="black"/>
<path d="M87.6029 17.0876L67.7162 5.60679C67.3401 5.38961 66.9966 5.36889 66.7478 5.514L63.5 7.40145C63.7488 7.25633 64.0933 7.27607 64.4694 7.49424L84.3551 18.9751C85.1093 19.4114 85.7164 20.4608 85.7144 21.3276L85.6483 44.1777C85.6473 44.6022 85.4972 44.9013 85.2544 45.0425L88.5022 43.155C88.745 43.0148 88.8941 42.7157 88.8961 42.2912L88.9612 19.441C88.9632 18.5733 88.3571 17.524 87.6029 17.0876Z" fill="#A3A9FF"/>
<path d="M84.3552 18.9748C85.1094 19.4111 85.7165 20.4605 85.7145 21.3272L85.6484 44.1774C85.6464 45.0342 85.0363 45.3817 84.2811 44.9463L64.3955 33.4645C63.6511 33.0341 63.0351 31.9788 63.0371 31.1229L63.1013 8.27277C63.1042 7.40504 63.7242 7.06347 64.4695 7.49388L84.3552 18.9748Z" fill="#7981F2"/>
<path d="M76.8391 30.0521L74.6633 22.3995L72.4037 27.4914L76.8391 30.0521ZM77.535 32.4914L71.6643 29.1005L70.0394 32.7669L68.0107 31.5961L74.685 17.2001L74.8124 17.2731L81.4847 39.375L79.1204 38.0097L77.535 32.4914Z" fill="black"/>
<path d="M87.6029 55.6287L67.7162 44.1478C67.3401 43.9306 66.9966 43.9099 66.7478 44.055L63.5 45.9425C63.7488 45.7974 64.0933 45.8181 64.4694 46.0353L84.3551 57.5161C85.1093 57.9515 85.7164 59.0018 85.7144 59.8696L85.6483 82.7187C85.6473 83.1432 85.4972 83.4423 85.2544 83.5835L88.5022 81.696C88.745 81.5558 88.8941 81.2567 88.8961 80.8322L88.9612 57.9821C88.9632 57.1143 88.3571 56.064 87.6029 55.6287Z" fill="#A3A9FF"/>
<path d="M84.3552 57.5166C85.1094 57.9529 85.7165 59.0023 85.7145 59.87L85.6484 82.7192C85.6464 83.5761 85.0363 83.9235 84.2811 83.4872L64.3955 72.0064C63.6511 71.5759 63.0351 70.5216 63.0371 69.6648L63.1013 46.8146C63.1042 45.9469 63.7242 45.6053 64.4695 46.0357L84.3552 57.5166Z" fill="#7981F2"/>
<path d="M73.0617 69.0087L75.8456 70.6158L74.4122 58.7835L74.3816 58.7657L73.0617 69.0087ZM73.0716 54.1517L75.6392 55.6344L78.6403 78.1934L76.6294 77.0324L76.1141 72.759L72.8248 70.8596L72.35 74.5615L70.3184 73.3888L73.0716 54.1517Z" fill="black"/>
<path d="M373.812 220.659C370.204 218.576 366.931 218.382 364.567 219.755L360.834 221.925C363.197 220.551 366.472 220.744 370.08 222.829C377.26 226.973 383.056 237.013 383.033 245.263C383.021 249.354 381.578 252.233 379.246 253.587L382.978 251.418C385.309 250.064 386.754 247.185 386.765 243.094C386.789 234.844 380.992 224.804 373.812 220.659Z" fill="#7981F2"/>
<path d="M370.08 222.829C377.259 226.973 383.056 237.013 383.032 245.263C383.01 253.5 377.176 256.825 369.995 252.68C362.827 248.542 357.019 238.495 357.042 230.258C357.066 222.008 362.911 218.689 370.08 222.829Z" fill="#4D4BB7"/>
<path d="M368.432 241.404V232.976L374.793 240.865L368.432 241.404ZM370.427 228.862C365.912 226.254 362.257 228.339 362.257 233.519C362.257 238.694 365.912 245.004 370.427 247.609C374.937 250.213 378.596 248.127 378.596 242.952C378.596 237.772 374.937 231.465 370.427 228.862Z" fill="white"/>
<path d="M380.028 186.046L367.822 178.999C365.904 177.891 364.166 177.789 362.911 178.518L359.179 180.687C360.433 179.958 362.171 180.06 364.09 181.167L376.296 188.215C380.095 190.407 383.173 195.739 383.16 200.103L383.12 214.143C383.114 216.311 382.347 217.837 381.11 218.557L384.842 216.387C386.079 215.669 386.846 214.142 386.852 211.974L386.893 197.935C386.905 193.57 383.827 188.238 380.028 186.046Z" fill="#86A7FF"/>
<path d="M376.297 188.214C380.096 190.408 383.174 195.739 383.161 200.103L383.12 214.142C383.108 218.507 380.011 220.272 376.212 218.079L364.006 211.032C360.196 208.832 357.118 203.502 357.131 199.136L357.17 185.098C357.183 180.734 360.281 178.967 364.09 181.167L376.297 188.214Z" fill="#1E5BFA"/>
<path d="M368.432 203.009V194.58L374.793 202.47L368.432 203.009ZM370.427 190.465C365.912 187.86 362.257 189.944 362.257 195.123C362.257 200.298 365.912 206.607 370.427 209.214C374.937 211.817 378.596 209.731 378.596 204.556C378.596 199.376 374.937 193.069 370.427 190.465Z" fill="white"/>
<path d="M385.457 146.712L362.6 133.515C362.168 133.265 361.772 133.242 361.485 133.409L357.754 135.577C358.039 135.41 358.435 135.434 358.868 135.684L381.725 148.881C382.592 149.382 383.289 150.588 383.286 151.585L383.212 177.85C383.21 178.337 383.037 178.68 382.759 178.843L386.491 176.674C386.77 176.513 386.943 176.168 386.944 175.68L387.019 149.417C387.022 148.419 386.325 147.213 385.457 146.712Z" fill="white"/>
<path d="M381.724 148.88C382.592 149.382 383.289 150.588 383.286 151.585L383.212 177.85C383.209 178.834 382.508 179.234 381.639 178.733L358.783 165.536C357.927 165.041 357.219 163.828 357.222 162.844L357.296 136.58C357.299 135.582 358.011 135.189 358.868 135.684L381.724 148.88Z" fill="#D6D6D6"/>
<mask id="mask0_2692_7423" style="mask-type:luminance" maskUnits="userSpaceOnUse" x="362" y="146" width="17" height="22">
<path d="M368.433 160.336V151.908L374.794 159.797L368.433 160.336ZM370.428 147.793C365.913 145.187 362.258 147.271 362.258 152.451C362.258 157.626 365.913 163.935 370.428 166.541C374.938 169.145 378.597 167.059 378.597 161.883C378.597 156.703 374.938 150.397 370.428 147.793Z" fill="white"/>
</mask>
<g mask="url(#mask0_2692_7423)">
<path d="M368.433 160.336V151.908L374.794 159.797L368.433 160.336ZM370.428 147.793C365.913 145.187 362.258 147.271 362.258 152.451C362.258 157.626 365.913 163.935 370.428 166.541C374.938 169.145 378.597 167.059 378.597 161.883C378.597 156.703 374.938 150.397 370.428 147.793Z" fill="white"/>
</g>
<path d="M36.5114 294.949C35.3203 295.637 33.4083 295.637 32.2257 294.949L1.06332 276.84C-0.104704 276.161 -0.0981891 275.053 1.09264 274.366L32.4586 256.256C33.6339 255.577 35.5613 255.569 36.7293 256.248L67.8914 274.357C69.075 275.044 69.0533 276.161 67.8775 276.84L36.5114 294.949Z" fill="#707070"/>
<path d="M36.3385 292.175L64.7919 275.746C65.3309 275.436 65.6034 275.023 65.6024 274.612L65.5866 271.74C65.5876 272.153 65.3151 272.564 64.7781 272.875L36.3231 289.303C35.243 289.926 33.5085 289.926 32.4358 289.303L4.1663 272.874C3.64181 272.569 3.37804 272.17 3.37695 271.768L3.39196 274.639C3.39354 275.041 3.65652 275.442 4.18091 275.746L32.4504 292.175C33.5239 292.799 35.2585 292.799 36.3385 292.175Z" fill="#1E5BFA"/>
<path d="M36.3232 289.303C35.243 289.926 33.5086 289.926 32.4358 289.303L4.16634 272.875C3.10661 272.26 3.11244 271.255 4.1925 270.631L32.647 254.203C33.7133 253.587 35.4617 253.579 36.5206 254.194L64.79 270.624C65.863 271.248 65.8443 272.26 64.7781 272.876L36.3232 289.303Z" fill="#86A7FF"/>
<path d="M52.3701 275.564L51.3155 276.173L35.8338 271.219L27.0557 261.684L27.6931 261.317C28.8399 260.654 30.697 260.658 31.8508 261.324L52.3571 273.163C53.5101 273.829 53.516 274.902 52.3701 275.564Z" fill="white"/>
<path d="M35.1965 271.587L50.6778 276.541L41.0286 282.112C39.8879 282.77 38.0308 282.766 36.8774 282.101L16.3707 270.26C15.2174 269.595 15.2111 268.523 16.3518 267.865L26.4121 262.056L35.1965 271.587Z" fill="white"/>
<path d="M254.348 379.517C253.158 380.205 251.246 380.205 250.062 379.517L218.901 361.408C217.732 360.729 217.739 359.622 218.929 358.935L250.295 340.825C251.472 340.146 253.399 340.138 254.565 340.816L285.729 358.926C286.911 359.613 286.891 360.729 285.714 361.408L254.348 379.517Z" fill="#707070"/>
<path d="M254.176 376.743L282.629 360.315C283.168 360.003 283.439 359.592 283.439 359.18L283.423 356.308C283.425 356.72 283.152 357.132 282.614 357.443L254.16 373.871C253.08 374.494 251.345 374.494 250.272 373.871L222.003 357.443C221.478 357.138 221.215 356.738 221.214 356.336L221.229 359.207C221.231 359.609 221.494 360.01 222.018 360.315L250.287 376.743C251.36 377.367 253.095 377.367 254.176 376.743Z" fill="#D6D6D6"/>
<path d="M254.159 373.872C253.079 374.495 251.345 374.495 250.272 373.872L222.002 357.443C220.943 356.827 220.948 355.822 222.028 355.199L250.483 338.772C251.55 338.155 253.297 338.147 254.357 338.763L282.626 355.191C283.699 355.815 283.68 356.828 282.613 357.443L254.159 373.872Z" fill="white"/>
<path d="M264.453 362.211C269.089 359.534 267.837 354.469 261.652 350.899C255.469 347.329 246.697 346.605 242.06 349.282C238.544 351.312 238.421 354.711 241.256 357.793C238.129 358.405 233.87 358.665 230.795 356.638C230.795 356.638 236.594 362.446 245.611 360.998C251.737 364.208 259.999 364.783 264.453 362.211Z" fill="#1E5BFA"/>
</svg>
