<svg width="43" height="43" viewBox="0 0 43 43" fill="none" xmlns="http://www.w3.org/2000/svg">
<path fill-rule="evenodd" clip-rule="evenodd" d="M18.7677 42.5572C8.31042 41.3564 0.189453 32.4742 0.189453 21.6953C0.189453 10.0973 9.59147 0.695312 21.1895 0.695312C32.7874 0.695312 42.1895 10.0973 42.1895 21.6953C42.1895 32.524 35.2958 31.6335 29.4079 30.8729C26.0119 30.4342 22.9505 30.0388 21.7394 31.96C20.9111 33.274 21.8065 34.9123 22.9048 36.0106C24.277 37.3829 24.277 39.6077 22.9048 40.98C21.8065 42.0783 20.3108 42.7344 18.7677 42.5572ZM19.268 11.1948C19.268 12.9345 17.8577 14.3448 16.118 14.3448C14.3783 14.3448 12.968 12.9345 12.968 11.1948C12.968 9.4551 14.3783 8.0448 16.118 8.0448C17.8577 8.0448 19.268 9.4551 19.268 11.1948ZM9.63945 23.7953C11.3792 23.7953 12.7895 22.385 12.7895 20.6453C12.7895 18.9056 11.3792 17.4953 9.63945 17.4953C7.89976 17.4953 6.48945 18.9056 6.48945 20.6453C6.48945 22.385 7.89976 23.7953 9.63945 23.7953ZM32.7395 23.7953C34.4791 23.7953 35.8895 22.385 35.8895 20.6453C35.8895 18.9056 34.4791 17.4953 32.7395 17.4953C30.9998 17.4953 29.5895 18.9056 29.5895 20.6453C29.5895 22.385 30.9998 23.7953 32.7395 23.7953ZM26.4395 14.3453C28.1791 14.3453 29.5895 12.935 29.5895 11.1953C29.5895 9.45558 28.1791 8.04528 26.4395 8.04528C24.6998 8.04528 23.2895 9.45558 23.2895 11.1953C23.2895 12.935 24.6998 14.3453 26.4395 14.3453Z" fill="#1E5BFA"/>
</svg>
