<svg width="49" height="56" viewBox="0 0 49 56" fill="none" xmlns="http://www.w3.org/2000/svg">
<path d="M24.4705 49.0972C27.7858 49.0972 30.6238 47.9168 32.9847 45.5559C35.3456 43.195 36.526 40.3569 36.526 37.0417V24.9861C36.526 21.6708 35.3456 18.8328 32.9847 16.4719C30.6238 14.111 27.7858 12.9306 24.4705 12.9306C21.1552 12.9306 18.3171 14.111 15.9563 16.4719C13.5954 18.8328 12.4149 21.6708 12.4149 24.9861V37.0417C12.4149 40.3569 13.5954 43.195 15.9563 45.5559C18.3171 47.9168 21.1552 49.0972 24.4705 49.0972ZM18.4427 40.0556H30.4983V34.0278H18.4427V40.0556ZM18.4427 28H30.4983V21.9722H18.4427V28ZM24.4705 55.125C21.2054 55.125 18.179 54.3213 15.3911 52.7139C12.6033 51.1065 10.4057 48.8963 8.79826 46.0833H0.359375V40.0556H6.68854C6.53785 39.0509 6.44994 38.0463 6.42483 37.0417C6.39971 36.037 6.38715 35.0324 6.38715 34.0278H0.359375V28H6.38715C6.38715 26.9954 6.39971 25.9907 6.42483 24.9861C6.44994 23.9815 6.53785 22.9769 6.68854 21.9722H0.359375V15.9444H8.79826C9.50151 14.7891 10.2927 13.7091 11.1717 12.7045C12.0508 11.6999 13.0679 10.8208 14.2233 10.0674L9.40104 5.09444L13.6205 0.875L20.1003 7.35486C21.5068 6.90278 22.9384 6.67674 24.3951 6.67674C25.8519 6.67674 27.2835 6.90278 28.6899 7.35486L35.3205 0.875L39.5399 5.09444L34.567 10.0674C35.7223 10.8208 36.7646 11.6873 37.6939 12.6668C38.6232 13.6464 39.4395 14.7389 40.1427 15.9444H48.5816V21.9722H42.2524C42.4031 22.9769 42.491 23.9815 42.5162 24.9861C42.5413 25.9907 42.5538 26.9954 42.5538 28H48.5816V34.0278H42.5538C42.5538 35.0324 42.5413 36.037 42.5162 37.0417C42.491 38.0463 42.4031 39.0509 42.2524 40.0556H48.5816V46.0833H40.1427C38.5353 48.8963 36.3377 51.1065 33.5498 52.7139C30.762 54.3213 27.7355 55.125 24.4705 55.125Z" fill="#1E5BFA"/>
</svg>
