<svg width="49" height="58" viewBox="0 0 49 58" fill="none" xmlns="http://www.w3.org/2000/svg">
<path d="M21.29 34.7509V55.7509H0.290039C0.290039 50.1813 2.50253 44.8399 6.4408 40.9016C10.3791 36.9634 15.7205 34.7509 21.29 34.7509V34.7509ZM21.29 32.1259C12.5882 32.1259 5.54004 25.0777 5.54004 16.3759C5.54004 7.67398 12.5882 0.625854 21.29 0.625854C29.9919 0.625854 37.04 7.67398 37.04 16.3759C37.04 25.0777 29.9919 32.1259 21.29 32.1259ZM28.1019 47.3824C27.7691 45.9817 27.7691 44.5226 28.1019 43.122L25.4979 41.6179L28.1229 37.0714L30.7269 38.5755C31.7721 37.5855 33.0355 36.8554 34.415 36.444V33.4384H39.665V36.444C41.0615 36.8587 42.3215 37.599 43.3532 38.5755L45.9572 37.0714L48.5822 41.6179L45.9782 43.122C46.3106 44.5218 46.3106 45.98 45.9782 47.3797L48.5822 48.8839L45.9572 53.4304L43.3532 51.9262C42.308 52.9162 41.0446 53.6463 39.665 54.0577V57.0634H34.415V54.0577C33.0355 53.6463 31.7721 52.9162 30.7269 51.9262L28.1229 53.4304L25.4979 48.8839L28.1019 47.3824V47.3824ZM37.04 42.6259C36.3438 42.6259 35.6762 42.9024 35.1839 43.3947C34.6916 43.887 34.415 44.5547 34.415 45.2509C34.415 45.9471 34.6916 46.6147 35.1839 47.107C35.6762 47.5993 36.3438 47.8759 37.04 47.8759C37.7362 47.8759 38.4039 47.5993 38.8962 47.107C39.3885 46.6147 39.665 45.9471 39.665 45.2509C39.665 44.5547 39.3885 43.887 38.8962 43.3947C38.4039 42.9024 37.7362 42.6259 37.04 42.6259Z" fill="#1E5BFA"/>
</svg>
