<svg width="43" height="43" viewBox="0 0 43 43" fill="none" xmlns="http://www.w3.org/2000/svg">
<g clip-path="url(#clip0_3164_4934)">
<path d="M8.77207 19.9983V16.8483H21.3721V19.9983H8.77207ZM10.8721 26.2983V23.1483H19.2721V26.2983H10.8721ZM8.77207 42.0483L5.93707 32.4933C4.25707 31.1633 2.90957 29.5008 1.89457 27.5058C0.87957 25.5108 0.37207 23.3583 0.37207 21.0483C0.37207 18.7383 0.87957 16.5858 1.89457 14.5908C2.90957 12.5958 4.25707 10.9333 5.93707 9.60334L8.77207 0.0483398H21.3721L24.2071 9.60334C25.8871 10.9333 27.2346 12.5958 28.2496 14.5908C29.2646 16.5858 29.7721 18.7383 29.7721 21.0483C29.7721 23.3583 29.2646 25.5108 28.2496 27.5058C27.2346 29.5008 25.8871 31.1633 24.2071 32.4933L21.3721 42.0483H8.77207ZM15.0721 31.5483C17.9771 31.5483 20.4533 30.5246 22.5008 28.4771C24.5483 26.4296 25.5721 23.9533 25.5721 21.0483C25.5721 18.1433 24.5483 15.6671 22.5008 13.6196C20.4533 11.5721 17.9771 10.5483 15.0721 10.5483C12.1671 10.5483 9.69082 11.5721 7.64332 13.6196C5.59582 15.6671 4.57207 18.1433 4.57207 21.0483C4.57207 23.9533 5.59582 26.4296 7.64332 28.4771C9.69082 30.5246 12.1671 31.5483 15.0721 31.5483ZM11.0821 6.87334C11.7821 6.69834 12.4558 6.55834 13.1033 6.45334C13.7508 6.34834 14.4071 6.29584 15.0721 6.29584C15.7371 6.29584 16.3933 6.34834 17.0408 6.45334C17.6883 6.55834 18.3621 6.69834 19.0621 6.87334L18.2221 4.24834H11.9221L11.0821 6.87334ZM11.9221 37.8483H18.2221L19.0621 35.2233C18.3621 35.3983 17.6883 35.5296 17.0408 35.6171C16.3933 35.7046 15.7371 35.7483 15.0721 35.7483C14.4071 35.7483 13.7508 35.7046 13.1033 35.6171C12.4558 35.5296 11.7821 35.3983 11.0821 35.2233L11.9221 37.8483ZM11.9221 37.8483H11.0821H19.0621H11.9221Z" fill="#1E5BFA"/>
</g>
<defs>
<clipPath id="clip0_3164_4934">
<rect width="42" height="42" fill="white" transform="translate(0.5 0.0483398)"/>
</clipPath>
</defs>
</svg>
