<svg width="30" height="42" viewBox="0 0 30 42" fill="none" xmlns="http://www.w3.org/2000/svg">
<path d="M8.77207 25.1995V16.7995H11.9221V25.1995H8.77207ZM13.4971 25.1995V18.8995H16.6471V25.1995H13.4971ZM18.2221 25.1995V20.9995H21.3721V25.1995H18.2221ZM8.77207 41.9995L5.93707 32.4445C4.25707 31.1145 2.90957 29.452 1.89457 27.457C0.87957 25.462 0.37207 23.3095 0.37207 20.9995C0.37207 18.6895 0.87957 16.537 1.89457 14.542C2.90957 12.547 4.25707 10.8845 5.93707 9.55451L8.77207 -0.000488281H21.3721L24.2071 9.55451C25.8871 10.8845 27.2346 12.547 28.2496 14.542C29.2646 16.537 29.7721 18.6895 29.7721 20.9995C29.7721 23.3095 29.2646 25.462 28.2496 27.457C27.2346 29.452 25.8871 31.1145 24.2071 32.4445L21.3721 41.9995H8.77207ZM15.0721 31.4995C17.9771 31.4995 20.4533 30.4758 22.5008 28.4283C24.5483 26.3808 25.5721 23.9045 25.5721 20.9995C25.5721 18.0945 24.5483 15.6183 22.5008 13.5708C20.4533 11.5233 17.9771 10.4995 15.0721 10.4995C12.1671 10.4995 9.69082 11.5233 7.64332 13.5708C5.59582 15.6183 4.57207 18.0945 4.57207 20.9995C4.57207 23.9045 5.59582 26.3808 7.64332 28.4283C9.69082 30.4758 12.1671 31.4995 15.0721 31.4995ZM11.0821 6.82451C11.7821 6.64951 12.4558 6.50951 13.1033 6.40451C13.7508 6.29951 14.4071 6.24701 15.0721 6.24701C15.7371 6.24701 16.3933 6.29951 17.0408 6.40451C17.6883 6.50951 18.3621 6.64951 19.0621 6.82451L18.2221 4.19951H11.9221L11.0821 6.82451ZM11.9221 37.7995H18.2221L19.0621 35.1745C18.3621 35.3495 17.6883 35.4808 17.0408 35.5683C16.3933 35.6558 15.7371 35.6995 15.0721 35.6995C14.4071 35.6995 13.7508 35.6558 13.1033 35.5683C12.4558 35.4808 11.7821 35.3495 11.0821 35.1745L11.9221 37.7995ZM11.9221 37.7995H11.0821H19.0621H11.9221Z" fill="#1E5BFA"/>
</svg>
