<svg width="44" height="44" viewBox="0 0 44 44" fill="none" xmlns="http://www.w3.org/2000/svg">
<path d="M21.7847 22.7115L28.8068 16.3278M28.8068 16.3278V11.2208L35.8288 4.19873L36.4672 9.3057L40.9358 9.94407L33.2753 16.3278H28.8068Z" stroke="#1E5BFA" stroke-width="2.16956"/>
<path d="M30.5819 21.1621C30.7064 22.7857 30.3089 24.4067 29.4472 25.7885C28.5855 27.1704 27.3049 28.2407 25.792 28.8434C24.2792 29.4461 22.6134 29.5496 21.0376 29.1388C19.4618 28.7281 18.0585 27.8245 17.0324 26.56C16.0062 25.2955 15.411 23.7362 15.3336 22.1096C15.2561 20.483 15.7004 18.8742 16.6017 17.5179C17.503 16.1616 18.814 15.1288 20.3437 14.5701C21.8733 14.0114 23.5414 13.9561 25.1047 14.4123" stroke="#1E5BFA" stroke-width="2.16956"/>
<path d="M35.3503 21.4259C35.5626 24.1944 34.8847 26.9583 33.4155 29.3143C31.9463 31.6704 29.7627 33.4954 27.1833 34.523C24.6038 35.5506 21.7635 35.7271 19.0766 35.0267C16.3898 34.3264 13.9971 32.7858 12.2475 30.6297C10.4979 28.4737 9.48304 25.815 9.35094 23.0415C9.21884 20.2681 9.97642 17.525 11.5132 15.2124C13.0499 12.8998 15.2854 11.1388 17.8935 10.1862C20.5016 9.23365 23.3458 9.13939 26.0113 9.91719" stroke="#1E5BFA" stroke-width="2.16956"/>
<path d="M41.8461 20.1723C42.1754 24.4676 41.1237 28.7557 38.8443 32.411C36.5649 36.0664 33.1771 38.8977 29.1751 40.4921C25.1732 42.0864 20.7665 42.3602 16.598 41.2736C12.4294 40.187 8.71717 37.7969 6.00275 34.4518C3.28833 31.1068 1.71379 26.9819 1.50884 22.679C1.30389 18.376 2.47925 14.1201 4.86345 10.5323C7.24765 6.94436 10.7159 4.21219 14.7623 2.73431C18.8087 1.25644 23.2215 1.1102 27.3568 2.31694" stroke="#1E5BFA" stroke-width="2.16956"/>
</svg>
