<svg width="954" height="856" viewBox="0 0 954 856" fill="none" xmlns="http://www.w3.org/2000/svg">
<path d="M881.054 487.021L889.757 521.559L847.208 511.635M881.054 487.021L847.208 511.635M881.054 487.021L859.154 480.519M881.054 487.021L880.798 449.574M881.054 487.021L897.768 470.86M881.054 487.021L899.828 478.513L910.709 474.702M881.054 487.021L903.025 500.584L897.768 470.86M847.208 511.635L859.154 480.519M847.208 511.635L844.051 520.447M859.154 480.519L880.798 449.574M859.154 480.519L859.893 443.368M859.154 480.519L835.496 485.411M880.798 449.574L897.768 470.86M880.798 449.574L924.148 444.029M880.798 449.574L892.611 424.376M880.798 449.574L859.893 443.368M880.798 449.574L872.601 435.225M897.768 470.86L910.709 474.702M897.768 470.86L924.148 444.029M910.709 474.702L924.148 444.029M910.709 474.702L952.697 428.133M924.148 444.029L952.697 428.133M924.148 444.029L892.611 424.376M924.148 444.029L899.969 423.311M924.148 444.029L909.301 417.416M952.697 428.133L909.301 417.416M952.697 428.133L952.021 417.641M892.611 424.376L872.601 435.225M892.611 424.376L850.662 397.841M892.611 424.376L899.969 423.311M892.611 424.376L900.381 376.314M859.893 443.368L835.496 485.411M859.893 443.368L816.893 414.896M859.893 443.368L872.601 435.225M859.893 443.368L841.734 406.022M835.496 485.411L816.893 414.896M816.893 414.896L841.734 406.022M816.893 414.896L773.544 455.103L807.856 385.133M816.893 414.896L807.856 385.133M872.601 435.225L850.662 397.841M872.601 435.225L841.734 406.022M850.662 397.841L807.856 385.133M850.662 397.841L841.734 406.022M850.662 397.841L859.691 338.237M850.662 397.841L900.381 376.314M841.734 406.022L807.856 385.133M807.856 385.133L745.243 453.742L692.654 393.718M807.856 385.133L692.654 393.718M807.856 385.133L859.691 338.237M807.856 385.133L769.679 303.932M807.856 385.133L747.187 334.084M692.654 393.718L747.187 334.084M692.654 393.718L669.377 306.109M692.654 393.718L642.935 311.257M859.691 338.237L904.269 310.309M859.691 338.237L918.144 362.089M859.691 338.237L900.381 376.314M859.691 338.237L847.458 286.402M859.691 338.237L769.679 303.932M904.269 310.309L906.758 311.048M904.269 310.309L918.144 362.089M904.269 310.309L901.306 265.56M904.269 310.309L847.458 286.402M906.758 311.048L909.141 312.142M906.758 311.048L901.306 265.56M925.656 345.905L936.786 324.837L909.141 312.142M925.656 345.905L909.141 312.142M925.656 345.905L918.144 362.089M925.656 345.905L945.698 345.897M918.144 362.089L900.381 376.314M918.144 362.089L915.313 380.747M918.144 362.089L908.345 378.678M918.144 362.089L927.476 356.194M918.144 362.089L926.52 352.119M900.381 376.314L908.345 378.678M900.381 376.314L914.255 393.431M900.381 376.314L899.969 423.311M915.313 380.747L908.345 378.678M915.313 380.747L930.245 385.18M915.313 380.747L927.476 356.194M915.313 380.747L914.255 393.431M908.345 378.678L914.255 393.431M930.245 385.18L927.476 356.194M930.245 385.18L952.627 386.408L927.476 356.194M930.245 385.18L951.088 404.366M930.245 385.18L914.255 393.431M927.476 356.194L945.698 345.897M927.476 356.194L926.52 352.119M945.698 345.897L926.52 352.119M951.088 404.366L914.255 393.431M951.088 404.366L952.021 417.641M951.088 404.366L909.301 417.416M914.255 393.431L899.969 423.311M914.255 393.431L909.301 417.416M899.969 423.311L909.301 417.416M909.301 417.416L952.021 417.641M901.306 265.56L847.458 286.402M901.306 265.56L869.879 249.189M847.458 286.402L819.281 259.081M847.458 286.402L869.879 249.189M847.458 286.402L769.679 303.932M769.679 303.932L747.187 334.084M769.679 303.932L717.3 265.093M769.679 303.932L758.876 265.521M769.679 303.932L819.281 259.081M747.187 334.084L669.377 306.109M747.187 334.084L717.3 265.093M669.377 306.109L642.935 311.257M669.377 306.109L717.3 265.093M669.377 306.109L665.986 302.936M642.935 311.257L661.95 300.113M642.935 311.257L665.986 302.936M642.935 311.257L610.458 258.287M642.935 311.257L569.395 332.753M717.3 265.093L665.986 302.936M717.3 265.093L661.95 300.113M717.3 265.093L668.942 223.656M717.3 265.093L751.877 217.948M717.3 265.093L758.876 265.521M665.986 302.936L661.95 300.113M661.95 300.113L668.942 223.656M661.95 300.113L610.458 258.287M668.942 223.656L613.744 256.342M668.942 223.656L637.919 174.909M668.942 223.656L729.775 175.64M668.942 223.656L751.877 217.948M610.458 258.287L569.395 332.753M610.458 258.287L557.55 277.785M610.458 258.287L596.871 185.47M610.458 258.287L613.744 256.342M610.458 258.287L565.988 220.172M569.395 332.753L557.55 277.785M557.55 277.785L516.386 230.36M557.55 277.785L502.822 321.655M557.55 277.785L513.275 324.758M596.871 185.47L637.919 174.909M596.871 185.47L551.134 173.517M596.871 185.47L587.624 169.185M637.919 174.909L613.744 256.342M637.919 174.909L587.624 169.185M637.919 174.909L659.228 114.077M637.919 174.909L596.203 125.695M565.988 220.172L551.134 173.517M565.988 220.172L516.386 230.36M551.134 173.517L587.624 169.185M551.134 173.517L573.805 153.709M551.134 173.517L541.428 153.304M551.134 173.517L511.308 141.654M551.134 173.517L474.67 181.146M551.134 173.517L516.386 230.36M587.624 169.185L596.203 125.695M587.624 169.185L573.805 153.709M729.775 175.64L751.877 217.948M729.775 175.64L743.501 158.593M729.775 175.64L728.274 120.493M729.775 175.64L659.228 114.077M751.877 217.948L758.876 265.521M751.877 217.948L813.433 231.348M751.877 217.948L774.757 184.662M751.877 217.948L811.73 209.72M758.876 265.521L819.281 259.081M758.876 265.521L813.433 231.348M819.281 259.081L813.433 231.348M819.281 259.081L829.858 236.224M819.281 259.081L869.879 249.189M813.433 231.348L811.73 209.72M813.433 231.348L829.858 236.224M774.757 184.662L811.73 209.72M774.757 184.662L805.322 160.156M811.73 209.72L816.458 193.792L805.322 160.156M811.73 209.72L854.364 197.463M811.73 209.72L829.858 236.224M854.364 197.463L829.858 236.224M854.364 197.463L863.168 215.242M829.858 236.224L863.168 215.242M829.858 236.224L869.879 249.189M863.168 215.242L869.879 249.189M844.051 520.447L889.671 543.739L829.648 527.003L844.051 520.447ZM805.322 160.156L775.644 181.675M805.322 160.156L763.193 157.94M805.322 160.156L741.744 135.324M775.644 181.675L763.193 157.94M775.644 181.675L743.501 158.593M763.193 157.94L741.744 135.324M763.193 157.94L743.501 158.593M743.501 158.593L728.274 120.493M743.501 158.593L741.744 135.324M728.274 120.493L741.744 135.324M728.274 120.493L659.228 114.077M659.228 114.077L596.203 125.695M659.228 114.077L678.477 80.2539L639.84 64.4507M659.228 114.077L639.84 64.4507M596.203 125.695L573.805 153.709M596.203 125.695L639.84 64.4507M596.203 125.695L579.062 79.4449M596.203 125.695L574.505 85.6743M596.203 125.695L536.972 108.111M573.805 153.709L536.972 108.111M573.805 153.709L541.428 153.304M639.84 64.4507L579.062 79.4449M579.062 79.4449L574.505 85.6743M579.062 79.4449L557.706 54.6903M579.062 79.4449L612.434 45.4823L565.18 42.2858M579.062 79.4449L565.18 42.2858M574.505 85.6743L536.972 108.111M574.505 85.6743L537.859 70.4622M574.505 85.6743L557.706 54.6903M536.972 108.111L541.428 153.304M536.972 108.111L511.308 141.654M536.972 108.111L498.958 66.4958M536.972 108.111L527.585 77.7027M536.972 108.111L537.859 70.4622M541.428 153.304L511.308 141.654M511.308 141.654L474.67 181.146M511.308 141.654L449.285 138.947M511.308 141.654L498.958 66.4958M511.308 141.654L467.017 79.2191M474.67 181.146L516.386 230.36M474.67 181.146L449.285 138.947M474.67 181.146L389.821 178.704M474.67 181.146L426.008 224.651M516.386 230.36L426.008 224.651M516.386 230.36L438.615 302.593M516.386 230.36L459.146 317.354M516.386 230.36L477.065 322.674M516.386 230.36L502.822 321.655M449.285 138.947L467.017 79.2191M449.285 138.947L422.33 69.2021M449.285 138.947L367.415 117.35M449.285 138.947L389.821 178.704M498.958 66.4958L527.585 77.7027M498.958 66.4958L537.859 70.4622M498.958 66.4958L516.176 1.19921M498.958 66.4958L466.434 31.9265M498.958 66.4958L468.798 23.9627M498.958 66.4958L467.017 79.2191M527.585 77.7027L537.859 70.4622M537.859 70.4622L557.706 54.6903M537.859 70.4622L516.176 1.19921M557.706 54.6903L565.18 42.2858M557.706 54.6903L516.176 1.19921M516.176 1.19921L468.798 23.9627M466.434 31.9265L468.798 23.9627M466.434 31.9265L467.017 79.2191M466.434 31.9265L448.049 37.3004M468.798 23.9627L466.846 19.592M467.017 79.2191L422.33 69.2021M467.017 79.2191L448.049 37.3004M422.33 69.2021L448.049 37.3004M422.33 69.2021L409.389 65.3602M422.33 69.2021L367.415 117.35M448.049 37.3004L466.846 19.592M448.049 37.3004L409.389 65.3602M448.049 37.3004L389.433 43.1876M466.846 19.592L389.433 43.1876M409.389 65.3602L389.433 43.1876M409.389 65.3602L367.415 117.35M389.433 43.1876L402.086 68.0666M389.433 43.1876L351.395 80.0977M389.433 43.1876L301.94 55.1253M389.433 43.1876L306.879 60.3826M389.433 43.1876L275.062 12.4833M402.086 68.0666L351.395 80.0977M402.086 68.0666L367.415 117.35M402.086 68.0666L353.899 86.2572M351.395 80.0977L353.899 86.2572M351.395 80.0977L306.202 119.217M351.395 80.0977L306.879 60.3826M367.415 117.35L353.899 86.2572M367.415 117.35L306.202 119.217M367.415 117.35L343.594 151.982M367.415 117.35L389.821 178.704M353.899 86.2572L306.202 119.217M306.202 119.217L343.594 151.982M306.202 119.217L288.019 125.734M306.202 119.217L269.914 90.0289M306.202 119.217L306.879 60.3826M343.594 151.982L389.821 178.704M343.594 151.982L340.965 206.445M343.594 151.982L261.398 189.864M343.594 151.982L288.019 125.734M389.821 178.704L340.965 206.445M389.821 178.704L426.008 224.651M340.965 206.445L426.008 224.651M340.965 206.445L409.692 257.719M340.965 206.445L324.003 274.526M340.965 206.445L328.934 225.079M340.965 206.445L261.398 189.864M426.008 224.651L409.692 257.719M426.008 224.651L438.615 302.593M409.692 257.719L393.153 297.763M409.692 257.719L427.556 296.061M409.692 257.719L438.615 302.593M409.692 257.719L324.003 274.526M392.356 299.692L327.27 338.321M392.356 299.692L334.456 346.954M392.356 299.692L438.615 302.593M392.356 299.692L393.153 297.763M392.356 299.692L466.169 355.727M392.356 299.692L441.858 375.589M392.356 299.692L324.003 274.526M327.27 338.321L284.915 378.824M327.27 338.321L324.003 274.526M327.27 338.321L334.456 346.954M284.915 378.824L334.456 346.954M284.915 378.824L307.648 380.699M284.915 378.824L276.493 407.195M284.915 378.824L295.71 397.194M284.915 378.824L242.312 401.922M284.915 378.824L220.233 315.752M334.456 346.954L441.22 430.644M334.456 346.954L322.588 405.173M334.456 346.954L307.648 380.699M334.456 346.954L319.376 377.681M334.456 346.954L355.461 440.388M438.615 302.593L427.556 296.061M438.615 302.593L459.146 317.354M438.615 302.593L466.169 355.727M427.556 296.061L393.153 297.763M459.146 317.354L477.065 322.674M459.146 317.354L466.169 355.727M477.065 322.674L484.935 327.177M477.065 322.674L502.822 321.655M477.065 322.674L471.092 355.563M477.065 322.674L466.169 355.727M484.935 327.177L502.822 321.655M484.935 327.177L503.522 357.609M484.935 327.177L471.092 355.563M502.822 321.655L513.275 324.758M502.822 321.655L503.522 357.609M513.275 324.758L548.871 338.034M548.871 338.034L515.927 330.42L517.288 336.782M548.871 338.034L517.288 336.782M548.871 338.034L506.618 361.777M517.288 336.782L506.618 361.777M517.288 336.782L503.522 357.609M506.618 361.777L471.092 355.563M506.618 361.777L461.635 387.418M506.618 361.777L539.911 404.699M506.618 361.777L554.413 395.986M503.522 357.609L471.092 355.563M466.169 355.727L441.858 375.589M466.169 355.727L461.635 387.418M441.858 375.589L461.635 387.418M461.635 387.418L470.648 357.057M461.635 387.418L539.911 404.699M461.635 387.418L543.007 408.868M461.635 387.418L441.22 430.644M539.911 404.699L555.753 396.946L554.413 395.986M539.911 404.699L543.007 408.868M554.413 395.986L543.007 408.868M543.007 408.868L574.667 402.561M543.007 408.868L563.717 399.31M543.007 408.868L589.032 434.447L574.932 460.049M543.007 408.868L574.932 460.049M543.007 408.868L451.812 482.533M543.007 408.868L441.22 430.644M574.932 460.049L451.812 482.533M574.932 460.049L500.186 529.39M574.932 460.049L562.41 567.902M574.932 460.049L608.762 534.002L562.41 567.902M451.812 482.533L500.186 529.39M451.812 482.533L402.964 495.652M451.812 482.533L427.33 477.431M451.812 482.533L441.22 430.644M451.812 482.533L463.579 545.061M500.186 529.39L562.41 567.902M500.186 529.39L539.141 569.66M500.186 529.39L475.874 583.915M500.186 529.39L463.579 545.061M562.41 567.902L615.233 535.923M562.41 567.902L618.406 567.195M562.41 567.902L611.904 589.095M562.41 567.902L606.055 596.024M562.41 567.902L562.255 583.021M562.41 567.902L550.807 579.622M562.41 567.902L539.141 569.66M615.233 535.923L623.383 568.672M615.233 535.923L618.406 567.195M623.383 568.672L618.406 567.195M623.383 568.672L611.904 589.095M623.383 568.672L644.264 584.079M618.406 567.195L611.904 589.095M611.904 589.095L644.264 584.079M611.904 589.095L624.969 601.639L606.055 596.024M611.904 589.095L606.055 596.024M644.264 584.079L663.412 567.016M606.055 596.024L562.255 583.021M606.055 596.024L587.39 642.477M606.055 596.024L609.788 614.464L587.39 642.477M606.055 596.024L579.683 642.897M562.255 583.021L550.807 579.622M562.255 583.021L579.683 642.897M562.255 583.021L549.158 594.298M550.807 579.622L539.141 569.66M539.141 569.66L549.158 594.298M539.141 569.66L526.457 603.265M539.141 569.66L475.874 583.915M587.39 642.477L579.683 642.897M579.683 642.897C570.586 644.349 552.482 646.953 552.837 645.759M579.683 642.897L544.601 600.527M579.683 642.897L549.158 594.298M552.837 645.759C553.191 644.564 547.494 615.107 544.601 600.527M552.837 645.759L526.457 603.265M552.837 645.759L513.259 631.301M544.601 600.527L549.158 594.298M544.601 600.527L526.457 603.265M549.158 594.298L526.457 603.265M526.457 603.265L475.874 583.915M526.457 603.265L513.259 631.301M475.874 583.915L463.579 545.061M475.874 583.915L513.259 631.301M475.874 583.915L470.928 627.941M475.874 583.915L438.093 623.609M475.874 583.915L432.564 585.68M463.579 545.061L432.564 585.68M463.579 545.061L402.964 495.652M463.579 545.061L402.209 562.046M513.259 631.301L470.928 627.941M513.259 631.301L488.356 653.155M470.928 627.941L488.356 653.155M470.928 627.941L471.138 649.126M470.928 627.941L446.78 652.727M470.928 627.941L438.093 623.609M488.356 653.155L471.138 649.126M471.138 649.126L446.78 652.727M446.78 652.727L438.093 623.609M438.093 623.609L441.927 659.952M438.093 623.609L393.709 667.301L378.287 648.099M438.093 623.609L378.287 648.099M438.093 623.609L432.564 585.68M438.093 623.609L393.725 603.397M378.287 648.099L393.725 603.397M378.287 648.099L368.231 627.241M378.287 648.099L373.45 626.082M378.287 648.099L347.326 655.698M378.287 648.099L374.048 678.796L352.646 672.442M378.287 648.099L352.646 672.442M432.564 585.68L393.725 603.397M432.564 585.68L402.209 562.046M393.725 603.397L373.45 626.082M393.725 603.397L363.744 605.87M393.725 603.397L402.209 562.046M393.725 603.397L374.08 585.649M368.231 627.241L373.45 626.082M368.231 627.241L363.744 605.87M368.231 627.241L347.326 655.698M368.231 627.241L356.192 625.833M373.45 626.082L363.744 605.87M363.744 605.87L342.295 583.254M363.744 605.87L374.08 585.649M363.744 605.87L356.192 625.833M347.326 655.698L352.646 672.442M347.326 655.698L316.599 675.28M347.326 655.698L356.192 625.833M347.326 655.698L340.14 647.065M347.326 655.698L325.021 646.909M352.646 672.442L316.599 675.28M352.646 672.442L340.451 720.815M352.646 672.442L368.752 687.514L340.451 720.815M316.599 675.28L340.451 720.815M316.599 675.28L307.725 719.765M316.599 675.28L309.84 659.734M316.599 675.28L290.95 679.581M316.599 675.28L282.9 699.397L307.725 719.765M316.599 675.28L324.43 648.9M340.451 720.815L363.565 734.176M340.451 720.815L318.068 754.249M340.451 720.815L307.725 719.765M363.565 734.176L289.713 855.235M363.565 734.176L319.938 753.424M318.068 754.249L289.713 855.235M318.068 754.249L307.725 719.765M318.068 754.249L319.938 753.424M307.725 719.765L296.347 758.091M289.713 855.235L296.347 758.091M296.347 758.091L319.938 753.424M441.22 430.644L427.33 477.431M441.22 430.644L355.461 440.388M441.22 430.644L369.095 460.142M441.22 430.644L385.714 480.783M427.33 477.431L402.964 495.652M402.964 495.652L385.714 480.783M402.964 495.652L387.526 505.693M402.964 495.652L402.209 562.046M322.588 405.173L319.376 377.681M322.588 405.173L295.71 397.194M322.588 405.173L291.425 411.628M322.588 405.173L355.461 440.388M322.588 405.173L348.874 484.469M322.588 405.173L289.622 497.973M319.376 377.681L307.648 380.699M307.648 380.699L295.71 397.194M276.493 407.195L295.71 397.194M276.493 407.195L291.425 411.628M276.493 407.195L254.639 451.618M276.493 407.195L242.312 401.922M295.71 397.194L291.425 411.628M291.425 411.628L254.639 451.618M355.461 440.388L348.874 484.469M355.461 440.388L369.095 460.142M369.095 460.142L348.874 484.469M348.874 484.469L289.622 497.973M348.874 484.469L385.714 480.783M348.874 484.469L365.805 509.534M289.622 497.973L254.639 451.618M289.622 497.973L251.668 490.815M289.622 497.973L268.816 522.444M289.622 497.973L365.805 509.534M289.622 497.973L331.344 580.003M254.639 451.618L216.305 454.861M254.639 451.618L251.668 490.815M242.312 401.922L220.233 315.752M242.312 401.922L216.305 454.861M242.312 401.922L228.539 402.708M220.233 315.752L183.362 377.922M220.233 315.752L217.701 405.448M220.233 315.752L228.539 402.708M220.233 315.752L324.003 274.526M220.233 315.752L247.088 263.606M220.233 315.752L188.923 288.042M216.305 454.861L251.668 490.815M216.305 454.861L212.611 501.967M216.305 454.861L182.047 457.147M216.305 454.861L202.47 433.964M216.305 454.861L217.701 405.448M216.305 454.861L228.539 402.708M251.668 490.815L212.611 501.967M251.668 490.815L248.86 500.272M251.668 490.815L268.816 522.444M212.611 501.967L248.86 500.272M212.611 501.967L240.438 528.643M212.611 501.967L178.26 541.055M212.611 501.967L145.44 472.818M212.611 501.967L152.16 526.807M212.611 501.967L182.047 457.147M248.86 500.272L268.816 522.444M248.86 500.272L240.438 528.643M268.816 522.444L240.438 528.643M268.816 522.444L331.344 580.003M268.816 522.444L314.841 617.349M240.438 528.643L314.841 617.349M240.438 528.643L212.93 561.096M240.438 528.643L178.26 541.055M365.805 509.534L385.714 480.783M365.805 509.534L387.526 505.693M365.805 509.534L379.547 567.233M365.805 509.534L342.295 583.254M365.805 509.534L331.344 580.003M385.714 480.783L387.526 505.693M387.526 505.693L379.547 567.233M387.526 505.693L402.209 562.046M379.547 567.233L374.08 585.649M379.547 567.233L342.295 583.254M402.209 562.046L374.08 585.649M374.08 585.649L342.295 583.254M342.295 583.254L356.192 625.833M342.295 583.254L314.841 617.349M342.295 583.254L331.344 580.003M356.192 625.833L340.14 647.065M356.192 625.833L314.841 617.349M340.14 647.065L314.841 617.349M340.14 647.065L325.021 646.909M314.841 617.349L325.021 646.909M314.841 617.349L303.907 654.181M314.841 617.349L274.789 662.868M314.841 617.349L281.151 661.507M314.841 617.349L259.748 655.153M314.841 617.349L331.344 580.003M314.841 617.349L212.93 561.096M325.021 646.909L324.43 648.9M309.84 659.734L290.95 679.581M309.84 659.734L281.151 661.507M290.95 679.581L281.151 661.507M290.95 679.581L274.789 662.868M303.907 654.181L324.43 648.9M303.907 654.181L281.151 661.507M274.789 662.868L259.748 655.153M274.789 662.868L243.346 710.402M259.748 655.153L243.346 710.402M259.748 655.153L239.209 655.013M259.748 655.153L195.61 608.49M259.748 655.153L212.93 561.096M243.346 710.402L239.209 655.013M243.346 710.402L163.257 668.211M243.346 710.402L146.855 723.459M239.209 655.013L163.257 668.211M239.209 655.013L195.61 608.49M163.257 668.211L146.855 723.459M163.257 668.211L195.61 608.49M163.257 668.211L128.136 594.958M163.257 668.211L82.3832 646.909M163.257 668.211L103.723 700.905M146.855 723.459L103.723 700.905M195.61 608.49L212.93 561.096M195.61 608.49L143.768 566.019M195.61 608.49L128.136 594.958M212.93 561.096L178.26 541.055M212.93 561.096L143.768 566.019M178.26 541.055L143.768 566.019M178.26 541.055L152.16 526.807M143.768 566.019L128.136 594.958M143.768 566.019L122.443 586.769M143.768 566.019L120.763 555.94M143.768 566.019C145.976 564.421 150.282 539.212 152.16 526.807M143.768 566.019L131.558 539.647M128.136 594.958L122.443 586.769M128.136 594.958L87.3218 582.841M128.136 594.958L82.3832 646.909M128.136 594.958L82.5543 637.211L82.3832 646.909M122.443 586.769L87.3218 582.841M122.443 586.769L120.763 555.94M87.3218 582.841L120.763 555.94M87.3218 582.841L111.073 541.148M87.3218 582.841L71.6898 542.454M120.763 555.94L111.073 541.148M120.763 555.94L131.558 539.647M111.073 541.148L131.558 539.647M111.073 541.148L112.341 514.986M111.073 541.148L71.6898 542.454M152.16 526.807L145.44 472.818M152.16 526.807L131.558 539.647M152.16 526.807L129.785 510.957M82.3832 646.909L103.723 700.905M145.44 472.818L129.785 510.957M145.44 472.818L136.092 473.293M145.44 472.818L127.366 447.955M145.44 472.818L182.047 457.147M131.558 539.647L129.785 510.957M131.558 539.647L112.341 514.986M112.341 514.986L129.785 510.957M112.341 514.986L71.6898 542.454M112.341 514.986L73.4398 476.357M112.341 514.986L103.11 469.458M129.785 510.957L136.092 473.293M129.785 510.957L103.11 469.458M136.092 473.293L103.11 469.458M136.092 473.293L127.366 447.955M103.11 469.458L127.366 447.955M103.11 469.458L73.4398 476.357M103.11 469.458L68.7036 472.243M127.366 447.955L67.0082 435.993M127.366 447.955L106.119 391.82M127.366 447.955L142.929 377.292M127.366 447.955L178.436 456.54M67.0082 435.993L68.7036 472.243M67.0082 435.993L30.2458 432.12M67.0082 435.993L56.7969 395.591M67.0082 435.993L106.119 391.82M68.7036 472.243L45.2633 483.698M68.7036 472.243L30.2458 432.12M45.2633 483.698L30.2458 432.12M45.2633 483.698L13.2527 489.36L8.73424 457.147M45.2633 483.698L8.73424 457.147M45.2633 483.698L31.6688 529.49L38.6371 531.559M45.2633 483.698L38.6371 531.559M45.2633 483.698L70.9899 541.163M45.2633 483.698L73.4398 476.357M30.2458 432.12L8.73424 457.147M30.2458 432.12L56.7969 395.591M30.2458 432.12L26.2718 381.655M30.2458 432.12L2.52819 408.727M30.2458 432.12L3.19698 433.839M8.73424 457.147L3.19698 433.839M38.6371 531.559L55.9256 542.649M38.6371 531.559L70.9899 541.163M55.9256 542.649L70.9899 541.163M55.9256 542.649L85.8286 582.398M70.9899 541.163L73.4398 476.357M182.047 457.147L142.929 377.292M182.047 457.147L202.47 433.964M182.047 457.147L178.436 456.54M56.7969 395.591L106.119 391.82M56.7969 395.591L26.2718 381.655M56.7969 395.591L53.2195 362.033M56.7969 395.591L40.0373 360.828M106.119 391.82L142.929 377.292M106.119 391.82L141.824 373.714M106.119 391.82L64.2242 332.262M106.119 391.82L53.2195 362.033M142.929 377.292L141.824 373.714M142.929 377.292L183.362 377.922M141.824 373.714L183.362 377.922M141.824 373.714L188.923 288.042M141.824 373.714L64.2242 332.262M141.824 373.714L62.6533 304.716M141.824 373.714L114.861 249.265M202.47 433.964L217.701 405.448M217.701 405.448L183.914 379.711L188.923 288.042M217.701 405.448L178.436 456.54M217.701 405.448L228.539 402.708M188.923 288.042L114.861 249.265M188.923 288.042L149.446 256.824M188.923 288.042L155.644 250.541M188.923 288.042L182.009 218.289M188.923 288.042L247.088 263.606M64.2242 332.262L42.7438 333.468M64.2242 332.262L53.2195 362.033M64.2242 332.262L62.6533 304.716M42.7438 333.468L40.2318 341.929M42.7438 333.468L62.6533 304.716M42.7438 333.468L35.0135 273.763M40.2318 341.929L1.36941 403.508L26.2718 381.655M40.2318 341.929L26.2718 381.655M40.2318 341.929L53.2195 362.033M40.2318 341.929L40.0373 360.828M40.2318 341.929L35.0135 273.763M26.2718 381.655L40.0373 360.828M26.2718 381.655L2.52819 408.727M53.2195 362.033L40.0373 360.828M2.52819 408.727L3.19698 433.839M62.6533 304.716L35.0135 273.763M62.6533 304.716L114.861 249.265M62.6533 304.716L109.969 225.607M62.6533 304.716L66.0831 234.784M62.6533 304.716L88.839 227.458M35.0135 273.763L66.0831 234.784M114.861 249.265L109.969 225.607M109.969 225.607L88.839 227.458M109.969 225.607L109.371 207.556M109.969 225.607L134.701 213.451M109.969 225.607L149.446 256.824M109.969 225.607L134.825 222.154M109.969 225.607L134.6 230.211M109.969 225.607L135.929 225.732M109.969 225.607L116.619 203.209M66.0831 234.784L65.3522 187.989M66.0831 234.784L76.1156 230.18M65.3522 187.989L76.1156 230.18M65.3522 187.989L109.371 207.556M65.3522 187.989L88.839 227.458M65.3522 187.989L98.2649 184.762M76.1156 230.18L88.839 227.458M88.839 227.458L109.371 207.556M109.371 207.556L116.619 203.209M109.371 207.556L98.2649 184.762M116.619 203.209L98.2649 184.762M116.619 203.209L134.701 213.451M116.619 203.209L162.691 175.725M98.2649 184.762L162.691 175.725M98.2649 184.762L139.818 125.065M134.701 213.451L134.825 222.154M134.701 213.451L182.009 218.289M134.701 213.451L162.691 175.725M134.825 222.154L135.929 225.732M134.825 222.154L154.766 238.906M134.825 222.154L182.009 218.289M135.929 225.732L134.6 230.211M135.929 225.732L154.766 238.906M134.6 230.211L149.446 256.824M134.6 230.211L155.644 250.541M134.6 230.211L154.766 238.906M149.446 256.824L155.644 250.541M155.644 250.541L154.766 238.906M155.644 250.541L182.009 218.289M154.766 238.906L182.009 218.289M182.009 218.289L247.088 263.606M182.009 218.289L246.434 209.252M182.009 218.289L219.121 188.145M182.009 218.289L162.691 175.725M247.088 263.606L324.003 274.526M247.088 263.606L328.934 225.079M247.088 263.606L246.434 209.252M324.003 274.526L328.934 225.079M328.934 225.079L246.434 209.252M328.934 225.079L334.907 226.852M328.934 225.079L261.398 189.864M246.434 209.252L261.398 189.864M246.434 209.252L255.923 188.238M246.434 209.252L219.121 188.145M261.398 189.864L255.923 188.238M261.398 189.864L288.019 125.734M261.398 189.864L272.325 132.99M255.923 188.238L272.325 132.99M255.923 188.238L219.121 188.145M288.019 125.734L269.914 90.0289M288.019 125.734L260.41 105.622M288.019 125.734L272.325 132.99M269.914 90.0289L306.879 60.3826M269.914 90.0289L301.94 55.1253M269.914 90.0289L260.41 105.622M269.914 90.0289L224.908 90.2077M269.914 90.0289L271.042 49.7435M306.879 60.3826L301.94 55.1253M301.94 55.1253L275.062 12.4833M301.94 55.1253L271.042 49.7435M275.062 12.4833L271.042 49.7435M272.325 132.99L219.121 188.145M272.325 132.99L260.41 105.622M272.325 132.99L197.167 110.677M219.121 188.145L197.167 110.677M219.121 188.145L162.691 175.725M260.41 105.622L224.908 90.2077M260.41 105.622L197.167 110.677M224.908 90.2077L271.042 49.7435M224.908 90.2077L197.167 110.677M271.042 49.7435L215.311 73.2769M197.167 110.677L162.691 175.725M197.167 110.677L157.511 138.441M197.167 110.677L159.728 130.975L157.511 138.441M197.167 110.677L201.016 83.1149M162.691 175.725L157.511 138.441M162.691 175.725L139.818 125.065M139.818 125.065L130.688 97.4402L157.737 130.384M139.818 125.065L157.737 130.384M139.818 125.065L157.511 138.441M157.737 130.384L172.809 79.6152M157.737 130.384L193.449 97.6581M201.016 83.1149L215.311 73.2769M201.016 83.1149L195.938 63.7343L215.311 73.2769M201.016 83.1149L172.809 79.6152M201.016 83.1149L193.449 97.6581M172.809 79.6152L193.449 97.6581" stroke="black" stroke-opacity="0.09" stroke-width="1.1653"/>
</svg>
