<svg width="52" height="52" viewBox="0 0 52 52" fill="none" xmlns="http://www.w3.org/2000/svg">
<path d="M32.6883 33.1054C28.3839 37.9907 23.5543 41.5205 19.2675 43.3053C14.9061 45.1211 11.4672 45.0065 9.52094 43.2916C7.57465 41.5767 7.02791 38.1797 8.28009 33.6243C9.51085 29.1468 12.4044 23.9112 16.7087 19.0258C21.0131 14.1405 25.8428 10.6107 30.1296 8.82596C34.491 7.01013 37.9298 7.12476 39.8761 8.83963C41.8224 10.5545 42.3691 13.9515 41.1169 18.5069C39.8862 22.9844 36.9927 28.2201 32.6883 33.1054Z" stroke="#1E5BFA" stroke-width="2.16956"/>
<path d="M18.2214 33.2744C13.6198 28.6728 10.4251 23.6115 8.9489 19.1891C7.44968 14.6976 7.8146 11.213 9.71205 9.31549C11.6095 7.41803 15.0941 7.05311 19.5856 8.55234C24.008 10.0285 29.0692 13.2233 33.6708 17.8249C38.2724 22.4265 41.4672 27.4878 42.9433 31.9102C44.4425 36.4017 44.0776 39.8864 42.1802 41.7838C40.2827 43.6813 36.7981 44.0462 32.3066 42.547C27.8843 41.0708 22.823 37.876 18.2214 33.2744Z" stroke="#1E5BFA" stroke-width="2.16956"/>
<path d="M44.0934 10.0084C44.0934 11.7101 42.7139 13.0896 41.0123 13.0896C39.3106 13.0896 37.9311 11.7101 37.9311 10.0084C37.9311 8.30672 39.3106 6.92724 41.0123 6.92724C42.7139 6.92724 44.0934 8.30672 44.0934 10.0084Z" fill="white" stroke="#1E5BFA" stroke-width="1.30174"/>
<path d="M10.7365 16.8058C10.7365 18.5074 9.35701 19.8869 7.65535 19.8869C5.95368 19.8869 4.57421 18.5074 4.57421 16.8058C4.57421 15.1041 5.95368 13.7246 7.65535 13.7246C9.35701 13.7246 10.7365 15.1041 10.7365 16.8058Z" fill="white" stroke="#1E5BFA" stroke-width="1.30174"/>
<path d="M30.147 25.8601C30.147 28.0092 28.4049 29.7513 26.2558 29.7513C24.1067 29.7513 22.3646 28.0092 22.3646 25.8601C22.3646 23.711 24.1067 21.9688 26.2558 21.9688C28.4049 21.9688 30.147 23.711 30.147 25.8601Z" stroke="#1E5BFA" stroke-width="2.16956"/>
</svg>
