<svg width="61" height="61" viewBox="0 0 61 61" fill="none" xmlns="http://www.w3.org/2000/svg">
<path fill-rule="evenodd" clip-rule="evenodd" d="M5.17857 55.8227C0.833984 51.4782 0.833984 44.4857 0.833984 30.5007C0.833984 16.5157 0.833984 9.52315 5.17857 5.17857C9.52315 0.833984 16.5156 0.833984 30.5007 0.833984C44.4857 0.833984 51.4782 0.833984 55.8227 5.17857C60.1673 9.52315 60.1673 16.5157 60.1673 30.5007C60.1673 44.4857 60.1673 51.4782 55.8227 55.8227C51.4782 60.1673 44.4857 60.1673 30.5007 60.1673C16.5156 60.1673 9.52315 60.1673 5.17857 55.8227ZM30.5007 44.5923C31.7295 44.5923 32.7257 43.5962 32.7257 42.3673V24.0056L37.8273 29.1073C38.6963 29.9762 40.105 29.9762 40.974 29.1073C41.8429 28.2384 41.8429 26.8296 40.974 25.9607L32.074 17.0607C31.6567 16.6434 31.0908 16.409 30.5007 16.409C29.9105 16.409 29.3446 16.6434 28.9273 17.0607L20.0273 25.9607C19.1584 26.8296 19.1584 28.2384 20.0273 29.1073C20.8963 29.9762 22.305 29.9762 23.174 29.1073L28.2757 24.0056V42.3673C28.2757 43.5962 29.2718 44.5923 30.5007 44.5923Z" fill="black"/>
</svg>
