<svg width="39" height="45" viewBox="0 0 39 45" fill="none" xmlns="http://www.w3.org/2000/svg">
<path d="M16.8232 27.4869V43.8731H0.437012C0.437012 39.5272 2.16341 35.3593 5.23642 32.2863C8.30942 29.2133 12.4773 27.4869 16.8232 27.4869V27.4869ZM16.8232 25.4387C10.0332 25.4387 4.53356 19.939 4.53356 13.149C4.53356 6.35899 10.0332 0.859375 16.8232 0.859375C23.6132 0.859375 29.1128 6.35899 29.1128 13.149C29.1128 19.939 23.6132 25.4387 16.8232 25.4387ZM22.1385 37.3432C21.8788 36.2503 21.8788 35.1118 22.1385 34.0189L20.1066 32.8452L22.1549 29.2976L24.1867 30.4713C25.0023 29.6988 25.9881 29.1291 27.0646 28.8081V26.4628H31.1611V28.8081C32.2508 29.1317 33.234 29.7093 34.0389 30.4713L36.0708 29.2976L38.1191 32.8452L36.0872 34.0189C36.3466 35.1111 36.3466 36.2489 36.0872 37.3412L38.1191 38.5148L36.0708 42.0625L34.0389 40.8888C33.2234 41.6612 32.2376 42.231 31.1611 42.552V44.8973H27.0646V42.552C25.9881 42.231 25.0023 41.6612 24.1867 40.8888L22.1549 42.0625L20.1066 38.5148L22.1385 37.3432V37.3432ZM29.1128 33.6318C28.5696 33.6318 28.0486 33.8476 27.6645 34.2317C27.2804 34.6158 27.0646 35.1368 27.0646 35.68C27.0646 36.2233 27.2804 36.7443 27.6645 37.1284C28.0486 37.5125 28.5696 37.7283 29.1128 37.7283C29.6561 37.7283 30.1771 37.5125 30.5612 37.1284C30.9453 36.7443 31.1611 36.2233 31.1611 35.68C31.1611 35.1368 30.9453 34.6158 30.5612 34.2317C30.1771 33.8476 29.6561 33.6318 29.1128 33.6318Z" fill="#1E5BFA"/>
</svg>
