<svg width="43" height="43" viewBox="0 0 43 43" fill="none" xmlns="http://www.w3.org/2000/svg">
<path d="M35.9238 32.2666C35.3392 32.2693 34.7627 32.4039 34.2373 32.6604L28.5935 27.0166H24.1113V29.6416H27.5055L32.3814 34.5175C32.1248 35.0429 31.9897 35.6194 31.9863 36.2041C31.9863 36.9829 32.2173 37.7441 32.6499 38.3917C33.0826 39.0392 33.6975 39.5439 34.417 39.8419C35.1365 40.1399 35.9282 40.2179 36.692 40.0659C37.4558 39.914 38.1574 39.539 38.7081 38.9883C39.2587 38.4377 39.6337 37.7361 39.7857 36.9723C39.9376 36.2085 39.8596 35.4168 39.5616 34.6973C39.2636 33.9778 38.7589 33.3629 38.1114 32.9302C37.4639 32.4975 36.7026 32.2666 35.9238 32.2666ZM35.9238 37.5166C35.6642 37.5166 35.4105 37.4396 35.1946 37.2954C34.9788 37.1512 34.8106 36.9462 34.7112 36.7064C34.6119 36.4665 34.5859 36.2026 34.6365 35.948C34.6872 35.6934 34.8122 35.4596 34.9957 35.276C35.1793 35.0925 35.4132 34.9675 35.6678 34.9168C35.9224 34.8662 36.1863 34.8922 36.4261 34.9915C36.6659 35.0909 36.8709 35.2591 37.0151 35.4749C37.1594 35.6908 37.2363 35.9445 37.2363 36.2041C37.2363 36.5522 37.098 36.886 36.8519 37.1322C36.6058 37.3783 36.2719 37.5166 35.9238 37.5166ZM35.9238 17.8291C35.1121 17.8315 34.3211 18.0851 33.6593 18.5551C32.9975 19.0252 32.4975 19.6885 32.2278 20.4541H24.1113V23.0791H32.2278C32.4696 23.7579 32.8933 24.3572 33.4527 24.8114C34.012 25.2657 34.6855 25.5575 35.3994 25.6549C36.1134 25.7523 36.8404 25.6516 37.501 25.3638C38.1616 25.076 38.7303 24.6121 39.1451 24.0229C39.5599 23.4337 39.8048 22.7418 39.853 22.0229C39.9012 21.3039 39.7508 20.5855 39.4183 19.9462C39.0858 19.307 38.584 18.7714 37.9677 18.398C37.3515 18.0246 36.6444 17.8278 35.9238 17.8291ZM35.9238 23.0791C35.6642 23.0791 35.4105 23.0021 35.1946 22.8579C34.9788 22.7137 34.8106 22.5087 34.7112 22.2689C34.6119 22.029 34.5859 21.7651 34.6365 21.5105C34.6872 21.2559 34.8122 21.0221 34.9957 20.8385C35.1793 20.655 35.4132 20.53 35.6678 20.4793C35.9224 20.4287 36.1863 20.4547 36.4261 20.554C36.6659 20.6534 36.8709 20.8216 37.0151 21.0374C37.1594 21.2533 37.2363 21.507 37.2363 21.7666C37.2363 22.1147 37.098 22.4485 36.8519 22.6947C36.6058 22.9408 36.2719 23.0791 35.9238 23.0791ZM35.9238 3.3916C34.8799 3.39265 33.8789 3.80782 33.1407 4.54602C32.4025 5.28422 31.9874 6.28513 31.9863 7.3291C31.9908 7.95786 32.1475 8.57618 32.4431 9.13117L27.5186 13.8916H24.1113V16.5166H28.5791L34.3541 10.9359C34.8905 11.1698 35.4724 11.2811 36.0573 11.2618C36.6423 11.2425 37.2155 11.093 37.7354 10.8242C38.2552 10.5554 38.7086 10.174 39.0625 9.70791C39.4164 9.24178 39.6619 8.7026 39.7811 8.12963C39.9003 7.55665 39.8903 6.96431 39.7517 6.39571C39.6131 5.82711 39.3495 5.29657 38.98 4.84271C38.6105 4.38885 38.1444 4.02309 37.6157 3.77207C37.0871 3.52104 36.5091 3.39107 35.9238 3.3916ZM35.9238 8.6416C35.6642 8.6416 35.4105 8.56463 35.1946 8.42041C34.9788 8.27619 34.8106 8.0712 34.7112 7.83138C34.6119 7.59155 34.5859 7.32765 34.6365 7.07305C34.6872 6.81845 34.8122 6.58458 34.9957 6.40103C35.1793 6.21747 35.4132 6.09247 35.6678 6.04182C35.9224 5.99118 36.1863 6.01717 36.4261 6.11651C36.6659 6.21585 36.8709 6.38408 37.0151 6.59992C37.1594 6.81576 37.2363 7.06952 37.2363 7.3291C37.2363 7.6772 37.098 8.01104 36.8519 8.25718C36.6058 8.50332 36.2719 8.6416 35.9238 8.6416Z" fill="#1E5BFA"/>
<path d="M24.1113 8.6416H26.7363V6.0166H24.1113C23.3634 6.0191 22.6247 6.18236 21.9453 6.49532C21.266 6.80827 20.6618 7.26361 20.1738 7.83048C19.6858 7.26361 19.0817 6.80827 18.4023 6.49532C17.723 6.18236 16.9843 6.0191 16.2363 6.0166H14.9238C11.792 6.02008 8.78949 7.26572 6.57497 9.48024C4.36045 11.6948 3.1148 14.6973 3.11133 17.8291V25.7041C3.1148 28.8359 4.36045 31.8384 6.57497 34.053C8.78949 36.2675 11.792 37.5131 14.9238 37.5166H16.2363C16.9843 37.5141 17.723 37.3508 18.4023 37.0379C19.0817 36.7249 19.6858 36.2696 20.1738 35.7027C20.6618 36.2696 21.266 36.7249 21.9453 37.0379C22.6247 37.3508 23.3634 37.5141 24.1113 37.5166H26.7363V34.8916H24.1113C23.4153 34.8909 22.7481 34.6141 22.2559 34.122C21.7638 33.6299 21.487 32.9626 21.4863 32.2666V11.2666C21.487 10.5706 21.7638 9.90335 22.2559 9.41121C22.7481 8.91908 23.4153 8.6423 24.1113 8.6416ZM16.2363 34.8916H14.9238C12.7168 34.8877 10.5848 34.0899 8.91728 32.6441C7.24975 31.1982 6.15797 29.2008 5.84133 27.0166H8.36133V24.3916H5.73633V19.1416H9.67383C10.7178 19.1406 11.7187 18.7254 12.4569 17.9872C13.1951 17.249 13.6103 16.2481 13.6113 15.2041V12.5791H10.9863V15.2041C10.9863 15.5522 10.848 15.886 10.6019 16.1322C10.3558 16.3783 10.0219 16.5166 9.67383 16.5166H5.84133C6.15797 14.3324 7.24975 12.335 8.91728 10.8891C10.5848 9.44329 12.7168 8.64555 14.9238 8.6416H16.2363C16.9323 8.6423 17.5996 8.91908 18.0917 9.41121C18.5838 9.90335 18.8606 10.5706 18.8613 11.2666V16.5166H16.2363V19.1416H18.8613V24.3916H16.2363C15.1924 24.3926 14.1914 24.8078 13.4532 25.546C12.715 26.2842 12.2999 27.2851 12.2988 28.3291V30.9541H14.9238V28.3291C14.9238 27.981 15.0621 27.6472 15.3083 27.401C15.5544 27.1549 15.8882 27.0166 16.2363 27.0166H18.8613V32.2666C18.8606 32.9626 18.5838 33.6299 18.0917 34.122C17.5996 34.6141 16.9323 34.8909 16.2363 34.8916Z" fill="#1E5BFA"/>
</svg>
