<svg width="43" height="43" viewBox="0 0 43 43" fill="none" xmlns="http://www.w3.org/2000/svg">
<g clip-path="url(#clip0_3167_5282)">
<path d="M41.1016 23.2227C41.6211 23.7148 42.0244 24.2891 42.3115 24.9453C42.5986 25.6016 42.7422 26.292 42.7422 27.0166C42.7422 27.7412 42.6055 28.418 42.332 29.0469C42.0586 29.6758 41.6826 30.2363 41.2041 30.7285C40.7256 31.2207 40.1719 31.5967 39.543 31.8564C38.9141 32.1162 38.2305 32.2529 37.4922 32.2666C37.2051 32.2666 36.918 32.2461 36.6309 32.2051L26.9717 37.0244C26.9854 37.1064 26.9922 37.1885 26.9922 37.2705C26.9922 37.3525 26.9922 37.4346 26.9922 37.5166C26.9922 38.2412 26.8555 38.918 26.582 39.5469C26.3086 40.1758 25.9326 40.7363 25.4541 41.2285C24.9756 41.7207 24.4219 42.0967 23.793 42.3564C23.1641 42.6162 22.4805 42.7529 21.7422 42.7666C21.0312 42.7666 20.3613 42.6299 19.7324 42.3564C19.1035 42.083 18.543 41.7139 18.0508 41.249C17.5586 40.7842 17.1758 40.2305 16.9023 39.5879C16.6289 38.9453 16.4854 38.2754 16.4717 37.5781V37.3115C16.4717 37.2295 16.4854 37.1338 16.5127 37.0244L6.85352 32.2051C6.56641 32.2461 6.2793 32.2666 5.99219 32.2666C5.26758 32.2666 4.59082 32.1299 3.96191 31.8564C3.33301 31.583 2.77246 31.207 2.28027 30.7285C1.78809 30.25 1.41211 29.6963 1.15234 29.0674C0.892578 28.4385 0.755859 27.7549 0.742188 27.0166C0.742188 26.0459 0.988281 25.1504 1.48047 24.3301C1.97266 23.5098 2.64941 22.8672 3.51074 22.4023L7.09961 9.23633C6.36133 8.29297 5.99219 7.21973 5.99219 6.0166C5.99219 5.29199 6.12891 4.61523 6.40234 3.98633C6.67578 3.35742 7.05176 2.79688 7.53027 2.30469C8.00879 1.8125 8.5625 1.43652 9.19141 1.17676C9.82031 0.916992 10.5039 0.780273 11.2422 0.766602C12.1855 0.766602 13.0605 0.999023 13.8672 1.46387C14.6738 1.92871 15.3164 2.57129 15.7949 3.3916H27.6895C28.168 2.57129 28.8105 1.92871 29.6172 1.46387C30.4238 0.999023 31.2988 0.766602 32.2422 0.766602C32.9668 0.766602 33.6436 0.90332 34.2725 1.17676C34.9014 1.4502 35.4619 1.82617 35.9541 2.30469C36.4463 2.7832 36.8223 3.33691 37.082 3.96582C37.3418 4.59473 37.4785 5.27832 37.4922 6.0166C37.4922 6.59082 37.4033 7.14453 37.2256 7.67773C37.0479 8.21094 36.7812 8.70996 36.4258 9.1748L41.1016 23.2227ZM32.2422 27.0166C32.2422 26.2646 32.3926 25.5469 32.6934 24.8633C32.9941 24.1797 33.4316 23.5918 34.0059 23.0996L24.7979 16.1885L11.2012 26.3809L11.2422 27.0166H32.2422ZM11.2422 11.2666C10.5996 11.2666 9.9707 11.1504 9.35547 10.918L6.40234 21.7871C7.1543 21.8555 7.8584 22.0674 8.51465 22.4229C9.1709 22.7783 9.73145 23.2568 10.1963 23.8584L22.624 14.5479L15.4463 9.1748C14.9404 9.83105 14.3252 10.3438 13.6006 10.7129C12.876 11.082 12.0898 11.2666 11.2422 11.2666ZM36.6924 21.8281C36.8018 21.8008 36.9248 21.7871 37.0615 21.7871C37.1982 21.7871 37.3281 21.7803 37.4512 21.7666H37.6562C37.7246 21.7666 37.793 21.7734 37.8613 21.7871L34.2314 10.877C33.5615 11.1367 32.8984 11.2666 32.2422 11.2666C31.9688 11.2666 31.7021 11.2461 31.4424 11.2051L26.9922 14.5479L36.6924 21.8281ZM32.2422 3.3916C31.873 3.3916 31.5312 3.45996 31.2168 3.59668C30.9023 3.7334 30.6289 3.91797 30.3965 4.15039C30.1641 4.38281 29.9727 4.66309 29.8223 4.99121C29.6719 5.31934 29.6035 5.66113 29.6172 6.0166C29.6172 6.38574 29.6855 6.72754 29.8223 7.04199C29.959 7.35645 30.1436 7.62988 30.376 7.8623C30.6084 8.09473 30.8887 8.28613 31.2168 8.43652C31.5449 8.58691 31.8867 8.65527 32.2422 8.6416C32.6113 8.6416 32.9531 8.57324 33.2676 8.43652C33.582 8.2998 33.8555 8.11523 34.0879 7.88281C34.3203 7.65039 34.5117 7.37012 34.6621 7.04199C34.8125 6.71387 34.8809 6.37207 34.8672 6.0166C34.8672 5.64746 34.7988 5.30566 34.6621 4.99121C34.5254 4.67676 34.3408 4.40332 34.1084 4.1709C33.876 3.93848 33.5957 3.74707 33.2676 3.59668C32.9395 3.44629 32.5977 3.37793 32.2422 3.3916ZM26.9922 6.0166H16.4922L16.4512 6.65234L24.7979 12.9072L28.7559 9.93359C28.1816 9.44141 27.7441 8.85352 27.4434 8.16992C27.1426 7.48633 26.9922 6.76855 26.9922 6.0166ZM11.2422 3.3916C10.873 3.3916 10.5312 3.45996 10.2168 3.59668C9.90234 3.7334 9.62891 3.91797 9.39648 4.15039C9.16406 4.38281 8.97266 4.66309 8.82227 4.99121C8.67188 5.31934 8.60352 5.66113 8.61719 6.0166C8.61719 6.38574 8.68555 6.72754 8.82227 7.04199C8.95898 7.35645 9.14355 7.62988 9.37598 7.8623C9.6084 8.09473 9.88867 8.28613 10.2168 8.43652C10.5449 8.58691 10.8867 8.65527 11.2422 8.6416C11.6113 8.6416 11.9531 8.57324 12.2676 8.43652C12.582 8.2998 12.8555 8.11523 13.0879 7.88281C13.3203 7.65039 13.5117 7.37012 13.6621 7.04199C13.8125 6.71387 13.8809 6.37207 13.8672 6.0166C13.8672 5.64746 13.7988 5.30566 13.6621 4.99121C13.5254 4.67676 13.3408 4.40332 13.1084 4.1709C12.876 3.93848 12.5957 3.74707 12.2676 3.59668C11.9395 3.44629 11.5977 3.37793 11.2422 3.3916ZM3.36719 27.0166C3.36719 27.3857 3.43555 27.7275 3.57227 28.042C3.70898 28.3564 3.89355 28.6299 4.12598 28.8623C4.3584 29.0947 4.63867 29.2861 4.9668 29.4365C5.29492 29.5869 5.63672 29.6553 5.99219 29.6416C6.36133 29.6416 6.70312 29.5732 7.01758 29.4365C7.33203 29.2998 7.60547 29.1152 7.83789 28.8828C8.07031 28.6504 8.26172 28.3701 8.41211 28.042C8.5625 27.7139 8.63086 27.3721 8.61719 27.0166C8.61719 26.6475 8.54883 26.3057 8.41211 25.9912C8.27539 25.6768 8.09082 25.4033 7.8584 25.1709C7.62598 24.9385 7.3457 24.7471 7.01758 24.5967C6.68945 24.4463 6.34766 24.3779 5.99219 24.3916C5.62305 24.3916 5.28125 24.46 4.9668 24.5967C4.65234 24.7334 4.37891 24.918 4.14648 25.1504C3.91406 25.3828 3.72266 25.6631 3.57227 25.9912C3.42188 26.3193 3.35352 26.6611 3.36719 27.0166ZM21.7422 40.1416C22.1113 40.1416 22.4531 40.0732 22.7676 39.9365C23.082 39.7998 23.3555 39.6152 23.5879 39.3828C23.8203 39.1504 24.0117 38.8701 24.1621 38.542C24.3125 38.2139 24.3809 37.8721 24.3672 37.5166C24.3672 37.1475 24.2988 36.8057 24.1621 36.4912C24.0254 36.1768 23.8408 35.9033 23.6084 35.6709C23.376 35.4385 23.0957 35.2471 22.7676 35.0967C22.4395 34.9463 22.0977 34.8779 21.7422 34.8916C21.373 34.8916 21.0312 34.96 20.7168 35.0967C20.4023 35.2334 20.1289 35.418 19.8965 35.6504C19.6641 35.8828 19.4727 36.1631 19.3223 36.4912C19.1719 36.8193 19.1035 37.1611 19.1172 37.5166C19.1172 37.8857 19.1855 38.2275 19.3223 38.542C19.459 38.8564 19.6436 39.1299 19.876 39.3623C20.1084 39.5947 20.3887 39.7861 20.7168 39.9365C21.0449 40.0869 21.3867 40.1553 21.7422 40.1416ZM21.7422 32.2666C22.6035 32.2666 23.417 32.4648 24.1826 32.8613C24.9482 33.2578 25.5771 33.8184 26.0693 34.543L33.7598 30.708C33.6094 30.5439 33.4658 30.373 33.3291 30.1953C33.1924 30.0176 33.0625 29.833 32.9395 29.6416H10.5449C10.4355 29.833 10.3125 30.0176 10.1758 30.1953C10.0391 30.373 9.88867 30.5439 9.72461 30.708L17.415 34.543C17.8936 33.832 18.5156 33.2783 19.2812 32.8818C20.0469 32.4854 20.8672 32.2803 21.7422 32.2666ZM37.4922 29.6416C37.8613 29.6416 38.2031 29.5732 38.5176 29.4365C38.832 29.2998 39.1055 29.1152 39.3379 28.8828C39.5703 28.6504 39.7617 28.3701 39.9121 28.042C40.0625 27.7139 40.1309 27.3721 40.1172 27.0166C40.1172 26.5654 40.0078 26.1416 39.7891 25.7451C39.5703 25.3486 39.2695 25.0342 38.8867 24.8018L38.8662 24.8223L38.8457 24.8018L38.8662 24.7812C38.4287 24.5215 37.9707 24.3916 37.4922 24.3916C37.123 24.3916 36.7812 24.46 36.4668 24.5967C36.1523 24.7334 35.8789 24.918 35.6465 25.1504C35.4141 25.3828 35.2227 25.6631 35.0723 25.9912C34.9219 26.3193 34.8535 26.6611 34.8672 27.0166C34.8672 27.3857 34.9355 27.7275 35.0723 28.042C35.209 28.3564 35.3936 28.6299 35.626 28.8623C35.8584 29.0947 36.1387 29.2861 36.4668 29.4365C36.7949 29.5869 37.1367 29.6553 37.4922 29.6416Z" fill="#1E5BFA"/>
</g>
<defs>
<clipPath id="clip0_3167_5282">
<rect width="42" height="42" fill="white" transform="translate(0.742188 0.766602)"/>
</clipPath>
</defs>
</svg>
