<svg width="43" height="43" viewBox="0 0 43 43" fill="none" xmlns="http://www.w3.org/2000/svg">
<g clip-path="url(#clip0_3167_5275)">
<path d="M37.2363 17.8027C31.5479 18.1327 26.0771 20.1046 21.4863 23.4797C16.8955 20.1046 11.4248 18.1327 5.73633 17.8027V22.9827C4.80652 22.9846 3.9155 23.3556 3.25918 24.0142C2.60285 24.6729 2.23494 25.5652 2.23633 26.495V28.252C2.23633 30.1927 5.73633 32.116 5.73633 32.116V35.6282C10.3843 35.9272 14.8669 37.4683 18.7161 40.0907C19.688 40.7652 20.6135 41.5042 21.4863 42.3027C22.3592 41.5042 23.2847 40.7652 24.2566 40.0907C28.1058 37.4683 32.5883 35.9272 37.2363 35.6282V31.7642C38.1661 31.7624 39.0572 31.3914 39.7135 30.7327C40.3698 30.0741 40.7377 29.1818 40.7363 28.252V26.495C40.7377 25.5652 40.3698 24.6729 39.7135 24.0142C39.0572 23.3556 38.1661 22.9846 37.2363 22.9827V17.8027ZM21.4863 37.7912C17.8568 35.1313 13.6664 33.3378 9.23633 32.5482V21.7857C12.6315 22.4697 15.855 23.8276 18.7161 25.7792C19.688 26.4537 20.6135 27.1927 21.4863 27.9912C22.3592 27.1927 23.2847 26.4537 24.2566 25.7792C27.1176 23.827 30.3411 22.4685 33.7363 21.784V32.5482C29.3063 33.3378 25.1159 35.1313 21.4863 37.7912ZM19.7363 14.3027H23.2363V16.0527H19.7363V14.3027ZM19.7363 7.30273H23.2363V9.05273H19.7363V7.30273Z" fill="#1E5BFA"/>
<path d="M19.7355 17.8029H23.2355V19.5529H19.7355V17.8029ZM16.2355 9.05286C16.6996 9.05286 17.1447 8.86848 17.4729 8.54029C17.8011 8.2121 17.9855 7.76699 17.9855 7.30286C17.9871 7.07489 17.9434 6.84887 17.8569 6.63793C17.7704 6.427 17.6428 6.23537 17.4816 6.07416C17.3204 5.91296 17.1288 5.78541 16.9179 5.69892C16.7069 5.61243 16.4809 5.56873 16.253 5.57036C16.0243 5.56921 15.7976 5.61311 15.5859 5.69955C15.3742 5.786 15.1816 5.91329 15.0191 6.07417C14.6909 6.39908 14.5053 6.84105 14.503 7.30286C14.5006 7.76466 14.6819 8.20848 15.0068 8.53667C15.3317 8.86486 15.7736 9.05054 16.2355 9.05286Z" fill="#1E5BFA"/>
<path d="M26.7363 9.05273C27.7028 9.05273 28.4863 8.26923 28.4863 7.30273C28.4863 6.33624 27.7028 5.55273 26.7363 5.55273C25.7698 5.55273 24.9863 6.33624 24.9863 7.30273C24.9863 8.26923 25.7698 9.05273 26.7363 9.05273Z" fill="#1E5BFA"/>
<path d="M28.4863 14.3027H14.4863C13.0944 14.3013 11.7598 13.7478 10.7756 12.7635C9.79129 11.7792 9.23772 10.4447 9.23633 9.05273V5.55273C9.23772 4.16077 9.79129 2.82622 10.7756 1.84196C11.7598 0.857694 13.0944 0.304124 14.4863 0.302734L28.4863 0.302734C29.8783 0.304124 31.2128 0.857694 32.1971 1.84196C33.1814 2.82622 33.7349 4.16077 33.7363 5.55273V9.05273C33.7349 10.4447 33.1814 11.7792 32.1971 12.7635C31.2128 13.7478 29.8783 14.3013 28.4863 14.3027ZM14.4863 3.80273C14.0223 3.8032 13.5775 3.98772 13.2494 4.31581C12.9213 4.6439 12.7368 5.08875 12.7363 5.55273V9.05273C12.7368 9.51672 12.9213 9.96157 13.2494 10.2897C13.5775 10.6177 14.0223 10.8023 14.4863 10.8027H28.4863C28.9503 10.8023 29.3952 10.6177 29.7233 10.2897C30.0513 9.96157 30.2359 9.51672 30.2363 9.05273V5.55273C30.2359 5.08875 30.0513 4.6439 29.7233 4.31581C29.3952 3.98772 28.9503 3.8032 28.4863 3.80273H14.4863Z" fill="#1E5BFA"/>
</g>
<defs>
<clipPath id="clip0_3167_5275">
<rect width="42" height="42" fill="white" transform="translate(0.486328 0.302734)"/>
</clipPath>
</defs>
</svg>
