<svg width="43" height="43" viewBox="0 0 43 43" fill="none" xmlns="http://www.w3.org/2000/svg">
<path d="M21.7422 33.1154C20.2261 33.1167 18.7333 32.7423 17.3974 32.0256C16.0614 31.3089 14.9238 30.2724 14.0864 29.0086L16.273 27.5556C16.8716 28.4583 17.6843 29.1987 18.6386 29.7109C19.5929 30.2232 20.6591 30.4912 21.7422 30.4912C22.8253 30.4912 23.8915 30.2232 24.8458 29.7109C25.8001 29.1987 26.6128 28.4583 27.2114 27.5556L29.398 29.0086C28.5606 30.2724 27.423 31.3089 26.087 32.0256C24.751 32.7423 23.2583 33.1167 21.7422 33.1154ZM26.9922 18.6779C26.473 18.6779 25.9655 18.8318 25.5338 19.1203C25.1021 19.4087 24.7657 19.8187 24.567 20.2983C24.3683 20.778 24.3163 21.3058 24.4176 21.815C24.5189 22.3242 24.7689 22.7919 25.136 23.159C25.5031 23.5261 25.9709 23.7761 26.4801 23.8774C26.9893 23.9787 27.5171 23.9267 27.9967 23.7281C28.4764 23.5294 28.8864 23.1929 29.1748 22.7612C29.4632 22.3296 29.6172 21.822 29.6172 21.3029C29.6207 20.9572 29.5552 20.6143 29.4245 20.2942C29.2938 19.9741 29.1006 19.6833 28.8562 19.4389C28.6117 19.1944 28.3209 19.0012 28.0009 18.8705C27.6808 18.7399 27.3379 18.6744 26.9922 18.6779ZM16.4922 18.6779C15.973 18.6779 15.4655 18.8318 15.0338 19.1203C14.6021 19.4087 14.2657 19.8187 14.067 20.2983C13.8683 20.778 13.8163 21.3058 13.9176 21.815C14.0189 22.3242 14.2689 22.7919 14.636 23.159C15.0031 23.5261 15.4709 23.7761 15.9801 23.8774C16.4893 23.9787 17.0171 23.9267 17.4967 23.7281C17.9764 23.5294 18.3864 23.1929 18.6748 22.7612C18.9632 22.3296 19.1172 21.822 19.1172 21.3029C19.1207 20.9572 19.0552 20.6143 18.9245 20.2942C18.7938 19.9741 18.6006 19.6833 18.3562 19.4389C18.1117 19.1944 17.8209 19.0012 17.5009 18.8705C17.1808 18.7399 16.8379 18.6744 16.4922 18.6779Z" fill="#1E5BFA"/>
<path d="M40.1172 21.5527H40.3672V21.3027V18.6777V18.4277H40.1172H37.7422V13.4277V13.4274C37.7404 11.9694 37.1604 10.5716 36.1294 9.54057C35.0984 8.50957 33.7005 7.92955 32.2425 7.92773H32.2422H29.8672V2.92773V2.67773H29.6172H26.9922H26.7422V2.92773V7.92773H16.7422V2.92773V2.67773H16.4922H13.8672H13.6172V2.92773V7.92773H11.2422H11.2419C9.78383 7.92955 8.38602 8.50957 7.35502 9.54057C6.32402 10.5716 5.74401 11.9694 5.74219 13.4274V13.4277V18.4277H3.36719H3.11719V18.6777V21.3027V21.5527H3.36719H5.74219V27.6152H3.36719H3.11719V27.8652V30.4902V30.7402H3.36719H5.74219L5.74219 34.4277L5.74219 34.428C5.74401 35.8861 6.32402 37.2839 7.35502 38.3149C8.38602 39.3459 9.78383 39.9259 11.2419 39.9277H11.2422H32.2422H32.2425C33.7005 39.9259 35.0984 39.3459 36.1294 38.3149C37.1604 37.2839 37.7404 35.8861 37.7422 34.428V34.4277V30.7402H40.1172H40.3672V30.4902V27.8652V27.6152H40.1172H37.7422V21.5527H40.1172ZM34.6172 34.4275C34.6166 35.0572 34.3661 35.661 33.9208 36.1063C33.4755 36.5517 32.8717 36.8021 32.2419 36.8027H11.2424C10.6127 36.8021 10.0089 36.5517 9.56358 36.1063C9.11827 35.661 8.86782 35.0572 8.86719 34.4275V13.428C8.86782 12.7982 9.11827 12.1944 9.56358 11.7491C10.0089 11.3038 10.6127 11.0534 11.2424 11.0527H32.2419C32.8717 11.0534 33.4755 11.3038 33.9208 11.7491C34.3661 12.1944 34.6166 12.7982 34.6172 13.428V34.4275Z" fill="#1E5BFA" stroke="#1E5BFA" stroke-width="0.5"/>
</svg>
