<svg width="42" height="43" viewBox="0 0 42 43" fill="none" xmlns="http://www.w3.org/2000/svg">
<path fill-rule="evenodd" clip-rule="evenodd" d="M36.0918 9.9541C36.962 9.9541 37.7966 9.6084 38.412 8.99305C39.0273 8.37769 39.373 7.54309 39.373 6.67285C39.373 5.80261 39.0273 4.96801 38.412 4.35266C37.7966 3.7373 36.962 3.3916 36.0918 3.3916C35.2216 3.3916 34.387 3.7373 33.7716 4.35266C33.1562 4.96801 32.8105 5.80261 32.8105 6.67285C32.8105 7.54309 33.1562 8.37769 33.7716 8.99305C34.387 9.6084 35.2216 9.9541 36.0918 9.9541ZM24.9355 21.7666C24.9355 22.8109 24.5207 23.8124 23.7823 24.5508C23.0439 25.2893 22.0423 25.7041 20.998 25.7041C19.9538 25.7041 18.9522 25.2893 18.2138 24.5508C17.4754 23.8124 17.0605 22.8109 17.0605 21.7666C17.0605 20.7223 17.4754 19.7208 18.2138 18.9824C18.9522 18.2439 19.9538 17.8291 20.998 17.8291C22.0423 17.8291 23.0439 18.2439 23.7823 18.9824C24.5207 19.7208 24.9355 20.7223 24.9355 21.7666ZM20.998 29.6416C22.744 29.6418 24.4405 29.0617 25.8209 27.9925C27.2013 26.9234 28.1872 25.4259 28.6237 23.7354H33.4668C33.654 23.9856 33.8728 24.2044 34.123 24.3916V34.2354C33.5721 34.6486 33.1651 35.2246 32.9598 35.882C32.7545 36.5393 32.7612 37.2446 32.9789 37.898C33.1967 38.5513 33.6145 39.1196 34.1732 39.5222C34.7319 39.9249 35.4031 40.1416 36.0918 40.1416C36.7805 40.1416 37.4517 39.9249 38.0104 39.5222C38.5691 39.1196 38.9869 38.5513 39.2047 37.898C39.4224 37.2446 39.4291 36.5393 39.2238 35.882C39.0185 35.2246 38.6115 34.6486 38.0605 34.2354V24.3916C38.4366 24.1095 38.7477 23.7499 38.9727 23.3372C39.1978 22.9244 39.3315 22.4681 39.3648 21.9992C39.3981 21.5303 39.3303 21.0597 39.1659 20.6192C39.0015 20.1788 38.7444 19.7788 38.412 19.4464C38.0796 19.114 37.6796 18.8569 37.2392 18.6925C36.7987 18.5281 36.3281 18.4603 35.8592 18.4936C35.3903 18.5269 34.934 18.6606 34.5212 18.8857C34.1085 19.1107 33.7489 19.4218 33.4668 19.7979H28.6237C28.272 18.4356 27.5619 17.1924 26.5671 16.1976C25.5722 15.2028 24.3291 14.4926 22.9668 14.141V9.29785C23.3429 9.01579 23.654 8.6562 23.879 8.24344C24.104 7.83068 24.2377 7.37439 24.271 6.90546C24.3044 6.43653 24.2365 5.96591 24.0722 5.52548C23.9078 5.08505 23.6507 4.68508 23.3182 4.35266C22.9858 4.02024 22.5859 3.76313 22.1454 3.59874C21.705 3.43436 21.2344 3.36653 20.7654 3.39986C20.2965 3.43318 19.8402 3.56688 19.4275 3.7919C19.0147 4.01692 18.6551 4.32801 18.373 4.7041H8.5293C8.11609 4.15316 7.54001 3.7462 6.88266 3.54085C6.22531 3.33551 5.52001 3.34221 4.86667 3.55998C4.21334 3.77776 3.64508 4.19559 3.24241 4.75427C2.83973 5.31295 2.62305 5.98417 2.62305 6.67285C2.62305 7.36153 2.83973 8.03275 3.24241 8.59143C3.64508 9.15012 4.21334 9.56794 4.86667 9.78572C5.52001 10.0035 6.22531 10.0102 6.88266 9.80485C7.54001 9.59951 8.11609 9.19254 8.5293 8.6416H18.373C18.5603 8.89185 18.779 9.1106 19.0293 9.29785V14.141C17.1769 14.6237 15.5636 15.7645 14.491 17.3501C13.4184 18.9356 12.9598 20.8575 13.201 22.7566C13.4422 24.6556 14.3667 26.4018 15.8016 27.6689C17.2365 28.936 19.0838 29.6373 20.998 29.6416ZM5.9043 40.1416C6.77454 40.1416 7.60914 39.7959 8.22449 39.1805C8.83984 38.5652 9.18555 37.7306 9.18555 36.8604C9.18555 35.9901 8.83984 35.1555 8.22449 34.5402C7.60914 33.9248 6.77454 33.5791 5.9043 33.5791C5.03406 33.5791 4.19946 33.9248 3.5841 34.5402C2.96875 35.1555 2.62305 35.9901 2.62305 36.8604C2.62305 37.7306 2.96875 38.5652 3.5841 39.1805C4.19946 39.7959 5.03406 40.1416 5.9043 40.1416ZM24.2793 36.8604C24.2793 37.7306 23.9336 38.5652 23.3182 39.1805C22.7029 39.7959 21.8683 40.1416 20.998 40.1416C20.1278 40.1416 19.2932 39.7959 18.6779 39.1805C18.0625 38.5652 17.7168 37.7306 17.7168 36.8604C17.7168 35.9901 18.0625 35.1555 18.6779 34.5402C19.2932 33.9248 20.1278 33.5791 20.998 33.5791C21.8683 33.5791 22.7029 33.9248 23.3182 34.5402C23.9336 35.1555 24.2793 35.9901 24.2793 36.8604ZM9.18555 21.7666C9.18555 22.6368 8.83984 23.4714 8.22449 24.0868C7.60914 24.7022 6.77454 25.0479 5.9043 25.0479C5.03406 25.0479 4.19946 24.7022 3.5841 24.0868C2.96875 23.4714 2.62305 22.6368 2.62305 21.7666C2.62305 20.8964 2.96875 20.0618 3.5841 19.4464C4.19946 18.8311 5.03406 18.4854 5.9043 18.4854C6.77454 18.4854 7.60914 18.8311 8.22449 19.4464C8.83984 20.0618 9.18555 20.8964 9.18555 21.7666Z" fill="#1E5BFA"/>
</svg>
