<svg width="177" height="26" viewBox="0 0 177 26" fill="none" xmlns="http://www.w3.org/2000/svg">
<path d="M0.412329 25V2.52999H7.85953C9.41103 2.52999 10.8609 2.82424 12.2091 3.41274C13.568 3.99054 14.761 4.79839 15.7882 5.83629C16.8261 6.86349 17.634 8.05654 18.2118 9.41544C18.8003 10.7636 19.0945 12.2135 19.0945 13.765C19.0945 15.3165 18.8003 16.7717 18.2118 18.1306C17.634 19.4788 16.8261 20.6718 15.7882 21.7097C14.761 22.7369 13.568 23.5448 12.2091 24.1333C10.8609 24.7111 9.41103 25 7.85953 25H0.412329ZM5.22733 20.185H7.85953C8.72623 20.185 9.54478 20.0191 10.3152 19.6874C11.0856 19.3557 11.7704 18.8956 12.3696 18.3071C12.9688 17.7186 13.4342 17.0392 13.7659 16.2688C14.1083 15.4877 14.2795 14.6531 14.2795 13.765C14.2795 12.8769 14.1083 12.0476 13.7659 11.2772C13.4342 10.5068 12.9688 9.82739 12.3696 9.23889C11.7811 8.63969 11.1016 8.17424 10.3312 7.84254C9.56083 7.51084 8.73693 7.34499 7.85953 7.34499H5.22733V20.185ZM21.6347 8.94999H26.4497V25H21.6347V8.94999ZM24.0743 7.28079C23.3788 7.28079 22.7957 7.05074 22.3249 6.59064C21.8541 6.13054 21.6187 5.55809 21.6187 4.87329C21.6187 4.19919 21.8541 3.63209 22.3249 3.17199C22.7957 2.70119 23.3735 2.46579 24.0583 2.46579C24.7324 2.46579 25.2995 2.70119 25.7596 3.17199C26.2304 3.63209 26.4658 4.19919 26.4658 4.87329C26.4658 5.55809 26.2357 6.13054 25.7756 6.59064C25.3262 7.05074 24.7591 7.28079 24.0743 7.28079ZM36.8785 25.4173C35.4019 25.4173 34.0536 25.0375 32.8338 24.2777C31.6247 23.518 30.6564 22.4962 29.9288 21.2122C29.2119 19.9282 28.8534 18.5104 28.8534 16.9589C28.8534 15.7926 29.0621 14.7012 29.4794 13.6847C29.8967 12.6575 30.4691 11.7587 31.1967 10.9883C31.935 10.2072 32.791 9.59734 33.7647 9.15864C34.7384 8.71994 35.7764 8.50059 36.8785 8.50059C38.1625 8.50059 39.3341 8.78414 40.3934 9.35124C41.4634 9.90764 42.3622 10.6673 43.0898 11.6303C43.8281 12.5826 44.3524 13.658 44.6627 14.8564C44.973 16.0548 45.0051 17.2906 44.759 18.5639H34.0536C34.2034 18.9384 34.4014 19.2808 34.6475 19.5911C34.9043 19.8907 35.2146 20.1315 35.5784 20.3134C35.9529 20.4953 36.3863 20.5916 36.8785 20.6023C37.3493 20.613 37.7826 20.5113 38.1785 20.2973C38.5851 20.0833 38.9382 19.7944 39.2378 19.4306L44.1491 20.5702C43.4964 21.9933 42.5227 23.1596 41.228 24.0691C39.9333 24.9679 38.4835 25.4173 36.8785 25.4173ZM33.8771 15.0329H39.8959C39.7461 14.5728 39.5214 14.1662 39.2218 13.8131C38.9222 13.46 38.5691 13.1818 38.1625 12.9785C37.7666 12.7752 37.3386 12.6736 36.8785 12.6736C36.4291 12.6736 36.0011 12.7752 35.5945 12.9785C35.1986 13.1818 34.8508 13.46 34.5512 13.8131C34.2623 14.1662 34.0376 14.5728 33.8771 15.0329ZM56.2927 13.765H53.5642V25H48.7492V13.765H46.6627V8.94999H48.7492V3.91029H53.5642V8.94999H56.2927V13.765ZM66.9007 25V2.52999H75.3752C76.6057 2.52999 77.7185 2.84564 78.7136 3.47694C79.7194 4.09754 80.5165 4.93214 81.105 5.98074C81.6935 7.01864 81.9878 8.15819 81.9878 9.39939C81.9878 10.662 81.6828 11.8122 81.0729 12.8501C80.4737 13.888 79.6712 14.7173 78.6654 15.3379C77.6596 15.9585 76.5629 16.2688 75.3752 16.2688H71.7158V25H66.9007ZM71.7158 11.4538H74.8295C75.2575 11.4538 75.648 11.3468 76.0011 11.1328C76.3542 10.9081 76.6378 10.6138 76.8518 10.25C77.0658 9.88624 77.1728 9.48499 77.1728 9.04629C77.1728 8.60759 77.0658 8.20634 76.8518 7.84254C76.6378 7.47874 76.3542 7.18984 76.0011 6.97584C75.648 6.75114 75.2575 6.63879 74.8295 6.63879H71.7158V11.4538ZM84.7376 25V0.924985H89.5526V25H84.7376ZM104.569 8.94999H109.384V25H104.553L104.328 23.5555C103.932 24.1119 103.429 24.5613 102.819 24.9037C102.22 25.2461 101.519 25.4173 100.717 25.4173C99.5182 25.4173 98.3947 25.1926 97.3461 24.7432C96.3082 24.2938 95.3934 23.6732 94.6016 22.8814C93.8098 22.0789 93.1892 21.1587 92.7398 20.1208C92.3011 19.0722 92.0817 17.9487 92.0817 16.7503C92.0817 15.6054 92.2904 14.5354 92.7077 13.5403C93.125 12.5452 93.7081 11.6731 94.4571 10.9241C95.2168 10.1644 96.0889 9.57059 97.0733 9.14259C98.0684 8.71459 99.133 8.50059 100.267 8.50059C101.187 8.50059 102.022 8.69319 102.771 9.07839C103.531 9.45289 104.205 9.92369 104.793 10.4908L104.569 8.94999ZM100.588 20.7949C101.252 20.7949 101.856 20.6237 102.402 20.2813C102.948 19.9389 103.381 19.4788 103.702 18.901C104.023 18.3232 104.183 17.6812 104.183 16.975C104.183 16.2688 104.023 15.6268 103.702 15.049C103.381 14.4712 102.948 14.0111 102.402 13.6687C101.856 13.3263 101.252 13.1551 100.588 13.1551C99.9248 13.1551 99.3203 13.3263 98.7746 13.6687C98.2396 14.0111 97.8116 14.4712 97.4906 15.049C97.1803 15.6268 97.0251 16.2688 97.0251 16.975C97.0251 17.6812 97.1856 18.3232 97.5066 18.901C97.8276 19.4788 98.2556 19.9389 98.7906 20.2813C99.3363 20.6237 99.9355 20.7949 100.588 20.7949ZM127.677 14.744V25H122.862V16.0922C122.862 15.5893 122.739 15.1346 122.492 14.728C122.246 14.3107 121.92 13.9843 121.513 13.7489C121.107 13.5028 120.652 13.3798 120.149 13.3798C119.646 13.3798 119.186 13.5028 118.769 13.7489C118.362 13.9843 118.036 14.3107 117.79 14.728C117.554 15.1346 117.437 15.5893 117.437 16.0922V25H112.622L112.606 8.94999H117.421L117.437 9.96114C117.972 9.50104 118.582 9.14259 119.266 8.88579C119.951 8.62899 120.673 8.50059 121.433 8.50059C122.589 8.50059 123.637 8.78414 124.579 9.35124C125.521 9.90764 126.27 10.6566 126.826 11.5982C127.393 12.5398 127.677 13.5884 127.677 14.744ZM145.952 14.744V25H141.137V16.0922C141.137 15.5893 141.014 15.1346 140.768 14.728C140.522 14.3107 140.196 13.9843 139.789 13.7489C139.382 13.5028 138.928 13.3798 138.425 13.3798C137.922 13.3798 137.462 13.5028 137.045 13.7489C136.638 13.9843 136.312 14.3107 136.065 14.728C135.83 15.1346 135.712 15.5893 135.712 16.0922V25H130.897L130.881 8.94999H135.696L135.712 9.96114C136.247 9.50104 136.857 9.14259 137.542 8.88579C138.227 8.62899 138.949 8.50059 139.709 8.50059C140.864 8.50059 141.913 8.78414 142.855 9.35124C143.796 9.90764 144.545 10.6566 145.102 11.5982C145.669 12.5398 145.952 13.5884 145.952 14.744ZM155.906 25.4173C154.429 25.4173 153.081 25.0375 151.861 24.2777C150.652 23.518 149.684 22.4962 148.956 21.2122C148.239 19.9282 147.881 18.5104 147.881 16.9589C147.881 15.7926 148.089 14.7012 148.507 13.6847C148.924 12.6575 149.496 11.7587 150.224 10.9883C150.962 10.2072 151.818 9.59734 152.792 9.15864C153.766 8.71994 154.803 8.50059 155.906 8.50059C157.19 8.50059 158.361 8.78414 159.421 9.35124C160.491 9.90764 161.389 10.6673 162.117 11.6303C162.855 12.5826 163.38 13.658 163.69 14.8564C164 16.0548 164.032 17.2906 163.786 18.5639H153.081C153.231 18.9384 153.429 19.2808 153.675 19.5911C153.931 19.8907 154.242 20.1315 154.606 20.3134C154.98 20.4953 155.413 20.5916 155.906 20.6023C156.376 20.613 156.81 20.5113 157.206 20.2973C157.612 20.0833 157.965 19.7944 158.265 19.4306L163.176 20.5702C162.524 21.9933 161.55 23.1596 160.255 24.0691C158.96 24.9679 157.511 25.4173 155.906 25.4173ZM152.904 15.0329H158.923C158.773 14.5728 158.548 14.1662 158.249 13.8131C157.949 13.46 157.596 13.1818 157.19 12.9785C156.794 12.7752 156.366 12.6736 155.906 12.6736C155.456 12.6736 155.028 12.7752 154.622 12.9785C154.226 13.1818 153.878 13.46 153.578 13.8131C153.289 14.1662 153.065 14.5728 152.904 15.0329ZM166.352 25L166.336 8.94999H171.151L171.167 9.96114C171.702 9.50104 172.312 9.14259 172.996 8.88579C173.681 8.62899 174.403 8.50059 175.163 8.50059C175.741 8.50059 176.329 8.58619 176.929 8.75739L175.035 13.6366C174.66 13.4654 174.275 13.3798 173.879 13.3798C173.376 13.3798 172.916 13.5028 172.499 13.7489C172.092 13.9843 171.766 14.3107 171.52 14.728C171.284 15.1346 171.167 15.5893 171.167 16.0922V25H166.352Z" fill="#999999"/>
</svg>
