<svg width="105" height="25" viewBox="0 0 105 25" fill="none" xmlns="http://www.w3.org/2000/svg">
<path d="M0.96513 24.3623V0.248889H9.57706C10.8861 0.248889 12.0688 0.576142 13.1252 1.23065C14.1931 1.88516 15.037 2.76357 15.6571 3.8659C16.2771 4.96823 16.5872 6.17964 16.5872 7.50014C16.5872 8.85508 16.2657 10.0837 15.6226 11.186C14.9911 12.2769 14.1414 13.1496 13.0735 13.8041C12.0056 14.4471 10.8401 14.7686 9.57706 14.7686H5.16775V24.3623H0.96513ZM5.16775 10.566H9.12924C9.72634 10.566 10.2718 10.4167 10.7655 10.1182C11.2593 9.81962 11.6497 9.41773 11.9367 8.9125C12.2353 8.40726 12.3846 7.84461 12.3846 7.22456C12.3846 6.59301 12.2353 6.02463 11.9367 5.51939C11.6497 5.01416 11.2593 4.61227 10.7655 4.31372C10.2718 4.01518 9.72634 3.8659 9.12924 3.8659H5.16775V10.566ZM19.2827 24.3623L19.2655 7.13844H23.4681L23.4853 8.67136C24.0709 8.0513 24.7714 7.56329 25.5866 7.20733C26.4019 6.83989 27.2803 6.65617 28.2219 6.65617C28.8534 6.65617 29.485 6.74803 30.1165 6.93175L28.463 11.1688C28.0267 10.9966 27.5904 10.9105 27.154 10.9105C26.4765 10.9105 25.8565 11.077 25.2938 11.41C24.7427 11.7315 24.3006 12.1735 23.9676 12.7362C23.6461 13.2874 23.4853 13.9017 23.4853 14.5791V24.3623H19.2827ZM38.82 24.8101C37.2354 24.8101 35.7886 24.4025 34.4795 23.5872C33.182 22.772 32.1428 21.6811 31.362 20.3147C30.5927 18.9368 30.208 17.4153 30.208 15.7504C30.208 14.4873 30.4319 13.3103 30.8798 12.2195C31.3276 11.1171 31.9419 10.1526 32.7227 9.32587C33.515 8.48764 34.4336 7.83313 35.4785 7.36235C36.5234 6.89156 37.6373 6.65617 38.82 6.65617C40.4046 6.65617 41.8456 7.0638 43.1432 7.87906C44.4522 8.69433 45.4913 9.79091 46.2607 11.1688C47.0415 12.5467 47.4319 14.0739 47.4319 15.7504C47.4319 17.002 47.208 18.1732 46.7602 19.264C46.3123 20.3549 45.6923 21.3194 44.9 22.1576C44.1192 22.9844 43.2063 23.6332 42.1614 24.1039C41.128 24.5747 40.0141 24.8101 38.82 24.8101ZM38.82 20.6075C39.6582 20.6075 40.4103 20.3836 41.0763 19.9358C41.7423 19.488 42.2647 18.8966 42.6437 18.1617C43.0341 17.4268 43.2293 16.623 43.2293 15.7504C43.2293 14.8547 43.0283 14.0395 42.6264 13.3046C42.236 12.5582 41.7021 11.9669 41.0246 11.5305C40.3586 11.0827 39.6237 10.8588 38.82 10.8588C37.9932 10.8588 37.2468 11.0827 36.5809 11.5305C35.9149 11.9783 35.3867 12.5754 34.9963 13.3218C34.6059 14.0682 34.4107 14.8777 34.4107 15.7504C34.4107 16.6575 34.6116 17.4785 35.0135 18.2134C35.4154 18.9483 35.9493 19.5339 36.6153 19.9702C37.2928 20.3951 38.0277 20.6075 38.82 20.6075ZM49.8446 24.3623V0.248889H58.6288C59.9033 0.248889 61.0516 0.512988 62.0735 1.04119C63.107 1.5579 63.9222 2.30427 64.5193 3.28029C65.1279 4.24483 65.4322 5.38734 65.4322 6.70784C65.4322 7.29345 65.3461 7.8848 65.1738 8.4819C65.0016 9.07899 64.7375 9.61867 64.3815 10.1009C64.0256 10.5717 63.5663 10.9219 63.0036 11.1516C63.75 11.3353 64.3586 11.6683 64.8293 12.1506C65.3001 12.6329 65.6676 13.2012 65.9317 13.8557C66.1958 14.4988 66.3738 15.159 66.4656 15.8365C66.569 16.5025 66.6206 17.1225 66.6206 17.6967C66.6206 18.9712 66.3049 20.108 65.6733 21.107C65.0418 22.106 64.1921 22.8983 63.1242 23.4839C62.0678 24.0695 60.8966 24.3623 59.6105 24.3623H49.8446ZM54.0472 20.7625H59.1799C59.8689 20.7625 60.4889 20.596 61.0401 20.263C61.5913 19.93 62.0333 19.4707 62.3663 18.8851C62.6993 18.2995 62.8658 17.6335 62.8658 16.8871C62.8658 16.2441 62.6993 15.6355 62.3663 15.0614C62.0333 14.4873 61.5913 14.0222 61.0401 13.6663C60.4889 13.3103 59.8689 13.1323 59.1799 13.1323H54.0472V20.7625ZM54.0472 9.58423H58.1465C58.9962 9.58423 59.7196 9.32013 60.3167 8.79193C60.9253 8.26373 61.2296 7.56329 61.2296 6.69062C61.2296 5.76053 60.9253 5.06009 60.3167 4.5893C59.7196 4.10704 58.9962 3.8659 58.1465 3.8659H54.0472V9.58423ZM82.141 7.13844H86.3436V24.3623H82.141L81.9515 22.2265C81.4807 22.9959 80.8549 23.6217 80.0741 24.1039C79.3048 24.5747 78.3919 24.8101 77.3355 24.8101C76.0609 24.8101 74.8667 24.569 73.7529 24.0867C72.6391 23.6045 71.6574 22.9385 70.8077 22.0888C69.9694 21.239 69.3092 20.2573 68.8269 19.1435C68.3561 18.0297 68.1207 16.8355 68.1207 15.5609C68.1207 14.3323 68.3446 13.1783 68.7925 12.0989C69.2518 11.0195 69.889 10.0722 70.7043 9.25697C71.5196 8.44171 72.4611 7.80443 73.529 7.34512C74.5969 6.88582 75.7452 6.65617 76.9738 6.65617C78.1106 6.65617 79.1268 6.90879 80.0224 7.41402C80.9295 7.91925 81.6989 8.56228 82.3304 9.34309L82.141 7.13844ZM77.2322 20.7625C78.1278 20.7625 78.9201 20.5386 79.609 20.0908C80.298 19.643 80.8377 19.0401 81.2281 18.2823C81.6185 17.5129 81.8137 16.669 81.8137 15.7504C81.8137 14.8203 81.6185 13.9763 81.2281 13.2185C80.8377 12.4491 80.2923 11.8406 79.5918 11.3927C78.9029 10.9449 78.1163 10.721 77.2322 10.721C76.348 10.721 75.5385 10.9507 74.8036 11.41C74.0802 11.8578 73.5003 12.4606 73.064 13.2185C72.6391 13.9763 72.4267 14.8203 72.4267 15.7504C72.4267 16.6805 72.6449 17.5244 73.0812 18.2823C73.5175 19.0401 74.0974 19.643 74.8208 20.0908C75.5557 20.5386 76.3595 20.7625 77.2322 20.7625ZM89.0867 17.9895V7.13844H93.2894V16.8871C93.2894 17.5646 93.4559 18.1847 93.7889 18.7473C94.1219 19.2985 94.5639 19.7406 95.1151 20.0736C95.6777 20.3951 96.2921 20.5558 96.958 20.5558C97.647 20.5558 98.2671 20.3951 98.8182 20.0736C99.3694 19.7406 99.8115 19.2985 100.144 18.7473C100.477 18.1847 100.644 17.5646 100.644 16.8871V7.13844H104.847L104.864 24.3623H100.661L100.644 22.7949C100.047 23.415 99.3407 23.9087 98.5254 24.2762C97.7102 24.6321 96.8375 24.8101 95.9074 24.8101C94.6558 24.8101 93.5133 24.5058 92.4798 23.8973C91.4464 23.2772 90.6197 22.4562 89.9996 21.4342C89.391 20.4008 89.0867 19.2526 89.0867 17.9895Z" fill="#999999"/>
</svg>
