<svg width="260" height="26" viewBox="0 0 260 26" fill="none" xmlns="http://www.w3.org/2000/svg">
<path d="M0.926001 25L5.2916 2.52999H9.40041L14.4401 15.7873L19.4798 2.52999H23.5886L27.9542 25H23.0429L20.6996 12.8662L16.1093 25H12.7709L8.18061 12.8662L5.8373 25H0.926001ZM31.1452 25V2.52999H35.9602V20.185H44.7877V25H31.1452ZM56.0352 25V2.52999H65.1837C66.4142 2.52999 67.527 2.84029 68.5221 3.46089C69.5172 4.08149 70.3037 4.91609 70.8815 5.96469C71.47 7.00259 71.7642 8.14749 71.7642 9.39939C71.7642 10.3624 71.6037 11.2612 71.2827 12.0958C70.9617 12.9197 70.5016 13.6526 69.9024 14.2946C69.3139 14.9259 68.6184 15.4342 67.8159 15.8194L73.1445 25H67.5912L62.5194 16.2688H60.8502V25H56.0352ZM60.8502 11.4538H64.6059C65.0339 11.4538 65.4245 11.3468 65.7776 11.1328C66.1307 10.9081 66.4142 10.6138 66.6282 10.25C66.8422 9.88624 66.9492 9.48499 66.9492 9.04629C66.9492 8.60759 66.8422 8.20634 66.6282 7.84254C66.4142 7.47874 66.1307 7.18984 65.7776 6.97584C65.4245 6.75114 65.0339 6.63879 64.6059 6.63879H60.8502V11.4538ZM75.4081 8.94999H80.2231V25H75.4081V8.94999ZM77.8477 7.28079C77.1522 7.28079 76.569 7.05074 76.0982 6.59064C75.6274 6.13054 75.392 5.55809 75.392 4.87329C75.392 4.19919 75.6274 3.63209 76.0982 3.17199C76.569 2.70119 77.1468 2.46579 77.8316 2.46579C78.5057 2.46579 79.0728 2.70119 79.5329 3.17199C80.0037 3.63209 80.2391 4.19919 80.2391 4.87329C80.2391 5.55809 80.0091 6.13054 79.549 6.59064C79.0996 7.05074 78.5325 7.28079 77.8477 7.28079ZM92.7383 19.7356L97.0718 22.0789C96.3335 23.0847 95.408 23.8925 94.2952 24.5024C93.1824 25.1124 91.9679 25.4173 90.6518 25.4173C89.1752 25.4173 87.827 25.0375 86.6072 24.2777C85.3981 23.518 84.4298 22.5015 83.7022 21.2282C82.9853 19.9442 82.6268 18.5265 82.6268 16.975C82.6268 15.798 82.8355 14.7012 83.2528 13.6847C83.6701 12.6575 84.2425 11.7587 84.9701 10.9883C85.7084 10.2072 86.5644 9.59734 87.5381 9.15864C88.5118 8.71994 89.5497 8.50059 90.6518 8.50059C91.9679 8.50059 93.1824 8.80554 94.2952 9.41544C95.408 10.0253 96.3335 10.8439 97.0718 11.8711L92.7383 14.2144C92.4494 13.9255 92.1231 13.7061 91.7593 13.5563C91.4062 13.3958 91.037 13.3156 90.6518 13.3156C90.0419 13.3156 89.4962 13.4868 89.0147 13.8292C88.5332 14.1716 88.148 14.621 87.8591 15.1774C87.5809 15.7338 87.4418 16.333 87.4418 16.975C87.4418 17.6063 87.5809 18.2001 87.8591 18.7565C88.148 19.3022 88.5332 19.7463 89.0147 20.0887C89.4962 20.4311 90.0419 20.6023 90.6518 20.6023C91.037 20.6023 91.4062 20.5274 91.7593 20.3776C92.1231 20.2171 92.4494 20.0031 92.7383 19.7356ZM106.357 25.4173C104.88 25.4173 103.532 25.0375 102.312 24.2777C101.103 23.518 100.135 22.4962 99.4073 21.2122C98.6904 19.9282 98.332 18.5104 98.332 16.9589C98.332 15.7926 98.5406 14.7012 98.9579 13.6847C99.3752 12.6575 99.9477 11.7587 100.675 10.9883C101.414 10.2072 102.27 9.59734 103.243 9.15864C104.217 8.71994 105.255 8.50059 106.357 8.50059C107.641 8.50059 108.813 8.78414 109.872 9.35124C110.942 9.90764 111.841 10.6673 112.568 11.6303C113.307 12.5826 113.831 13.658 114.141 14.8564C114.452 16.0548 114.484 17.2906 114.238 18.5639H103.532C103.682 18.9384 103.88 19.2808 104.126 19.5911C104.383 19.8907 104.693 20.1315 105.057 20.3134C105.431 20.4953 105.865 20.5916 106.357 20.6023C106.828 20.613 107.261 20.5113 107.657 20.2973C108.064 20.0833 108.417 19.7944 108.716 19.4306L113.628 20.5702C112.975 21.9933 112.001 23.1596 110.707 24.0691C109.412 24.9679 107.962 25.4173 106.357 25.4173ZM103.356 15.0329H109.374C109.225 14.5728 109 14.1662 108.7 13.8131C108.401 13.46 108.048 13.1818 107.641 12.9785C107.245 12.7752 106.817 12.6736 106.357 12.6736C105.908 12.6736 105.48 12.7752 105.073 12.9785C104.677 13.1818 104.329 13.46 104.03 13.8131C103.741 14.1662 103.516 14.5728 103.356 15.0329ZM135.369 25.4173C133.85 25.4173 132.421 25.1177 131.084 24.5185C129.746 23.9086 128.569 23.0686 127.553 21.9986C126.547 20.9286 125.755 19.6928 125.177 18.2911C124.61 16.8787 124.327 15.37 124.327 13.765C124.327 12.1493 124.61 10.6406 125.177 9.23889C125.755 7.82649 126.547 6.59064 127.553 5.53134C128.569 4.46134 129.746 3.62674 131.084 3.02754C132.421 2.41764 133.85 2.11269 135.369 2.11269C137.188 2.11269 138.863 2.53534 140.393 3.38064C141.923 4.21524 143.191 5.33339 144.197 6.73509L139.895 9.04629C139.339 8.40429 138.67 7.89069 137.889 7.50549C137.108 7.12029 136.268 6.92769 135.369 6.92769C134.513 6.92769 133.705 7.10424 132.946 7.45734C132.197 7.81044 131.533 8.30264 130.955 8.93394C130.388 9.55454 129.944 10.2768 129.623 11.1007C129.302 11.9246 129.142 12.8127 129.142 13.765C129.142 14.7066 129.302 15.5893 129.623 16.4132C129.944 17.2371 130.388 17.9647 130.955 18.596C131.533 19.2166 132.197 19.7088 132.946 20.0726C133.705 20.4257 134.513 20.6023 135.369 20.6023C136.268 20.6023 137.108 20.4097 137.889 20.0245C138.67 19.6286 139.339 19.1043 139.895 18.4516L144.197 20.7949C143.191 22.1859 141.923 23.304 140.393 24.1493C138.863 24.9946 137.188 25.4173 135.369 25.4173ZM147.069 25V0.924985H151.884V25H147.069ZM166.9 8.94999H171.715V25H166.884L166.659 23.5555C166.263 24.1119 165.76 24.5613 165.15 24.9037C164.551 25.2461 163.85 25.4173 163.048 25.4173C161.849 25.4173 160.726 25.1926 159.677 24.7432C158.639 24.2938 157.725 23.6732 156.933 22.8814C156.141 22.0789 155.52 21.1587 155.071 20.1208C154.632 19.0722 154.413 17.9487 154.413 16.7503C154.413 15.6054 154.622 14.5354 155.039 13.5403C155.456 12.5452 156.039 11.6731 156.788 10.9241C157.548 10.1644 158.42 9.57059 159.405 9.14259C160.4 8.71459 161.464 8.50059 162.598 8.50059C163.519 8.50059 164.353 8.69319 165.102 9.07839C165.862 9.45289 166.536 9.92369 167.125 10.4908L166.9 8.94999ZM162.919 20.7949C163.583 20.7949 164.187 20.6237 164.733 20.2813C165.279 19.9389 165.712 19.4788 166.033 18.901C166.354 18.3232 166.515 17.6812 166.515 16.975C166.515 16.2688 166.354 15.6268 166.033 15.049C165.712 14.4712 165.279 14.0111 164.733 13.6687C164.187 13.3263 163.583 13.1551 162.919 13.1551C162.256 13.1551 161.652 13.3263 161.106 13.6687C160.571 14.0111 160.143 14.4712 159.822 15.049C159.512 15.6268 159.356 16.2688 159.356 16.975C159.356 17.6812 159.517 18.3232 159.838 18.901C160.159 19.4788 160.587 19.9389 161.122 20.2813C161.668 20.6237 162.267 20.7949 162.919 20.7949ZM179.559 25.2889C178.746 25.214 177.965 25.0375 177.216 24.7592C176.467 24.481 175.798 24.1012 175.21 23.6197C174.621 23.1382 174.156 22.5497 173.813 21.8542L177.858 20.1208C177.965 20.2385 178.115 20.3883 178.307 20.5702C178.5 20.7414 178.741 20.8965 179.03 21.0356C179.329 21.1747 179.688 21.2443 180.105 21.2443C180.383 21.2443 180.651 21.2175 180.908 21.164C181.175 21.0998 181.389 20.9928 181.55 20.843C181.721 20.6932 181.806 20.4846 181.806 20.2171C181.806 19.9175 181.694 19.6928 181.469 19.543C181.255 19.3825 180.993 19.2701 180.683 19.2059C180.373 19.131 180.084 19.0722 179.816 19.0294C178.864 18.8796 177.949 18.58 177.072 18.1306C176.205 17.6705 175.493 17.0766 174.937 16.349C174.381 15.6107 174.102 14.7494 174.102 13.765C174.102 12.6629 174.386 11.7106 174.953 10.9081C175.52 10.1056 176.258 9.49034 177.168 9.06234C178.088 8.62364 179.078 8.40429 180.137 8.40429C181.389 8.40429 182.545 8.66109 183.604 9.17469C184.674 9.68829 185.551 10.4266 186.236 11.3896L182.448 13.6366C182.32 13.4761 182.159 13.3156 181.967 13.1551C181.785 12.9839 181.571 12.8394 181.325 12.7217C181.089 12.5933 180.833 12.5131 180.554 12.481C180.18 12.4489 179.843 12.4649 179.543 12.5291C179.254 12.5826 179.024 12.7003 178.853 12.8822C178.682 13.0534 178.596 13.3049 178.596 13.6366C178.596 13.9469 178.746 14.1716 179.046 14.3107C179.345 14.4498 179.682 14.5514 180.057 14.6156C180.431 14.6798 180.736 14.7494 180.972 14.8243C181.892 15.1239 182.759 15.5144 183.572 15.9959C184.385 16.4774 185.038 17.0606 185.53 17.7454C186.033 18.4302 186.268 19.2327 186.236 20.1529C186.236 21.2229 185.915 22.1645 185.273 22.9777C184.631 23.7909 183.802 24.4061 182.785 24.8234C181.769 25.2408 180.694 25.3959 179.559 25.2889ZM193.572 25.2889C192.759 25.214 191.977 25.0375 191.228 24.7592C190.479 24.481 189.811 24.1012 189.222 23.6197C188.634 23.1382 188.168 22.5497 187.826 21.8542L191.87 20.1208C191.977 20.2385 192.127 20.3883 192.32 20.5702C192.512 20.7414 192.753 20.8965 193.042 21.0356C193.342 21.1747 193.7 21.2443 194.117 21.2443C194.396 21.2443 194.663 21.2175 194.92 21.164C195.187 21.0998 195.401 20.9928 195.562 20.843C195.733 20.6932 195.819 20.4846 195.819 20.2171C195.819 19.9175 195.706 19.6928 195.482 19.543C195.268 19.3825 195.006 19.2701 194.695 19.2059C194.385 19.131 194.096 19.0722 193.829 19.0294C192.876 18.8796 191.961 18.58 191.084 18.1306C190.217 17.6705 189.506 17.0766 188.949 16.349C188.393 15.6107 188.115 14.7494 188.115 13.765C188.115 12.6629 188.398 11.7106 188.965 10.9081C189.532 10.1056 190.271 9.49034 191.18 9.06234C192.1 8.62364 193.09 8.40429 194.15 8.40429C195.401 8.40429 196.557 8.66109 197.616 9.17469C198.686 9.68829 199.564 10.4266 200.249 11.3896L196.461 13.6366C196.332 13.4761 196.172 13.3156 195.979 13.1551C195.797 12.9839 195.583 12.8394 195.337 12.7217C195.102 12.5933 194.845 12.5131 194.567 12.481C194.192 12.4489 193.855 12.4649 193.556 12.5291C193.267 12.5826 193.037 12.7003 192.866 12.8822C192.694 13.0534 192.609 13.3049 192.609 13.6366C192.609 13.9469 192.759 14.1716 193.058 14.3107C193.358 14.4498 193.695 14.5514 194.069 14.6156C194.444 14.6798 194.749 14.7494 194.984 14.8243C195.904 15.1239 196.771 15.5144 197.584 15.9959C198.397 16.4774 199.05 17.0606 199.542 17.7454C200.045 18.4302 200.281 19.2327 200.249 20.1529C200.249 21.2229 199.928 22.1645 199.286 22.9777C198.644 23.7909 197.814 24.4061 196.798 24.8234C195.781 25.2408 194.706 25.3959 193.572 25.2889ZM202.492 8.94999H207.307V25H202.492V8.94999ZM204.931 7.28079C204.236 7.28079 203.652 7.05074 203.182 6.59064C202.711 6.13054 202.475 5.55809 202.475 4.87329C202.475 4.19919 202.711 3.63209 203.182 3.17199C203.652 2.70119 204.23 2.46579 204.915 2.46579C205.589 2.46579 206.156 2.70119 206.616 3.17199C207.087 3.63209 207.323 4.19919 207.323 4.87329C207.323 5.55809 207.093 6.13054 206.632 6.59064C206.183 7.05074 205.616 7.28079 204.931 7.28079ZM216.344 6.02889V8.94999H220.485V13.765H216.344V25H211.529V13.765H210.02V8.94999H211.529V6.02889C211.529 5.02309 211.775 4.10824 212.267 3.28434C212.77 2.44974 213.439 1.78634 214.273 1.29414C215.108 0.791236 216.033 0.539786 217.05 0.539786C217.788 0.539786 218.521 0.694936 219.249 1.00523C219.976 1.30484 220.624 1.78099 221.191 2.43369L217.724 5.83629C217.671 5.67579 217.574 5.55809 217.435 5.48319C217.307 5.39759 217.178 5.35479 217.05 5.35479C216.857 5.35479 216.691 5.41899 216.552 5.54739C216.413 5.67579 216.344 5.83629 216.344 6.02889ZM223.024 8.94999H227.839V25H223.024V8.94999ZM225.464 7.28079C224.768 7.28079 224.185 7.05074 223.714 6.59064C223.244 6.13054 223.008 5.55809 223.008 4.87329C223.008 4.19919 223.244 3.63209 223.714 3.17199C224.185 2.70119 224.763 2.46579 225.448 2.46579C226.122 2.46579 226.689 2.70119 227.149 3.17199C227.62 3.63209 227.855 4.19919 227.855 4.87329C227.855 5.55809 227.625 6.13054 227.165 6.59064C226.716 7.05074 226.149 7.28079 225.464 7.28079ZM238.268 25.4173C236.791 25.4173 235.443 25.0375 234.223 24.2777C233.014 23.518 232.046 22.4962 231.318 21.2122C230.601 19.9282 230.243 18.5104 230.243 16.9589C230.243 15.7926 230.452 14.7012 230.869 13.6847C231.286 12.6575 231.859 11.7587 232.586 10.9883C233.325 10.2072 234.181 9.59734 235.154 9.15864C236.128 8.71994 237.166 8.50059 238.268 8.50059C239.552 8.50059 240.724 8.78414 241.783 9.35124C242.853 9.90764 243.752 10.6673 244.479 11.6303C245.218 12.5826 245.742 13.658 246.052 14.8564C246.363 16.0548 246.395 17.2906 246.149 18.5639H235.443C235.593 18.9384 235.791 19.2808 236.037 19.5911C236.294 19.8907 236.604 20.1315 236.968 20.3134C237.342 20.4953 237.776 20.5916 238.268 20.6023C238.739 20.613 239.172 20.5113 239.568 20.2973C239.975 20.0833 240.328 19.7944 240.627 19.4306L245.539 20.5702C244.886 21.9933 243.912 23.1596 242.618 24.0691C241.323 24.9679 239.873 25.4173 238.268 25.4173ZM235.267 15.0329H241.285C241.136 14.5728 240.911 14.1662 240.611 13.8131C240.312 13.46 239.959 13.1818 239.552 12.9785C239.156 12.7752 238.728 12.6736 238.268 12.6736C237.819 12.6736 237.391 12.7752 236.984 12.9785C236.588 13.1818 236.24 13.46 235.941 13.8131C235.652 14.1662 235.427 14.5728 235.267 15.0329ZM248.714 25L248.698 8.94999H253.513L253.529 9.96114C254.064 9.50104 254.674 9.14259 255.359 8.88579C256.044 8.62899 256.766 8.50059 257.526 8.50059C258.103 8.50059 258.692 8.58619 259.291 8.75739L257.397 13.6366C257.023 13.4654 256.637 13.3798 256.242 13.3798C255.739 13.3798 255.279 13.5028 254.861 13.7489C254.455 13.9843 254.128 14.3107 253.882 14.728C253.647 15.1346 253.529 15.5893 253.529 16.0922V25H248.714Z" fill="#999999"/>
</svg>
