<svg width="121" height="28" viewBox="0 0 121 28" fill="none" xmlns="http://www.w3.org/2000/svg">
<path d="M0.355683 21.5V1.21115H4.76126L11.2247 14.0801L17.6012 1.21115H22.0068V21.5H18.2968V7.50069L12.6449 18.6016H9.71754L4.06564 7.50069V21.5H0.355683ZM27.6532 27.8765L30.9864 20.5435H30.1169L24.523 7.1239H28.5518L32.5805 17.2393L36.7832 7.1239H40.7251L31.5951 27.8765H27.6532ZM50.1438 21.5V1.21115H54.5493L61.0128 14.0801L67.3893 1.21115H71.7949V21.5H68.0849V7.50069L62.433 18.6016H59.5056L53.8537 7.50069V21.5H50.1438ZM81.0353 21.8478C79.2383 21.8478 77.8471 21.2875 76.8616 20.1667C75.8955 19.046 75.4124 17.4036 75.4124 15.2394V7.1239H79.0934V14.8916C79.0934 16.1283 79.3446 17.0751 79.847 17.7321C80.3494 18.389 81.1416 18.7175 82.2237 18.7175C83.2478 18.7175 84.0883 18.3504 84.7453 17.6161C85.4216 16.8819 85.7597 15.8578 85.7597 14.5438V7.1239H89.4697V21.5H86.1945L85.9047 19.0653C85.4602 19.9155 84.8129 20.5918 83.9627 21.0942C83.1319 21.5966 82.1561 21.8478 81.0353 21.8478ZM93.9448 21.5V10.2252H91.9739V7.1239H93.9448V5.44282C93.9448 3.70378 94.3796 2.46712 95.2491 1.73286C96.1379 0.998599 97.3359 0.631468 98.8431 0.631468H100.437V3.79073H99.4228C98.7851 3.79073 98.3311 3.91633 98.0605 4.16752C97.79 4.41872 97.6548 4.84382 97.6548 5.44282V7.1239H100.756V10.2252H97.6548V21.5H93.9448ZM110.1 21.5C108.593 21.5 107.385 21.1329 106.477 20.3986C105.569 19.6643 105.115 18.3601 105.115 16.4858V10.2252H102.651V7.1239H105.115L105.549 3.26902H108.824V7.1239H112.708V10.2252H108.824V16.5147C108.824 17.2104 108.969 17.6934 109.259 17.9639C109.568 18.2151 110.09 18.3407 110.824 18.3407H112.621V21.5H110.1ZM117.894 4.89213C117.217 4.89213 116.657 4.68924 116.212 4.28346C115.787 3.87768 115.575 3.36563 115.575 2.74731C115.575 2.12898 115.787 1.62659 116.212 1.24013C116.657 0.834356 117.217 0.631468 117.894 0.631468C118.57 0.631468 119.121 0.834356 119.546 1.24013C119.99 1.62659 120.212 2.12898 120.212 2.74731C120.212 3.36563 119.99 3.87768 119.546 4.28346C119.121 4.68924 118.57 4.89213 117.894 4.89213ZM116.039 21.5V7.1239H119.749V21.5H116.039Z" fill="#999999"/>
</svg>
