<svg width="199" height="34" viewBox="0 0 199 34" fill="none" xmlns="http://www.w3.org/2000/svg">
<path d="M0.760962 25V2.52999H9.23537C10.4659 2.52999 11.5787 2.84564 12.5738 3.47694C13.5796 4.09754 14.3767 4.93214 14.9652 5.98074C15.5537 7.01864 15.848 8.15819 15.848 9.39939C15.848 10.662 15.543 11.8122 14.9331 12.8501C14.3339 13.888 13.5314 14.7173 12.5256 15.3379C11.5198 15.9585 10.4231 16.2688 9.23537 16.2688H5.57596V25H0.760962ZM5.57596 11.4538H8.68967C9.11767 11.4538 9.50822 11.3468 9.86132 11.1328C10.2144 10.9081 10.498 10.6138 10.712 10.25C10.926 9.88624 11.033 9.48499 11.033 9.04629C11.033 8.60759 10.926 8.20634 10.712 7.84254C10.498 7.47874 10.2144 7.18984 9.86132 6.97584C9.50822 6.75114 9.11767 6.63879 8.68967 6.63879H5.57596V11.4538ZM17.4542 19.1738V8.94999H22.2692V17.8256C22.2692 18.3285 22.3923 18.7886 22.6384 19.2059C22.8845 19.6125 23.2108 19.9389 23.6174 20.185C24.0347 20.4204 24.4895 20.5381 24.9817 20.5381C25.4846 20.5381 25.9393 20.4204 26.3459 20.185C26.7632 19.9389 27.0896 19.6125 27.325 19.2059C27.5711 18.7886 27.6941 18.3285 27.6941 17.8256V8.94999H32.5091L32.5252 25H27.7102L27.6941 23.9567C27.1591 24.4168 26.5492 24.7753 25.8644 25.0321C25.1796 25.2889 24.4574 25.4173 23.6977 25.4173C22.5528 25.4173 21.5042 25.1391 20.5519 24.5827C19.6103 24.0156 18.8559 23.2612 18.2888 22.3196C17.7324 21.378 17.4542 20.3294 17.4542 19.1738ZM35.761 25L35.745 8.94999H40.56L40.576 9.96114C41.111 9.50104 41.7209 9.14259 42.4057 8.88579C43.0905 8.62899 43.8128 8.50059 44.5725 8.50059C45.1503 8.50059 45.7388 8.58619 46.338 8.75739L44.4441 13.6366C44.0696 13.4654 43.6844 13.3798 43.2885 13.3798C42.7856 13.3798 42.3255 13.5028 41.9082 13.7489C41.5016 13.9843 41.1752 14.3107 40.9291 14.728C40.6937 15.1346 40.576 15.5893 40.576 16.0922V25H35.761ZM54.3743 25.4173C52.8977 25.4173 51.5495 25.0375 50.3297 24.2777C49.1206 23.518 48.1522 22.4962 47.4246 21.2122C46.7077 19.9282 46.3493 18.5104 46.3493 16.9589C46.3493 15.7926 46.5579 14.7012 46.9752 13.6847C47.3925 12.6575 47.965 11.7587 48.6926 10.9883C49.4309 10.2072 50.2869 9.59734 51.2606 9.15864C52.2343 8.71994 53.2722 8.50059 54.3743 8.50059C55.6583 8.50059 56.8299 8.78414 57.8892 9.35124C58.9592 9.90764 59.858 10.6673 60.5856 11.6303C61.3239 12.5826 61.8482 13.658 62.1585 14.8564C62.4688 16.0548 62.5009 17.2906 62.2548 18.5639H51.5495C51.6993 18.9384 51.8972 19.2808 52.1433 19.5911C52.4001 19.8907 52.7104 20.1315 53.0742 20.3134C53.4487 20.4953 53.8821 20.5916 54.3743 20.6023C54.8451 20.613 55.2784 20.5113 55.6743 20.2973C56.0809 20.0833 56.434 19.7944 56.7336 19.4306L61.6449 20.5702C60.9922 21.9933 60.0185 23.1596 58.7238 24.0691C57.4291 24.9679 55.9793 25.4173 54.3743 25.4173ZM51.3729 15.0329H57.3917C57.2419 14.5728 57.0172 14.1662 56.7176 13.8131C56.418 13.46 56.0649 13.1818 55.6583 12.9785C55.2624 12.7752 54.8344 12.6736 54.3743 12.6736C53.9249 12.6736 53.4969 12.7752 53.0903 12.9785C52.6944 13.1818 52.3466 13.46 52.047 13.8131C51.7581 14.1662 51.5334 14.5728 51.3729 15.0329ZM81.2036 25.4173C79.941 25.4173 78.7319 25.2194 77.5763 24.8234C76.4207 24.4168 75.4096 23.839 74.5429 23.09C73.6762 22.3303 73.0502 21.4262 72.665 20.3776L77.1911 18.7084C77.2981 19.0187 77.5335 19.3183 77.8973 19.6072C78.2718 19.8961 78.7426 20.1368 79.3097 20.3294C79.8768 20.5113 80.5081 20.6023 81.2036 20.6023C81.8456 20.6023 82.4502 20.5113 83.0173 20.3294C83.5844 20.1368 84.0445 19.8747 84.3976 19.543C84.7507 19.2113 84.9272 18.8261 84.9272 18.3874C84.9272 17.938 84.74 17.5688 84.3655 17.2799C84.0017 16.9803 83.5309 16.7449 82.9531 16.5737C82.386 16.3918 81.8028 16.2581 81.2036 16.1725C79.5772 15.9371 78.1167 15.5519 76.822 15.0169C75.538 14.4712 74.5215 13.7222 73.7725 12.7699C73.0342 11.8176 72.665 10.6085 72.665 9.14259C72.665 7.74089 73.0609 6.51574 73.8527 5.46714C74.6445 4.40784 75.6878 3.58394 76.9825 2.99544C78.2879 2.40694 79.6949 2.11269 81.2036 2.11269C82.4662 2.11269 83.6753 2.31599 84.8309 2.72259C85.9972 3.11849 87.0137 3.69629 87.8804 4.45599C88.7471 5.21569 89.3677 6.12519 89.7422 7.18449L85.2161 8.82159C85.1091 8.51129 84.8684 8.21704 84.4939 7.93884C84.1301 7.64994 83.6646 7.41454 83.0975 7.23264C82.5304 7.05074 81.8991 6.95979 81.2036 6.95979C80.583 6.94909 79.9892 7.04004 79.4221 7.23264C78.855 7.42524 78.3895 7.68739 78.0257 8.01909C77.6619 8.35079 77.48 8.72529 77.48 9.14259C77.48 9.72039 77.6512 10.1537 77.9936 10.4426C78.336 10.7208 78.7854 10.9188 79.3418 11.0365C79.9089 11.1542 80.5295 11.2612 81.2036 11.3575C82.7444 11.5822 84.1622 11.9834 85.4569 12.5612C86.7516 13.139 87.7895 13.9094 88.5706 14.8724C89.3517 15.8354 89.7422 17.0071 89.7422 18.3874C89.7422 19.7891 89.3463 21.0196 88.5545 22.0789C87.7734 23.1275 86.7355 23.946 85.4408 24.5345C84.1461 25.1231 82.7337 25.4173 81.2036 25.4173ZM101.625 13.765H98.8967V25H94.0817V13.765H91.9952V8.94999H94.0817V3.91029H98.8967V8.94999H101.625V13.765ZM104.538 25L104.522 8.94999H109.337L109.353 9.96114C109.888 9.50104 110.498 9.14259 111.183 8.88579C111.867 8.62899 112.59 8.50059 113.349 8.50059C113.927 8.50059 114.516 8.58619 115.115 8.75739L113.221 13.6366C112.846 13.4654 112.461 13.3798 112.065 13.3798C111.562 13.3798 111.102 13.5028 110.685 13.7489C110.278 13.9843 109.952 14.3107 109.706 14.728C109.471 15.1346 109.353 15.5893 109.353 16.0922V25H104.538ZM123.151 25.4173C121.674 25.4173 120.326 25.0375 119.106 24.2777C117.897 23.518 116.929 22.4962 116.201 21.2122C115.485 19.9282 115.126 18.5104 115.126 16.9589C115.126 15.7926 115.335 14.7012 115.752 13.6847C116.169 12.6575 116.742 11.7587 117.469 10.9883C118.208 10.2072 119.064 9.59734 120.037 9.15864C121.011 8.71994 122.049 8.50059 123.151 8.50059C124.435 8.50059 125.607 8.78414 126.666 9.35124C127.736 9.90764 128.635 10.6673 129.362 11.6303C130.101 12.5826 130.625 13.658 130.935 14.8564C131.246 16.0548 131.278 17.2906 131.032 18.5639H120.326C120.476 18.9384 120.674 19.2808 120.92 19.5911C121.177 19.8907 121.487 20.1315 121.851 20.3134C122.226 20.4953 122.659 20.5916 123.151 20.6023C123.622 20.613 124.055 20.5113 124.451 20.2973C124.858 20.0833 125.211 19.7944 125.51 19.4306L130.422 20.5702C129.769 21.9933 128.795 23.1596 127.501 24.0691C126.206 24.9679 124.756 25.4173 123.151 25.4173ZM120.15 15.0329H126.168C126.019 14.5728 125.794 14.1662 125.494 13.8131C125.195 13.46 124.842 13.1818 124.435 12.9785C124.039 12.7752 123.611 12.6736 123.151 12.6736C122.702 12.6736 122.274 12.7752 121.867 12.9785C121.471 13.1818 121.123 13.46 120.824 13.8131C120.535 14.1662 120.31 14.5728 120.15 15.0329ZM148.652 14.744V25H143.837V16.0922C143.837 15.5893 143.714 15.1346 143.468 14.728C143.222 14.3107 142.895 13.9843 142.489 13.7489C142.082 13.5028 141.627 13.3798 141.125 13.3798C140.622 13.3798 140.162 13.5028 139.744 13.7489C139.338 13.9843 139.011 14.3107 138.765 14.728C138.53 15.1346 138.412 15.5893 138.412 16.0922V25H133.597L133.581 8.94999H138.396L138.412 9.96114C138.947 9.50104 139.557 9.14259 140.242 8.88579C140.927 8.62899 141.649 8.50059 142.409 8.50059C143.564 8.50059 144.613 8.78414 145.554 9.35124C146.496 9.90764 147.245 10.6566 147.801 11.5982C148.368 12.5398 148.652 13.5884 148.652 14.744ZM163.003 8.94999H167.818V25.1605C167.818 26.3803 167.572 27.4717 167.08 28.4347C166.598 29.4084 165.935 30.2377 165.089 30.9225C164.244 31.6073 163.27 32.1262 162.168 32.4793C161.077 32.8431 159.921 33.025 158.702 33.025C157.567 33.025 156.481 32.8057 155.443 32.367C154.406 31.939 153.48 31.3398 152.667 30.5694C151.854 29.799 151.212 28.9055 150.741 27.889L155.138 25.8988C155.363 26.3803 155.657 26.7869 156.021 27.1186C156.385 27.461 156.797 27.7232 157.257 27.9051C157.717 28.087 158.199 28.1779 158.702 28.1779C159.258 28.1779 159.793 28.1191 160.307 28.0014C160.82 27.8837 161.28 27.7018 161.687 27.4557C162.093 27.2096 162.414 26.8939 162.65 26.5087C162.885 26.1342 163.003 25.6848 163.003 25.1605V23.5876C162.521 24.1333 161.949 24.5773 161.286 24.9197C160.633 25.2515 159.879 25.4173 159.023 25.4173C157.856 25.4173 156.765 25.198 155.748 24.7592C154.732 24.3205 153.833 23.716 153.052 22.9456C152.282 22.1645 151.677 21.2657 151.238 20.2492C150.8 19.2327 150.58 18.1413 150.58 16.975C150.58 15.8087 150.8 14.7173 151.238 13.7008C151.677 12.6843 152.282 11.7908 153.052 11.0204C153.833 10.2393 154.732 9.62944 155.748 9.19074C156.765 8.75204 157.856 8.53269 159.023 8.53269C159.879 8.53269 160.633 8.70389 161.286 9.04629C161.949 9.37799 162.521 9.81669 163.003 10.3624V8.94999ZM159.087 20.7949C159.75 20.7949 160.355 20.6237 160.9 20.2813C161.446 19.9389 161.879 19.4788 162.2 18.901C162.521 18.3232 162.682 17.6812 162.682 16.975C162.682 16.2688 162.521 15.6268 162.2 15.049C161.879 14.4712 161.446 14.0111 160.9 13.6687C160.355 13.3263 159.75 13.1551 159.087 13.1551C158.434 13.1551 157.835 13.3263 157.289 13.6687C156.754 14.0111 156.326 14.4712 156.005 15.049C155.684 15.6268 155.524 16.2688 155.524 16.975C155.524 17.6812 155.684 18.3232 156.005 18.901C156.326 19.4788 156.754 19.9389 157.289 20.2813C157.835 20.6237 158.434 20.7949 159.087 20.7949ZM186.739 14.744V25H181.924V16.0922C181.924 15.5893 181.801 15.1346 181.555 14.728C181.309 14.3107 180.983 13.9843 180.576 13.7489C180.17 13.5028 179.715 13.3798 179.212 13.3798C178.709 13.3798 178.249 13.5028 177.832 13.7489C177.425 13.9843 177.099 14.3107 176.853 14.728C176.617 15.1346 176.5 15.5893 176.5 16.0922V25H171.685L171.668 0.924985H176.483L176.5 9.96114C177.035 9.50104 177.644 9.14259 178.329 8.88579C179.014 8.62899 179.736 8.50059 180.496 8.50059C181.652 8.50059 182.7 8.78414 183.642 9.35124C184.583 9.90764 185.332 10.6566 185.889 11.5982C186.456 12.5398 186.739 13.5884 186.739 14.744ZM198.772 13.765H196.043V25H191.228V13.765H189.142V8.94999H191.228V3.91029H196.043V8.94999H198.772V13.765Z" fill="#999999"/>
</svg>
