<svg width="264" height="31" viewBox="0 0 264 31" fill="none" xmlns="http://www.w3.org/2000/svg">
<path d="M8.64223 0.218928H14.0215L22.1064 22.5H17.0454L15.7722 18.9987H6.89157L5.61837 22.5H0.557384L8.64223 0.218928ZM8.64223 14.2242H14.0215L11.316 6.83959L8.64223 14.2242ZM28.6288 30.4575H23.8543V6.58495H28.6288V8.08096C29.1275 7.51863 29.7057 7.0624 30.3635 6.71227C31.0214 6.35153 31.78 6.17116 32.6394 6.17116C33.8065 6.17116 34.894 6.38866 35.902 6.82367C36.9099 7.25869 37.7959 7.86346 38.5598 8.63799C39.3343 9.40191 39.9338 10.2879 40.3582 11.2958C40.7932 12.3038 41.0107 13.386 41.0107 14.5425C41.0107 15.699 40.7932 16.7865 40.3582 17.8051C39.9338 18.8236 39.3343 19.7202 38.5598 20.4947C37.7959 21.2586 36.9099 21.8581 35.902 22.2931C34.894 22.7281 33.8065 22.9456 32.6394 22.9456C31.78 22.9456 31.0214 22.7653 30.3635 22.4045C29.7057 22.0438 29.1275 21.5875 28.6288 21.0358V30.4575ZM32.5757 10.7547C31.9285 10.7547 31.3344 10.9298 30.7932 11.2799C30.2627 11.6194 29.8383 12.0756 29.52 12.6486C29.2017 13.2215 29.0426 13.8528 29.0426 14.5425C29.0426 15.2427 29.2017 15.8793 29.52 16.4523C29.8383 17.0252 30.2627 17.4815 30.7932 17.821C31.3344 18.1605 31.9285 18.3303 32.5757 18.3303C33.2336 18.3303 33.833 18.1605 34.3741 17.821C34.9152 17.4815 35.345 17.0252 35.6633 16.4523C35.9816 15.8793 36.1407 15.2427 36.1407 14.5425C36.1407 13.8528 35.9816 13.2215 35.6633 12.6486C35.345 12.0756 34.9152 11.6194 34.3741 11.2799C33.833 10.9298 33.2336 10.7547 32.5757 10.7547ZM48.1807 30.4575H43.4062V6.58495H48.1807V8.08096C48.6794 7.51863 49.2576 7.0624 49.9154 6.71227C50.5732 6.35153 51.3319 6.17116 52.1913 6.17116C53.3584 6.17116 54.4459 6.38866 55.4539 6.82367C56.4618 7.25869 57.3478 7.86346 58.1117 8.63799C58.8862 9.40191 59.4857 10.2879 59.9101 11.2958C60.3451 12.3038 60.5626 13.386 60.5626 14.5425C60.5626 15.699 60.3451 16.7865 59.9101 17.8051C59.4857 18.8236 58.8862 19.7202 58.1117 20.4947C57.3478 21.2586 56.4618 21.8581 55.4539 22.2931C54.4459 22.7281 53.3584 22.9456 52.1913 22.9456C51.3319 22.9456 50.5732 22.7653 49.9154 22.4045C49.2576 22.0438 48.6794 21.5875 48.1807 21.0358V30.4575ZM52.1276 10.7547C51.4804 10.7547 50.8862 10.9298 50.3451 11.2799C49.8146 11.6194 49.3902 12.0756 49.0719 12.6486C48.7536 13.2215 48.5945 13.8528 48.5945 14.5425C48.5945 15.2427 48.7536 15.8793 49.0719 16.4523C49.3902 17.0252 49.8146 17.4815 50.3451 17.821C50.8862 18.1605 51.4804 18.3303 52.1276 18.3303C52.7854 18.3303 53.3849 18.1605 53.926 17.821C54.4671 17.4815 54.8968 17.0252 55.2151 16.4523C55.5334 15.8793 55.6926 15.2427 55.6926 14.5425C55.6926 13.8528 55.5334 13.2215 55.2151 12.6486C54.8968 12.0756 54.4671 11.6194 53.926 11.2799C53.3849 10.9298 52.7854 10.7547 52.1276 10.7547ZM70.1161 22.9138C68.6519 22.9138 67.3151 22.5371 66.1055 21.7838C64.9066 21.0305 63.9464 20.0226 63.2249 18.76C62.514 17.4868 62.1586 16.0809 62.1586 14.5425C62.1586 13.3754 62.3655 12.2878 62.7793 11.2799C63.1931 10.2613 63.7607 9.37008 64.4822 8.60616C65.2143 7.83163 66.0631 7.22686 67.0286 6.79184C67.9941 6.35683 69.0233 6.13933 70.1161 6.13933C71.5803 6.13933 72.9118 6.51598 74.1108 7.2693C75.3203 8.02261 76.2805 9.03587 76.9914 10.3091C77.7129 11.5823 78.0736 12.9934 78.0736 14.5425C78.0736 15.699 77.8667 16.7812 77.4529 17.7891C77.0392 18.7971 76.4662 19.6883 75.7341 20.4629C75.0126 21.2268 74.1691 21.8263 73.2036 22.2613C72.2487 22.6963 71.2195 22.9138 70.1161 22.9138ZM70.1161 18.1393C70.7209 18.1393 71.262 17.9748 71.7394 17.6459C72.2275 17.317 72.6095 16.882 72.8853 16.3409C73.1612 15.7892 73.2991 15.1897 73.2991 14.5425C73.2991 13.874 73.1506 13.264 72.8535 12.7122C72.567 12.1605 72.1798 11.7255 71.6917 11.4072C71.2142 11.0783 70.689 10.9138 70.1161 10.9138C69.5219 10.9138 68.9808 11.0836 68.4928 11.4231C68.0153 11.752 67.6334 12.1924 67.3469 12.7441C67.071 13.2958 66.9331 13.8953 66.9331 14.5425C66.9331 15.2215 67.0763 15.8316 67.3628 16.3727C67.6599 16.9138 68.0471 17.3435 68.5246 17.6618C69.0127 17.9801 69.5432 18.1393 70.1161 18.1393ZM79.9921 6.58495H84.7667V22.5H79.9921V6.58495ZM82.4112 4.92978C81.7216 4.92978 81.1433 4.70167 80.6765 4.24544C80.2096 3.7892 79.9762 3.22157 79.9762 2.54253C79.9762 1.87409 80.2096 1.31176 80.6765 0.855531C81.1433 0.388689 81.7163 0.155268 82.3953 0.155268C83.0637 0.155268 83.6261 0.388689 84.0823 0.855531C84.5491 1.31176 84.7826 1.87409 84.7826 2.54253C84.7826 3.22157 84.5544 3.7892 84.0982 4.24544C83.6526 4.70167 83.0903 4.92978 82.4112 4.92978ZM103.329 12.3303V22.5H98.5546V13.6671C98.5546 13.1685 98.4325 12.7175 98.1885 12.3144C97.9445 11.9006 97.6209 11.577 97.2177 11.3435C96.8145 11.0995 96.3636 10.9775 95.8649 10.9775C95.3662 10.9775 94.91 11.0995 94.4962 11.3435C94.093 11.577 93.7694 11.9006 93.5254 12.3144C93.292 12.7175 93.1753 13.1685 93.1753 13.6671V22.5H88.4008L88.3848 6.58495H93.1594L93.1753 7.5876C93.7058 7.13137 94.3105 6.77593 94.9896 6.52129C95.6686 6.26665 96.3848 6.13933 97.1381 6.13933C98.284 6.13933 99.3238 6.42049 100.257 6.98283C101.191 7.53455 101.934 8.27725 102.486 9.21093C103.048 10.1446 103.329 11.1844 103.329 12.3303ZM115.26 11.3595H112.555V22.5H107.78V11.3595H105.711V6.58495H107.78V1.58762H112.555V6.58495H115.26V11.3595ZM118.132 22.5V6.58495H122.907V7.5876C123.437 7.13137 124.042 6.77593 124.721 6.52129C125.4 6.26665 126.116 6.13933 126.87 6.13933C127.931 6.13933 128.907 6.38336 129.798 6.87142C130.689 7.34887 131.411 7.99078 131.962 8.79714C132.525 7.99078 133.246 7.34887 134.127 6.87142C135.018 6.38336 135.989 6.13933 137.039 6.13933C138.185 6.13933 139.225 6.42049 140.159 6.98283C141.092 7.53455 141.835 8.27725 142.387 9.21093C142.949 10.1446 143.23 11.1844 143.23 12.3303V22.5H138.456V13.6671C138.456 13.1685 138.334 12.7175 138.09 12.3144C137.846 11.9112 137.522 11.5876 137.119 11.3435C136.716 11.0995 136.265 10.9775 135.766 10.9775C135.268 10.9775 134.811 11.0995 134.397 11.3435C133.994 11.5876 133.671 11.9112 133.427 12.3144C133.183 12.7175 133.061 13.1685 133.061 13.6671V22.5H128.286V13.6671C128.286 13.1685 128.164 12.7175 127.92 12.3144C127.687 11.9112 127.363 11.5876 126.949 11.3435C126.546 11.0995 126.095 10.9775 125.596 10.9775C125.108 10.9775 124.657 11.0995 124.244 11.3435C123.841 11.5876 123.517 11.9112 123.273 12.3144C123.029 12.7175 122.907 13.1685 122.907 13.6671V22.5H118.132ZM153.111 22.9138C151.646 22.9138 150.31 22.5371 149.1 21.7838C147.901 21.0305 146.941 20.0173 146.219 18.744C145.509 17.4708 145.153 16.065 145.153 14.5266C145.153 13.3701 145.36 12.2878 145.774 11.2799C146.188 10.2613 146.755 9.37008 147.477 8.60616C148.209 7.83163 149.058 7.22686 150.023 6.79184C150.989 6.35683 152.018 6.13933 153.111 6.13933C154.384 6.13933 155.546 6.42049 156.596 6.98283C157.657 7.53455 158.548 8.28786 159.27 9.24276C160.002 10.1871 160.522 11.2534 160.829 12.4417C161.137 13.63 161.169 14.8555 160.925 16.1181H150.31C150.458 16.4894 150.654 16.8289 150.898 17.1366C151.153 17.4337 151.461 17.6724 151.821 17.8528C152.193 18.0332 152.623 18.1287 153.111 18.1393C153.577 18.1499 154.007 18.0491 154.4 17.8369C154.803 17.6247 155.153 17.3382 155.45 16.9775L160.32 18.1074C159.673 19.5186 158.707 20.6751 157.424 21.5769C156.14 22.4682 154.702 22.9138 153.111 22.9138ZM150.134 12.6168H156.103C155.954 12.1605 155.731 11.7573 155.434 11.4072C155.137 11.0571 154.787 10.7812 154.384 10.5796C153.991 10.378 153.567 10.2772 153.111 10.2772C152.665 10.2772 152.241 10.378 151.837 10.5796C151.445 10.7812 151.1 11.0571 150.803 11.4072C150.516 11.7573 150.294 12.1605 150.134 12.6168ZM178.397 12.3303V22.5H173.623V13.6671C173.623 13.1685 173.501 12.7175 173.257 12.3144C173.013 11.9006 172.689 11.577 172.286 11.3435C171.883 11.0995 171.432 10.9775 170.933 10.9775C170.434 10.9775 169.978 11.0995 169.564 11.3435C169.161 11.577 168.837 11.9006 168.593 12.3144C168.36 12.7175 168.243 13.1685 168.243 13.6671V22.5H163.469L163.453 6.58495H168.227L168.243 7.5876C168.774 7.13137 169.379 6.77593 170.058 6.52129C170.737 6.26665 171.453 6.13933 172.206 6.13933C173.352 6.13933 174.392 6.42049 175.326 6.98283C176.259 7.53455 177.002 8.27725 177.554 9.21093C178.116 10.1446 178.397 11.1844 178.397 12.3303ZM190.328 11.3595H187.623V22.5H182.848V11.3595H180.779V6.58495H182.848V1.58762H187.623V6.58495H190.328V11.3595ZM200.847 22.5V0.218928H206.004L214.152 13.874V0.218928H218.927V22.5H213.77L205.622 8.84489V22.5H200.847ZM229.422 22.9138C227.958 22.9138 226.621 22.5371 225.411 21.7838C224.212 21.0305 223.252 20.0226 222.531 18.76C221.82 17.4868 221.465 16.0809 221.465 14.5425C221.465 13.3754 221.671 12.2878 222.085 11.2799C222.499 10.2613 223.067 9.37008 223.788 8.60616C224.52 7.83163 225.369 7.22686 226.335 6.79184C227.3 6.35683 228.329 6.13933 229.422 6.13933C230.886 6.13933 232.218 6.51598 233.417 7.2693C234.626 8.02261 235.586 9.03587 236.297 10.3091C237.019 11.5823 237.38 12.9934 237.38 14.5425C237.38 15.699 237.173 16.7812 236.759 17.7891C236.345 18.7971 235.772 19.6883 235.04 20.4629C234.319 21.2268 233.475 21.8263 232.51 22.2613C231.555 22.6963 230.525 22.9138 229.422 22.9138ZM229.422 18.1393C230.027 18.1393 230.568 17.9748 231.045 17.6459C231.533 17.317 231.915 16.882 232.191 16.3409C232.467 15.7892 232.605 15.1897 232.605 14.5425C232.605 13.874 232.456 13.264 232.159 12.7122C231.873 12.1605 231.486 11.7255 230.998 11.4072C230.52 11.0783 229.995 10.9138 229.422 10.9138C228.828 10.9138 228.287 11.0836 227.799 11.4231C227.321 11.752 226.939 12.1924 226.653 12.7441C226.377 13.2958 226.239 13.8953 226.239 14.5425C226.239 15.2215 226.382 15.8316 226.669 16.3727C226.966 16.9138 227.353 17.3435 227.831 17.6618C228.319 17.9801 228.849 18.1393 229.422 18.1393ZM247.996 22.5H243.317L238.001 6.58495H242.68L245.672 15.5292L248.632 6.58495H253.28L256.24 15.5292L259.232 6.58495H263.911L258.595 22.5H253.916L250.956 13.5557L247.996 22.5Z" fill="#999999"/>
</svg>
