<svg width="89" height="39" viewBox="0 0 89 39" fill="none" xmlns="http://www.w3.org/2000/svg">
<rect x="0.142578" y="0.362305" width="38.2753" height="38.2753" rx="19.1376" fill="#999999"/>
<rect x="9.58398" y="9.29297" width="5.74748" height="20.4135" fill="white"/>
<path d="M27.5511 15.2386V9.29297H23.4883C22.0613 9.29297 20.9118 10.4821 20.4163 11.374L17.4435 17.9142C16.0562 20.887 16.2874 22.1753 16.5516 22.6707L22.1009 29.7064H29.2357L19.1762 17.5189C19.0264 17.3375 18.9977 17.0849 19.1029 16.8745L19.7565 15.5673C19.8572 15.3659 20.0631 15.2386 20.2883 15.2386H27.5511Z" fill="white"/>
<path d="M51.1832 21.3553L47.764 24.9276V28.5H46.3606V8.39273H47.764V23.218L55.9294 14.7209H57.8176L52.2294 20.4622L58.1493 28.5H56.3632L51.1832 21.3553ZM66.1122 28.7807C65.0745 28.7807 64.1219 28.6021 63.2543 28.2448C62.3867 27.8876 61.6297 27.3943 60.9833 26.7649C60.3539 26.1184 59.8606 25.3614 59.5033 24.4939C59.1461 23.6093 58.9675 22.6481 58.9675 21.6105C58.9675 20.5898 59.1461 19.6457 59.5033 18.7781C59.8776 17.9105 60.3794 17.1535 61.0088 16.5071C61.6553 15.8607 62.4123 15.3588 63.2798 15.0016C64.1474 14.6273 65.0915 14.4402 66.1122 14.4402C67.1329 14.4402 68.077 14.6273 68.9446 15.0016C69.8121 15.3588 70.5691 15.8607 71.2156 16.5071C71.862 17.1535 72.3638 17.9105 72.7211 18.7781C73.0953 19.6457 73.2824 20.5898 73.2824 21.6105C73.2824 22.6141 73.0953 23.5497 72.7211 24.4173C72.3638 25.2849 71.862 26.0419 71.2156 26.6883C70.5861 27.3347 69.8291 27.8451 68.9446 28.2193C68.077 28.5936 67.1329 28.7807 66.1122 28.7807ZM66.1122 27.4028C66.9287 27.4028 67.6772 27.2582 68.3577 26.969C69.0551 26.6798 69.6505 26.28 70.1439 25.7697C70.6542 25.2423 71.054 24.6299 71.3431 23.9325C71.6323 23.218 71.7769 22.444 71.7769 21.6105C71.7769 20.7939 71.6323 20.0284 71.3431 19.3139C71.054 18.5995 70.6542 17.9871 70.1439 17.4767C69.6335 16.9494 69.0296 16.5411 68.3322 16.2519C67.6517 15.9457 66.9117 15.7926 66.1122 15.7926C65.3127 15.7926 64.5642 15.9457 63.8667 16.2519C63.1863 16.5411 62.5909 16.9494 62.0805 17.4767C61.5872 17.9871 61.1959 18.5995 60.9068 19.3139C60.6176 20.0284 60.473 20.7939 60.473 21.6105C60.473 22.461 60.6176 23.2435 60.9068 23.958C61.1959 24.6555 61.5872 25.2594 62.0805 25.7697C62.5909 26.28 63.1863 26.6798 63.8667 26.969C64.5642 27.2582 65.3127 27.4028 66.1122 27.4028ZM76.66 33.1441C75.9455 33.1441 75.3161 33.0165 74.7718 32.7613C74.2444 32.5061 73.8106 32.1829 73.4704 31.7917L74.5166 30.6944C74.8058 31.0347 75.112 31.2983 75.4352 31.4855C75.7584 31.6896 76.1667 31.7917 76.66 31.7917C77.0343 31.7917 77.3575 31.7406 77.6297 31.6386C77.9189 31.5535 78.1825 31.3919 78.4207 31.1538C78.6588 30.9156 78.897 30.5839 79.1352 30.1586C79.3733 29.7503 79.637 29.223 79.9262 28.5766L80.2579 27.8621L74.389 14.7209H75.9711L81.0489 26.178L85.9226 14.7209H87.5302L81.1765 29.0103C80.8533 29.7418 80.5386 30.3627 80.2324 30.8731C79.9262 31.4004 79.5945 31.8257 79.2372 32.1489C78.897 32.4891 78.5142 32.7358 78.089 32.8889C77.6807 33.059 77.2044 33.1441 76.66 33.1441Z" fill="#999999"/>
</svg>
