<svg width="176" height="24" viewBox="0 0 176 24" fill="none" xmlns="http://www.w3.org/2000/svg">
<path d="M8.62499 23.4173C7.13769 23.4173 5.79484 23.0589 4.59644 22.3419C3.40874 21.6143 2.46714 20.6567 1.77164 19.469C1.07614 18.2706 0.72839 16.9652 0.72839 15.5528H5.54339C5.54339 16.1199 5.68249 16.6335 5.96069 17.0936C6.23889 17.5537 6.60804 17.9228 7.06814 18.201C7.53894 18.4685 8.05789 18.6023 8.62499 18.6023C9.18139 18.6023 9.68964 18.4685 10.1497 18.201C10.6098 17.9228 10.979 17.5537 11.2572 17.0936C11.5354 16.6335 11.6745 16.1199 11.6745 15.5528C11.6745 14.9857 11.5621 14.4667 11.3374 13.9959C11.1234 13.5144 10.7275 13.1292 10.1497 12.8403C9.58264 12.5514 8.76409 12.407 7.69409 12.407H1.75559L4.25939 0.529986H15.5907V5.34499H8.17559L7.69409 7.59199L8.72129 7.62409C10.2407 7.68829 11.5835 8.07884 12.7498 8.79574C13.9161 9.51264 14.831 10.4596 15.4944 11.6366C16.1578 12.8136 16.4895 14.119 16.4895 15.5528C16.4895 16.6228 16.2862 17.6339 15.8796 18.5862C15.473 19.5385 14.9112 20.3785 14.1943 21.1061C13.4774 21.823 12.6428 22.3901 11.6905 22.8074C10.7382 23.214 9.7164 23.4173 8.62499 23.4173ZM20.3395 23V0.529986H33.6931V5.34499H25.1545V8.55499H32.1523V13.37H25.1545V23H20.3395ZM34.6666 8.90809L35.6617 0.529986H40.4767L37.8766 8.90809H34.6666ZM48.0024 23.2889C47.1892 23.214 46.4081 23.0375 45.6591 22.7592C44.9101 22.481 44.2414 22.1012 43.6529 21.6197C43.0644 21.1382 42.5989 20.5497 42.2565 19.8542L46.3011 18.1208C46.4081 18.2385 46.5579 18.3883 46.7505 18.5702C46.9431 18.7414 47.1839 18.8965 47.4728 19.0356C47.7724 19.1747 48.1308 19.2443 48.5481 19.2443C48.8263 19.2443 49.0938 19.2175 49.3506 19.164C49.6181 19.0998 49.8321 18.9928 49.9926 18.843C50.1638 18.6932 50.2494 18.4846 50.2494 18.2171C50.2494 17.9175 50.1371 17.6928 49.9124 17.543C49.6984 17.3825 49.4362 17.2701 49.1259 17.2059C48.8156 17.131 48.5267 17.0722 48.2592 17.0294C47.3069 16.8796 46.3921 16.58 45.5147 16.1306C44.648 15.6705 43.9364 15.0766 43.38 14.349C42.8236 13.6107 42.5454 12.7494 42.5454 11.765C42.5454 10.6629 42.829 9.71059 43.3961 8.90809C43.9632 8.10559 44.7015 7.49034 45.611 7.06234C46.5312 6.62364 47.5209 6.40429 48.5802 6.40429C49.8321 6.40429 50.9877 6.66109 52.047 7.17469C53.117 7.68829 53.9944 8.42659 54.6792 9.38959L50.8914 11.6366C50.763 11.4761 50.6025 11.3156 50.4099 11.1551C50.228 10.9839 50.014 10.8394 49.7679 10.7217C49.5325 10.5933 49.2757 10.5131 48.9975 10.481C48.623 10.4489 48.286 10.4649 47.9864 10.5291C47.6975 10.5826 47.4674 10.7003 47.2962 10.8822C47.125 11.0534 47.0394 11.3049 47.0394 11.6366C47.0394 11.9469 47.1892 12.1716 47.4888 12.3107C47.7884 12.4498 48.1255 12.5514 48.5 12.6156C48.8745 12.6798 49.1794 12.7494 49.4148 12.8243C50.335 13.1239 51.2017 13.5144 52.0149 13.9959C52.8281 14.4774 53.4808 15.0606 53.973 15.7454C54.4759 16.4302 54.7113 17.2327 54.6792 18.1529C54.6792 19.2229 54.3582 20.1645 53.7162 20.9777C53.0742 21.7909 52.245 22.4061 51.2285 22.8234C50.212 23.2408 49.1366 23.3959 48.0024 23.2889ZM82.117 0.529986V5.34499H75.697V23H70.882V5.34499H64.462V0.529986H82.117ZM90.0028 23.4173C88.5262 23.4173 87.178 23.0375 85.9582 22.2777C84.7491 21.518 83.7807 20.5015 83.0531 19.2282C82.3362 17.9442 81.9778 16.5265 81.9778 14.975C81.9778 13.798 82.1864 12.7012 82.6037 11.6847C83.021 10.6575 83.5935 9.75874 84.3211 8.98834C85.0594 8.20724 85.9154 7.59734 86.8891 7.15864C87.8628 6.71994 88.9007 6.50059 90.0028 6.50059C91.4794 6.50059 92.8223 6.88044 94.0314 7.64014C95.2512 8.39984 96.2195 9.42169 96.9364 10.7057C97.664 11.9897 98.0278 13.4128 98.0278 14.975C98.0278 16.1413 97.8192 17.2327 97.4019 18.2492C96.9846 19.2657 96.4068 20.1645 95.6685 20.9456C94.9409 21.716 94.0902 22.3205 93.1165 22.7592C92.1535 23.198 91.1156 23.4173 90.0028 23.4173ZM90.0028 18.6023C90.6127 18.6023 91.1584 18.4364 91.6399 18.1047C92.1321 17.773 92.5173 17.3343 92.7955 16.7886C93.0737 16.2322 93.2128 15.6277 93.2128 14.975C93.2128 14.3009 93.063 13.6856 92.7634 13.1292C92.4745 12.5728 92.084 12.1341 91.5917 11.8131C91.1102 11.4814 90.5806 11.3156 90.0028 11.3156C89.4036 11.3156 88.8579 11.4868 88.3657 11.8292C87.8842 12.1609 87.499 12.6049 87.2101 13.1613C86.9319 13.7177 86.7928 14.3223 86.7928 14.975C86.7928 15.6598 86.9372 16.275 87.2261 16.8207C87.5257 17.3664 87.9163 17.7998 88.3978 18.1208C88.89 18.4418 89.425 18.6023 90.0028 18.6023ZM108.615 23V0.529986H113.43V18.185H122.257V23H108.615ZM131.727 23.4173C130.25 23.4173 128.902 23.0375 127.682 22.2777C126.473 21.518 125.504 20.5015 124.777 19.2282C124.06 17.9442 123.702 16.5265 123.702 14.975C123.702 13.798 123.91 12.7012 124.327 11.6847C124.745 10.6575 125.317 9.75874 126.045 8.98834C126.783 8.20724 127.639 7.59734 128.613 7.15864C129.587 6.71994 130.624 6.50059 131.727 6.50059C133.203 6.50059 134.546 6.88044 135.755 7.64014C136.975 8.39984 137.943 9.42169 138.66 10.7057C139.388 11.9897 139.752 13.4128 139.752 14.975C139.752 16.1413 139.543 17.2327 139.126 18.2492C138.708 19.2657 138.131 20.1645 137.392 20.9456C136.665 21.716 135.814 22.3205 134.84 22.7592C133.877 23.198 132.839 23.4173 131.727 23.4173ZM131.727 18.6023C132.336 18.6023 132.882 18.4364 133.364 18.1047C133.856 17.773 134.241 17.3343 134.519 16.7886C134.797 16.2322 134.937 15.6277 134.937 14.975C134.937 14.3009 134.787 13.6856 134.487 13.1292C134.198 12.5728 133.808 12.1341 133.316 11.8131C132.834 11.4814 132.304 11.3156 131.727 11.3156C131.127 11.3156 130.582 11.4868 130.089 11.8292C129.608 12.1609 129.223 12.6049 128.934 13.1613C128.656 13.7177 128.517 14.3223 128.517 14.975C128.517 15.6598 128.661 16.275 128.95 16.8207C129.25 17.3664 129.64 17.7998 130.122 18.1208C130.614 18.4418 131.149 18.6023 131.727 18.6023ZM152.448 23H146.221L140.379 6.94999H145.515L149.334 17.4788L153.154 6.94999H158.29L152.448 23ZM166.961 23.4173C165.485 23.4173 164.137 23.0375 162.917 22.2777C161.708 21.518 160.739 20.4962 160.012 19.2122C159.295 17.9282 158.936 16.5104 158.936 14.9589C158.936 13.7926 159.145 12.7012 159.562 11.6847C159.98 10.6575 160.552 9.75874 161.28 8.98834C162.018 8.20724 162.874 7.59734 163.848 7.15864C164.821 6.71994 165.859 6.50059 166.961 6.50059C168.245 6.50059 169.417 6.78414 170.476 7.35124C171.546 7.90764 172.445 8.66734 173.173 9.63034C173.911 10.5826 174.435 11.658 174.746 12.8564C175.056 14.0548 175.088 15.2906 174.842 16.5639H164.137C164.286 16.9384 164.484 17.2808 164.73 17.5911C164.987 17.8907 165.297 18.1315 165.661 18.3134C166.036 18.4953 166.469 18.5916 166.961 18.6023C167.432 18.613 167.865 18.5113 168.261 18.2973C168.668 18.0833 169.021 17.7944 169.321 17.4306L174.232 18.5702C173.579 19.9933 172.606 21.1596 171.311 22.0691C170.016 22.9679 168.566 23.4173 166.961 23.4173ZM163.96 13.0329H169.979C169.829 12.5728 169.604 12.1662 169.305 11.8131C169.005 11.46 168.652 11.1818 168.245 10.9785C167.849 10.7752 167.421 10.6736 166.961 10.6736C166.512 10.6736 166.084 10.7752 165.677 10.9785C165.281 11.1818 164.934 11.46 164.634 11.8131C164.345 12.1662 164.12 12.5728 163.96 13.0329Z" fill="#999999"/>
</svg>
