
<svg width="26" height="40" viewBox="0 0 26 40" fill="none" xmlns="http://www.w3.org/2000/svg">
<path d="M4.24805 39.2983C3.28555 39.2983 2.46159 38.9556 1.77617 38.2702C1.09076 37.5848 0.748047 36.7608 0.748047 35.7983V4.29834C0.748047 3.33584 1.09076 2.51188 1.77617 1.82646C2.46159 1.14105 3.28555 0.79834 4.24805 0.79834H21.748C22.7105 0.79834 23.5345 1.14105 24.2199 1.82646C24.9053 2.51188 25.248 3.33584 25.248 4.29834V35.7983C25.248 36.7608 24.9053 37.5848 24.2199 38.2702C23.5345 38.9556 22.7105 39.2983 21.748 39.2983H4.24805ZM4.24805 30.5483V35.7983H21.748V30.5483H4.24805ZM12.998 34.9233C13.4939 34.9233 13.9095 34.7556 14.2449 34.4202C14.5803 34.0848 14.748 33.6692 14.748 33.1733C14.748 32.6775 14.5803 32.2619 14.2449 31.9265C13.9095 31.591 13.4939 31.4233 12.998 31.4233C12.5022 31.4233 12.0866 31.591 11.7512 31.9265C11.4158 32.2619 11.248 32.6775 11.248 33.1733C11.248 33.6692 11.4158 34.0848 11.7512 34.4202C12.0866 34.7556 12.5022 34.9233 12.998 34.9233ZM4.24805 27.0483H21.748V9.54834H4.24805V27.0483ZM4.24805 6.04834H21.748V4.29834H4.24805V6.04834Z" fill="#1E5BFA"/>
</svg>
