<svg width="32" height="36" viewBox="0 0 32 36" fill="none" xmlns="http://www.w3.org/2000/svg">
<path d="M15.9717 31.2608C18.0767 31.2608 19.8786 30.5114 21.3776 29.0124C22.8766 27.5134 23.626 25.7115 23.626 23.6065V15.9522C23.626 13.8473 22.8766 12.0453 21.3776 10.5463C19.8786 9.04736 18.0767 8.29788 15.9717 8.29788C13.8668 8.29788 12.0648 9.04736 10.5659 10.5463C9.06689 12.0453 8.31741 13.8473 8.31741 15.9522V23.6065C8.31741 25.7115 9.06689 27.5134 10.5659 29.0124C12.0648 30.5114 13.8668 31.2608 15.9717 31.2608ZM12.1446 25.5201H19.7989V21.6929H12.1446V25.5201ZM12.1446 17.8658H19.7989V14.0386H12.1446V17.8658ZM15.9717 35.088C13.8987 35.088 11.9771 34.5777 10.2071 33.5571C8.43701 32.5366 7.04169 31.1333 6.02111 29.3473H0.663086V25.5201H4.6816C4.58593 24.8822 4.53011 24.2444 4.51417 23.6065C4.49822 22.9687 4.49025 22.3308 4.49025 21.6929H0.663086V17.8658H4.49025C4.49025 17.2279 4.49822 16.5901 4.51417 15.9522C4.53011 15.3143 4.58593 14.6765 4.6816 14.0386H0.663086V10.2115H6.02111C6.46761 9.47792 6.96993 8.79222 7.52806 8.15436C8.08618 7.5165 8.73202 6.95837 9.46556 6.47997L6.40383 3.32257L9.08284 0.643555L13.197 4.75775C14.09 4.47072 14.999 4.3272 15.9239 4.3272C16.8488 4.3272 17.7577 4.47072 18.6507 4.75775L22.8606 0.643555L25.5396 3.32257L22.3822 6.47997C23.1158 6.95837 23.7775 7.50852 24.3676 8.13044C24.9576 8.75235 25.4758 9.44602 25.9223 10.2115H31.2804V14.0386H27.2619C27.3575 14.6765 27.4133 15.3143 27.4293 15.9522C27.4452 16.5901 27.4532 17.2279 27.4532 17.8658H31.2804V21.6929H27.4532C27.4532 22.3308 27.4452 22.9687 27.4293 23.6065C27.4133 24.2444 27.3575 24.8822 27.2619 25.5201H31.2804V29.3473H25.9223C24.9018 31.1333 23.5065 32.5366 21.7364 33.5571C19.9663 34.5777 18.0448 35.088 15.9717 35.088Z" fill="#1E5BFA"/>
</svg>
