<svg width="25" height="40" viewBox="0 0 25 40" fill="none" xmlns="http://www.w3.org/2000/svg">
<path d="M3.73633 39.2983C2.77383 39.2983 1.94987 38.9556 1.26445 38.2702C0.579036 37.5848 0.236328 36.7608 0.236328 35.7983V4.29834C0.236328 3.33584 0.579036 2.51188 1.26445 1.82646C1.94987 1.14105 2.77383 0.79834 3.73633 0.79834H21.2363C22.1988 0.79834 23.0228 1.14105 23.7082 1.82646C24.3936 2.51188 24.7363 3.33584 24.7363 4.29834V35.7983C24.7363 36.7608 24.3936 37.5848 23.7082 38.2702C23.0228 38.9556 22.1988 39.2983 21.2363 39.2983H3.73633ZM3.73633 34.0483V35.7983H21.2363V34.0483H3.73633ZM3.73633 30.5483H21.2363V9.54834H3.73633V30.5483ZM3.73633 6.04834H21.2363V4.29834H3.73633V6.04834Z" fill="#1E5BFA"/>
</svg>
