<svg xmlns="http://www.w3.org/2000/svg" width="51" height="51" fill="none" xmlns:v="https://vecta.io/nano"><path d="M42.688.685H8.313C3.998.685.5 4.182.5 8.497v34.375c0 4.315 3.498 7.813 7.813 7.813h34.375c4.315 0 7.813-3.498 7.813-7.812V8.497c0-4.315-3.498-7.813-7.812-7.813z" fill="#2867b2"/><path d="M18.625 38.185h-5.312V21.466h5.313v16.719zm-2.656-19.063c-1.719 0-2.969-1.25-2.969-2.969s1.406-2.969 2.969-2.969c1.719 0 2.969 1.25 2.969 2.969s-1.25 2.969-2.969 2.969zM38 38.185h-5.312v-9.063c0-2.656-1.094-3.437-2.656-3.437s-3.125 1.25-3.125 3.594v8.906h-5.312V21.466h5v2.344c.469-1.094 2.344-2.812 5-2.812 2.969 0 6.094 1.719 6.094 6.875v10.313H38z" fill="#fff"/></svg>