<svg width="25" height="25" viewBox="0 0 25 25" fill="none" xmlns="http://www.w3.org/2000/svg">
<path d="M7.76503 1.61052C7.76503 1.11868 7.36632 0.719971 6.87448 0.719971C6.38264 0.719971 5.98393 1.11868 5.98393 1.61052V3.48572C4.27488 3.62258 3.15291 3.95844 2.32862 4.78273C1.50433 5.60702 1.16846 6.72899 1.03161 8.43805H24.5913C24.4545 6.72899 24.1186 5.60702 23.2943 4.78273C22.47 3.95844 21.348 3.62258 19.639 3.48572V1.61052C19.639 1.11868 19.2403 0.719971 18.7484 0.719971C18.2566 0.719971 17.8579 1.11868 17.8579 1.61052V3.40693C17.068 3.39161 16.1825 3.39161 15.1863 3.39161H10.4367C9.4404 3.39161 8.55496 3.39161 7.76503 3.40693V1.61052Z" fill="#1E5BFA"/>
<path fill-rule="evenodd" clip-rule="evenodd" d="M0.9375 12.8908C0.9375 11.8945 0.9375 11.0091 0.95282 10.2191H24.6701C24.6854 11.0091 24.6854 11.8945 24.6854 12.8908V15.2656C24.6854 19.7435 24.6854 21.9825 23.2943 23.3736C21.9032 24.7647 19.6642 24.7647 15.1863 24.7647H10.4367C5.95872 24.7647 3.71974 24.7647 2.32862 23.3736C0.9375 21.9825 0.9375 19.7435 0.9375 15.2656V12.8908ZM18.7484 15.2656C19.4042 15.2656 19.9358 14.734 19.9358 14.0782C19.9358 13.4224 19.4042 12.8908 18.7484 12.8908C18.0927 12.8908 17.561 13.4224 17.561 14.0782C17.561 14.734 18.0927 15.2656 18.7484 15.2656ZM18.7484 20.0152C19.4042 20.0152 19.9358 19.4835 19.9358 18.8278C19.9358 18.172 19.4042 17.6404 18.7484 17.6404C18.0927 17.6404 17.561 18.172 17.561 18.8278C17.561 19.4835 18.0927 20.0152 18.7484 20.0152ZM13.9989 14.0782C13.9989 14.734 13.4672 15.2656 12.8115 15.2656C12.1557 15.2656 11.6241 14.734 11.6241 14.0782C11.6241 13.4224 12.1557 12.8908 12.8115 12.8908C13.4672 12.8908 13.9989 13.4224 13.9989 14.0782ZM13.9989 18.8278C13.9989 19.4835 13.4672 20.0152 12.8115 20.0152C12.1557 20.0152 11.6241 19.4835 11.6241 18.8278C11.6241 18.172 12.1557 17.6404 12.8115 17.6404C13.4672 17.6404 13.9989 18.172 13.9989 18.8278ZM6.87448 15.2656C7.53026 15.2656 8.06188 14.734 8.06188 14.0782C8.06188 13.4224 7.53026 12.8908 6.87448 12.8908C6.2187 12.8908 5.68708 13.4224 5.68708 14.0782C5.68708 14.734 6.2187 15.2656 6.87448 15.2656ZM6.87448 20.0152C7.53026 20.0152 8.06188 19.4835 8.06188 18.8278C8.06188 18.172 7.53026 17.6404 6.87448 17.6404C6.2187 17.6404 5.68708 18.172 5.68708 18.8278C5.68708 19.4835 6.2187 20.0152 6.87448 20.0152Z" fill="#1E5BFA"/>
</svg>
