<svg width="41" height="51" viewBox="0 0 41 51" fill="none" xmlns="http://www.w3.org/2000/svg">
<path d="M6.18683 0.548584H23.6014C24.8322 0.548584 26.0127 1.03753 26.883 1.90786L39.6339 14.6588C40.5043 15.5291 40.9932 16.7096 40.9932 17.9404V44.6936C40.9932 44.9132 40.9793 45.1341 40.941 45.3503C40.2221 49.4097 37.3473 50.4378 35.9656 50.4378C26.2972 50.5667 6.34152 50.7471 3.8664 50.4378C1.8603 50.187 0.734923 48.9031 0.24318 47.945C0.0462729 47.5614 -0.000976562 47.1251 -0.000976562 46.6939V8.28334C0.198273 5.09535 1.26367 3.44717 2.30686 2.26452C3.27315 1.16905 4.72609 0.548584 6.18683 0.548584Z" fill="#1E5BFA"/>
<rect x="10.4404" y="20.6589" width="12.3756" height="3.86738" rx="1.93369" fill="white"/>
<rect x="10.4404" y="31.4876" width="20.1104" height="3.86738" rx="1.93369" fill="white"/>
</svg>
