<svg width="31" height="34" viewBox="0 0 31 34" fill="none" xmlns="http://www.w3.org/2000/svg">
<path d="M11.3333 0.585266C9.95262 0.585266 8.83333 1.70455 8.83333 3.08527V4.75193C8.83333 6.13265 9.95262 7.25193 11.3333 7.25193H19.6667C21.0474 7.25193 22.1667 6.13265 22.1667 4.75193V3.08527C22.1667 1.70455 21.0474 0.585266 19.6667 0.585266H11.3333Z" fill="#1E5BFA"/>
<path fill-rule="evenodd" clip-rule="evenodd" d="M6.33333 3.97963C4.23682 4.09725 2.91331 4.43133 1.96447 5.38017C0.5 6.84464 0.5 9.20166 0.5 13.9157V23.9157C0.5 28.6298 0.5 30.9868 1.96447 32.4512C3.42893 33.9157 5.78595 33.9157 10.5 33.9157H20.5C25.214 33.9157 27.5711 33.9157 29.0355 32.4512C30.5 30.9868 30.5 28.6298 30.5 23.9157V13.9157C30.5 9.20166 30.5 6.84464 29.0355 5.38017C28.0867 4.43133 26.7632 4.09725 24.6667 3.97963V4.75193C24.6667 7.51336 22.4281 9.75193 19.6667 9.75193H11.3333C8.57191 9.75193 6.33333 7.51336 6.33333 4.75193V3.97963ZM7.16667 13.5019C6.47631 13.5019 5.91667 14.0616 5.91667 14.7519C5.91667 15.4423 6.47631 16.0019 7.16667 16.0019H8C8.69036 16.0019 9.25 15.4423 9.25 14.7519C9.25 14.0616 8.69036 13.5019 8 13.5019H7.16667ZM13 13.5019C12.3096 13.5019 11.75 14.0616 11.75 14.7519C11.75 15.4423 12.3096 16.0019 13 16.0019H23.8333C24.5237 16.0019 25.0833 15.4423 25.0833 14.7519C25.0833 14.0616 24.5237 13.5019 23.8333 13.5019H13ZM7.16667 19.3353C6.47631 19.3353 5.91667 19.8949 5.91667 20.5853C5.91667 21.2756 6.47631 21.8353 7.16667 21.8353H8C8.69036 21.8353 9.25 21.2756 9.25 20.5853C9.25 19.8949 8.69036 19.3353 8 19.3353H7.16667ZM13 19.3353C12.3096 19.3353 11.75 19.8949 11.75 20.5853C11.75 21.2756 12.3096 21.8353 13 21.8353H23.8333C24.5237 21.8353 25.0833 21.2756 25.0833 20.5853C25.0833 19.8949 24.5237 19.3353 23.8333 19.3353H13ZM7.16667 25.1686C6.47631 25.1686 5.91667 25.7282 5.91667 26.4186C5.91667 27.109 6.47631 27.6686 7.16667 27.6686H8C8.69036 27.6686 9.25 27.109 9.25 26.4186C9.25 25.7282 8.69036 25.1686 8 25.1686H7.16667ZM13 25.1686C12.3096 25.1686 11.75 25.7282 11.75 26.4186C11.75 27.109 12.3096 27.6686 13 27.6686H23.8333C24.5237 27.6686 25.0833 27.109 25.0833 26.4186C25.0833 25.7282 24.5237 25.1686 23.8333 25.1686H13Z" fill="#1E5BFA"/>
</svg>
