<svg width="35" height="34" viewBox="0 0 35 34" fill="none" xmlns="http://www.w3.org/2000/svg">
<path fill-rule="evenodd" clip-rule="evenodd" d="M10.6779 4.34485C10.1262 2.18349 8.16624 0.585327 5.83301 0.585327C3.07158 0.585327 0.833008 2.8239 0.833008 5.58533C0.833008 7.91856 2.43117 9.87851 4.59253 10.4302C4.58625 10.4811 4.58301 10.5328 4.58301 10.5853V23.9187C4.58301 23.9712 4.58625 24.0229 4.59254 24.0737C2.43117 24.6255 0.833008 26.5854 0.833008 28.9187C0.833008 31.6801 3.07158 33.9187 5.83301 33.9187C8.16624 33.9187 10.1262 32.3205 10.6779 30.1591C10.7287 30.1654 10.7805 30.1687 10.833 30.1687H24.1663C24.2189 30.1687 24.2706 30.1654 24.3214 30.1591C24.8731 32.3205 26.8331 33.9187 29.1663 33.9187C31.9278 33.9187 34.1663 31.6801 34.1663 28.9187C34.1663 26.5854 32.5682 24.6255 30.4068 24.0737C30.4131 24.0229 30.4163 23.9712 30.4163 23.9187V10.5853C30.4163 10.5328 30.4131 10.4811 30.4068 10.4303C32.5682 9.87852 34.1663 7.91856 34.1663 5.58533C34.1663 2.8239 31.9278 0.585327 29.1663 0.585327C26.8331 0.585327 24.8731 2.18349 24.3214 4.34486C24.2706 4.33857 24.2189 4.33533 24.1663 4.33533H10.833C10.7805 4.33533 10.7287 4.33857 10.6779 4.34485ZM7.07348 10.4302C7.07977 10.4811 7.08301 10.5328 7.08301 10.5853L7.08301 23.9187C7.08301 23.9712 7.07976 24.0229 7.07348 24.0737C8.83819 24.5242 10.2275 25.9135 10.6779 27.6782C10.7287 27.6719 10.7805 27.6687 10.833 27.6687H24.1663C24.2189 27.6687 24.2706 27.6719 24.3214 27.6782C24.7719 25.9135 26.1612 24.5242 27.9259 24.0737C27.9196 24.0229 27.9163 23.9712 27.9163 23.9187V10.5853C27.9163 10.5328 27.9196 10.4811 27.9259 10.4303C26.1612 9.97977 24.7719 8.59051 24.3214 6.8258C24.2706 6.83208 24.2189 6.83533 24.1663 6.83533H10.833C10.7805 6.83533 10.7287 6.83209 10.6779 6.8258C10.2274 8.59051 8.83819 9.97977 7.07348 10.4302Z" fill="#AFB940"/>
</svg>
