<svg width="35" height="34" viewBox="0 0 35 34" fill="none" xmlns="http://www.w3.org/2000/svg">
<path d="M24.1663 10.5854L29.1663 10.5862C31.9278 10.5866 34.1667 8.34839 34.1671 5.58697C34.1676 2.82555 31.9293 0.586617 29.1679 0.586182C26.4065 0.585747 24.1676 2.82397 24.1671 5.58539L24.1663 10.5854L10.8338 10.5854L10.833 5.58539C10.8326 2.82397 8.59364 0.585747 5.83222 0.586182C3.0708 0.586617 0.832573 2.82555 0.833008 5.58697C0.833443 8.34839 3.07237 10.5866 5.8338 10.5862L10.8338 10.5854L10.833 23.9187H24.1663V10.5854Z" fill="#2E9A8D"/>
<path d="M24.1663 23.9187L29.1663 23.9195C31.9278 23.9191 34.1667 26.1573 34.1671 28.9187C34.1676 31.6802 31.9293 33.9191 29.1679 33.9195C26.4065 33.9199 24.1676 31.6817 24.1671 28.9203L24.1663 23.9187Z" fill="#2E9A8D"/>
<path d="M5.8338 23.9195L10.8338 23.9203L10.833 28.9203C10.8326 31.6817 8.59364 33.9199 5.83222 33.9195C3.0708 33.9191 0.832573 31.6802 0.833008 28.9187C0.833443 26.1573 3.07237 23.9191 5.8338 23.9195Z" fill="#2E9A8D"/>
</svg>
