<svg width="44" height="44" viewBox="0 0 44 44" fill="none" xmlns="http://www.w3.org/2000/svg">
<rect width="43.2595" height="43.5852" rx="21.6297" fill="white"/>
<path d="M19.4901 8.47412H21.9571V9.66655L20.8058 9.99549L20.9703 12.5037L17.5575 14.2307L15.1315 12.0103L12.5822 14.2307L14.597 16.4922L13.1167 19.9461H10.0329V23.3178L13.1167 23.6878L14.3092 26.7306L12.2121 29.1565L14.597 31.747L16.7351 29.7733L20.0246 31.1713V34.1318L21.9571 34.3374V35.4887L18.9555 35.3243V32.0348L17.0641 31.1713L14.597 33.3917L10.6908 29.1565L13.1167 26.7306L12.2121 24.798H8.59375V18.7948H12.2121L13.1167 16.6977L10.6908 14.2307L15.1315 10.2011L17.5575 12.5037L19.4901 11.7225V8.47412Z" fill="#1E5BFA"/>
<path d="M22.0015 16.41V15.5054C16.6397 15.7027 15.4637 20.138 15.5459 22.331C15.9407 27.1994 20.0141 28.4713 22.0015 28.4987V27.4296C17.791 27.1665 16.5739 23.9209 16.4916 22.331C16.2285 17.8902 20.0552 16.5333 22.0015 16.41Z" fill="#1E5BFA"/>
<line y1="-0.0411181" x2="11.7387" y2="-0.0411181" transform="matrix(-0.746372 0.665529 -0.655392 -0.755289 32.5625 11.3525)" stroke="#1E5BFA" stroke-width="0.0822363"/>
<line y1="-0.0411181" x2="9.12164" y2="-0.0411181" transform="matrix(0.942724 -0.333574 0.325577 0.945516 23.9629 19.1621)" stroke="#1E5BFA" stroke-width="0.0822363"/>
<line x1="32.6832" y1="11.3797" x2="23.7195" y2="21.577" stroke="#1E5BFA" stroke-width="0.0822363"/>
<line y1="-0.0411181" x2="8.55767" y2="-0.0411181" transform="matrix(0.995372 0.0960965 -0.0935386 0.995616 23.8867 19.2437)" stroke="#1E5BFA" stroke-width="0.0822363"/>
<line x1="33.001" y1="15.8271" x2="23.8727" y2="21.4191" stroke="#1E5BFA" stroke-width="0.0822363"/>
<line x1="32.4189" y1="20.0214" x2="23.7841" y2="23.5576" stroke="#1E5BFA" stroke-width="0.0822363"/>
<line x1="23.7988" y1="21.1113" x2="32.4336" y2="33.9402" stroke="#1E5BFA" stroke-width="0.0822363"/>
<line x1="23.7704" y1="23.4808" x2="32.7311" y2="24.7553" stroke="#1E5BFA" stroke-width="0.0822363"/>
<line x1="23.8704" y1="23.4872" x2="32.423" y2="29.1615" stroke="#1E5BFA" stroke-width="0.0822363"/>
<line x1="23.8195" y1="25.7486" x2="32.8315" y2="29.4889" stroke="#1E5BFA" stroke-width="0.0822363"/>
<line x1="23.876" y1="25.792" x2="32.5108" y2="34.0156" stroke="#1E5BFA" stroke-width="0.0822363"/>
<line x1="32.4914" y1="24.7117" x2="23.8566" y2="25.7808" stroke="#1E5BFA" stroke-width="0.0822363"/>
<circle cx="33.7569" cy="10.9791" r="1.52137" stroke="white" stroke-width="0.164473"/>
<circle cx="33.7569" cy="15.5851" r="1.52137" stroke="white" stroke-width="0.164473"/>
<circle cx="33.7569" cy="20.1876" r="1.52137" stroke="white" stroke-width="0.164473"/>
<circle cx="33.7569" cy="24.7935" r="1.52137" stroke="white" stroke-width="0.164473"/>
<circle cx="33.7569" cy="29.401" r="1.52137" stroke="white" stroke-width="0.164473"/>
<circle cx="33.7569" cy="34.0069" r="1.52137" stroke="white" stroke-width="0.164473"/>
<circle cx="23.1915" cy="19.2447" r="0.740126" stroke="white" stroke-width="0.164473"/>
<circle cx="23.1915" cy="21.3834" r="0.740126" stroke="white" stroke-width="0.164473"/>
<circle cx="23.1915" cy="23.5206" r="0.740126" stroke="white" stroke-width="0.164473"/>
<circle cx="23.1915" cy="25.6598" r="0.740126" stroke="white" stroke-width="0.164473"/>
</svg>
