<svg width="36" height="36" viewBox="0 0 36 36" fill="none" xmlns="http://www.w3.org/2000/svg">
<path d="M16.9988 35.5483C16.5613 35.5483 16.1238 35.4608 15.6863 35.2858C15.2488 35.1108 14.8551 34.8483 14.5051 34.4983L1.99258 21.9858C1.64258 21.6358 1.38737 21.2494 1.22695 20.8265C1.06654 20.4035 0.986328 19.9733 0.986328 19.5358C0.986328 19.0983 1.06654 18.6608 1.22695 18.2233C1.38737 17.7858 1.64258 17.3921 1.99258 17.0421L17.3926 1.59834C17.7134 1.27751 18.0926 1.0223 18.5301 0.832715C18.9676 0.643132 19.4197 0.54834 19.8863 0.54834H32.4426C33.4051 0.54834 34.229 0.891048 34.9145 1.57646C35.5999 2.26188 35.9426 3.08584 35.9426 4.04834V16.6046C35.9426 17.0713 35.8551 17.516 35.6801 17.939C35.5051 18.3619 35.2572 18.7338 34.9363 19.0546L19.4926 34.4983C19.1426 34.8483 18.7488 35.1108 18.3113 35.2858C17.8738 35.4608 17.4363 35.5483 16.9988 35.5483ZM16.9988 32.0483L32.4426 16.5608V4.04834H19.9301L4.48633 19.5358L16.9988 32.0483ZM28.0676 11.0483C28.7967 11.0483 29.4165 10.7931 29.927 10.2827C30.4374 9.7723 30.6926 9.15251 30.6926 8.42334C30.6926 7.69417 30.4374 7.07438 29.927 6.56396C29.4165 6.05355 28.7967 5.79834 28.0676 5.79834C27.3384 5.79834 26.7186 6.05355 26.2082 6.56396C25.6978 7.07438 25.4426 7.69417 25.4426 8.42334C25.4426 9.15251 25.6978 9.7723 26.2082 10.2827C26.7186 10.7931 27.3384 11.0483 28.0676 11.0483Z" fill="#1E5BFA"/>
</svg>
