<svg width="44" height="37" viewBox="0 0 44 37" fill="none" xmlns="http://www.w3.org/2000/svg">
<g clip-path="url(#clip0_3164_4585)">
<path d="M39.3445 1.138C39.3445 0.590403 38.9005 0.146973 38.3533 0.146973H4.65226C4.10461 0.146973 3.66113 0.590403 3.66113 1.138V24.9242H39.3445V1.138ZM37.3622 21.9511H5.64339V2.12808H37.3618V21.9511H37.3622Z" fill="#1E5BFA"/>
<path d="M39.3453 26.9053H3.66192L0.0653884 35.8957C-0.137711 36.4047 0.140893 36.8166 0.689022 36.8166H42.3191C42.8668 36.8166 43.1454 36.4051 42.9422 35.8957L39.3453 26.9053ZM16.828 34.8345L17.2958 32.8524H25.7118L26.1796 34.8345H16.828Z" fill="#1E5BFA"/>
<path fill-rule="evenodd" clip-rule="evenodd" d="M10.4785 7.4818C10.4785 6.90317 10.9476 6.43408 11.5263 6.43408H25.6718C26.2505 6.43408 26.7196 6.90317 26.7196 7.4818C26.7196 8.06043 26.2505 8.52951 25.6718 8.52951H11.5263C10.9476 8.52951 10.4785 8.06043 10.4785 7.4818Z" fill="#1E5BFA"/>
<path fill-rule="evenodd" clip-rule="evenodd" d="M10.4785 11.6732C10.4785 11.0946 10.9476 10.6255 11.5263 10.6255H32.4826C33.0613 10.6255 33.5304 11.0946 33.5304 11.6732C33.5304 12.2519 33.0613 12.7209 32.4826 12.7209H11.5263C10.9476 12.7209 10.4785 12.2519 10.4785 11.6732Z" fill="#1E5BFA"/>
<path fill-rule="evenodd" clip-rule="evenodd" d="M15.7178 15.8636C15.7178 15.285 16.1869 14.8159 16.7656 14.8159H29.3394C29.9181 14.8159 30.3872 15.285 30.3872 15.8636C30.3872 16.4423 29.9181 16.9113 29.3394 16.9113H16.7656C16.1869 16.9113 15.7178 16.4423 15.7178 15.8636Z" fill="#1E5BFA"/>
</g>
<defs>
<clipPath id="clip0_3164_4585">
<rect width="44.0082" height="36.67" fill="white" transform="translate(-0.00195312 0.0483398)"/>
</clipPath>
</defs>
</svg>
