<svg width="36" height="29" viewBox="0 0 36 29" fill="none" xmlns="http://www.w3.org/2000/svg">
<path d="M0.242188 28.0483V22.7983H3.74219V3.54834C3.74219 2.58584 4.0849 1.76188 4.77031 1.07646C5.45573 0.391048 6.27969 0.0483398 7.24219 0.0483398H33.4922V3.54834H7.24219V22.7983H17.7422V28.0483H0.242188ZM22.9922 28.0483C22.4964 28.0483 22.0807 27.8806 21.7453 27.5452C21.4099 27.2098 21.2422 26.7942 21.2422 26.2983V8.79834C21.2422 8.30251 21.4099 7.88688 21.7453 7.55146C22.0807 7.21605 22.4964 7.04834 22.9922 7.04834H33.4922C33.988 7.04834 34.4036 7.21605 34.7391 7.55146C35.0745 7.88688 35.2422 8.30251 35.2422 8.79834V26.2983C35.2422 26.7942 35.0745 27.2098 34.7391 27.5452C34.4036 27.8806 33.988 28.0483 33.4922 28.0483H22.9922ZM24.7422 22.7983H31.7422V10.5483H24.7422V22.7983Z" fill="#1E5BFA"/>
</svg>
