<svg width="31" height="36" viewBox="0 0 31 36" fill="none" xmlns="http://www.w3.org/2000/svg">
<path d="M13.7654 21.6755V34.6987H0.742188C0.742188 31.2448 2.11428 27.9322 4.55661 25.4899C6.99894 23.0476 10.3115 21.6755 13.7654 21.6755ZM13.7654 20.0476C8.36893 20.0476 3.998 15.6766 3.998 10.2801C3.998 4.88363 8.36893 0.512695 13.7654 0.512695C19.162 0.512695 23.5329 4.88363 23.5329 10.2801C23.5329 15.6766 19.162 20.0476 13.7654 20.0476ZM17.9899 29.509C17.7835 28.6404 17.7835 27.7355 17.9899 26.8669L16.375 25.9341L18.0029 23.1146L19.6178 24.0473C20.2659 23.4334 21.0494 22.9806 21.905 22.7255V20.8615H25.1608V22.7255C26.0268 22.9827 26.8082 23.4418 27.448 24.0473L29.0629 23.1146L30.6908 25.9341L29.0759 26.8669C29.2821 27.735 29.2821 28.6393 29.0759 29.5073L30.6908 30.4401L29.0629 33.2597L27.448 32.3269C26.7998 32.9408 26.0163 33.3936 25.1608 33.6487V35.5127H21.905V33.6487C21.0494 33.3936 20.2659 32.9408 19.6178 32.3269L18.0029 33.2597L16.375 30.4401L17.9899 29.509ZM23.5329 26.5592C23.1011 26.5592 22.6871 26.7307 22.3818 27.036C22.0765 27.3413 21.905 27.7554 21.905 28.1871C21.905 28.6189 22.0765 29.0329 22.3818 29.3382C22.6871 29.6435 23.1011 29.815 23.5329 29.815C23.9646 29.815 24.3787 29.6435 24.684 29.3382C24.9893 29.0329 25.1608 28.6189 25.1608 28.1871C25.1608 27.7554 24.9893 27.3413 24.684 27.036C24.3787 26.7307 23.9646 26.5592 23.5329 26.5592Z" fill="#1E5BFA"/>
</svg>
