<svg width="18" height="11" viewBox="0 0 18 11" fill="none" xmlns="http://www.w3.org/2000/svg">
<path d="M5.39722 0.15918C5.8879 0.15918 6.34084 0.196925 6.75603 0.310159C7.17122 0.385649 7.51093 0.536628 7.81289 0.725353C8.11485 0.914077 8.34132 1.17829 8.49229 1.51799C8.64327 1.8577 8.71876 2.27289 8.71876 2.72583C8.71876 3.25426 8.60553 3.7072 8.34132 4.0469C8.11485 4.38661 7.7374 4.68856 7.28446 4.91503C7.92612 5.10376 8.4168 5.44346 8.71876 5.8964C9.02072 6.34934 9.20945 6.91551 9.20945 7.55717C9.20945 8.0856 9.09621 8.53854 8.90749 8.91599C8.71876 9.29344 8.41681 9.63314 8.0771 9.85961C7.7374 10.0861 7.3222 10.2748 6.86927 10.388C6.41633 10.5013 5.96339 10.5768 5.51045 10.5768H0.452637V0.15918H5.39722ZM5.09526 4.38661C5.51045 4.38661 5.85015 4.27337 6.11437 4.08465C6.37858 3.89592 6.49182 3.55622 6.49182 3.14102C6.49182 2.91456 6.45407 2.68809 6.37858 2.53711C6.30309 2.38613 6.18986 2.27289 6.03888 2.15966C5.8879 2.08417 5.73692 2.00868 5.54819 1.97093C5.35947 1.93319 5.17075 1.93319 4.94428 1.93319H2.75507V4.38661H5.09526ZM5.20849 8.8405C5.43496 8.8405 5.66143 8.80275 5.85015 8.76501C6.03888 8.72727 6.2276 8.65178 6.37858 8.53854C6.52956 8.42531 6.6428 8.31207 6.75603 8.12335C6.83152 7.93462 6.90701 7.70815 6.90701 7.44394C6.90701 6.91551 6.75603 6.53806 6.45407 6.27385C6.15211 6.04738 5.73692 5.93414 5.24624 5.93414H2.75507V8.8405H5.20849ZM12.4933 8.80276C12.7952 9.10471 13.2481 9.25569 13.8521 9.25569C14.2673 9.25569 14.6447 9.14246 14.9467 8.95373C15.2486 8.72727 15.4374 8.5008 15.5128 8.27433H17.3623C17.0604 9.1802 16.6074 9.82187 16.0035 10.2371C15.3996 10.6145 14.6825 10.841 13.8143 10.841C13.2104 10.841 12.682 10.7277 12.1913 10.539C11.7006 10.3503 11.3232 10.0861 10.9835 9.70863C10.6438 9.36893 10.3795 8.95373 10.2286 8.46305C10.0398 7.97237 9.96434 7.44394 9.96434 6.84002C9.96434 6.27385 10.0398 5.74542 10.2286 5.25474C10.4173 4.76405 10.6815 4.34886 11.0212 3.97141C11.3609 3.63171 11.7761 3.32975 12.229 3.14102C12.7197 2.9523 13.2104 2.83907 13.8143 2.83907C14.456 2.83907 15.0222 2.9523 15.5128 3.21651C16.0035 3.48073 16.381 3.78269 16.6829 4.23563C16.9849 4.65082 17.2114 5.1415 17.3623 5.66993C17.4378 6.19836 17.4756 6.72679 17.4378 7.33071H11.9648C11.9648 7.93462 12.1913 8.5008 12.4933 8.80276ZM14.8712 4.83954C14.607 4.57533 14.1918 4.42435 13.7011 4.42435C13.3614 4.42435 13.0972 4.49984 12.8707 4.61307C12.6442 4.72631 12.4933 4.87729 12.3423 5.02827C12.1913 5.17925 12.1158 5.36797 12.0781 5.5567C12.0403 5.74542 12.0026 5.8964 12.0026 6.04738H15.3996C15.3241 5.48121 15.1354 5.10376 14.8712 4.83954ZM11.5496 0.876332H15.7771V1.89544H11.5496V0.876332Z" fill="white"/>
</svg>
