<svg width="18" height="17" viewBox="0 0 18 17" fill="none" xmlns="http://www.w3.org/2000/svg">
<path d="M9.20264 0C4.51064 0 0.702637 3.808 0.702637 8.5C0.702637 13.192 4.51064 17 9.20264 17C13.8776 17 17.7026 13.192 17.7026 8.5C17.7026 3.808 13.8776 0 9.20264 0ZM14.8126 3.91C15.8326 5.151 16.4276 6.715 16.4616 8.432C16.2236 8.381 13.8266 7.905 11.4126 8.194C11.3616 8.075 11.3106 7.939 11.2596 7.82C11.1066 7.463 10.9536 7.106 10.7836 6.766C13.4356 5.695 14.6596 4.114 14.8126 3.91ZM9.20264 1.258C11.0386 1.258 12.7386 1.955 14.0136 3.077C13.8776 3.264 12.7896 4.726 10.2056 5.695C9.01564 3.502 7.68964 1.717 7.50264 1.445C8.04664 1.326 8.60764 1.258 9.20264 1.258ZM6.10864 1.938C6.29564 2.193 7.58764 3.995 8.79464 6.137C5.39464 7.038 2.40264 7.021 2.07964 7.021C2.57264 4.76 4.08564 2.89 6.10864 1.938ZM1.94364 8.517C1.94364 8.449 1.94364 8.364 1.94364 8.296C2.24964 8.313 5.78564 8.347 9.40664 7.259C9.61064 7.667 9.81464 8.075 10.0016 8.5C9.91664 8.534 9.81464 8.551 9.71264 8.585C5.97264 9.792 3.98364 13.09 3.81364 13.362C2.64064 12.07 1.94364 10.37 1.94364 8.517ZM9.20264 15.759C7.51964 15.759 5.97264 15.181 4.74864 14.229C4.88464 13.957 6.34664 11.118 10.4436 9.69C10.4606 9.673 10.4776 9.673 10.4946 9.673C11.5146 12.325 11.9396 14.535 12.0416 15.181C11.1746 15.555 10.2056 15.759 9.20264 15.759ZM13.2486 14.518C13.1806 14.076 12.7896 11.951 11.8376 9.35C14.1156 8.993 16.1046 9.588 16.3596 9.656C16.0366 11.679 14.8806 13.43 13.2486 14.518Z" fill="white"/>
</svg>
