<svg width="119" height="23" viewBox="0 0 119 23" fill="none" xmlns="http://www.w3.org/2000/svg">
<path d="M2.83288 7.23646H6.53883L6.17728 9.16476H6.41831C6.98073 8.40147 7.64359 7.80892 8.40687 7.3871C9.17016 6.96529 10.0941 6.75438 11.1788 6.75438C12.3036 6.75438 13.2075 7.0155 13.8905 7.53775C14.5734 8.06 15.0454 8.70277 15.3066 9.46605C15.8288 8.70277 16.5118 8.06 17.3554 7.53775C18.2191 7.0155 19.3138 6.75438 20.6395 6.75438C21.3827 6.75438 22.0456 6.8749 22.6281 7.11594C23.2106 7.33689 23.6927 7.64823 24.0743 8.04996C24.456 8.45169 24.7472 8.93376 24.9481 9.49618C25.1489 10.0385 25.2494 10.6311 25.2494 11.2738C25.2494 11.535 25.2393 11.7961 25.2192 12.0572C25.1991 12.2982 25.159 12.5795 25.0987 12.9008L23.4717 22H19.5549L21.0613 13.413C21.1216 13.0917 21.1517 12.7703 21.1517 12.4489C21.1517 11.8262 20.981 11.3341 20.6395 10.9725C20.2981 10.5909 19.7658 10.4001 19.0427 10.4001C18.5405 10.4001 18.0685 10.5206 17.6266 10.7616C17.2047 10.9826 16.8231 11.2939 16.4816 11.6956C16.1402 12.0773 15.8489 12.5393 15.6079 13.0816C15.3869 13.6239 15.2162 14.2065 15.0957 14.8291L13.8302 22H9.88323L11.3897 13.413C11.45 13.1117 11.4801 12.8004 11.4801 12.479C11.4801 11.8162 11.2893 11.304 10.9076 10.9424C10.526 10.5809 9.9937 10.4001 9.31076 10.4001C8.8086 10.4001 8.34661 10.5206 7.9248 10.7616C7.50298 10.9826 7.12134 11.2939 6.77987 11.6956C6.45849 12.0773 6.18732 12.5393 5.96637 13.0816C5.74542 13.6239 5.57468 14.2065 5.45416 14.8291L4.18872 22H0.241729L2.83288 7.23646ZM26.7523 22L30.5487 0.427148H34.4956L30.6993 22H26.7523ZM42.8766 22.4821C41.792 22.4821 40.858 22.2712 40.0746 21.8494C39.3113 21.4074 38.7288 20.8651 38.3271 20.2223H38.086L37.7847 22H34.0788L37.8751 0.427148H41.8221L40.6772 6.90503L40.0746 9.01411H40.3156C40.7173 8.45169 41.2999 7.93948 42.0631 7.47749C42.8264 6.99542 43.8006 6.75438 44.9857 6.75438C45.8293 6.75438 46.6127 6.91507 47.3358 7.23646C48.079 7.55784 48.7218 8.01983 49.2641 8.62242C49.8266 9.20493 50.2685 9.918 50.5898 10.7616C50.9112 11.6053 51.0719 12.5594 51.0719 13.6239C51.0719 14.8693 50.851 16.0343 50.4091 17.119C49.9872 18.1836 49.4047 19.1176 48.6615 19.9211C47.9183 20.7245 47.0446 21.3572 46.0403 21.8192C45.056 22.2611 44.0015 22.4821 42.8766 22.4821ZM42.5151 18.8364C43.1378 18.8364 43.7303 18.7159 44.2927 18.4748C44.8552 18.2137 45.3372 17.8722 45.739 17.4504C46.1608 17.0085 46.4922 16.5064 46.7332 15.9439C46.9743 15.3614 47.0948 14.7387 47.0948 14.0759C47.0948 12.9711 46.7835 12.0873 46.1608 11.4245C45.5582 10.7415 44.7146 10.4001 43.6299 10.4001C42.9068 10.4001 42.254 10.5407 41.6715 10.8219C41.109 11.083 40.627 11.4446 40.2252 11.9066C39.8235 12.3485 39.5122 12.8607 39.2912 13.4432C39.0903 14.0257 38.9899 14.6383 38.9899 15.2811C38.9899 15.8636 39.0803 16.3758 39.2611 16.8177C39.4619 17.2596 39.7231 17.6312 40.0444 17.9325C40.3658 18.2338 40.7374 18.4648 41.1592 18.6255C41.5811 18.7661 42.033 18.8364 42.5151 18.8364ZM66.8782 18.3844C66.0145 19.67 65.0001 20.6743 63.8351 21.3974C62.6701 22.1205 61.2138 22.4821 59.4663 22.4821C58.3817 22.4821 57.4075 22.3013 56.5437 21.9397C55.7001 21.5782 54.977 21.0861 54.3744 20.4634C53.7718 19.8206 53.3098 19.0774 52.9884 18.2338C52.6671 17.3701 52.5064 16.4561 52.5064 15.492C52.5064 14.3471 52.7173 13.2523 53.1391 12.2079C53.5609 11.1634 54.1535 10.2394 54.9167 9.43592C55.68 8.61238 56.604 7.95957 57.6887 7.47749C58.7733 6.99542 59.9785 6.75438 61.3042 6.75438C62.3889 6.75438 63.333 6.92512 64.1364 7.26659C64.96 7.58797 65.6429 8.02987 66.1852 8.59229C66.7477 9.15471 67.1695 9.80752 67.4507 10.5507C67.7319 11.2939 67.8725 12.0773 67.8725 12.9008C67.8725 13.8449 67.7319 14.7187 67.4507 15.5221H56.3328V15.8234C56.373 16.9081 56.7245 17.7115 57.3874 18.2338C58.0703 18.736 58.8637 18.987 59.7676 18.987C60.7318 18.987 61.5453 18.8063 62.2081 18.4447C62.871 18.0631 63.4334 17.5207 63.8954 16.8177L66.8782 18.3844ZM64.1967 12.7201V12.5995C64.1967 11.9166 63.9255 11.314 63.3832 10.7918C62.8609 10.2494 62.0575 9.97826 60.9728 9.97826C59.9886 9.97826 59.1249 10.2494 58.3817 10.7918C57.6585 11.314 57.1564 11.9568 56.8752 12.7201H64.1967ZM74.8223 9.16476H75.0634C75.5856 8.40147 76.2686 7.80892 77.1122 7.3871C77.9558 6.96529 78.8898 6.75438 79.9143 6.75438C80.6775 6.75438 81.3504 6.88494 81.9329 7.14607C82.5155 7.3871 83.0076 7.71853 83.4093 8.14035C83.811 8.56216 84.1123 9.06432 84.3132 9.64683C84.5141 10.2093 84.6145 10.8118 84.6145 11.4546C84.6145 11.7358 84.6044 12.0271 84.5844 12.3284C84.5643 12.6297 84.5241 12.9511 84.4638 13.2925L82.8971 22H78.9802L80.4867 13.5336C80.5068 13.4331 80.5169 13.3026 80.5169 13.1419C80.5369 12.9611 80.547 12.7904 80.547 12.6297C80.547 11.9869 80.3562 11.4546 79.9745 11.0328C79.5929 10.611 79.0204 10.4001 78.2571 10.4001C77.6545 10.4001 77.1222 10.5105 76.6603 10.7315C76.1983 10.9525 75.7965 11.2638 75.4551 11.6655C75.1136 12.0472 74.8324 12.5092 74.6114 13.0515C74.3905 13.5737 74.2197 14.1462 74.0992 14.7689L72.8338 22H68.8868L71.4779 7.23646H75.1839L74.8223 9.16476ZM93.7202 22.4821C92.6757 22.4821 91.7116 22.3113 90.8278 21.9699C89.944 21.6284 89.1807 21.1564 88.5379 20.5538C87.9153 19.9311 87.4231 19.1979 87.0616 18.3543C86.7201 17.4906 86.5494 16.5465 86.5494 15.5221C86.5494 14.3571 86.7603 13.2523 87.1821 12.2079C87.6039 11.1433 88.2065 10.2093 88.9899 9.40579C89.7733 8.60233 90.7274 7.95957 91.8522 7.47749C92.977 6.99542 94.2425 6.75438 95.6485 6.75438C97.3559 6.75438 98.7619 7.15611 99.8667 7.95957C100.971 8.74294 101.725 9.77739 102.126 11.0629L98.3301 12.5393C97.8279 11.1131 96.7533 10.4001 95.1062 10.4001C94.4434 10.4001 93.8207 10.5306 93.2382 10.7918C92.6757 11.0328 92.1937 11.3743 91.7919 11.8162C91.3902 12.238 91.0688 12.7401 90.8278 13.3227C90.6068 13.8851 90.4964 14.4877 90.4964 15.1304C90.4964 15.6728 90.5868 16.1749 90.7675 16.6369C90.9483 17.0989 91.1893 17.4906 91.4906 17.812C91.812 18.1334 92.1836 18.3844 92.6054 18.5652C93.0273 18.746 93.4792 18.8364 93.9613 18.8364C94.8451 18.8364 95.5883 18.6456 96.1909 18.2639C96.8136 17.8622 97.3358 17.3098 97.7576 16.6068L101.132 18.2338C100.168 19.7604 99.0833 20.8551 97.8781 21.5179C96.693 22.1607 95.3071 22.4821 93.7202 22.4821ZM109.265 6.48321L108.542 9.16476H108.783C109.325 8.40147 110.018 7.80892 110.862 7.3871C111.705 6.96529 112.639 6.75438 113.664 6.75438C114.467 6.75438 115.16 6.88494 115.743 7.14607C116.325 7.3871 116.807 7.71853 117.189 8.14035C117.591 8.56216 117.882 9.05428 118.063 9.6167C118.264 10.1791 118.364 10.7717 118.364 11.3944C118.364 11.8563 118.304 12.4489 118.183 13.172L116.616 22H112.669L114.176 13.5336C114.236 13.172 114.266 12.8807 114.266 12.6598C114.266 12.017 114.076 11.4847 113.694 11.0629C113.312 10.621 112.75 10.4001 112.007 10.4001C111.404 10.4001 110.862 10.5206 110.38 10.7616C109.918 10.9826 109.506 11.2939 109.144 11.6956C108.803 12.0773 108.522 12.5393 108.301 13.0816C108.08 13.6039 107.919 14.1763 107.819 14.799L106.553 22H102.606L106.402 0.427148H110.349L109.265 6.48321Z" fill="white"/>
</svg>
