<svg width="18" height="17" viewBox="0 0 18 17" fill="none" xmlns="http://www.w3.org/2000/svg">
<path d="M9.45264 1.53614C11.7057 1.53614 12.0129 1.53614 12.9346 1.53614C13.7538 1.53614 14.1635 1.74096 14.4707 1.84337C14.8803 2.04819 15.1876 2.1506 15.4948 2.45783C15.802 2.76506 16.0069 3.07229 16.1093 3.48193C16.2117 3.78916 16.3141 4.1988 16.4165 5.01807C16.4165 5.93976 16.4165 6.14458 16.4165 8.5C16.4165 10.8554 16.4165 11.0602 16.4165 11.9819C16.4165 12.8012 16.2117 13.2108 16.1093 13.5181C15.9044 13.9277 15.802 14.2349 15.4948 14.5422C15.1876 14.8494 14.8803 15.0542 14.4707 15.1566C14.1635 15.259 13.7538 15.3614 12.9346 15.4639C12.0129 15.4639 11.8081 15.4639 9.45264 15.4639C7.09722 15.4639 6.8924 15.4639 5.97071 15.4639C5.15143 15.4639 4.74179 15.259 4.43457 15.1566C4.02493 14.9518 3.7177 14.8494 3.41047 14.5422C3.10324 14.2349 2.89842 13.9277 2.79601 13.5181C2.6936 13.2108 2.59119 12.8012 2.48878 11.9819C2.48878 11.0602 2.48878 10.8554 2.48878 8.5C2.48878 6.14458 2.48878 5.93976 2.48878 5.01807C2.48878 4.1988 2.6936 3.78916 2.79601 3.48193C3.00083 3.07229 3.10324 2.76506 3.41047 2.45783C3.7177 2.1506 4.02493 1.94578 4.43457 1.84337C4.74179 1.74096 5.15143 1.63855 5.97071 1.53614C6.8924 1.53614 7.19963 1.53614 9.45264 1.53614ZM9.45264 0C7.09722 0 6.8924 0 5.97071 0C5.04902 0 4.43457 0.20482 3.92252 0.409639C3.41047 0.614458 2.89842 0.921687 2.38637 1.43374C1.87432 1.94578 1.6695 2.35542 1.36228 2.96988C1.15746 3.48193 1.05505 4.09639 0.952637 5.01807C0.952637 5.93976 0.952637 6.24699 0.952637 8.5C0.952637 10.8554 0.952637 11.0602 0.952637 11.9819C0.952637 12.9036 1.15746 13.5181 1.36228 14.0301C1.5671 14.5422 1.87432 15.0542 2.38637 15.5663C2.89842 16.0783 3.30806 16.2831 3.92252 16.5904C4.43457 16.7952 5.04902 16.8976 5.97071 17C6.8924 17 7.19963 17 9.45264 17C11.7057 17 12.0129 17 12.9346 17C13.8563 17 14.4707 16.7952 14.9828 16.5904C15.4948 16.3855 16.0069 16.0783 16.5189 15.5663C17.031 15.0542 17.2358 14.6446 17.543 14.0301C17.7478 13.5181 17.8502 12.9036 17.9526 11.9819C17.9526 11.0602 17.9526 10.753 17.9526 8.5C17.9526 6.24699 17.9526 5.93976 17.9526 5.01807C17.9526 4.09639 17.7478 3.48193 17.543 2.96988C17.3382 2.45783 17.031 1.94578 16.5189 1.43374C16.0069 0.921687 15.5972 0.716868 14.9828 0.409639C14.4707 0.20482 13.8563 0.10241 12.9346 0C12.0129 0 11.8081 0 9.45264 0Z" fill="white"/>
<path d="M9.45264 4.09639C6.99481 4.09639 5.04902 6.04217 5.04902 8.5C5.04902 10.9578 6.99481 12.9036 9.45264 12.9036C11.9105 12.9036 13.8563 10.9578 13.8563 8.5C13.8563 6.04217 11.9105 4.09639 9.45264 4.09639ZM9.45264 11.3675C7.91649 11.3675 6.58517 10.1386 6.58517 8.5C6.58517 6.96386 7.81408 5.63253 9.45264 5.63253C10.9888 5.63253 12.3201 6.86145 12.3201 8.5C12.3201 10.0361 10.9888 11.3675 9.45264 11.3675Z" fill="white"/>
<path d="M13.9587 5.01807C14.5243 5.01807 14.9828 4.55957 14.9828 3.99398C14.9828 3.42838 14.5243 2.96988 13.9587 2.96988C13.3931 2.96988 12.9346 3.42838 12.9346 3.99398C12.9346 4.55957 13.3931 5.01807 13.9587 5.01807Z" fill="white"/>
</svg>
