<svg width="18" height="17" viewBox="0 0 18 17" fill="none" xmlns="http://www.w3.org/2000/svg">
<path d="M4.52764 17H0.915133V5.63125H4.52764V17ZM2.72139 4.0375C1.55264 4.0375 0.702637 3.1875 0.702637 2.01875C0.702637 0.85 1.65889 0 2.72139 0C3.89014 0 4.74014 0.85 4.74014 2.01875C4.74014 3.1875 3.89014 4.0375 2.72139 4.0375ZM17.7026 17H14.0901V10.8375C14.0901 9.03125 13.3464 8.5 12.2839 8.5C11.2214 8.5 10.1589 9.35 10.1589 10.9437V17H6.54639V5.63125H9.94638V7.225C10.2651 6.48125 11.5401 5.3125 13.3464 5.3125C15.3651 5.3125 17.4901 6.48125 17.4901 9.9875V17H17.7026Z" fill="white"/>
</svg>
