<svg width="16" height="20" viewBox="0 0 16 20" fill="none" xmlns="http://www.w3.org/2000/svg">
<path fill-rule="evenodd" clip-rule="evenodd" d="M8.05772 0.581055C3.79633 0.581055 0.341797 4.44151 0.341797 8.77922C0.341797 13.083 2.80445 17.761 6.64674 19.5569C7.54244 19.9755 8.57301 19.9755 9.46871 19.5569C13.311 17.761 15.7736 13.0829 15.7736 8.77922C15.7736 4.44151 12.3191 0.581055 8.05772 0.581055ZM8.05772 10.226C9.12307 10.226 9.9867 9.36233 9.9867 8.29698C9.9867 7.23163 9.12307 6.368 8.05772 6.368C6.99237 6.368 6.12874 7.23163 6.12874 8.29698C6.12874 9.36233 6.99237 10.226 8.05772 10.226Z" fill="white"/>
</svg>
