<svg width="18" height="13" viewBox="0 0 18 13" fill="none" xmlns="http://www.w3.org/2000/svg">
<path d="M16.7776 2.35606C16.5651 1.61231 16.0339 1.08105 15.2901 0.868555C14.0152 0.549805 8.59638 0.549805 8.59638 0.549805C8.59638 0.549805 3.28389 0.549805 1.90264 0.868555C1.15889 1.08105 0.627633 1.61231 0.415133 2.35606C0.202633 3.73731 0.202637 6.4998 0.202637 6.4998C0.202637 6.4998 0.20264 9.2623 0.52139 10.6436C0.73389 11.3873 1.26513 11.9186 2.00888 12.1311C3.28388 12.4498 8.70264 12.4498 8.70264 12.4498C8.70264 12.4498 14.0151 12.4498 15.3964 12.1311C16.1401 11.9186 16.6714 11.3873 16.8839 10.6436C17.2027 9.2623 17.2026 6.4998 17.2026 6.4998C17.2026 6.4998 17.2026 3.73731 16.7776 2.35606ZM7.00263 9.0498V3.94981L11.4651 6.4998L7.00263 9.0498Z" fill="white"/>
</svg>
