<svg width="387" height="381" viewBox="0 0 387 381" fill="none" xmlns="http://www.w3.org/2000/svg">
<path d="M273.371 328.329L176.238 272.269C174.159 271.07 174.419 268.973 176.82 267.587L182.334 264.403C184.735 263.016 188.366 262.866 190.445 264.067L287.577 320.126C289.657 321.327 289.396 323.423 286.995 324.809L281.481 327.993C279.081 329.378 275.449 329.528 273.371 328.329Z" fill="#333333"/>
<path d="M282.922 52.904L193.542 1.30038C191.864 0.33197 190.349 0.304321 189.169 0.973633L180.352 6.07538L190.732 14.1455L193.269 13.5019V225.306C193.269 230.274 196.29 236.045 200.015 238.196L278.384 295.561V299.096L287.506 293.771V293.735C288.828 292.857 289.667 291.018 289.667 288.417V65.7935C289.667 60.8251 286.648 55.0551 282.922 52.904Z" fill="#707070"/>
<path d="M269.256 71.8135V61.8173L260.465 68.4206L222.052 52.3217L193.27 31.3738V13.4991L190.72 14.1368L180.359 6.07549L189.172 0.974762C190.356 0.314339 191.858 0.337044 193.543 1.29362L282.916 52.914C285.376 54.3257 287.517 57.3089 288.677 60.5883L269.256 71.8135Z" fill="#E6E6E6"/>
<path d="M274.051 298.69L184.671 247.087C180.947 244.935 177.926 239.164 177.926 234.197V11.5725C177.926 6.60507 180.947 4.32172 184.671 6.47278L274.051 58.0754C277.777 60.2275 280.796 65.9975 280.796 70.965V293.59C280.796 298.556 277.777 300.841 274.051 298.69Z" fill="#CCCCCC"/>
<path d="M179.896 235.513V12.5346C179.896 8.91464 182.099 7.25122 184.814 8.81888L273.908 60.2576C276.623 61.8253 278.824 66.0306 278.824 69.6506V292.628C278.824 296.249 276.623 297.913 273.908 296.346L184.814 244.907C182.099 243.339 179.896 239.133 179.896 235.513Z" fill="#333333"/>
<path d="M276.212 72.0175V288.004C276.212 291.218 273.944 292.487 271.163 290.882L187.572 242.62C184.773 241.004 182.504 237.091 182.504 233.879V17.9153C182.504 14.7031 184.773 13.4099 187.572 15.0259L202.843 23.8423C203.48 24.2106 204.041 25.0181 204.218 25.8226L204.926 29.0497C205.458 32.1406 207.883 35.5779 210.723 37.2166L247.993 58.7351C250.832 60.3748 253.277 59.7499 253.791 57.2622L254.498 54.8525C254.674 54.2513 255.235 54.0914 255.872 54.4596L271.163 63.2879C273.944 64.8931 276.212 68.8042 276.212 72.0175Z" fill="white"/>
<path d="M214.132 34.088C214.132 35.8057 212.917 36.4977 211.42 35.6339C209.922 34.7692 208.709 32.6744 208.709 30.9567C208.709 29.238 209.922 28.546 211.42 29.4108C212.917 30.2756 214.132 32.3694 214.132 34.088Z" fill="#666666"/>
<path d="M212.906 33.3805C212.906 34.3223 212.241 34.7013 211.419 34.2275C210.599 33.7536 209.934 32.6056 209.934 31.6648C209.934 30.723 210.599 30.3439 211.419 30.8168C212.241 31.2906 212.906 32.4378 212.906 33.3805Z" fill="#333333"/>
<path d="M242.386 46.5815L215.867 31.2704C215.43 31.0187 215.076 30.3425 215.076 29.7601V28.687C215.076 28.1046 215.43 27.837 215.867 28.0888L242.386 43.3999C242.823 43.6516 243.177 44.3288 243.177 44.9102V45.9833C243.177 46.5667 242.823 46.8342 242.386 46.5815Z" fill="black"/>
<path d="M287.193 100.102C286.666 99.7973 285.937 99.8398 285.134 100.305C283.534 101.228 282.244 103.462 282.25 105.3L282.324 131.761C282.327 132.667 282.65 133.31 283.171 133.613L284.776 134.546C284.255 134.243 283.932 133.6 283.929 132.694L283.854 106.233C283.849 104.395 285.138 102.161 286.738 101.238C287.542 100.773 288.271 100.729 288.797 101.035L287.193 100.102Z" fill="#E6E6E6"/>
<path d="M286.737 101.238C288.336 100.315 289.634 101.054 289.639 102.892L289.714 129.353C289.719 131.174 288.43 133.425 286.831 134.348C285.232 135.271 283.933 134.515 283.929 132.694L283.854 106.233C283.849 104.395 285.138 102.162 286.737 101.238Z" fill="#BFBFBF"/>
<path d="M287.209 104.214C288.521 103.456 289.585 104.063 289.59 105.57L289.652 127.276C289.656 128.77 288.598 130.616 287.286 131.373C285.974 132.13 284.909 131.51 284.905 130.016L284.844 108.31C284.84 106.803 285.897 104.971 287.209 104.214Z" fill="#CCCCCC"/>
<path d="M340.414 146.322L267.012 103.943C265.722 103.199 264.551 103.13 263.706 103.622L260.012 105.767C260.859 105.276 262.029 105.345 263.32 106.09L336.721 148.468C339.298 149.955 341.365 153.549 341.356 156.495L340.888 321.635C340.884 323.098 340.37 324.128 339.538 324.61L343.23 322.464C344.062 321.982 344.576 320.953 344.58 319.49L345.049 154.349C345.058 151.402 342.99 147.809 340.414 146.322Z" fill="#E6E6E6"/>
<path d="M341.355 156.496L341.327 167.229L340.891 321.64C340.877 324.586 338.805 325.773 336.227 324.287L262.826 281.898C260.25 280.425 258.176 276.839 258.19 273.893L258.626 119.482L258.653 108.749C258.666 105.803 260.753 104.604 263.318 106.09L336.717 148.463C339.296 149.949 341.368 153.551 341.355 156.496Z" fill="#333333"/>
<path d="M339.283 159.423L339.258 169.62L338.843 316.333C338.829 319.133 336.86 320.26 334.411 318.848L264.669 278.574C262.22 277.174 260.251 273.765 260.264 270.967L260.678 124.254L260.705 114.055C260.717 111.256 262.7 110.116 265.136 111.529L334.876 151.79C337.327 153.203 339.296 156.623 339.283 159.423Z" fill="white"/>
<path d="M285.248 149.467C286.561 150.225 287.623 152.062 287.618 153.567L287.555 176.158C287.55 177.663 286.482 178.272 285.17 177.514L264.232 165.425C262.919 164.667 261.858 162.829 261.861 161.325L261.926 138.733C261.93 137.229 262.999 136.621 264.312 137.379L285.248 149.467Z" fill="#DCE6FF"/>
<path d="M272.397 160.106V153.227L277.59 159.666L272.397 160.106ZM274.027 149.866C270.341 147.739 267.357 149.441 267.357 153.669C267.357 157.894 270.341 163.044 274.027 165.172C277.708 167.297 280.695 165.594 280.695 161.37C280.695 157.141 277.708 151.993 274.027 149.866Z" fill="#1E5BFA"/>
<path d="M279.51 193.29C280.453 193.834 281.219 195.158 281.215 196.243L281.167 213.003C281.164 214.088 280.395 214.521 279.451 213.977L264.865 205.555C263.921 205.011 263.161 203.694 263.164 202.609L263.212 185.848C263.214 184.764 263.98 184.324 264.924 184.868L279.51 193.29Z" fill="#DCE6FF"/>
<path d="M271.147 200.293L269.777 203.973L264.068 200.676L267.612 195.677C268.11 194.976 269.354 195.694 269.851 196.97L271.147 200.293Z" fill="#1E5BFA"/>
<path d="M273.396 206.062L269.777 203.973L271.148 200.293L273.396 206.062Z" fill="#4375F7"/>
<path d="M279.104 209.358L273.395 206.062L271.146 200.293L272.879 195.649C273.398 194.258 275.482 195.461 276.001 197.451L279.104 209.358Z" fill="#1E5BFA"/>
<path d="M271.173 193.756C271.173 194.565 270.602 194.891 269.897 194.484C269.194 194.077 268.623 193.093 268.623 192.286C268.623 191.478 269.194 191.152 269.897 191.559C270.602 191.965 271.173 192.949 271.173 193.756Z" fill="#1E5BFA"/>
<path d="M333.171 175.849C334.151 176.414 334.939 177.78 334.936 178.909L334.919 185.025C334.915 186.15 334.122 186.607 333.142 186.041L297.296 165.344C296.317 164.78 295.528 163.409 295.531 162.284L295.548 156.169C295.551 155.039 296.346 154.587 297.324 155.153L333.171 175.849Z" fill="#DCE6FF"/>
<path d="M331.982 179.594L299.106 160.519C298.729 160.302 298.424 160.532 298.424 161.035C298.424 161.537 298.729 162.12 299.106 162.338L331.982 181.411C332.358 181.629 332.663 181.398 332.663 180.896C332.663 180.394 332.358 179.811 331.982 179.594Z" fill="#1E5BFA"/>
<path d="M333.171 197.239C334.151 197.805 334.939 199.174 334.936 200.3L334.919 206.419C334.915 207.546 334.122 207.998 333.142 207.432L297.296 186.736C296.317 186.171 295.528 184.804 295.531 183.68L295.548 177.559C295.551 176.435 296.346 175.978 297.324 176.543L333.171 197.239Z" fill="#DCE6FF"/>
<path d="M331.982 200.641L299.106 181.567C298.729 181.35 298.424 181.581 298.424 182.083C298.424 182.585 298.729 183.168 299.106 183.385L331.982 202.459C332.358 202.677 332.663 202.446 332.663 201.943C332.663 201.442 332.358 200.859 331.982 200.641Z" fill="#1E5BFA"/>
<path d="M279.51 232.536C280.453 233.081 281.219 234.405 281.215 235.49L281.167 252.25C281.164 253.335 280.395 253.769 279.451 253.224L264.865 244.802C263.921 244.257 263.161 242.94 263.164 241.856L263.212 225.095C263.214 224.011 263.98 223.57 264.924 224.116L279.51 232.536Z" fill="#DCE6FF"/>
<path d="M279.032 238.232V238.255L272.084 238.839L265.031 230.148C265.031 229.875 265.224 229.766 265.462 229.902L278.602 237.489C278.84 237.627 279.032 237.959 279.032 238.232Z" fill="#1E5BFA"/>
<path d="M272.084 239.389L279.032 238.804V247.264C279.032 247.537 278.84 247.647 278.602 247.509L265.462 239.923C265.224 239.785 265.031 239.452 265.031 239.181V230.693L271.979 239.26L272.084 239.389Z" fill="#1E5BFA"/>
<path d="M332.57 299.927C333.882 300.686 334.94 302.517 334.936 304.025L334.922 308.91C334.918 310.418 333.853 311.029 332.541 310.271L267.643 272.802C266.334 272.046 265.271 270.208 265.275 268.699L265.29 263.816C265.294 262.307 266.362 261.702 267.671 262.458L332.57 299.927Z" fill="#DCE6FF"/>
<path d="M330.859 303.61L268.39 267.326C268.013 267.109 267.707 267.339 267.707 267.841C267.707 268.344 268.013 268.927 268.39 269.143L330.859 305.428C331.236 305.645 331.54 305.415 331.54 304.913C331.54 304.411 331.236 303.828 330.859 303.61Z" fill="#1E5BFA"/>
<path d="M306.141 247.883C307.084 248.428 307.848 249.75 307.845 250.835L307.798 267.596C307.795 268.681 307.026 269.115 306.081 268.569L291.496 260.148C290.552 259.603 289.791 258.286 289.795 257.202L289.842 240.441C289.845 239.357 290.61 238.916 291.555 239.461L306.141 247.883Z" fill="#DCE6FF"/>
<path d="M292.785 246.96C292.361 246.715 292.016 246.912 292.016 247.399V254.037C292.016 254.524 292.361 255.118 292.785 255.363L304.832 262.319C305.256 262.564 305.601 262.366 305.601 261.88V255.241C305.601 254.755 305.256 254.161 304.832 253.916L292.785 246.96ZM304.832 262.95L292.785 255.994C292.057 255.573 291.467 254.554 291.467 253.719V247.081C291.467 246.247 292.057 245.91 292.785 246.329L304.832 253.285C305.559 253.705 306.15 254.724 306.15 255.559V262.197C306.15 263.031 305.559 263.369 304.832 262.95Z" fill="#1E5BFA"/>
<path d="M298.808 251.666C297.344 250.821 296.153 251.5 296.153 253.18C296.153 254.859 297.344 256.914 298.808 257.759C300.272 258.605 301.463 257.925 301.463 256.245C301.463 254.566 300.272 252.512 298.808 251.666ZM298.808 258.39C297.041 257.37 295.604 254.89 295.604 252.862C295.604 250.836 297.041 250.015 298.808 251.036C300.574 252.056 302.011 254.536 302.011 256.562C302.011 258.59 300.574 259.409 298.808 258.39Z" fill="#1E5BFA"/>
<path d="M295.555 247.813L302.063 251.571V250.609C302.063 250.409 301.922 250.165 301.748 250.063L295.872 246.672C295.697 246.571 295.555 246.651 295.555 246.851V247.813ZM302.613 252.518L295.006 248.125V246.534C295.006 245.986 295.394 245.765 295.872 246.041L301.748 249.435C302.225 249.709 302.613 250.379 302.613 250.926V252.518Z" fill="#1E5BFA"/>
<path d="M333.233 263.498C334.177 264.042 334.938 265.363 334.935 266.448L334.888 283.208C334.884 284.293 334.119 284.729 333.175 284.185L318.589 275.763C317.645 275.219 316.882 273.899 316.885 272.814L316.932 256.054C316.934 254.969 317.704 254.532 318.648 255.076L333.233 263.498Z" fill="#DCE6FF"/>
<path d="M325.974 263.133C322.64 261.207 319.938 262.213 319.938 265.378C319.938 267.427 321.075 269.878 322.779 271.875C322.7 272.41 322.353 273.53 320.828 272.669C320.828 272.669 322.934 274.99 324.929 273.899C325.269 274.152 325.617 274.388 325.974 274.594C329.308 276.518 332.011 275.513 332.011 272.347C332.011 269.183 329.308 265.057 325.974 263.133Z" fill="#1E5BFA"/>
<path d="M332.187 223.643C333.709 224.521 334.94 226.653 334.935 228.406L334.894 242.753C334.889 244.502 333.65 245.208 332.129 244.329L290.73 220.428C289.208 219.548 287.976 217.417 287.98 215.668L288.022 201.32C288.027 199.568 289.266 198.862 290.788 199.74L332.187 223.643Z" fill="#DCE6FF"/>
<path d="M331.148 227.086L292.113 204.458C291.737 204.24 291.432 204.472 291.432 204.973C291.432 205.475 291.737 206.058 292.113 206.277L331.148 228.905C331.524 229.122 331.829 228.891 331.829 228.388C331.829 227.887 331.524 227.304 331.148 227.086Z" fill="#1E5BFA"/>
<path d="M331.148 232.505L292.113 209.876C291.737 209.66 291.432 209.89 291.432 210.393C291.432 210.895 291.737 211.477 292.113 211.695L331.148 234.324C331.524 234.541 331.829 234.31 331.829 233.807C331.829 233.306 331.524 232.722 331.148 232.505Z" fill="#1E5BFA"/>
<path d="M331.148 237.922L292.113 215.295C291.737 215.077 291.432 215.307 291.432 215.809C291.432 216.312 291.737 216.895 292.113 217.112L331.148 239.74C331.524 239.958 331.829 239.728 331.829 239.225C331.829 238.723 331.524 238.139 331.148 237.922Z" fill="#1E5BFA"/>
<path d="M341.356 156.496L341.329 167.229L258.627 119.482L258.654 108.748C258.667 105.803 260.754 104.603 263.319 106.09L336.718 148.462C339.297 149.949 341.369 153.55 341.356 156.496Z" fill="#333333"/>
<path d="M188.467 58.3449L115.065 15.9665C113.774 15.2212 112.603 15.153 111.757 15.6447L108.064 17.7908C108.91 17.2992 110.081 17.3673 111.371 18.1126L184.775 60.4911C187.349 61.9778 189.418 65.5721 189.409 68.5188L188.94 233.658C188.936 235.121 188.422 236.15 187.589 236.634L191.282 234.488C192.115 234.004 192.629 232.975 192.633 231.512L193.101 66.3727C193.11 63.4259 191.042 59.8326 188.467 58.3449Z" fill="#224EBF"/>
<path d="M189.408 68.5187L189.38 79.2522L188.944 233.663C188.93 236.609 186.857 237.796 184.28 236.309L110.879 193.922C108.302 192.449 106.228 188.862 106.242 185.916L106.679 31.5045L106.706 20.7719C106.719 17.8262 108.806 16.6258 111.37 18.1125L184.771 60.486C187.349 61.9727 189.422 65.5729 189.408 68.5187Z" fill="#1E5BFA"/>
<path d="M187.334 71.4447L187.308 81.6433L186.894 228.356C186.881 231.155 184.911 232.283 182.462 230.87L112.72 190.596C110.272 189.197 108.303 185.788 108.315 182.989L108.729 36.2766L108.756 26.0781C108.769 23.2795 110.751 22.1393 113.187 23.552L182.928 63.8129C185.378 65.2255 187.348 68.6461 187.334 71.4447Z" fill="white"/>
<path d="M135.083 94.2409C136.396 94.9991 137.458 96.8362 137.453 98.3406L137.39 120.932C137.386 122.437 136.317 123.045 135.004 122.288L114.067 110.199C112.754 109.441 111.692 107.603 111.697 106.099L111.761 83.5083C111.765 82.0039 112.834 81.3948 114.146 82.1529L135.083 94.2409Z" fill="#1E5BFA"/>
<path d="M122.234 104.881V97.9999L127.426 104.44L122.234 104.881ZM123.862 94.6406C120.177 92.5132 117.193 94.2141 117.193 98.4432C117.193 102.668 120.177 107.818 123.862 109.946C127.544 112.072 130.531 110.368 130.531 106.144C130.531 101.915 127.544 96.767 123.862 94.6406Z" fill="white"/>
<path d="M136.408 56.0684C137.765 56.8522 138.865 58.7555 138.86 60.3142L138.791 84.4201C138.788 85.9798 137.68 86.6037 136.324 85.8199L115.346 73.7092C113.988 72.9254 112.895 71.031 112.9 69.4713L112.968 45.3664C112.972 43.8067 114.073 43.1739 115.431 43.9577L136.408 56.0684Z" fill="#1E5BFA"/>
<path d="M124.381 66.1423L122.411 71.4336L114.199 66.6922L119.296 59.5026C120.012 58.4937 121.801 59.5273 122.517 61.3614L124.381 66.1423Z" fill="white"/>
<path d="M127.615 74.4385L122.41 71.4335L124.381 66.1422L127.615 74.4385Z" fill="#E6E6E6"/>
<path d="M135.826 79.1777L127.615 74.4383L124.381 66.1421L126.871 59.4619C127.618 57.4609 130.616 59.1924 131.362 62.0552L135.826 79.1777Z" fill="white"/>
<path d="M124.418 56.7404C124.418 57.9033 123.597 58.3712 122.584 57.7858C121.572 57.2014 120.752 55.7858 120.752 54.6239C120.752 53.462 121.572 52.994 122.584 53.5794C123.597 54.1628 124.418 55.5794 124.418 56.7404Z" fill="#E6E6E6"/>
<path d="M181.224 86.5549C182.203 87.1205 182.992 88.4858 182.988 89.6161L182.97 95.7317C182.967 96.8561 182.175 97.3131 181.195 96.7475L145.348 76.0514C144.369 75.4867 143.58 74.1165 143.584 72.9911L143.601 66.8755C143.604 65.7462 144.397 65.2931 145.377 65.8588L181.224 86.5549Z" fill="#1E5BFA"/>
<path d="M180.032 90.2992L147.156 71.225C146.78 71.0078 146.475 71.2388 146.475 71.7413C146.475 72.2427 146.78 72.8262 147.156 73.0433L180.032 92.1176C180.409 92.3347 180.713 92.1037 180.713 91.6022C180.713 91.0998 180.409 90.5163 180.032 90.2992Z" fill="white"/>
<path d="M181.224 100.981C182.203 101.545 182.992 102.916 182.988 104.041L182.97 110.16C182.967 111.286 182.175 111.738 181.195 111.172L145.348 90.4771C144.369 89.9115 143.58 88.5452 143.584 87.4198L143.601 81.3003C143.604 80.1759 144.397 79.7189 145.377 80.2845L181.224 100.981Z" fill="#1E5BFA"/>
<path d="M180.032 104.382L147.156 85.3074C146.78 85.0903 146.475 85.3203 146.475 85.8227C146.475 86.3252 146.78 86.9076 147.156 87.1258L180.032 106.199C180.409 106.417 180.713 106.186 180.713 105.684C180.713 105.182 180.409 104.599 180.032 104.382Z" fill="white"/>
<path d="M127.562 132.199C128.506 132.744 129.27 134.067 129.267 135.151L129.22 151.912C129.217 152.997 128.448 153.431 127.504 152.886L112.918 144.464C111.974 143.92 111.214 142.603 111.217 141.518L111.264 124.757C111.268 123.674 112.033 123.232 112.977 123.777L127.562 132.199Z" fill="#1E5BFA"/>
<path d="M127.084 137.893V137.918L120.135 138.501L113.082 129.81C113.082 129.536 113.276 129.427 113.513 129.564L126.654 137.151C126.892 137.289 127.084 137.62 127.084 137.893Z" fill="white"/>
<path d="M120.135 139.051L127.084 138.465V146.926C127.084 147.199 126.892 147.308 126.654 147.172L113.513 139.584C113.276 139.447 113.082 139.116 113.082 138.842V130.355L120.032 138.922L120.135 139.051Z" fill="white"/>
<path d="M180.621 211.825C181.935 212.583 182.992 214.414 182.987 215.922L182.973 220.807C182.969 222.315 181.904 222.925 180.592 222.167L115.693 184.698C114.384 183.943 113.324 182.105 113.328 180.596L113.341 175.712C113.346 174.203 114.414 173.599 115.723 174.354L180.621 211.825Z" fill="#1E5BFA"/>
<path d="M178.911 215.505L116.442 179.223C116.066 179.005 115.76 179.236 115.76 179.738C115.76 180.24 116.066 180.823 116.442 181.04L178.911 217.324C179.287 217.542 179.593 217.312 179.593 216.81C179.593 216.307 179.287 215.724 178.911 215.505Z" fill="white"/>
<path d="M180.621 195.513C181.935 196.271 182.992 198.102 182.987 199.61L182.973 204.495C182.969 206.002 181.904 206.614 180.592 205.856L115.693 168.387C114.384 167.631 113.324 165.794 113.328 164.284L113.341 159.4C113.346 157.892 114.414 157.287 115.723 158.043L180.621 195.513Z" fill="#1E5BFA"/>
<path d="M178.911 199.195L116.442 162.911C116.066 162.693 115.76 162.924 115.76 163.426C115.76 163.928 116.066 164.511 116.442 164.728L178.911 201.013C179.287 201.23 179.593 200.999 179.593 200.497C179.593 199.996 179.287 199.413 178.911 199.195Z" fill="white"/>
<path d="M154.192 147.545C155.136 148.09 155.9 149.413 155.897 150.498L155.85 167.258C155.847 168.343 155.078 168.776 154.133 168.232L139.548 159.81C138.604 159.266 137.844 157.949 137.846 156.864L137.894 140.104C137.897 139.019 138.663 138.578 139.607 139.123L154.192 147.545Z" fill="#1E5BFA"/>
<path d="M140.837 146.621C140.413 146.376 140.067 146.573 140.067 147.059V153.698C140.067 154.185 140.413 154.78 140.837 155.025L152.885 161.981C153.309 162.225 153.653 162.029 153.653 161.541V154.904C153.653 154.417 153.309 153.822 152.885 153.577L140.837 146.621ZM152.885 162.61L140.837 155.655C140.11 155.235 139.52 154.216 139.52 153.381V146.743C139.52 145.908 140.11 145.571 140.837 145.99L152.885 152.946C153.611 153.367 154.203 154.386 154.203 155.22V161.859C154.203 162.693 153.611 163.03 152.885 162.61Z" fill="white"/>
<path d="M146.86 151.329C145.397 150.483 144.205 151.163 144.205 152.842C144.205 154.522 145.397 156.576 146.86 157.421C148.325 158.266 149.515 157.587 149.515 155.907C149.515 154.228 148.325 152.174 146.86 151.329ZM146.86 158.051C145.094 157.031 143.656 154.553 143.656 152.525C143.656 150.497 145.094 149.678 146.86 150.699C148.627 151.718 150.064 154.197 150.064 156.225C150.064 158.252 148.627 159.072 146.86 158.051Z" fill="white"/>
<path d="M143.606 147.474L150.114 151.232V150.27C150.114 150.071 149.973 149.826 149.799 149.727L143.921 146.333C143.748 146.232 143.606 146.313 143.606 146.513V147.474ZM150.664 152.179L143.057 147.787V146.195C143.057 145.649 143.444 145.427 143.921 145.703L149.799 149.096C150.275 149.371 150.664 150.04 150.664 150.588V152.179Z" fill="white"/>
<path d="M181.287 163.159C182.231 163.704 182.992 165.025 182.988 166.11L182.941 182.87C182.938 183.955 182.173 184.391 181.229 183.846L166.642 175.425C165.699 174.88 164.935 173.561 164.938 172.476L164.986 155.716C164.989 154.631 165.757 154.193 166.701 154.738L181.287 163.159Z" fill="#1E5BFA"/>
<path d="M174.027 162.794C170.693 160.869 167.99 161.875 167.99 165.04C167.99 167.089 169.127 169.539 170.831 171.535C170.752 172.07 170.406 173.192 168.881 172.331C168.881 172.331 170.986 174.652 172.98 173.56C173.321 173.813 173.669 174.049 174.027 174.255C177.36 176.18 180.062 175.174 180.062 172.009C180.062 168.844 177.36 164.719 174.027 162.794Z" fill="white"/>
<path d="M180.239 126.702C181.761 127.582 182.992 129.713 182.986 131.467L182.946 145.813C182.941 147.563 181.702 148.268 180.18 147.39L143.939 126.522C142.417 125.643 141.186 123.511 141.191 121.763L141.232 107.415C141.238 105.662 142.477 104.956 143.998 105.835L180.239 126.702Z" fill="#1E5BFA"/>
<path d="M179.198 130.146L145.323 110.552C144.946 110.334 144.641 110.565 144.641 111.067C144.641 111.569 144.946 112.153 145.323 112.37L179.198 131.964C179.575 132.181 179.88 131.95 179.88 131.448C179.88 130.946 179.575 130.363 179.198 130.146Z" fill="white"/>
<path d="M179.198 135.565L145.323 115.97C144.946 115.753 144.641 115.983 144.641 116.486C144.641 116.988 144.946 117.571 145.323 117.789L179.198 137.383C179.575 137.6 179.88 137.369 179.88 136.867C179.88 136.365 179.575 135.782 179.198 135.565Z" fill="white"/>
<path d="M179.198 140.983L145.323 121.389C144.946 121.171 144.641 121.402 144.641 121.904C144.641 122.406 144.946 122.989 145.323 123.206L179.198 142.801C179.575 143.019 179.88 142.788 179.88 142.285C179.88 141.784 179.575 141.2 179.198 140.983Z" fill="white"/>
<path d="M189.407 68.5194L189.379 79.2529L106.678 31.5052L106.705 20.7726C106.718 17.8269 108.805 16.6265 111.369 18.1132L184.77 60.4867C187.348 61.9734 189.421 65.5736 189.407 68.5194Z" fill="#1E5BFA"/>
<path d="M209.716 159.485L136.315 117.106C135.023 116.361 133.852 116.293 133.006 116.785L129.314 118.931C130.159 118.439 131.33 118.507 132.621 119.252L206.023 161.631C208.598 163.119 210.666 166.711 210.658 169.659L210.19 334.798C210.186 336.261 209.671 337.29 208.838 337.773L212.531 335.628C213.364 335.144 213.878 334.115 213.882 332.652L214.351 167.513C214.359 164.566 212.291 160.972 209.716 159.485Z" fill="#224EBF"/>
<path d="M210.655 169.659L210.628 180.393L210.192 334.803C210.178 337.749 208.105 338.937 205.528 337.45L132.127 295.062C129.55 293.589 127.477 290.002 127.49 287.056L127.927 132.645L127.954 121.912C127.968 118.966 130.054 117.767 132.619 119.253L206.019 161.627C208.596 163.113 210.67 166.714 210.655 169.659Z" fill="#1E5BFA"/>
<path d="M208.584 172.585L208.557 182.783L208.143 329.497C208.131 332.296 206.16 333.424 203.711 332.01L133.97 291.736C131.521 290.337 129.552 286.929 129.565 284.13L129.979 137.416L130.005 127.219C130.018 124.42 132.001 123.28 134.436 124.692L204.178 164.953C206.626 166.366 208.597 169.787 208.584 172.585Z" fill="white"/>
<path d="M156.66 194.621C157.973 195.379 159.033 197.216 159.029 198.721L158.966 221.311C158.961 222.817 157.893 223.425 156.58 222.667L135.643 210.579C134.33 209.822 133.269 207.983 133.273 206.479L133.338 183.888C133.342 182.383 134.41 181.775 135.723 182.533L156.66 194.621Z" fill="#1E5BFA"/>
<path d="M143.809 205.26V198.38L149.002 204.819L143.809 205.26ZM145.439 195.02C141.753 192.893 138.77 194.594 138.77 198.823C138.77 203.047 141.753 208.198 145.439 210.326C149.12 212.452 152.107 210.748 152.107 206.524C152.107 202.295 149.12 197.147 145.439 195.02Z" fill="white"/>
<path d="M150.923 157.225C151.867 157.77 152.63 159.093 152.627 160.178L152.579 176.939C152.576 178.023 151.807 178.457 150.864 177.912L136.278 169.491C135.334 168.946 134.573 167.629 134.576 166.544L134.625 149.784C134.628 148.699 135.393 148.259 136.336 148.805L150.923 157.225Z" fill="#1E5BFA"/>
<path d="M142.558 164.229L141.187 167.908L135.479 164.612L139.022 159.612C139.52 158.911 140.764 159.629 141.261 160.905L142.558 164.229Z" fill="white"/>
<path d="M144.806 169.997L141.188 167.908L142.558 164.229L144.806 169.997Z" fill="#E6E6E6"/>
<path d="M150.516 173.293L144.807 169.997L142.559 164.229L144.291 159.584C144.809 158.193 146.894 159.397 147.414 161.387L150.516 173.293Z" fill="white"/>
<path d="M142.584 157.692C142.584 158.5 142.014 158.825 141.31 158.419C140.606 158.013 140.035 157.029 140.035 156.22C140.035 155.413 140.606 155.087 141.31 155.494C142.014 155.9 142.584 156.885 142.584 157.692Z" fill="#E6E6E6"/>
<path d="M202.473 219.851C203.451 220.416 204.24 221.783 204.237 222.911L204.22 229.028C204.217 230.152 203.423 230.609 202.444 230.043L166.597 209.347C165.618 208.783 164.829 207.411 164.832 206.287L164.85 200.17C164.854 199.042 165.647 198.59 166.627 199.155L202.473 219.851Z" fill="#1E5BFA"/>
<path d="M201.282 223.595L168.406 204.521C168.031 204.304 167.725 204.535 167.725 205.036C167.725 205.539 168.031 206.122 168.406 206.339L201.282 225.413C201.658 225.631 201.964 225.4 201.964 224.898C201.964 224.396 201.658 223.812 201.282 223.595Z" fill="white"/>
<path d="M202.473 241.243C203.451 241.808 204.24 243.178 204.237 244.303L204.22 250.424C204.217 251.548 203.423 252 202.444 251.436L166.597 230.739C165.618 230.174 164.829 228.808 164.832 227.682L164.85 221.563C164.854 220.438 165.647 219.981 166.627 220.547L202.473 241.243Z" fill="#1E5BFA"/>
<path d="M201.282 244.643L168.406 225.569C168.031 225.352 167.725 225.582 167.725 226.085C167.725 226.587 168.031 227.17 168.406 227.388L201.282 246.461C201.658 246.679 201.964 246.447 201.964 245.946C201.964 245.444 201.658 244.861 201.282 244.643Z" fill="white"/>
<path d="M148.811 262.31C149.755 262.854 150.518 264.177 150.515 265.262L150.469 282.022C150.465 283.107 149.696 283.541 148.752 282.997L134.166 274.574C133.222 274.03 132.462 272.713 132.465 271.629L132.512 254.867C132.515 253.783 133.28 253.344 134.224 253.888L148.811 262.31Z" fill="#1E5BFA"/>
<path d="M148.333 268.003V268.028L141.384 268.61L134.332 259.92C134.332 259.647 134.525 259.537 134.761 259.674L147.903 267.261C148.141 267.398 148.333 267.731 148.333 268.003Z" fill="white"/>
<path d="M141.384 269.163L148.333 268.576V277.037C148.333 277.31 148.141 277.42 147.903 277.283L134.761 269.696C134.525 269.558 134.332 269.226 134.332 268.954V260.467L141.281 269.033L141.384 269.163Z" fill="white"/>
<path d="M201.87 265.558C203.183 266.315 204.24 268.147 204.235 269.656L204.222 274.539C204.217 276.049 203.153 276.659 201.841 275.901L136.941 238.431C135.632 237.675 134.571 235.838 134.576 234.33L134.59 229.446C134.594 227.937 135.662 227.333 136.971 228.089L201.87 265.558Z" fill="#1E5BFA"/>
<path d="M200.159 269.241L137.691 232.956C137.315 232.739 137.01 232.97 137.01 233.472C137.01 233.973 137.315 234.556 137.691 234.774L200.159 271.059C200.536 271.276 200.842 271.045 200.842 270.543C200.842 270.041 200.536 269.458 200.159 269.241Z" fill="white"/>
<path d="M175.441 277.655C176.385 278.2 177.149 279.524 177.146 280.609L177.099 297.369C177.095 298.454 176.327 298.887 175.383 298.344L160.796 289.921C159.853 289.376 159.093 288.06 159.096 286.975L159.143 270.214C159.146 269.13 159.911 268.689 160.855 269.234L175.441 277.655Z" fill="#1E5BFA"/>
<path d="M162.086 276.733C161.662 276.488 161.317 276.684 161.317 277.17V283.81C161.317 284.296 161.662 284.892 162.086 285.137L174.134 292.091C174.557 292.337 174.903 292.14 174.903 291.653V285.015C174.903 284.527 174.557 283.933 174.134 283.688L162.086 276.733ZM174.134 292.722L162.086 285.766C161.36 285.346 160.768 284.326 160.768 283.493V276.854C160.768 276.019 161.36 275.682 162.086 276.102L174.134 283.058C174.861 283.477 175.452 284.497 175.452 285.331V291.97C175.452 292.804 174.861 293.142 174.134 292.722Z" fill="white"/>
<path d="M168.109 281.438C166.645 280.594 165.453 281.273 165.453 282.953C165.453 284.633 166.645 286.686 168.109 287.531C169.572 288.377 170.763 287.697 170.763 286.018C170.763 284.339 169.572 282.284 168.109 281.438ZM168.109 288.162C166.343 287.142 164.904 284.662 164.904 282.635C164.904 280.608 166.343 279.789 168.109 280.809C169.876 281.829 171.313 284.308 171.313 286.335C171.313 288.362 169.876 289.182 168.109 288.162Z" fill="white"/>
<path d="M164.856 277.585L171.365 281.343V280.382C171.365 280.181 171.223 279.938 171.048 279.837L165.171 276.444C164.997 276.343 164.856 276.423 164.856 276.625V277.585ZM171.914 282.29L164.307 277.899V276.307C164.307 275.76 164.695 275.538 165.171 275.813L171.048 279.207C171.526 279.483 171.914 280.152 171.914 280.699V282.29Z" fill="white"/>
<path d="M202.536 293.27C203.48 293.815 204.239 295.134 204.236 296.219L204.19 312.981C204.187 314.065 203.421 314.502 202.477 313.957L187.89 305.535C186.947 304.99 186.183 303.671 186.186 302.586L186.234 285.825C186.237 284.741 187.005 284.303 187.949 284.848L202.536 293.27Z" fill="#1E5BFA"/>
<path d="M195.275 292.906C191.94 290.981 189.238 291.986 189.238 295.15C189.238 297.2 190.376 299.651 192.079 301.647C192 302.182 191.654 303.303 190.128 302.442C190.128 302.442 192.234 304.763 194.229 303.672C194.569 303.924 194.917 304.16 195.275 304.367C198.608 306.291 201.31 305.286 201.31 302.121C201.31 298.956 198.608 294.83 195.275 292.906Z" fill="white"/>
<path d="M201.489 186.425C203.011 187.305 204.241 189.436 204.236 191.189L204.196 205.537C204.191 207.285 202.953 207.991 201.431 207.112L160.031 183.211C158.508 182.331 157.278 180.2 157.283 178.451L157.324 164.104C157.329 162.351 158.568 161.645 160.09 162.524L201.489 186.425Z" fill="#1E5BFA"/>
<path d="M200.447 189.871L161.413 167.242C161.036 167.025 160.73 167.255 160.73 167.757C160.73 168.26 161.036 168.842 161.413 169.06L200.447 191.687C200.824 191.905 201.129 191.675 201.129 191.173C201.129 190.67 200.824 190.087 200.447 189.871Z" fill="white"/>
<path d="M200.447 195.288L161.413 172.66C161.036 172.442 160.73 172.673 160.73 173.175C160.73 173.677 161.036 174.26 161.413 174.477L200.447 197.106C200.824 197.322 201.129 197.092 201.129 196.59C201.129 196.088 200.824 195.506 200.447 195.288Z" fill="white"/>
<path d="M200.447 200.706L161.413 178.078C161.036 177.861 160.73 178.092 160.73 178.593C160.73 179.096 161.036 179.679 161.413 179.896L200.447 202.524C200.824 202.743 201.129 202.511 201.129 202.01C201.129 201.508 200.824 200.924 200.447 200.706Z" fill="white"/>
<path d="M210.656 169.659L210.629 180.393L127.928 132.645L127.955 121.911C127.969 118.966 130.055 117.766 132.62 119.253L206.02 161.626C208.597 163.113 210.671 166.713 210.656 169.659Z" fill="#1E5BFA"/>
<path fill-rule="evenodd" clip-rule="evenodd" d="M81.1804 164.267V162.717L79.0254 161.473V163.023L81.1804 164.267Z" fill="white"/>
<path fill-rule="evenodd" clip-rule="evenodd" d="M85.0417 166.496V164.947L82.8887 163.703V165.253L85.0417 166.496Z" fill="white"/>
<path fill-rule="evenodd" clip-rule="evenodd" d="M89.119 168.825L88.4655 166.923L86.5898 165.84L86.8228 167.524C87.5908 167.967 88.3638 168.418 89.119 168.825Z" fill="white"/>
<path fill-rule="evenodd" clip-rule="evenodd" d="M69.5739 157.565V156.016L67.4199 154.772V156.322L69.5739 157.565Z" fill="white"/>
<path fill-rule="evenodd" clip-rule="evenodd" d="M73.4372 159.796V158.246L71.2832 157.002V158.552L73.4372 159.796Z" fill="white"/>
<path fill-rule="evenodd" clip-rule="evenodd" d="M77.2888 162.02V160.47L75.1348 159.226V160.776L77.2888 162.02Z" fill="white"/>
<path fill-rule="evenodd" clip-rule="evenodd" d="M58.9021 148.359L60.1913 148.159L60.1864 146.004L58.8359 145.72C58.8399 146.604 58.8577 147.483 58.9021 148.359Z" fill="white"/>
<path fill-rule="evenodd" clip-rule="evenodd" d="M61.5681 152.876L62.3796 151.86C61.7527 151.493 61.1377 150.807 60.729 150.027L59.5918 150.62C60.0903 151.565 60.8238 152.403 61.5681 152.876Z" fill="white"/>
<path fill-rule="evenodd" clip-rule="evenodd" d="M65.6557 155.304L65.7317 153.798L63.855 152.714L63.3496 153.969L65.6557 155.304Z" fill="white"/>
<path fill-rule="evenodd" clip-rule="evenodd" d="M58.8359 134.7L60.1864 135.479V133.008L58.8359 132.228V134.7Z" fill="white"/>
<path fill-rule="evenodd" clip-rule="evenodd" d="M58.8359 139.132L60.1864 139.912V137.44L58.8359 136.66V139.132Z" fill="white"/>
<path fill-rule="evenodd" clip-rule="evenodd" d="M58.8359 143.586L60.1864 144.27V141.86L58.8359 141.08V143.586Z" fill="white"/>
<path fill-rule="evenodd" clip-rule="evenodd" d="M58.8359 121.381L60.1864 122.161V119.918L58.8359 118.784V121.381Z" fill="white"/>
<path fill-rule="evenodd" clip-rule="evenodd" d="M58.8359 125.815L60.1864 126.595V124.123L58.8359 123.343V125.815Z" fill="white"/>
<path fill-rule="evenodd" clip-rule="evenodd" d="M58.8359 130.235L60.1864 131.015V128.543L58.8359 127.763V130.235Z" fill="white"/>
<path fill-rule="evenodd" clip-rule="evenodd" d="M64.5547 115.691L64.837 117.403L66.8084 118.542V116.992L64.5547 115.691Z" fill="white"/>
<path fill-rule="evenodd" clip-rule="evenodd" d="M60.5215 113.735L61.5008 115.7C62.0783 115.711 62.7318 116.212 63.3487 116.544L62.7327 114.654C61.9815 114.271 61.2135 113.731 60.5215 113.735Z" fill="white"/>
<path fill-rule="evenodd" clip-rule="evenodd" d="M58.8555 116.673L60.1862 118.184C60.1891 117.826 60.1793 117.462 60.1931 117.112C60.2118 116.764 60.2977 116.46 60.4428 116.227L59.2395 114.379C59.0568 114.654 58.9443 115.01 58.9068 115.413C58.8732 115.82 58.8703 116.247 58.8555 116.673Z" fill="white"/>
<path fill-rule="evenodd" clip-rule="evenodd" d="M76.2617 122.448V123.999L78.4157 125.242V123.693L76.2617 122.448Z" fill="white"/>
<path fill-rule="evenodd" clip-rule="evenodd" d="M72.3965 120.218V121.768L74.5505 123.012V121.462L72.3965 120.218Z" fill="white"/>
<path fill-rule="evenodd" clip-rule="evenodd" d="M68.5449 117.995V119.544L70.6989 120.788V119.238L68.5449 117.995Z" fill="white"/>
<path fill-rule="evenodd" clip-rule="evenodd" d="M88.0293 129.245L87.5703 130.527C88.1962 130.895 88.8211 131.238 89.4459 131.623L90.2929 130.64C89.5516 130.145 88.7964 129.699 88.0293 129.245Z" fill="white"/>
<path fill-rule="evenodd" clip-rule="evenodd" d="M84.002 126.92V128.469L86.0809 129.669L86.1974 128.186L84.002 126.92Z" fill="white"/>
<path fill-rule="evenodd" clip-rule="evenodd" d="M80.1504 124.696V126.245L82.3054 127.489V125.939L80.1504 124.696Z" fill="white"/>
<path fill-rule="evenodd" clip-rule="evenodd" d="M92.8026 142.007L91.4512 141.227V143.7L92.8026 144.479V142.007Z" fill="white"/>
<path fill-rule="evenodd" clip-rule="evenodd" d="M92.8006 137.381L91.4512 137.146V139.298L92.8026 140.027L92.8006 137.381Z" fill="white"/>
<path fill-rule="evenodd" clip-rule="evenodd" d="M91.8987 132.481L90.7871 133.119C91.2392 133.883 91.4752 134.746 91.4505 135.45L92.7526 135.301C92.7476 134.446 92.4466 133.406 91.8987 132.481Z" fill="white"/>
<path fill-rule="evenodd" clip-rule="evenodd" d="M92.8026 155.324L91.4512 154.544V157.016L92.8026 157.796V155.324Z" fill="white"/>
<path fill-rule="evenodd" clip-rule="evenodd" d="M92.8026 150.89L91.4512 150.111V152.582L92.8026 153.362V150.89Z" fill="white"/>
<path fill-rule="evenodd" clip-rule="evenodd" d="M92.8026 146.471L91.4512 145.693V148.164L92.8026 148.943V146.471Z" fill="white"/>
<path fill-rule="evenodd" clip-rule="evenodd" d="M92.5128 168.788L91.2847 166.97C91.0498 167.501 90.5532 167.748 89.9629 167.642L90.9086 169.609C91.6125 169.711 92.2117 169.412 92.5128 168.788Z" fill="white"/>
<path fill-rule="evenodd" clip-rule="evenodd" d="M92.8026 164.317L91.4512 163.231V165.384L92.776 166.933C92.8036 166.084 92.8036 165.199 92.8026 164.317Z" fill="white"/>
<path fill-rule="evenodd" clip-rule="evenodd" d="M92.8026 159.79L91.4512 159.01V161.482L92.8026 162.262V159.79Z" fill="white"/>
<path d="M87.4095 133.947L67.5229 122.466C67.1467 122.249 66.8032 122.228 66.5545 122.373L63.3066 124.259C63.5554 124.115 63.8999 124.135 64.276 124.353L84.1617 135.833C84.9159 136.269 85.523 137.319 85.5211 138.186L85.4549 161.037C85.4539 161.461 85.3039 161.76 85.061 161.901L88.3088 160.014C88.5517 159.873 88.7007 159.574 88.7027 159.15L88.7679 136.3C88.7698 135.432 88.1637 134.382 87.4095 133.947Z" fill="#1E5BFA"/>
<path d="M84.1618 135.833C84.916 136.269 85.5231 137.319 85.5212 138.186L85.455 161.037C85.453 161.893 84.843 162.241 84.0878 161.805L64.2021 150.324C63.4578 149.893 62.8418 148.838 62.8438 147.982L62.9079 125.132C62.9109 124.264 63.5308 123.922 64.2761 124.353L84.1618 135.833Z" fill="#4D7EFF"/>
<path d="M70.7296 143.275L74.55 145.482L72.7128 138.075L70.7296 143.275ZM74.7188 146.112L70.5391 143.699L68.9142 147.992L70.4976 148.907V149.367L67.2676 147.502V147.042L68.2597 147.614L73.6428 134.083L75.3733 135.083L80.6932 154.793L81.6636 155.353V155.814L74.7612 151.829V151.368L76.2607 152.234L74.7188 146.112Z" fill="white"/>
<path d="M87.4095 95.0286L67.5229 83.5477C67.1467 83.3305 66.8032 83.3098 66.5545 83.4549L63.3066 85.3414C63.5554 85.1973 63.8999 85.217 64.276 85.4352L84.1617 96.916C84.9159 97.3514 85.523 98.4008 85.5211 99.2685L85.4549 122.119C85.4539 122.543 85.3039 122.842 85.061 122.983L88.3088 121.096C88.5517 120.956 88.7007 120.656 88.7027 120.232L88.7679 97.382C88.7698 96.5143 88.1637 95.4639 87.4095 95.0286Z" fill="#1E5BFA"/>
<path d="M84.1618 96.916C84.916 97.3513 85.5231 98.4007 85.5212 99.2685L85.455 122.119C85.453 122.975 84.843 123.323 84.0878 122.887L64.2021 111.406C63.4578 110.975 62.8418 109.92 62.8438 109.064L62.9079 86.214C62.9109 85.3463 63.5308 85.0047 64.2761 85.4351L84.1618 96.916Z" fill="#4D7EFF"/>
<path d="M76.3197 106.436L73.8034 97.043L71.288 103.531L76.3197 106.436ZM76.6603 107.698L70.9475 104.399L68.6483 110.325L67.6582 109.753L73.8034 93.9314L79.9397 116.845L78.9604 116.278L76.6603 107.698Z" fill="white"/>
<path d="M87.4095 17.5696L67.5229 6.08873C67.1467 5.87155 66.8032 5.85082 66.5545 5.99594L63.3066 7.88338C63.5554 7.73827 63.8999 7.758 64.276 7.97617L84.1617 19.4571C84.9159 19.8934 85.523 20.9428 85.5211 21.8095L85.4549 44.6596C85.4539 45.0841 85.3039 45.3832 85.061 45.5244L88.3088 43.6369C88.5517 43.4967 88.7007 43.1976 88.7027 42.7731L88.7679 19.923C88.7698 19.0552 88.1637 18.0059 87.4095 17.5696Z" fill="#1E5BFA"/>
<path d="M84.1618 19.4577C84.916 19.894 85.5231 20.9434 85.5212 21.8101L85.455 44.6603C85.453 45.5171 84.843 45.8646 84.0878 45.4293L64.2021 33.9474C63.4578 33.517 62.8418 32.4617 62.8438 31.6059L62.9079 8.75568C62.9109 7.88795 63.5308 7.54638 64.2761 7.97679L84.1618 19.4577Z" fill="#4D7EFF"/>
<path d="M76.6467 30.5345L74.4709 22.882L72.2113 27.9738L76.6467 30.5345ZM77.3426 32.9738L71.4719 29.5829L69.847 33.2493L67.8184 32.0785L74.4927 17.6825L74.62 17.7555L81.2923 39.8574L78.928 38.4922L77.3426 32.9738Z" fill="white"/>
<path d="M87.4095 56.1116L67.5229 44.6307C67.1467 44.4135 66.8032 44.3928 66.5545 44.5379L63.3066 46.4254C63.5554 46.2803 63.8999 46.301 64.276 46.5182L84.1617 57.999C84.9159 58.4344 85.523 59.4848 85.5211 60.3525L85.4549 83.2016C85.4539 83.6261 85.3039 83.9252 85.061 84.0664L88.3088 82.1789C88.5517 82.0387 88.7007 81.7396 88.7027 81.3151L88.7679 58.465C88.7698 57.5973 88.1637 56.5469 87.4095 56.1116Z" fill="#1E5BFA"/>
<path d="M84.1618 57.999C84.916 58.4353 85.5231 59.4847 85.5212 60.3524L85.455 83.2016C85.453 84.0585 84.843 84.406 84.0878 83.9696L64.2021 72.4888C63.4578 72.0584 62.8418 71.0041 62.8438 70.1472L62.9079 47.2971C62.9109 46.4293 63.5308 46.0877 64.2761 46.5182L84.1618 57.999Z" fill="#4D7EFF"/>
<path d="M72.8684 69.4911L75.6522 71.0982L74.2188 59.2659L74.1882 59.2482L72.8684 69.4911ZM72.8782 54.6341L75.4459 56.1168L78.4469 78.6758L76.436 77.5149L75.9207 73.2414L72.6314 71.3421L72.1566 75.044L70.125 73.8712L72.8782 54.6341Z" fill="white"/>
<path d="M373.619 221.141C370.011 219.058 366.737 218.865 364.373 220.238L360.641 222.408C363.004 221.033 366.278 221.226 369.887 223.311C377.066 227.455 382.863 237.496 382.839 245.745C382.827 249.836 381.384 252.715 379.052 254.069L382.785 251.901C385.116 250.546 386.561 247.667 386.572 243.577C386.595 235.327 380.799 225.286 373.619 221.141Z" fill="#1E5BFA"/>
<path d="M369.885 223.311C377.065 227.455 382.862 237.496 382.838 245.746C382.815 253.983 376.981 257.307 369.8 253.162C362.633 249.024 356.825 238.977 356.848 230.741C356.871 222.491 362.716 219.172 369.885 223.311Z" fill="#4C7EFF"/>
<path d="M368.239 241.886V233.459L374.601 241.347L368.239 241.886ZM370.234 229.344C365.72 226.737 362.064 228.822 362.064 234.002C362.064 239.176 365.72 245.486 370.234 248.091C374.745 250.696 378.403 248.61 378.403 243.434C378.403 238.254 374.745 231.947 370.234 229.344Z" fill="white"/>
<path d="M379.835 186.528L367.63 179.481C365.712 178.373 363.974 178.272 362.719 179L358.986 181.169C360.241 180.44 361.978 180.542 363.898 181.65L376.104 188.697C379.903 190.89 382.981 196.221 382.968 200.586L382.927 214.625C382.921 216.793 382.154 218.319 380.917 219.039L384.65 216.869C385.887 216.152 386.654 214.624 386.66 212.457L386.7 198.417C386.712 194.053 383.635 188.721 379.835 186.528Z" fill="#86A7FF"/>
<path d="M376.104 188.697C379.902 190.89 382.98 196.221 382.967 200.585L382.927 214.625C382.915 218.989 379.817 220.754 376.019 218.562L363.812 211.514C360.003 209.315 356.925 203.984 356.938 199.619L356.977 185.58C356.99 181.216 360.088 179.45 363.897 181.649L376.104 188.697Z" fill="#1E5BFA"/>
<path d="M368.239 203.491V195.063L374.601 202.952L368.239 203.491ZM370.234 190.947C365.72 188.342 362.064 190.426 362.064 195.606C362.064 200.78 365.72 207.089 370.234 209.697C374.745 212.3 378.403 210.214 378.403 205.038C378.403 199.858 374.745 193.551 370.234 190.947Z" fill="white"/>
<path d="M385.264 147.194L362.407 133.997C361.974 133.747 361.578 133.724 361.292 133.89L357.561 136.059C357.846 135.892 358.242 135.916 358.675 136.166L381.531 149.362C382.399 149.864 383.096 151.07 383.093 152.067L383.019 178.332C383.017 178.819 382.844 179.162 382.566 179.325L386.297 177.156C386.577 176.994 386.749 176.65 386.75 176.162L386.825 149.898C386.828 148.901 386.131 147.695 385.264 147.194Z" fill="#1E5BFA"/>
<path d="M381.53 149.363C382.398 149.864 383.095 151.071 383.092 152.068L383.018 178.332C383.015 179.317 382.314 179.716 381.445 179.215L358.589 166.018C357.732 165.524 357.024 164.311 357.027 163.326L357.101 137.063C357.104 136.065 357.817 135.672 358.674 136.166L381.53 149.363Z" fill="#4C7EFF"/>
<mask id="mask0_2677_29637" style="mask-type:luminance" maskUnits="userSpaceOnUse" x="362" y="147" width="17" height="22">
<path d="M368.239 160.819V152.39L374.601 160.28L368.239 160.819ZM370.234 148.276C365.72 145.67 362.064 147.753 362.064 152.933C362.064 158.108 365.72 164.417 370.234 167.023C374.745 169.627 378.403 167.541 378.403 162.366C378.403 157.186 374.745 150.88 370.234 148.276Z" fill="white"/>
</mask>
<g mask="url(#mask0_2677_29637)">
<path d="M368.239 160.819V152.39L374.601 160.28L368.239 160.819ZM370.234 148.276C365.72 145.67 362.064 147.753 362.064 152.933C362.064 158.108 365.72 164.417 370.234 167.023C374.745 169.627 378.403 167.541 378.403 162.366C378.403 157.186 374.745 150.88 370.234 148.276Z" fill="white"/>
</g>
<path d="M36.3181 295.431C35.1269 296.119 33.215 296.119 32.0323 295.431L0.869963 277.322C-0.298064 276.643 -0.291548 275.536 0.899281 274.849L32.2652 256.739C33.4405 256.06 35.3679 256.052 36.5359 256.73L67.698 274.84C68.8816 275.527 68.8599 276.643 67.6842 277.322L36.3181 295.431Z" fill="#1E5BFA"/>
<path d="M36.1452 292.657L64.5985 276.229C65.1375 275.919 65.41 275.506 65.409 275.094L65.3932 272.223C65.3942 272.635 65.1217 273.047 64.5847 273.358L36.1298 289.785C35.0496 290.408 33.3152 290.408 32.2424 289.785L3.97294 273.357C3.44845 273.052 3.18468 272.652 3.18359 272.25L3.1986 275.122C3.20018 275.524 3.46316 275.924 3.98755 276.229L32.257 292.657C33.3306 293.281 35.0651 293.281 36.1452 292.657Z" fill="#D6D6D6"/>
<path d="M36.1298 289.786C35.0497 290.409 33.3152 290.409 32.2424 289.786L3.97298 273.357C2.91325 272.742 2.91908 271.737 3.99915 271.113L32.4537 254.686C33.5199 254.07 35.2683 254.062 36.3273 254.677L64.5966 271.106C65.6697 271.73 65.6509 272.742 64.5848 273.358L36.1298 289.786Z" fill="white"/>
<path d="M52.1777 276.046L51.1231 276.655L35.6414 271.702L26.8633 262.167L27.5007 261.799C28.6475 261.137 30.5046 261.141 31.6584 261.806L52.1647 273.645C53.3177 274.312 53.3236 275.385 52.1777 276.046Z" fill="#1E5BFA"/>
<path d="M35.0022 272.07L50.4835 277.023L40.8342 282.594C39.6935 283.252 37.8365 283.248 36.683 282.583L16.1763 270.743C15.023 270.078 15.0168 269.005 16.1575 268.347L26.2178 262.538L35.0022 272.07Z" fill="#1E5BFA"/>
<path d="M254.154 380C252.963 380.688 251.051 380.688 249.868 380L218.706 361.891C217.538 361.212 217.545 360.104 218.735 359.417L250.101 341.307C251.277 340.628 253.204 340.62 254.371 341.299L285.534 359.408C286.717 360.095 286.696 361.212 285.519 361.891L254.154 380Z" fill="#1E5BFA"/>
<path d="M253.981 377.225L282.435 360.797C282.974 360.486 283.245 360.074 283.244 359.663L283.228 356.791C283.23 357.203 282.958 357.614 282.42 357.925L253.966 374.354C252.886 374.977 251.151 374.977 250.078 374.354L221.808 357.925C221.284 357.62 221.021 357.22 221.02 356.819L221.034 359.689C221.036 360.091 221.3 360.492 221.824 360.797L250.093 377.225C251.166 377.849 252.9 377.849 253.981 377.225Z" fill="#D6D6D6"/>
<path d="M253.966 374.354C252.886 374.977 251.151 374.977 250.078 374.354L221.808 357.926C220.749 357.309 220.755 356.304 221.835 355.682L250.289 339.254C251.357 338.638 253.104 338.629 254.164 339.245L282.433 355.674C283.506 356.298 283.486 357.31 282.42 357.926L253.966 374.354Z" fill="white"/>
<path d="M264.259 362.693C268.896 360.016 267.643 354.951 261.459 351.381C255.276 347.811 246.504 347.087 241.866 349.764C238.351 351.794 238.227 355.193 241.063 358.275C237.935 358.887 233.677 359.148 230.602 357.121C230.602 357.121 236.4 362.929 245.418 361.48C251.543 364.69 259.805 365.265 264.259 362.693Z" fill="#1E5BFA"/>
</svg>
