<svg width="377" height="351" viewBox="0 0 377 351" fill="none" xmlns="http://www.w3.org/2000/svg">
<path d="M254.572 220.301L241.638 212.845C237.593 210.514 232.611 210.515 228.568 212.851L156.816 254.434L150.485 250.789L98.5461 281.179L104.542 284.632L19.607 333.668C16.7013 335.347 16.7013 339.54 19.607 341.219L32.6773 348.765C36.7255 351.102 41.7144 351.1 45.7613 348.76L130.646 299.668L140.566 305.381C148.653 310.04 158.611 310.035 166.693 305.368L197.207 287.751C201.084 285.513 201.08 279.915 197.201 277.682L182.898 269.448L194.944 262.457L199.12 260.034L254.577 227.849C257.482 226.17 257.479 221.976 254.572 220.301Z" fill="#1E5BFA"/>
<path d="M75.5517 58.3235L72.707 56.67L72.8737 158.131L75.7188 159.784L75.5517 58.3235Z" fill="#ECECEA"/>
<path d="M75.7185 159.784L72.8734 158.131L40.123 176.931L42.9678 178.584L75.7185 159.784Z" fill="#F2F2F0"/>
<path d="M42.968 178.583L75.7187 159.784L75.5517 58.3231L42.8014 77.1227L42.968 178.583ZM79.0021 161.655L39.7055 184.234L39.5176 75.2511L78.8145 52.6721L79.0021 161.655Z" fill="#1E5BFA"/>
<path d="M78.8135 52.673L75.9685 51.0195L36.6719 73.5985L39.5166 75.252L78.8135 52.673Z" fill="#F2F2F0"/>
<path d="M39.5166 75.2512L36.6719 73.5977L36.8597 182.581L39.7045 184.234L39.5166 75.2512Z" fill="#ECECEA"/>
<path d="M75.7119 89.9234L72.8668 88.2709L42.8008 105.564V108.854L75.7119 89.9234Z" fill="#F2F2F0"/>
<path d="M75.7122 89.9238L42.8008 108.854V112.611L75.7181 93.6983L75.7122 89.9238Z" fill="#1E5BFA"/>
<path d="M42.8008 108.854L75.7122 89.9234H75.7119L42.8008 108.854Z" fill="#1E5BFA"/>
<path d="M39.5185 79.0315L36.6738 77.378L36.8401 178.839L39.6856 180.492L39.5185 79.0315Z" fill="#ECECEA"/>
<path d="M39.6838 180.491L36.8383 178.838L4.08789 197.638L6.93269 199.291L39.6838 180.491Z" fill="#F2F2F0"/>
<path d="M6.93288 199.291L39.684 180.492L39.5169 79.0311L6.76649 97.8307L6.93288 199.291ZM42.9674 182.363L3.67072 204.942L3.48242 95.9591L42.7794 73.3801L42.9674 182.363Z" fill="#1E5BFA"/>
<path d="M42.7804 73.379L39.9357 71.7256L0.638672 94.3055L3.48376 95.958L42.7804 73.379Z" fill="#F2F2F0"/>
<path d="M3.48375 95.9592L0.638672 94.3067L0.826496 203.289L3.67129 204.942L3.48375 95.9592Z" fill="#ECECEA"/>
<path d="M39.6784 110.631L36.8336 108.979L6.76758 126.273V129.562L39.6784 110.631Z" fill="#F2F2F0"/>
<path d="M39.6768 110.631H39.6764L39.6768 110.632L6.76562 129.561V133.318L39.6831 114.405L39.6768 110.631Z" fill="#1E5BFA"/>
<path d="M6.76758 129.562L39.6787 110.632L39.6784 110.631L6.76758 129.562Z" fill="#1E5BFA"/>
<path d="M163.415 7.71995L160.57 6.06747L160.736 107.528L163.582 109.182L163.415 7.71995Z" fill="#ECECEA"/>
<path d="M163.582 109.182L160.737 107.528L127.986 126.328L130.831 127.981L163.582 109.182Z" fill="#F2F2F0"/>
<path d="M130.832 127.981L163.583 109.181L163.416 7.71956L130.665 26.5202L130.832 127.981ZM166.866 111.053L127.569 133.632L127.381 24.6486L166.678 2.06958L166.866 111.053Z" fill="#1E5BFA"/>
<path d="M166.679 2.07042L163.834 0.41696L124.537 22.996L127.381 24.6494L166.679 2.07042Z" fill="#F2F2F0"/>
<path d="M127.379 24.6477L124.535 22.9942L124.723 131.977L127.568 133.631L127.379 24.6477Z" fill="#ECECEA"/>
<path d="M163.575 39.3199L160.73 37.6664L130.664 54.9602V58.25L163.575 39.3199Z" fill="#F2F2F0"/>
<path d="M163.577 39.3193L130.666 58.2494V62.0068L163.584 43.0938L163.577 39.3193Z" fill="#1E5BFA"/>
<path d="M127.379 28.426L124.535 26.7735L124.701 128.235L127.547 129.888L127.379 28.426Z" fill="#ECECEA"/>
<path d="M127.547 129.889L124.701 128.236L91.9512 147.035L94.7962 148.688L127.547 129.889Z" fill="#F2F2F0"/>
<path d="M94.7965 148.689L127.548 129.889L127.38 28.4276L94.6298 47.2272L94.7965 148.689ZM130.831 131.761L91.5343 154.34L91.3457 45.3566L130.643 22.7776L130.831 131.761Z" fill="#1E5BFA"/>
<path d="M130.643 22.7765L127.798 21.123L88.502 43.702L91.346 45.3555L130.643 22.7765Z" fill="#F2F2F0"/>
<path d="M91.346 45.3566L88.502 43.7031L88.6896 152.686L91.5346 154.34L91.346 45.3566Z" fill="#ECECEA"/>
<path d="M127.542 60.0279L124.697 58.3744L94.6309 75.6682V78.958L127.542 60.0279Z" fill="#F2F2F0"/>
<path d="M127.542 60.0273L94.6309 78.9574V82.7148L127.549 63.8019L127.542 60.0273Z" fill="#1E5BFA"/>
<path d="M338.554 116.037L338.488 139.832L335.604 141.508L335.681 114.377L338.554 116.037Z" fill="#ECECEA"/>
<path d="M369.621 157.808L369.612 161.144L335.604 141.509L338.488 139.833L369.621 157.808Z" fill="#F2F2F0"/>
<path d="M335.604 141.508L335.681 114.377L338.555 116.037L369.689 134.012L369.622 157.807L369.612 161.143L335.604 141.508ZM332.107 143.5L373.086 167.159L373.186 132.026L332.207 108.367L332.107 143.5Z" fill="#1E5BFA"/>
<path d="M332.207 108.366L335.091 106.69L376.069 130.349L373.186 132.025L332.207 108.366Z" fill="#F2F2F0"/>
<path d="M376.069 130.35L375.97 165.484L373.086 167.159L373.186 132.026L376.069 130.35Z" fill="#ECECEA"/>
<path d="M348.448 125.072L339.957 131.757L339.938 138.288L368.179 154.593L368.197 148.062L362.815 137.372L357.983 141.124L359.691 146.433L357.211 141.718L348.448 125.072Z" fill="#1E5BFA"/>
<path d="M357.723 128.363C356.394 127.596 355.313 128.212 355.309 129.74C355.304 131.267 356.379 133.128 357.708 133.894C359.037 134.662 360.119 134.046 360.123 132.518C360.127 130.991 359.053 129.13 357.723 128.363Z" fill="#1E5BFA"/>
<path d="M338.554 62.7549L338.488 86.5502L335.604 88.2266L335.681 61.0958L338.554 62.7549Z" fill="#ECECEA"/>
<path d="M369.623 104.528L369.614 107.862L335.605 88.2283L338.49 86.552L369.623 104.528Z" fill="#F2F2F0"/>
<path d="M335.603 88.2282L335.68 61.0974L338.554 62.7566L369.688 80.7324L369.621 104.528L369.611 107.862L335.603 88.2282ZM332.107 90.2208L373.084 113.879L373.184 78.7465L332.206 55.0874L332.107 90.2208Z" fill="#1E5BFA"/>
<path d="M332.207 55.087L335.091 53.4107L376.069 77.0698L373.185 78.7461L332.207 55.087Z" fill="#F2F2F0"/>
<path d="M376.07 77.0702L375.971 112.204L373.086 113.879L373.186 78.7465L376.07 77.0702Z" fill="#ECECEA"/>
<path d="M348.448 71.791L339.957 78.4773L339.938 85.0073L368.178 101.312L368.196 94.7805L362.815 84.092L357.983 87.8438L359.691 93.1518L357.211 88.439L348.448 71.791Z" fill="#1E5BFA"/>
<path d="M357.723 75.0832C356.394 74.3165 355.313 74.9327 355.309 76.4595C355.304 77.9872 356.378 79.8474 357.708 80.6151C359.037 81.3827 360.119 80.7665 360.122 79.2388C360.127 77.712 359.053 75.8509 357.723 75.0832Z" fill="#1E5BFA"/>
<path d="M186.633 279.838L161.756 294.073C154.477 298.237 145.533 298.222 138.267 294.035L119.808 283.396C117.619 282.135 116.269 279.802 116.266 277.276L116.248 264.683L112.398 266.909V277.854C112.398 280.806 113.974 283.533 116.53 285.006L138.448 297.638C145.602 301.762 154.407 301.775 161.575 297.674L186.633 283.336C190.375 281.195 191.893 277.123 191.203 273.398C190.727 275.963 189.212 278.363 186.633 279.838Z" fill="#1E5BFA"/>
<path d="M154.897 300.227C154.932 299.026 154.961 297.834 154.988 296.662C157.306 296.165 159.567 295.315 161.687 294.111C161.71 294.097 161.733 294.085 161.756 294.072L186.633 279.837C189.213 278.362 190.727 275.963 191.203 273.398C191.311 273.98 191.365 274.57 191.365 275.16C191.365 278.348 189.791 281.53 186.633 283.336L161.575 297.673C159.464 298.882 157.21 299.732 154.897 300.227ZM140.736 298.793C140.503 298.69 140.272 298.585 140.041 298.475C140.171 297.119 140.276 295.967 140.354 295.103C140.432 295.138 140.509 295.172 140.586 295.206L140.736 298.793Z" fill="#1E5BFA"/>
<path d="M38.2664 314.742V314.736L38.2129 314.712L38.2664 314.742Z" fill="#F68C9C"/>
<path d="M36.0784 310.143L35.7238 152.365C35.7108 147.887 38.8599 142.426 42.7626 140.173L238.882 27.2314C240.82 26.1132 242.579 25.9998 243.858 26.717L236.475 22.4376V22.4443C235.182 21.6252 233.363 21.6928 231.345 22.8586L35.2245 135.799C31.3216 138.053 28.1726 143.514 28.1856 147.991L28.5406 305.77C28.5469 307.882 29.2612 309.392 30.418 310.171H30.4176L30.4254 310.177C30.5526 310.261 30.6836 310.337 30.8208 310.403L38.1038 314.645C36.8578 313.899 36.0851 312.345 36.0784 310.143Z" fill="#1E5BFA"/>
<path d="M35.123 135.86C35.1234 135.859 35.1238 135.859 35.1242 135.859C35.1238 135.859 35.1234 135.86 35.123 135.86ZM35.1714 135.832C35.173 135.831 35.1741 135.83 35.1755 135.829C35.1745 135.83 35.1726 135.831 35.1714 135.832ZM35.1964 135.817C35.1979 135.817 35.199 135.816 35.2005 135.815C35.1993 135.816 35.1975 135.817 35.1964 135.817Z" fill="white"/>
<path d="M37.3723 146.172L29.8301 141.812C31.0999 139.336 32.9933 137.124 35.121 135.861C35.1214 135.861 35.1217 135.86 35.1221 135.86C35.1295 135.855 35.1374 135.851 35.1448 135.846C35.1459 135.845 35.1471 135.845 35.1482 135.844C35.1553 135.841 35.1623 135.836 35.1694 135.832C35.1705 135.831 35.1724 135.83 35.1735 135.829C35.1802 135.825 35.1873 135.822 35.1943 135.818C35.1955 135.817 35.1973 135.816 35.1984 135.815C35.2066 135.81 35.2148 135.805 35.223 135.801L231.343 22.8598C232.476 22.2055 233.545 21.8979 234.495 21.8979C235.238 21.8979 235.906 22.0865 236.473 22.4455V22.4388L243.857 26.7183C243.85 26.7144 243.842 26.7097 243.835 26.7059C243.832 26.704 243.829 26.703 243.826 26.7011C243.82 26.6982 243.816 26.6954 243.81 26.6925C243.808 26.6916 243.807 26.6906 243.806 26.6906C243.798 26.6868 243.792 26.683 243.785 26.6792C243.784 26.6782 243.783 26.6782 243.781 26.6773C243.271 26.4077 242.686 26.2677 242.046 26.2668C242.045 26.2668 242.044 26.2668 242.043 26.2668C242.039 26.2668 242.036 26.2668 242.033 26.2668C241.107 26.2687 240.067 26.564 238.967 27.184C238.957 27.1888 238.948 27.1945 238.937 27.2002C238.929 27.205 238.92 27.2097 238.911 27.2145C238.908 27.2173 238.904 27.2202 238.899 27.2221C238.893 27.2259 238.887 27.2297 238.881 27.2326L166.791 68.7474L163.518 70.6323L160.679 72.2677L130.758 89.4986L127.484 91.3836L124.644 93.019L94.7333 110.244L91.4607 112.129L88.6214 113.763L78.9273 119.347L75.654 121.232L72.8142 122.867L42.7611 140.174C42.7533 140.179 42.7459 140.183 42.7381 140.188C42.7321 140.191 42.7261 140.194 42.7202 140.198C42.7183 140.199 42.7168 140.2 42.715 140.201C42.7083 140.205 42.702 140.209 42.6957 140.212C42.6945 140.213 42.693 140.214 42.692 140.214C42.6849 140.219 42.6781 140.223 42.6715 140.227C42.6703 140.227 42.67 140.228 42.6692 140.228C42.6621 140.232 42.6547 140.236 42.6477 140.241C42.6473 140.241 42.6469 140.241 42.6469 140.241C42.4955 140.331 42.3459 140.426 42.1971 140.525C42.196 140.526 42.1945 140.527 42.1933 140.528C42.1874 140.531 42.1814 140.536 42.1755 140.54C42.1732 140.541 42.1707 140.543 42.1685 140.545C42.1636 140.548 42.1584 140.551 42.1532 140.554C42.1502 140.557 42.1465 140.559 42.1435 140.562C42.1391 140.565 42.135 140.568 42.1305 140.57C42.1253 140.573 42.1197 140.577 42.1145 140.581C42.1127 140.583 42.1104 140.584 42.1082 140.586C40.2092 141.882 38.5309 143.917 37.3723 146.172Z" fill="#1C51DA"/>
<path d="M38.1038 314.645L30.8208 310.403C30.6836 310.337 30.5526 310.261 30.4253 310.177L30.4175 310.171H30.4179C29.2612 309.392 28.5468 307.882 28.5405 305.77L28.2819 190.8L28.2734 187.041L28.2659 183.759L28.1855 147.991C28.1855 147.983 28.1855 147.976 28.1855 147.967C28.1855 147.961 28.1855 147.955 28.1855 147.948C28.1855 147.946 28.1855 147.945 28.1855 147.944C28.1855 147.937 28.1855 147.929 28.1855 147.921C28.1855 147.921 28.1855 147.921 28.1855 147.92C28.1949 145.952 28.8128 143.797 29.8316 141.81L37.3738 146.171C36.3596 148.143 35.7427 150.284 35.7241 152.245C35.7241 152.246 35.7241 152.248 35.7241 152.249C35.7238 152.256 35.7238 152.262 35.7238 152.268C35.7238 152.27 35.7238 152.273 35.7238 152.275C35.7238 152.281 35.7238 152.286 35.7238 152.292C35.7238 152.295 35.7238 152.298 35.7238 152.301C35.7238 152.306 35.7238 152.31 35.7238 152.316C35.7238 152.32 35.7238 152.324 35.7238 152.327C35.7238 152.331 35.7238 152.335 35.7238 152.338C35.7238 152.339 35.7238 152.34 35.7238 152.34C35.7238 152.348 35.7238 152.356 35.7238 152.365L36.0784 310.143C36.085 312.345 36.8578 313.899 38.1038 314.645Z" fill="#1644BA"/>
<path d="M243.94 26.7666L243.904 26.7447L243.938 26.7686L243.94 26.7666Z" fill="#F68C9C"/>
<path d="M235.798 195.205L43.0357 306.208L42.692 152.345C42.686 150.363 44.5132 147.21 46.2454 146.21L239.009 35.2063L239.353 189.068C239.358 191.05 237.532 194.204 235.798 195.205ZM245.966 31.2698C245.961 29.0667 245.186 27.5142 243.938 26.7684L243.905 26.7446L243.857 26.718C242.578 26.0008 240.819 26.1141 238.881 27.2323L42.7615 140.174C38.8588 142.427 35.7096 147.888 35.7227 152.365L36.0773 310.144C36.084 312.346 36.8567 313.9 38.1027 314.645L38.2129 314.711L38.2664 314.735C39.5392 315.405 41.2618 315.279 43.1626 314.182L239.282 201.24C243.179 198.991 246.334 193.525 246.321 189.048L245.966 31.2698Z" fill="#1E5BFA"/>
<path d="M239.009 35.2068L234.019 38.0841L234.351 186.633C234.357 188.615 232.531 191.769 230.798 192.77L43.0234 300.895L43.0357 306.208L235.798 195.206C237.532 194.205 239.359 191.05 239.353 189.069L239.009 35.2068Z" fill="#1E5BFA"/>
<path d="M43.0357 306.208L43.0234 300.895L58.6192 291.914L58.6311 297.227L43.0357 306.208ZM234.059 55.9675L234.019 38.0841L239.009 35.2068L239.049 53.0949L234.059 55.9675Z" fill="#1644BA"/>
<path d="M234.353 186.634L234.02 38.0844L46.2468 146.21C44.5146 147.211 42.6874 150.364 42.6934 152.346L43.0248 300.896L230.799 192.77C232.533 191.769 234.359 188.615 234.353 186.634Z" fill="white"/>
<path d="M65.794 318.117L65.4588 168.989C65.4469 164.757 68.4233 159.595 72.1123 157.465L257.48 50.7154C259.311 49.6591 260.973 49.5515 262.184 50.2297L255.204 46.1846L255.205 46.1913C253.983 45.416 252.263 45.4807 250.356 46.5827L64.9874 153.332C61.2985 155.461 58.3224 160.624 58.334 164.855L58.6692 313.984C58.6755 315.98 59.3508 317.408 60.4439 318.143L60.4435 318.144L60.4517 318.149C60.5711 318.229 60.6951 318.3 60.8249 318.364L67.7082 322.373C66.5307 321.667 65.8003 320.199 65.794 318.117Z" fill="#1E5BFA"/>
<path d="M64.9141 153.375C64.9147 153.375 64.9155 153.374 64.9163 153.374C64.9155 153.374 64.9151 153.375 64.9141 153.375ZM64.9605 153.348C64.9617 153.347 64.9627 153.346 64.9643 153.345C64.9631 153.346 64.9617 153.347 64.9605 153.348Z" fill="#819399"/>
<path d="M67.0192 163.135L59.8906 159.014C61.0909 156.674 62.8812 154.583 64.8922 153.388C64.8996 153.384 64.907 153.38 64.9145 153.375C64.9156 153.375 64.916 153.374 64.9167 153.374C64.9238 153.369 64.9308 153.365 64.9376 153.362C64.9386 153.361 64.9398 153.361 64.9409 153.36C64.9476 153.356 64.9544 153.352 64.961 153.348C64.9622 153.347 64.9636 153.346 64.9647 153.345C64.9726 153.342 64.9804 153.337 64.9882 153.332L250.357 46.5833C251.426 45.9651 252.438 45.6737 253.335 45.6737C254.037 45.6737 254.67 45.8518 255.206 46.1918L255.205 46.1852L262.184 50.2302C262.175 50.2255 262.166 50.2207 262.158 50.216C262.142 50.2074 262.126 50.1988 262.11 50.1902C261.627 49.9359 261.076 49.8035 260.472 49.8035C260.471 49.8035 260.471 49.8035 260.47 49.8035C260.468 49.8035 260.466 49.8035 260.464 49.8035C259.612 49.8045 258.656 50.0683 257.645 50.6246C257.644 50.6246 257.643 50.6245 257.643 50.6255C257.604 50.6465 257.564 50.6693 257.524 50.6913C257.519 50.6941 257.515 50.6979 257.509 50.7007C257.5 50.7055 257.491 50.7112 257.481 50.716L246.026 57.3137L239.068 61.3197L234.079 64.1933L72.113 157.466C72.1056 157.47 72.0978 157.474 72.0903 157.479C72.0865 157.481 72.0828 157.483 72.0791 157.486C72.0754 157.488 72.0717 157.49 72.068 157.491C72.0639 157.494 72.0594 157.497 72.0553 157.499C72.052 157.501 72.049 157.503 72.0457 157.505C72.0412 157.508 72.0363 157.51 72.0319 157.513C72.0293 157.514 72.026 157.516 72.0233 157.518C72.0184 157.521 72.0141 157.524 72.0092 157.527C72.0065 157.528 72.0036 157.53 72.001 157.531C71.9962 157.534 71.9913 157.537 71.9865 157.54C71.9839 157.542 71.9813 157.543 71.9787 157.545C71.9739 157.548 71.969 157.55 71.9642 157.553C71.9616 157.555 71.9589 157.556 71.9567 157.558C71.9515 157.561 71.9467 157.564 71.9415 157.568C71.9392 157.569 71.9374 157.57 71.9351 157.571C71.93 157.574 71.9247 157.577 71.9195 157.581C71.9169 157.582 71.9147 157.584 71.9121 157.585C71.9039 157.59 71.8954 157.595 71.8872 157.6C71.8835 157.603 71.8794 157.606 71.8753 157.608C71.8719 157.61 71.8689 157.611 71.8656 157.613C71.8611 157.616 71.857 157.619 71.8525 157.622C71.8496 157.624 71.8466 157.626 71.8437 157.628C71.8388 157.63 71.8336 157.633 71.8291 157.636C71.8265 157.638 71.8242 157.639 71.8217 157.641C71.8164 157.645 71.8113 157.648 71.8057 157.651C71.8035 157.652 71.8012 157.653 71.7994 157.655C71.7934 157.659 71.7879 157.663 71.7819 157.666C71.7803 157.667 71.7785 157.669 71.7766 157.67C71.7699 157.673 71.7633 157.678 71.7565 157.682C71.7558 157.683 71.7555 157.683 71.7551 157.683C69.8539 158.896 68.1674 160.902 67.0192 163.135Z" fill="#1C51DA"/>
<path d="M67.7082 322.373L60.8249 318.364C60.695 318.3 60.5711 318.229 60.4517 318.149L60.4435 318.144L60.4439 318.143C59.3507 317.408 58.6754 315.98 58.6692 313.984L58.6197 291.913L58.334 164.855C58.334 164.848 58.334 164.839 58.334 164.832C58.334 164.829 58.334 164.826 58.334 164.822C58.334 164.818 58.334 164.814 58.334 164.809C58.334 164.805 58.334 164.8 58.334 164.796C58.334 164.793 58.334 164.79 58.334 164.786C58.334 164.781 58.3343 164.776 58.3343 164.772C58.3343 164.769 58.3343 164.767 58.3343 164.764C58.3343 164.758 58.3343 164.753 58.3343 164.748C58.3343 164.746 58.3343 164.744 58.3343 164.742C58.3343 164.735 58.3347 164.73 58.3347 164.723V164.722C58.3567 162.878 58.9381 160.868 59.8898 159.014L67.0184 163.134C66.0477 165.022 65.4625 167.072 65.4587 168.944C65.4587 168.945 65.4587 168.946 65.4587 168.947C65.4587 168.953 65.4587 168.959 65.4587 168.964C65.4587 168.964 65.4587 168.965 65.4587 168.966C65.4587 168.974 65.4587 168.981 65.4587 168.989L65.794 318.117C65.8003 320.199 66.5306 321.667 67.7082 322.373Z" fill="#275BE1"/>
<path d="M65.4785 177.635L65.7941 318.118C65.8004 320.199 66.5307 321.668 67.7082 322.374L67.8124 322.435L67.8634 322.458C69.0662 323.091 70.6947 322.971 72.4906 321.935L257.86 215.185C261.542 213.059 264.524 207.893 264.512 203.661L264.195 62.9437L65.4785 177.635Z" fill="#1E5BFA"/>
<path d="M69.5064 322.845C68.9011 322.845 68.3474 322.712 67.8634 322.458L67.8124 322.434L67.7082 322.373C66.5307 321.667 65.8004 320.199 65.7941 318.118L65.4785 177.635L264.195 62.9435L264.287 103.691L252.839 110.3L252.808 99.0702C252.806 98.4197 252.551 97.8996 252.107 97.6444C251.914 97.5329 251.695 97.4777 251.464 97.4777C251.161 97.4777 250.836 97.572 250.516 97.7559L211.449 120.311C210.43 120.9 209.634 122.282 209.637 123.458L209.917 222.36C209.919 223.011 210.174 223.531 210.617 223.785C210.81 223.898 211.03 223.953 211.263 223.953C211.564 223.953 211.889 223.859 212.208 223.674L240.346 207.429L240.384 220.747C240.386 221.479 240.752 221.901 241.285 221.901C241.503 221.901 241.75 221.83 242.011 221.678L262.896 209.62C261.677 211.951 259.873 214.022 257.86 215.184L154.04 274.971L130.147 276.389L158.859 259.811C160.307 258.976 161.475 256.949 161.471 255.289L161.39 226.858L163.988 225.358L164.069 253.867C164.073 255.043 164.664 255.724 165.523 255.724C165.876 255.724 166.276 255.609 166.698 255.365L203.714 233.994C205.163 233.157 206.331 231.132 206.326 229.47L206.238 198.614C206.235 197.435 205.645 196.755 204.787 196.755C204.432 196.755 204.033 196.872 203.61 197.115L169.991 216.526C169.999 216.386 170.003 216.246 170.003 216.107C170.003 216.102 170.003 216.095 170.003 216.089L169.913 184.075L200.044 166.68C202.453 165.288 204.403 161.923 204.403 159.151C204.403 159.146 204.403 159.14 204.403 159.134C204.396 157.169 203.41 156.035 201.976 156.035C201.386 156.035 200.72 156.227 200.015 156.635L169.884 174.031L169.873 170.002L200.044 152.582C202.453 151.191 204.403 147.826 204.403 145.054C204.403 145.048 204.403 145.043 204.403 145.038C204.396 143.072 203.41 141.938 201.976 141.938C201.386 141.938 200.72 142.13 200.015 142.537L169.844 159.956L169.834 156.78C169.834 156.49 169.814 156.216 169.778 155.958L200.044 138.485C202.453 137.093 204.403 133.727 204.403 130.957C204.403 130.951 204.403 130.945 204.403 130.939C204.396 128.975 203.41 127.84 201.977 127.84C201.386 127.84 200.72 128.033 200.015 128.439L163.597 149.466C161.186 150.857 159.242 154.224 159.242 156.997C159.242 157.003 159.242 157.007 159.242 157.013C159.242 157.042 159.243 157.07 159.243 157.099L154.009 160.121L153.997 155.725C153.992 154.045 153.397 152.779 152.32 152.159C151.864 151.898 151.353 151.768 150.803 151.768C150.044 151.768 149.213 152.016 148.359 152.508L78.8387 192.646C75.9965 194.288 73.6916 198.28 73.7002 201.547L73.865 259.499C73.8698 261.177 74.4659 262.444 75.5433 263.063C75.9987 263.326 76.5102 263.456 77.0602 263.456C77.8196 263.456 78.6501 263.207 79.5026 262.715L88.7671 257.366L88.7824 262.689L76.3117 269.889C74.8695 270.721 73.705 272.733 73.7002 274.392C73.7002 274.399 73.7002 274.405 73.7002 274.411L73.7877 305.269C73.7914 306.445 74.3822 307.125 75.2408 307.125C75.5947 307.125 75.9939 307.01 76.4161 306.766L113.433 285.395C114.881 284.56 116.049 282.533 116.045 280.872L115.965 253.084L119.133 251.254L119.214 279.685C119.217 280.862 119.808 281.542 120.667 281.542C121.02 281.542 121.42 281.427 121.842 281.183L125.374 279.144C125.144 282.392 124.801 286.775 124.442 292.016L72.4906 321.934C71.4177 322.553 70.4049 322.845 69.5064 322.845ZM72.4713 182.507L72.4939 182.626L72.5546 182.703L74.0496 183.71C74.0756 183.729 74.1057 183.737 74.1384 183.737C74.1823 183.737 74.2311 183.722 74.2802 183.693C74.3557 183.65 74.4306 183.574 74.4904 183.477C74.557 183.369 74.5912 183.252 74.5916 183.155C74.592 183.068 74.5641 182.994 74.5075 182.957L73.4967 182.275L76.8853 180.319C77.0576 180.22 77.1974 179.976 77.1971 179.778C77.1967 179.638 77.126 179.556 77.0233 179.556C76.9809 179.556 76.9333 179.57 76.8828 179.599L73.4944 181.555L74.4982 179.71C74.5536 179.609 74.5809 179.507 74.5809 179.421C74.5809 179.322 74.5462 179.244 74.4785 179.212L74.2672 179.24C74.1827 179.289 74.099 179.376 74.0377 179.488L72.5495 182.227L72.4896 182.375L72.4713 182.507ZM82.5228 178.572C82.5228 178.67 82.5571 178.748 82.6238 178.781L82.8362 178.753C82.9209 178.704 83.0048 178.617 83.0667 178.503L84.5554 175.765L84.6125 175.617L84.6316 175.486L84.6097 175.366L84.5497 175.289L83.0543 174.282L82.8228 174.3C82.7476 174.344 82.6724 174.418 82.6123 174.516C82.5466 174.624 82.5123 174.739 82.5123 174.836C82.5114 174.925 82.539 174.997 82.5943 175.035L83.6077 175.716L80.2188 177.673C80.0464 177.773 79.9064 178.016 79.9064 178.214C79.9074 178.355 79.9779 178.436 80.0807 178.436C80.1236 178.436 80.1712 178.422 80.2207 178.393L83.6096 176.437L82.6038 178.283C82.5495 178.383 82.5228 178.485 82.5228 178.572ZM87.1508 174.017C87.1508 174.022 87.1508 174.027 87.1508 174.032C87.1537 174.9 87.5918 175.404 88.228 175.404C88.489 175.404 88.7843 175.319 89.0957 175.139C89.8063 174.729 90.4558 173.907 90.7959 172.992C90.8216 172.922 90.834 172.856 90.833 172.798C90.833 172.671 90.773 172.582 90.6692 172.577L90.5196 172.619C90.4092 172.684 90.3015 172.813 90.2453 172.966C90.0158 173.584 89.5739 174.142 89.0938 174.419C88.8824 174.542 88.6814 174.599 88.5042 174.599C88.0737 174.599 87.7775 174.259 87.7756 173.671C87.7756 173.667 87.7756 173.664 87.7756 173.66C87.7775 172.831 88.3633 171.822 89.0843 171.406C89.2834 171.29 89.4738 171.233 89.6481 171.227C89.511 171.343 89.411 171.542 89.41 171.709C89.41 171.715 89.41 171.722 89.411 171.729C89.4167 171.861 89.4853 171.935 89.5824 171.935C89.6253 171.935 89.6729 171.921 89.7234 171.892L89.7367 171.884L90.4196 171.455C90.5825 171.354 90.7111 171.131 90.7187 170.94L90.7444 170.138C90.7444 170.133 90.7444 170.128 90.7444 170.125C90.7454 169.985 90.6758 169.902 90.573 169.902C90.5339 169.902 90.4911 169.913 90.4453 169.938L90.4311 169.946C90.272 170.037 90.1425 170.247 90.1234 170.434C90.0663 170.426 90.0082 170.421 89.9482 170.421C89.6824 170.421 89.3872 170.509 89.0824 170.685C88.0175 171.3 87.1537 172.792 87.1508 174.017ZM94.5038 169.515C94.5038 169.519 94.5038 169.524 94.5038 169.527C94.5085 170.928 95.2124 171.734 96.2325 171.734C96.6525 171.734 97.1278 171.597 97.6288 171.308L256.527 79.4524C258.241 78.4638 259.631 76.0627 259.631 74.0872C259.631 74.0825 259.631 74.0786 259.631 74.0748C259.627 72.6747 258.923 71.8671 257.903 71.8671C257.482 71.8671 257.008 72.0051 256.507 72.2947L97.6088 164.15C95.8944 165.138 94.5038 167.54 94.5038 169.515ZM77.062 262.518C76.674 262.518 76.3195 262.43 76.0102 262.253C75.2341 261.805 74.8044 260.826 74.8007 259.497L74.6359 201.544C74.6281 198.576 76.7231 194.949 79.3064 193.457L148.827 153.318C149.534 152.911 150.206 152.704 150.801 152.704C151.189 152.704 151.544 152.792 151.853 152.971C152.628 153.417 153.058 154.396 153.062 155.728L153.076 160.66L93.6332 194.979C90.8559 196.582 88.6138 200.459 88.6147 203.654C88.6147 203.66 88.6147 203.666 88.6147 203.672L88.7643 256.288L79.0349 261.905C78.3282 262.312 77.6558 262.518 77.062 262.518ZM211.265 223.018C211.196 223.018 211.134 223.003 211.083 222.975C210.938 222.891 210.853 222.666 210.853 222.358L210.572 123.455C210.569 122.612 211.186 121.544 211.917 121.122L250.984 98.5664C251.159 98.4654 251.327 98.413 251.461 98.413C251.53 98.413 251.59 98.4264 251.639 98.4549C251.787 98.5397 251.871 98.7645 251.872 99.0731L251.906 110.839L241.714 116.723C240.818 117.24 240.093 118.495 240.096 119.527L240.155 140.194L240.123 140.077V135.154L237.682 138.696C237.026 139.65 236.763 140.82 236.952 141.962L237.975 148.16L240.233 167.871L240.343 206.349L211.741 222.863C211.565 222.965 211.401 223.018 211.265 223.018Z" fill="#EEF3FF"/>
<path d="M256.507 72.2946C258.224 71.3021 259.626 72.0964 259.631 74.0747C259.637 76.053 258.245 78.4617 256.527 79.4523L97.6289 171.307C95.9117 172.299 94.5096 171.506 94.5039 169.527C94.4982 167.548 95.8917 165.14 97.6089 164.15L256.507 72.2946Z" fill="#1E5BFA"/>
<path d="M96.2326 171.735C95.2125 171.735 94.5087 170.929 94.5039 169.528C94.5039 169.525 94.5039 169.52 94.5039 169.516C94.5039 167.541 95.8945 165.14 97.6089 164.151L256.507 72.2957C257.008 72.0062 257.483 71.8681 257.904 71.8681C258.924 71.8681 259.627 72.6758 259.631 74.0759C259.631 74.0797 259.631 74.0835 259.631 74.0883C259.631 76.0637 258.241 78.4648 256.527 79.4535L97.6289 171.309C97.1279 171.598 96.6527 171.735 96.2326 171.735Z" fill="#1E5BFA"/>
<path d="M74.2667 179.24L74.4779 179.213C74.6055 179.273 74.6156 179.495 74.4976 179.711L73.4938 181.556L76.8822 179.599C77.0552 179.499 77.1961 179.58 77.1965 179.778C77.1969 179.976 77.0571 180.22 76.8848 180.319L73.4961 182.276L74.507 182.958C74.6256 183.036 74.6171 183.27 74.4898 183.478C74.43 183.575 74.3551 183.65 74.2796 183.694C74.1937 183.743 74.1088 183.753 74.049 183.71L72.554 182.703L72.4934 182.626L72.4707 182.507L72.489 182.376L72.5489 182.227L74.0371 179.489C74.0984 179.376 74.1822 179.29 74.2667 179.24Z" fill="#1E5BFA"/>
<path d="M82.8227 174.3L83.0541 174.282L84.5495 175.289L84.6095 175.366L84.6314 175.486L84.6123 175.617L84.5552 175.765L83.0665 178.503C83.0046 178.616 82.9208 178.704 82.836 178.753L82.6236 178.78C82.4979 178.719 82.4874 178.496 82.6036 178.283L83.6094 176.436L80.2206 178.393C80.0482 178.493 79.9072 178.412 79.9062 178.214C79.9062 178.015 80.0463 177.773 80.2186 177.673L83.6075 175.716L82.5941 175.035C82.4769 174.956 82.4864 174.722 82.6122 174.516C82.6722 174.418 82.7474 174.344 82.8227 174.3Z" fill="#1E5BFA"/>
<path d="M89.082 170.686C89.4563 170.47 89.8144 170.387 90.123 170.435C90.1421 170.247 90.2716 170.038 90.4307 169.947L90.4449 169.939C90.6173 169.847 90.7507 169.937 90.744 170.139L90.7183 170.941C90.7107 171.132 90.5821 171.355 90.4192 171.456L89.7363 171.885L89.723 171.893C89.5563 171.99 89.4192 171.919 89.4106 171.73C89.402 171.559 89.5049 171.349 89.6477 171.228C89.4734 171.234 89.283 171.291 89.0839 171.407C88.36 171.825 87.7724 172.839 87.7752 173.672C87.7771 174.504 88.3686 174.838 89.0934 174.42C89.5735 174.143 90.0154 173.585 90.2449 172.967C90.3011 172.814 90.4088 172.685 90.5192 172.62L90.6688 172.578C90.8202 172.585 90.8774 172.771 90.7955 172.992C90.4554 173.908 89.8059 174.73 89.0953 175.14C88.0257 175.757 87.1542 175.259 87.1504 174.033C87.1466 172.805 88.0124 171.304 89.082 170.686Z" fill="#1E5BFA"/>
<path d="M74.1379 183.737C74.1051 183.737 74.075 183.729 74.049 183.71L72.554 182.703L72.4934 182.626L72.4707 182.507L72.489 182.375L72.5489 182.227L74.0371 179.488C74.0984 179.376 74.1822 179.289 74.2667 179.24L74.4779 179.212C74.5456 179.245 74.5803 179.322 74.5803 179.421C74.5803 179.507 74.5531 179.609 74.4976 179.71L73.4938 181.555L76.8822 179.599C76.9328 179.57 76.9804 179.556 77.0228 179.556C77.1254 179.556 77.1961 179.638 77.1965 179.778C77.1969 179.976 77.0571 180.22 76.8848 180.319L73.4961 182.275L74.507 182.957C74.5635 182.994 74.5914 183.068 74.5911 183.155C74.5907 183.252 74.5565 183.369 74.4898 183.477C74.43 183.574 74.3551 183.65 74.2796 183.693C74.2306 183.722 74.1818 183.737 74.1379 183.737Z" fill="#1E5BFA"/>
<path d="M82.6236 178.78C82.5569 178.748 82.5226 178.67 82.5226 178.572C82.5226 178.485 82.5493 178.383 82.6036 178.283L83.6094 176.436L80.2206 178.393C80.171 178.422 80.1234 178.435 80.0805 178.435C79.9777 178.435 79.9072 178.355 79.9062 178.214C79.9062 178.015 80.0463 177.773 80.2186 177.673L83.6075 175.716L82.5941 175.035C82.5388 174.997 82.5112 174.925 82.5122 174.836C82.5122 174.739 82.5465 174.624 82.6122 174.516C82.6722 174.418 82.7474 174.344 82.8227 174.3L83.0541 174.282L84.5495 175.289L84.6095 175.366L84.6314 175.486L84.6123 175.617L84.5552 175.765L83.0665 178.503C83.0046 178.616 82.9208 178.704 82.836 178.753L82.6236 178.78Z" fill="#1E5BFA"/>
<path d="M88.2276 175.405C87.5914 175.405 87.1532 174.901 87.1504 174.033C87.1504 174.028 87.1504 174.023 87.1504 174.018C87.1532 172.794 88.0171 171.301 89.082 170.686C89.3868 170.511 89.682 170.422 89.9478 170.422C90.0078 170.422 90.0659 170.427 90.123 170.435C90.1421 170.248 90.2716 170.038 90.4307 169.947L90.4449 169.939C90.4907 169.914 90.5335 169.903 90.5726 169.903C90.6754 169.903 90.745 169.986 90.744 170.126C90.744 170.13 90.744 170.134 90.744 170.139L90.7183 170.941C90.7107 171.133 90.5821 171.355 90.4192 171.456L89.7363 171.885L89.723 171.894C89.6725 171.922 89.6249 171.936 89.582 171.936C89.4849 171.936 89.4163 171.862 89.4106 171.73C89.4096 171.723 89.4096 171.716 89.4096 171.71C89.4106 171.543 89.5106 171.344 89.6477 171.228C89.4734 171.234 89.2829 171.292 89.0839 171.407C88.3629 171.823 87.7771 172.832 87.7752 173.661C87.7752 173.665 87.7752 173.668 87.7752 173.672C87.7771 174.26 88.0733 174.6 88.5038 174.6C88.681 174.6 88.882 174.543 89.0934 174.42C89.5734 174.143 90.0154 173.585 90.2449 172.967C90.3011 172.815 90.4087 172.685 90.5192 172.62L90.6688 172.578C90.7726 172.583 90.8326 172.672 90.8326 172.799C90.8335 172.857 90.8212 172.923 90.7954 172.993C90.4554 173.908 89.8058 174.73 89.0953 175.14C88.7839 175.321 88.4886 175.405 88.2276 175.405Z" fill="#1E5BFA"/>
<path d="M77.0612 263.458C76.5112 263.458 75.9997 263.328 75.5443 263.065C74.4669 262.446 73.8708 261.179 73.866 259.501L73.7012 201.549C73.6926 198.282 75.9975 194.289 78.8397 192.648L148.36 152.51C149.214 152.018 150.045 151.77 150.804 151.77C151.354 151.77 151.865 151.9 152.321 152.161C153.398 152.781 153.993 154.047 153.998 155.727L154.01 160.123L153.077 160.662L153.063 155.73C153.059 154.398 152.629 153.419 151.854 152.973C151.545 152.794 151.19 152.706 150.802 152.706C150.207 152.706 149.535 152.913 148.828 153.32L79.3074 193.459C76.7241 194.95 74.6291 198.578 74.6369 201.546L74.8017 259.499C74.8054 260.828 75.2351 261.807 76.0112 262.255C76.3204 262.432 76.675 262.52 77.063 262.52C77.6567 262.52 78.3292 262.314 79.0359 261.906L88.7652 256.29L88.7681 257.368L79.5036 262.717C78.6511 263.209 77.8206 263.458 77.0612 263.458Z" fill="#1E5BFA"/>
<path d="M250.984 98.5666L211.917 121.122C211.186 121.544 210.569 122.612 210.572 123.455L210.853 222.359C210.853 222.666 210.938 222.891 211.084 222.975C211.232 223.06 211.475 223.018 211.741 222.863L250.807 200.308C251.538 199.886 252.154 198.818 252.152 197.975L251.872 99.0733C251.872 98.7647 251.787 98.5399 251.639 98.4552C251.496 98.3714 251.25 98.4133 250.984 98.5666ZM211.263 223.953C211.03 223.953 210.81 223.898 210.617 223.785C210.174 223.531 209.919 223.011 209.917 222.361L209.637 123.458C209.634 122.282 210.43 120.9 211.449 120.311L250.516 97.7561C251.081 97.4303 251.664 97.3884 252.107 97.6446C252.551 97.8999 252.806 98.4199 252.808 99.0705L253.088 197.972C253.091 199.147 252.295 200.529 251.275 201.119L212.208 223.674C211.889 223.86 211.564 223.953 211.263 223.953Z" fill="#1E5BFA"/>
<path d="M113.33 248.518C114.778 247.682 115.953 248.351 115.958 250.015L116.045 280.872C116.05 282.533 114.882 284.56 113.434 285.395L76.4171 306.766C74.9695 307.603 73.7938 306.93 73.7886 305.269L73.7012 274.411C73.6967 272.748 74.8649 270.724 76.3126 269.889L113.33 248.518Z" fill="#1E5BFA"/>
<path d="M75.2418 307.125C74.3831 307.125 73.7923 306.445 73.7886 305.269L73.7012 274.411C73.7012 274.404 73.7012 274.399 73.7012 274.392C73.7059 272.733 74.8705 270.721 76.3126 269.889L88.7833 262.689L88.7843 262.981C88.79 265.243 89.9253 266.551 91.5769 266.551C92.256 266.551 93.0237 266.329 93.8351 265.861L108.951 257.134L94.8724 277.267L76.2032 272.201L76.048 272.231C75.9676 272.277 75.8877 272.367 75.836 272.475C75.7515 272.66 75.7753 272.834 75.8936 272.866L94.4323 277.895L75.983 304.281C75.8653 304.446 75.8419 304.65 75.9272 304.733L76.1403 304.732L76.2955 304.587L94.8743 278.015L113.543 283.081L113.699 283.049C113.78 283.002 113.857 282.916 113.909 282.805C113.996 282.622 113.969 282.448 113.853 282.417L95.3143 277.386L109.832 256.625L115.966 253.083L116.045 280.871C116.05 282.533 114.882 284.559 113.434 285.395L76.4171 306.766C75.9949 307.01 75.5956 307.125 75.2418 307.125Z" fill="#1E5BFA"/>
<path d="M113.606 250.547L113.816 250.548C113.905 250.632 113.879 250.834 113.764 251.001L95.3137 277.386L113.852 282.417C113.969 282.448 113.995 282.622 113.909 282.805C113.856 282.916 113.779 283.002 113.698 283.049L113.543 283.081L94.8737 278.015L76.2949 304.587L76.1397 304.732L75.9266 304.733C75.8413 304.65 75.8648 304.446 75.9824 304.281L94.4318 277.895L75.8931 272.866C75.7748 272.834 75.751 272.66 75.8354 272.476C75.8872 272.367 75.9671 272.277 76.0475 272.231L76.2026 272.201L94.8718 277.267L113.451 250.697L113.606 250.547Z" fill="white"/>
<path d="M158.755 222.934C160.203 222.098 161.379 222.768 161.384 224.432L161.471 255.289C161.475 256.949 160.307 258.976 158.86 259.811L121.842 281.183C120.395 282.02 119.219 281.347 119.215 279.685L119.127 248.828C119.122 247.165 120.291 245.141 121.739 244.306L158.755 222.934Z" fill="#1E5BFA"/>
<path d="M120.666 281.544C119.807 281.544 119.217 280.864 119.214 279.687L119.133 251.256L124.511 248.151L139.857 252.314L121.407 278.699C121.289 278.866 121.267 279.069 121.352 279.152L121.564 279.151L121.72 279.006L140.299 252.434L158.967 257.499L159.124 257.467C159.205 257.42 159.282 257.335 159.333 257.223C159.42 257.041 159.393 256.866 159.278 256.835L140.739 251.805L156.011 229.964L161.389 226.859L161.47 255.29C161.474 256.951 160.307 258.977 158.859 259.813L130.146 276.39L125.539 276.664C125.494 277.395 125.438 278.225 125.373 279.146L121.842 281.185C121.42 281.429 121.02 281.544 120.666 281.544ZM140.296 251.686L125.393 247.641L155.129 230.474L140.296 251.686Z" fill="#1E5BFA"/>
<path d="M159.032 224.964L159.242 224.965C159.33 225.05 159.305 225.252 159.19 225.419L140.74 251.804L159.278 256.834C159.394 256.865 159.42 257.04 159.334 257.222C159.282 257.334 159.205 257.419 159.124 257.466L158.968 257.498L140.3 252.433L121.72 279.005L121.565 279.15L121.353 279.151C121.268 279.068 121.29 278.865 121.408 278.698L139.858 252.313L121.319 247.284C121.201 247.252 121.176 247.078 121.261 246.893C121.313 246.784 121.393 246.695 121.474 246.649L121.629 246.619L140.297 251.685L158.876 225.114L159.032 224.964Z" fill="white"/>
<path d="M203.611 197.115C205.059 196.28 206.235 196.949 206.239 198.613L206.327 229.47C206.332 231.131 205.164 233.157 203.715 233.993L166.699 255.365C165.251 256.2 164.075 255.528 164.07 253.866L163.982 223.01C163.978 221.346 165.146 219.323 166.594 218.486L203.611 197.115Z" fill="#1E5BFA"/>
<path d="M165.523 255.724C164.664 255.724 164.073 255.043 164.069 253.866L163.988 225.357L164.984 224.782C166.097 224.139 167.124 223.13 167.955 221.948L184.713 226.494L166.264 252.88C166.146 253.045 166.123 253.248 166.208 253.332L166.421 253.331L166.576 253.184L185.155 226.614L203.824 231.68L203.979 231.646C204.059 231.6 204.137 231.514 204.19 231.404C204.276 231.221 204.25 231.045 204.133 231.015L185.595 225.985L204.045 199.599C204.16 199.432 204.185 199.23 204.097 199.146L203.888 199.145L203.732 199.294L185.153 225.865L168.372 221.312C169.293 219.81 169.898 218.102 169.991 216.525L203.61 197.115C204.033 196.871 204.432 196.755 204.787 196.755C205.645 196.755 206.235 197.435 206.238 198.613L206.326 229.47C206.331 231.131 205.163 233.157 203.714 233.993L166.698 255.365C166.276 255.608 165.876 255.724 165.523 255.724Z" fill="#1E5BFA"/>
<path d="M203.888 199.146L204.097 199.147C204.185 199.231 204.16 199.433 204.045 199.6L185.595 225.986L204.133 231.016C204.25 231.046 204.276 231.222 204.19 231.405C204.137 231.515 204.059 231.601 203.979 231.647L203.824 231.681L185.155 226.615L166.576 253.185L166.421 253.332L166.209 253.333C166.123 253.249 166.146 253.046 166.264 252.881L184.713 226.495L166.174 221.465C166.056 221.433 166.032 221.26 166.116 221.075C166.169 220.966 166.249 220.877 166.33 220.83L166.484 220.801L185.153 225.866L203.732 199.295L203.888 199.146Z" fill="white"/>
<path d="M200.015 128.44C202.429 127.046 204.394 128.166 204.403 130.94C204.411 133.716 202.458 137.091 200.044 138.485L163.625 159.511C161.211 160.905 159.25 159.788 159.242 157.014C159.235 154.238 161.181 150.86 163.597 149.466L200.015 128.44Z" fill="#1E5BFA"/>
<path d="M159.243 157.099C159.243 157.07 159.242 157.041 159.242 157.013C159.242 157.007 159.242 157.002 159.242 156.997C159.242 154.224 161.186 150.857 163.597 149.466L200.015 128.439C200.72 128.032 201.386 127.84 201.977 127.84C203.41 127.84 204.396 128.974 204.403 130.939C204.403 130.945 204.403 130.951 204.403 130.956C204.403 133.727 202.453 137.093 200.044 138.485L169.778 155.958C169.53 154.202 168.483 153.209 167.044 153.209C166.364 153.209 165.596 153.432 164.783 153.9L159.243 157.099Z" fill="#1E5BFA"/>
<path d="M200.015 142.537C202.429 141.142 204.394 142.262 204.403 145.038C204.411 147.812 202.458 151.188 200.044 152.582L163.625 173.608C161.211 175.002 159.25 173.885 159.242 171.11C159.235 168.336 161.181 164.957 163.597 163.563L200.015 142.537Z" fill="#1E5BFA"/>
<path d="M169.872 170.002L169.844 159.956L200.015 142.537C200.72 142.13 201.385 141.938 201.976 141.938C203.409 141.938 204.396 143.072 204.403 145.038C204.403 145.043 204.403 145.048 204.403 145.054C204.403 147.826 202.453 151.191 200.043 152.582L169.872 170.002Z" fill="#1E5BFA"/>
<path d="M200.015 156.636C202.429 155.241 204.394 156.36 204.403 159.135C204.411 161.91 202.458 165.286 200.044 166.68L163.625 187.707C161.211 189.1 159.25 187.984 159.242 185.208C159.235 182.434 161.181 179.055 163.597 177.661L200.015 156.636Z" fill="#1E5BFA"/>
<path d="M169.913 184.075L169.885 174.031L200.016 156.635C200.721 156.227 201.386 156.035 201.977 156.035C203.41 156.035 204.397 157.169 204.404 159.134C204.404 159.14 204.404 159.146 204.404 159.151C204.404 161.923 202.454 165.288 200.044 166.679L169.913 184.075Z" fill="#1E5BFA"/>
<path d="M264.177 54.5323C264.172 52.4502 263.439 50.9825 262.261 50.2777L262.229 50.2558L262.184 50.23C260.973 49.5519 259.311 49.6595 257.481 50.7158L72.1125 157.465C68.4235 159.595 65.4471 164.758 65.459 168.989L65.4787 177.635L264.196 62.9435L264.177 54.5323Z" fill="#1E5BFA"/>
<path d="M65.4787 177.635L65.459 168.989C65.459 168.982 65.459 168.974 65.459 168.966C65.459 168.965 65.459 168.965 65.459 168.965C65.4586 164.738 68.4306 159.591 72.1125 157.465L257.481 50.7158C258.554 50.0967 259.569 49.8034 260.469 49.8034C261.105 49.8034 261.683 49.9491 262.184 50.23L262.229 50.2558L262.261 50.2777C263.439 50.9825 264.172 52.4502 264.177 54.5323L264.196 62.9435L65.4787 177.635ZM75.1022 163.259C74.8563 163.259 74.5788 163.34 74.2856 163.51C73.2799 164.09 72.4681 165.497 72.4714 166.652C72.4737 167.469 72.8841 167.942 73.4809 167.942C73.7264 167.942 74.0039 167.862 74.2971 167.692C75.3028 167.112 76.1146 165.705 76.1116 164.55C76.1091 163.732 75.6987 163.259 75.1022 163.259ZM80.0733 160.39C79.8276 160.39 79.5504 160.47 79.257 160.639C78.2512 161.219 77.4391 162.627 77.4425 163.781C77.4447 164.599 77.855 165.072 78.4522 165.072C78.6979 165.072 78.9751 164.991 79.2685 164.822C80.2733 164.241 81.0867 162.835 81.0829 161.679C81.081 160.862 80.6705 160.39 80.0733 160.39ZM85.0451 157.519C84.7994 157.519 84.5213 157.6 84.2279 157.768C83.2231 158.349 82.4106 159.756 82.4144 160.911C82.4163 161.729 82.8268 162.201 83.4231 162.201C83.6698 162.201 83.9469 162.121 84.2403 161.952C85.2451 161.372 86.0576 159.965 86.0538 158.809C86.0519 157.991 85.6413 157.519 85.0451 157.519Z" fill="#1644BA"/>
<path d="M73.4801 167.942C72.8833 167.942 72.473 167.47 72.4707 166.653C72.4674 165.497 73.2792 164.091 74.2849 163.511C74.578 163.341 74.8556 163.26 75.1015 163.26C75.6979 163.26 76.1083 163.733 76.1109 164.551C76.1139 165.706 75.3021 167.113 74.2964 167.693C74.0032 167.862 73.7257 167.942 73.4801 167.942Z" fill="#B892C4"/>
<path d="M78.4511 165.072C77.8539 165.072 77.4436 164.6 77.4414 163.782C77.438 162.627 78.2501 161.22 79.2559 160.64C79.5493 160.47 79.8265 160.39 80.0722 160.39C80.6694 160.39 81.0799 160.862 81.0818 161.68C81.0856 162.835 80.2722 164.242 79.2674 164.823C78.974 164.991 78.6968 165.072 78.4511 165.072Z" fill="#B892C4"/>
<path d="M83.4227 162.202C82.8265 162.202 82.416 161.73 82.4141 160.913C82.4103 159.757 83.2227 158.35 84.2276 157.769C84.5209 157.601 84.799 157.52 85.0448 157.52C85.641 157.52 86.0515 157.992 86.0534 158.81C86.0572 159.966 85.2448 161.373 84.2399 161.953C83.9466 162.122 83.6694 162.202 83.4227 162.202Z" fill="#B892C4"/>
<path d="M74.2849 163.51C75.2898 162.929 76.1076 163.395 76.1109 164.55C76.1139 165.706 75.3021 167.112 74.2964 167.692C73.2914 168.273 72.4737 167.807 72.4707 166.652C72.4674 165.497 73.2792 164.09 74.2849 163.51Z" fill="white"/>
<path d="M79.2559 160.64C80.2608 160.06 81.0789 160.525 81.0818 161.68C81.0856 162.835 80.2722 164.242 79.2674 164.823C78.2625 165.403 77.4448 164.937 77.4414 163.782C77.438 162.626 78.2501 161.22 79.2559 160.64Z" fill="white"/>
<path d="M84.2276 157.768C85.2334 157.188 86.0505 157.654 86.0534 158.81C86.0572 159.965 85.2448 161.372 84.2399 161.952C83.2341 162.532 82.4169 162.066 82.4141 160.912C82.4103 159.756 83.2227 158.349 84.2276 157.768Z" fill="white"/>
<path d="M281.694 93.6391C282.59 93.1228 283.319 93.5381 283.322 94.5706L283.609 195.79C283.612 196.823 282.887 198.078 281.992 198.595L242.01 221.678C241.116 222.195 240.386 221.779 240.383 220.747L240.096 119.527C240.093 118.494 240.818 117.24 241.713 116.723L281.694 93.6391Z" fill="#1E5BFA"/>
<path d="M281.146 97.1289C281.521 97.066 281.609 97.2927 281.52 97.5756L262.3 157.401L281.794 194.871C281.886 195.053 281.8 195.381 281.596 195.608C281.275 195.836 281.127 195.82 281.058 195.687L261.853 158.782L242.924 217.704C242.856 217.916 242.709 218.101 242.556 218.189C242.183 218.253 242.095 218.027 242.186 217.74L261.405 157.919L241.91 120.444C241.817 120.266 241.905 119.938 242.109 119.711C242.432 119.481 242.579 119.499 242.646 119.632L261.847 156.539L280.779 97.6156C280.845 97.4051 280.993 97.2184 281.146 97.1289Z" fill="white"/>
<path d="M164.783 153.901C167.566 152.294 169.826 153.583 169.835 156.78L170.004 216.09C170.012 219.282 167.767 223.176 164.984 224.783L93.8347 265.862C91.0517 267.467 88.7924 266.175 88.7839 262.982L88.6153 203.673C88.6057 200.475 90.8507 196.586 93.6338 194.98L164.783 153.901Z" fill="#1E5BFA"/>
<path d="M91.5764 266.553C89.9249 266.553 88.7895 265.244 88.7838 262.983L88.7676 257.367L88.7648 256.289L88.6152 203.673C88.6152 203.668 88.6152 203.661 88.6152 203.655C88.6143 200.461 90.8564 196.583 93.6337 194.98L164.783 153.902C165.597 153.433 166.364 153.21 167.044 153.21C168.695 153.21 169.829 154.517 169.835 156.781L170.004 216.091C170.004 216.096 170.004 216.103 170.004 216.109C170.004 217.796 169.376 219.678 168.373 221.314C168.241 221.53 168.102 221.742 167.956 221.949C167.124 223.132 166.098 224.141 164.984 224.784L163.989 225.359L156.012 229.964L155.13 230.474L125.394 247.641L124.512 248.15L119.134 251.255L109.831 256.626L108.95 257.136L93.8347 265.862C93.0232 266.331 92.2555 266.553 91.5764 266.553Z" fill="#FDFDFD"/>
<path d="M165.316 157.803C165.47 157.714 165.622 157.708 165.72 157.804C165.889 157.968 165.84 158.355 165.618 158.677L130.157 209.391L165.79 219.059C166.013 219.119 166.063 219.455 165.897 219.806C165.797 220.02 165.648 220.184 165.494 220.273C165.39 220.334 165.285 220.358 165.195 220.337L129.311 210.6L93.6003 261.672C93.5098 261.796 93.406 261.893 93.3022 261.953C93.1479 262.042 92.9936 262.054 92.8936 261.954C92.7298 261.793 92.7736 261.403 92.9993 261.085L128.461 210.37L92.8288 200.703C92.6012 200.641 92.5555 200.307 92.7174 199.952C92.8174 199.742 92.9707 199.572 93.126 199.482C93.2298 199.422 93.3346 199.399 93.4241 199.425L129.307 209.162L165.017 158.09C165.107 157.961 165.212 157.863 165.316 157.803Z" fill="#1E5BFA"/>
<path d="M140.98 304.638L140.734 298.793L140.98 304.636V304.638Z" fill="#8E9090"/>
<path d="M140.585 295.206V295.205L140.508 293.369C140.508 293.367 140.508 293.367 140.508 293.367L140.585 295.206Z" fill="#1644BA"/>
</svg>
