<svg width="36" height="45" viewBox="0 0 36 45" fill="none" xmlns="http://www.w3.org/2000/svg">
<path d="M5.39373 0.695312H20.5735C21.6464 0.695312 22.6753 1.12151 23.434 1.88015L34.5486 12.9948C35.3072 13.7534 35.7334 14.7824 35.7334 15.8552V39.1752C35.7334 39.3667 35.7213 39.5592 35.6879 39.7477C35.0613 43.2861 32.5554 44.1822 31.351 44.1822C22.9233 44.2946 5.52857 44.4519 3.37108 44.1822C1.62242 43.9637 0.641462 42.8445 0.212824 42.0094C0.0411859 41.675 0 41.2947 0 40.9188V7.43747C0.17368 4.65859 1.10236 3.22193 2.01167 2.19105C2.85396 1.23616 4.12044 0.695312 5.39373 0.695312Z" fill="#1E5BFA"/>
<rect x="9.10156" y="18.2246" width="10.7875" height="3.37108" rx="1.68554" fill="white"/>
<rect x="9.10156" y="27.6641" width="17.5296" height="3.37108" rx="1.68554" fill="white"/>
</svg>
