<svg width="44" height="44" viewBox="0 0 44 44" fill="none" xmlns="http://www.w3.org/2000/svg">
<path d="M14.9522 12.5692C24.6951 -0.76317 37.6001 -0.464047 42.8348 1.35206C45.1423 15.4536 35.6772 25.8161 30.6562 29.2347V35.6445L22.644 40.4518H20.721V35.0035L17.5161 35.6445L7.90145 26.9912V22.8249L3.0941 22.5044L2.45312 20.9019L7.26047 12.5692H14.9522Z" fill="#1E5BFA"/>
<path d="M11.319 36.3915C11.6807 40.7909 8.16904 42.4328 5.97904 42.6956L4.37659 39.8113L1.49219 42.6956V38.0396C1.49219 36.4583 1.68735 34.805 2.67235 33.5679C4.04643 31.8421 5.77807 31.4954 7.33986 31.7472C9.55364 32.104 11.1353 34.1567 11.319 36.3915Z" fill="#1E5BFA"/>
<rect x="25.207" y="6.80078" width="11.5376" height="12.2163" rx="5.76881" fill="white"/>
<rect x="12.7109" y="0.390625" width="3.58948" height="9.25145" rx="1.79474" transform="rotate(41.1986 12.7109 0.390625)" fill="#1E5BFA"/>
<rect x="40.2734" y="27.9531" width="3.58948" height="9.25145" rx="1.79474" transform="rotate(41.1986 40.2734 27.9531)" fill="#1E5BFA"/>
<rect x="5.01953" y="1.03125" width="3.58948" height="7.09946" rx="1.79474" transform="rotate(41.1986 5.01953 1.03125)" fill="#1E5BFA"/>
<rect x="38.8555" y="36.2852" width="3.58948" height="7.09946" rx="1.79474" transform="rotate(41.1986 38.8555 36.2852)" fill="#1E5BFA"/>
</svg>
